<svg xmlns="http://www.w3.org/2000/svg" xmlns:xlink="http://www.w3.org/1999/xlink" viewBox="0 0 364.07 229.33"><defs><style>.cls-1,.cls-2{fill:none;}.cls-2{stroke:#63594c;stroke-width:1.44px;}.cls-3{fill:#a8c1af;}.cls-4{fill:#b7b09e;}.cls-5{fill:#8c8577;}.cls-6{fill:url(#New_Pattern_13);}.cls-7{fill:url(#New_Pattern_13-3);}.cls-8{fill:#8ba592;}.cls-9{fill:url(#New_Pattern_13-5);}.cls-10{fill:#67846e;}.cls-11{fill:url(#New_Pattern_13-11);}.cls-12{fill:#bfbaa9;}.cls-13{fill:#9b9286;}.cls-14{fill:url(#New_Pattern_13-13);}.cls-15{fill:#aaa393;}.cls-16{fill:url(#New_Pattern_13-15);}</style><pattern id="New_Pattern_13" data-name="New Pattern 13" width="72" height="72" patternTransform="translate(-413.73 -277.19) rotate(-45)" patternUnits="userSpaceOnUse" viewBox="0 0 72 72"><rect class="cls-1" width="72" height="72"/><line class="cls-2" x1="71.75" y1="68.4" x2="144.25" y2="68.4"/><line class="cls-2" x1="71.75" y1="54" x2="144.25" y2="54"/><line class="cls-2" x1="71.75" y1="39.6" x2="144.25" y2="39.6"/><line class="cls-2" x1="71.75" y1="25.2" x2="144.25" y2="25.2"/><line class="cls-2" x1="71.75" y1="10.8" x2="144.25" y2="10.8"/><line class="cls-2" x1="71.75" y1="61.2" x2="144.25" y2="61.2"/><line class="cls-2" x1="71.75" y1="46.8" x2="144.25" y2="46.8"/><line class="cls-2" x1="71.75" y1="32.4" x2="144.25" y2="32.4"/><line class="cls-2" x1="71.75" y1="18" x2="144.25" y2="18"/><line class="cls-2" x1="71.75" y1="3.6" x2="144.25" y2="3.6"/><line class="cls-2" x1="-0.25" y1="68.4" x2="72.25" y2="68.4"/><line class="cls-2" x1="-0.25" y1="54" x2="72.25" y2="54"/><line class="cls-2" x1="-0.25" y1="39.6" x2="72.25" y2="39.6"/><line class="cls-2" x1="-0.25" y1="25.2" x2="72.25" y2="25.2"/><line class="cls-2" x1="-0.25" y1="10.8" x2="72.25" y2="10.8"/><line class="cls-2" x1="-0.25" y1="61.2" x2="72.25" y2="61.2"/><line class="cls-2" x1="-0.25" y1="46.8" x2="72.25" y2="46.8"/><line class="cls-2" x1="-0.25" y1="32.4" x2="72.25" y2="32.4"/><line class="cls-2" x1="-0.25" y1="18" x2="72.25" y2="18"/><line class="cls-2" x1="-0.25" y1="3.6" x2="72.25" y2="3.6"/><line class="cls-2" x1="-72.25" y1="68.4" x2="0.25" y2="68.4"/><line class="cls-2" x1="-72.25" y1="54" x2="0.25" y2="54"/><line class="cls-2" x1="-72.25" y1="39.6" x2="0.25" y2="39.6"/><line class="cls-2" x1="-72.25" y1="25.2" x2="0.25" y2="25.2"/><line class="cls-2" x1="-72.25" y1="10.8" x2="0.25" y2="10.8"/><line class="cls-2" x1="-72.25" y1="61.2" x2="0.25" y2="61.2"/><line class="cls-2" x1="-72.25" y1="46.8" x2="0.25" y2="46.8"/><line class="cls-2" x1="-72.25" y1="32.4" x2="0.25" y2="32.4"/><line class="cls-2" x1="-72.25" y1="18" x2="0.25" y2="18"/><line class="cls-2" x1="-72.25" y1="3.6" x2="0.25" y2="3.6"/></pattern><pattern id="New_Pattern_13-3" data-name="New Pattern 13" width="72" height="72" patternTransform="translate(-415.37 -345.23) rotate(-45)" patternUnits="userSpaceOnUse" viewBox="0 0 72 72"><rect class="cls-1" width="72" height="72"/><line class="cls-2" x1="71.75" y1="68.4" x2="144.25" y2="68.4"/><line class="cls-2" x1="71.75" y1="54" x2="144.25" y2="54"/><line class="cls-2" x1="71.75" y1="39.6" x2="144.25" y2="39.6"/><line class="cls-2" x1="71.75" y1="25.2" x2="144.25" y2="25.2"/><line class="cls-2" x1="71.75" y1="10.8" x2="144.25" y2="10.8"/><line class="cls-2" x1="71.75" y1="61.2" x2="144.25" y2="61.2"/><line class="cls-2" x1="71.75" y1="46.8" x2="144.25" y2="46.8"/><line class="cls-2" x1="71.75" y1="32.4" x2="144.25" y2="32.4"/><line class="cls-2" x1="71.75" y1="18" x2="144.25" y2="18"/><line class="cls-2" x1="71.75" y1="3.6" x2="144.25" y2="3.6"/><line class="cls-2" x1="-0.25" y1="68.4" x2="72.25" y2="68.4"/><line class="cls-2" x1="-0.25" y1="54" x2="72.25" y2="54"/><line class="cls-2" x1="-0.25" y1="39.6" x2="72.25" y2="39.6"/><line class="cls-2" x1="-0.25" y1="25.2" x2="72.25" y2="25.2"/><line class="cls-2" x1="-0.25" y1="10.8" x2="72.25" y2="10.8"/><line class="cls-2" x1="-0.25" y1="61.2" x2="72.25" y2="61.2"/><line class="cls-2" x1="-0.25" y1="46.8" x2="72.25" y2="46.8"/><line class="cls-2" x1="-0.25" y1="32.4" x2="72.25" y2="32.4"/><line class="cls-2" x1="-0.25" y1="18" x2="72.25" y2="18"/><line class="cls-2" x1="-0.25" y1="3.6" x2="72.25" y2="3.6"/><line class="cls-2" x1="-72.25" y1="68.4" x2="0.25" y2="68.4"/><line class="cls-2" x1="-72.25" y1="54" x2="0.25" y2="54"/><line class="cls-2" x1="-72.25" y1="39.6" x2="0.25" y2="39.6"/><line class="cls-2" x1="-72.25" y1="25.2" x2="0.25" y2="25.2"/><line class="cls-2" x1="-72.25" y1="10.8" x2="0.25" y2="10.8"/><line class="cls-2" x1="-72.25" y1="61.2" x2="0.25" y2="61.2"/><line class="cls-2" x1="-72.25" y1="46.8" x2="0.25" y2="46.8"/><line class="cls-2" x1="-72.25" y1="32.4" x2="0.25" y2="32.4"/><line class="cls-2" x1="-72.25" y1="18" x2="0.25" y2="18"/><line class="cls-2" x1="-72.25" y1="3.6" x2="0.25" y2="3.6"/></pattern><pattern id="New_Pattern_13-5" data-name="New Pattern 13" width="72" height="72" patternTransform="translate(-429.4 -310.65) rotate(-45)" patternUnits="userSpaceOnUse" viewBox="0 0 72 72"><rect class="cls-1" width="72" height="72"/><line class="cls-2" x1="71.75" y1="68.4" x2="144.25" y2="68.4"/><line class="cls-2" x1="71.75" y1="54" x2="144.25" y2="54"/><line class="cls-2" x1="71.75" y1="39.6" x2="144.25" y2="39.6"/><line class="cls-2" x1="71.75" y1="25.2" x2="144.25" y2="25.2"/><line class="cls-2" x1="71.75" y1="10.8" x2="144.25" y2="10.8"/><line class="cls-2" x1="71.75" y1="61.2" x2="144.25" y2="61.2"/><line class="cls-2" x1="71.75" y1="46.8" x2="144.25" y2="46.8"/><line class="cls-2" x1="71.75" y1="32.4" x2="144.25" y2="32.4"/><line class="cls-2" x1="71.75" y1="18" x2="144.25" y2="18"/><line class="cls-2" x1="71.75" y1="3.6" x2="144.25" y2="3.6"/><line class="cls-2" x1="-0.25" y1="68.4" x2="72.25" y2="68.4"/><line class="cls-2" x1="-0.25" y1="54" x2="72.25" y2="54"/><line class="cls-2" x1="-0.25" y1="39.6" x2="72.25" y2="39.6"/><line class="cls-2" x1="-0.25" y1="25.2" x2="72.25" y2="25.2"/><line class="cls-2" x1="-0.25" y1="10.8" x2="72.25" y2="10.8"/><line class="cls-2" x1="-0.25" y1="61.2" x2="72.25" y2="61.2"/><line class="cls-2" x1="-0.25" y1="46.8" x2="72.25" y2="46.8"/><line class="cls-2" x1="-0.25" y1="32.4" x2="72.25" y2="32.4"/><line class="cls-2" x1="-0.25" y1="18" x2="72.25" y2="18"/><line class="cls-2" x1="-0.25" y1="3.6" x2="72.25" y2="3.6"/><line class="cls-2" x1="-72.25" y1="68.4" x2="0.25" y2="68.4"/><line class="cls-2" x1="-72.25" y1="54" x2="0.25" y2="54"/><line class="cls-2" x1="-72.25" y1="39.6" x2="0.25" y2="39.6"/><line class="cls-2" x1="-72.25" y1="25.2" x2="0.25" y2="25.2"/><line class="cls-2" x1="-72.25" y1="10.8" x2="0.25" y2="10.8"/><line class="cls-2" x1="-72.25" y1="61.2" x2="0.25" y2="61.2"/><line class="cls-2" x1="-72.25" y1="46.8" x2="0.25" y2="46.8"/><line class="cls-2" x1="-72.25" y1="32.4" x2="0.25" y2="32.4"/><line class="cls-2" x1="-72.25" y1="18" x2="0.25" y2="18"/><line class="cls-2" x1="-72.25" y1="3.6" x2="0.25" y2="3.6"/></pattern><pattern id="New_Pattern_13-11" data-name="New Pattern 13" width="72" height="72" patternTransform="translate(-429.08 -310.45) rotate(-45)" patternUnits="userSpaceOnUse" viewBox="0 0 72 72"><rect class="cls-1" width="72" height="72"/><line class="cls-2" x1="71.75" y1="68.4" x2="144.25" y2="68.4"/><line class="cls-2" x1="71.75" y1="54" x2="144.25" y2="54"/><line class="cls-2" x1="71.75" y1="39.6" x2="144.25" y2="39.6"/><line class="cls-2" x1="71.75" y1="25.2" x2="144.25" y2="25.2"/><line class="cls-2" x1="71.75" y1="10.8" x2="144.25" y2="10.8"/><line class="cls-2" x1="71.75" y1="61.2" x2="144.25" y2="61.2"/><line class="cls-2" x1="71.75" y1="46.8" x2="144.25" y2="46.8"/><line class="cls-2" x1="71.75" y1="32.4" x2="144.25" y2="32.4"/><line class="cls-2" x1="71.75" y1="18" x2="144.25" y2="18"/><line class="cls-2" x1="71.75" y1="3.6" x2="144.25" y2="3.6"/><line class="cls-2" x1="-0.25" y1="68.4" x2="72.25" y2="68.4"/><line class="cls-2" x1="-0.25" y1="54" x2="72.25" y2="54"/><line class="cls-2" x1="-0.25" y1="39.6" x2="72.25" y2="39.6"/><line class="cls-2" x1="-0.25" y1="25.2" x2="72.25" y2="25.2"/><line class="cls-2" x1="-0.25" y1="10.8" x2="72.25" y2="10.8"/><line class="cls-2" x1="-0.25" y1="61.2" x2="72.25" y2="61.2"/><line class="cls-2" x1="-0.25" y1="46.8" x2="72.25" y2="46.8"/><line class="cls-2" x1="-0.25" y1="32.4" x2="72.25" y2="32.4"/><line class="cls-2" x1="-0.25" y1="18" x2="72.25" y2="18"/><line class="cls-2" x1="-0.25" y1="3.6" x2="72.25" y2="3.6"/><line class="cls-2" x1="-72.25" y1="68.4" x2="0.25" y2="68.4"/><line class="cls-2" x1="-72.25" y1="54" x2="0.25" y2="54"/><line class="cls-2" x1="-72.25" y1="39.6" x2="0.25" y2="39.6"/><line class="cls-2" x1="-72.25" y1="25.2" x2="0.25" y2="25.2"/><line class="cls-2" x1="-72.25" y1="10.8" x2="0.25" y2="10.8"/><line class="cls-2" x1="-72.25" y1="61.2" x2="0.25" y2="61.2"/><line class="cls-2" x1="-72.25" y1="46.8" x2="0.25" y2="46.8"/><line class="cls-2" x1="-72.25" y1="32.4" x2="0.25" y2="32.4"/><line class="cls-2" x1="-72.25" y1="18" x2="0.25" y2="18"/><line class="cls-2" x1="-72.25" y1="3.6" x2="0.25" y2="3.6"/></pattern><pattern id="New_Pattern_13-13" data-name="New Pattern 13" width="72" height="72" patternTransform="translate(-409.02 -250.31) rotate(-45)" patternUnits="userSpaceOnUse" viewBox="0 0 72 72"><rect class="cls-1" width="72" height="72"/><line class="cls-2" x1="71.75" y1="68.4" x2="144.25" y2="68.4"/><line class="cls-2" x1="71.75" y1="54" x2="144.25" y2="54"/><line class="cls-2" x1="71.75" y1="39.6" x2="144.25" y2="39.6"/><line class="cls-2" x1="71.75" y1="25.2" x2="144.25" y2="25.2"/><line class="cls-2" x1="71.75" y1="10.8" x2="144.25" y2="10.8"/><line class="cls-2" x1="71.75" y1="61.2" x2="144.25" y2="61.2"/><line class="cls-2" x1="71.75" y1="46.8" x2="144.25" y2="46.8"/><line class="cls-2" x1="71.75" y1="32.4" x2="144.25" y2="32.4"/><line class="cls-2" x1="71.75" y1="18" x2="144.25" y2="18"/><line class="cls-2" x1="71.75" y1="3.6" x2="144.25" y2="3.6"/><line class="cls-2" x1="-0.25" y1="68.4" x2="72.25" y2="68.4"/><line class="cls-2" x1="-0.25" y1="54" x2="72.25" y2="54"/><line class="cls-2" x1="-0.25" y1="39.6" x2="72.25" y2="39.6"/><line class="cls-2" x1="-0.25" y1="25.2" x2="72.25" y2="25.2"/><line class="cls-2" x1="-0.25" y1="10.8" x2="72.25" y2="10.8"/><line class="cls-2" x1="-0.25" y1="61.2" x2="72.25" y2="61.2"/><line class="cls-2" x1="-0.25" y1="46.8" x2="72.25" y2="46.8"/><line class="cls-2" x1="-0.25" y1="32.4" x2="72.25" y2="32.4"/><line class="cls-2" x1="-0.25" y1="18" x2="72.25" y2="18"/><line class="cls-2" x1="-0.25" y1="3.6" x2="72.25" y2="3.6"/><line class="cls-2" x1="-72.25" y1="68.4" x2="0.25" y2="68.4"/><line class="cls-2" x1="-72.25" y1="54" x2="0.25" y2="54"/><line class="cls-2" x1="-72.25" y1="39.6" x2="0.25" y2="39.6"/><line class="cls-2" x1="-72.25" y1="25.2" x2="0.25" y2="25.2"/><line class="cls-2" x1="-72.25" y1="10.8" x2="0.25" y2="10.8"/><line class="cls-2" x1="-72.25" y1="61.2" x2="0.25" y2="61.2"/><line class="cls-2" x1="-72.25" y1="46.8" x2="0.25" y2="46.8"/><line class="cls-2" x1="-72.25" y1="32.4" x2="0.25" y2="32.4"/><line class="cls-2" x1="-72.25" y1="18" x2="0.25" y2="18"/><line class="cls-2" x1="-72.25" y1="3.6" x2="0.25" y2="3.6"/></pattern><pattern id="New_Pattern_13-15" data-name="New Pattern 13" width="72" height="72" patternTransform="translate(-383.05 -264.98) rotate(-45)" patternUnits="userSpaceOnUse" viewBox="0 0 72 72"><rect class="cls-1" width="72" height="72"/><line class="cls-2" x1="71.75" y1="68.4" x2="144.25" y2="68.4"/><line class="cls-2" x1="71.75" y1="54" x2="144.25" y2="54"/><line class="cls-2" x1="71.75" y1="39.6" x2="144.25" y2="39.6"/><line class="cls-2" x1="71.75" y1="25.2" x2="144.25" y2="25.2"/><line class="cls-2" x1="71.75" y1="10.8" x2="144.25" y2="10.8"/><line class="cls-2" x1="71.75" y1="61.2" x2="144.25" y2="61.2"/><line class="cls-2" x1="71.75" y1="46.8" x2="144.25" y2="46.8"/><line class="cls-2" x1="71.75" y1="32.4" x2="144.25" y2="32.4"/><line class="cls-2" x1="71.75" y1="18" x2="144.25" y2="18"/><line class="cls-2" x1="71.75" y1="3.6" x2="144.25" y2="3.6"/><line class="cls-2" x1="-0.25" y1="68.4" x2="72.25" y2="68.4"/><line class="cls-2" x1="-0.25" y1="54" x2="72.25" y2="54"/><line class="cls-2" x1="-0.25" y1="39.6" x2="72.25" y2="39.6"/><line class="cls-2" x1="-0.25" y1="25.2" x2="72.25" y2="25.2"/><line class="cls-2" x1="-0.25" y1="10.8" x2="72.25" y2="10.8"/><line class="cls-2" x1="-0.25" y1="61.2" x2="72.25" y2="61.2"/><line class="cls-2" x1="-0.25" y1="46.8" x2="72.25" y2="46.8"/><line class="cls-2" x1="-0.25" y1="32.4" x2="72.25" y2="32.4"/><line class="cls-2" x1="-0.25" y1="18" x2="72.25" y2="18"/><line class="cls-2" x1="-0.25" y1="3.6" x2="72.25" y2="3.6"/><line class="cls-2" x1="-72.25" y1="68.4" x2="0.25" y2="68.4"/><line class="cls-2" x1="-72.25" y1="54" x2="0.25" y2="54"/><line class="cls-2" x1="-72.25" y1="39.6" x2="0.25" y2="39.6"/><line class="cls-2" x1="-72.25" y1="25.2" x2="0.25" y2="25.2"/><line class="cls-2" x1="-72.25" y1="10.8" x2="0.25" y2="10.8"/><line class="cls-2" x1="-72.25" y1="61.2" x2="0.25" y2="61.2"/><line class="cls-2" x1="-72.25" y1="46.8" x2="0.25" y2="46.8"/><line class="cls-2" x1="-72.25" y1="32.4" x2="0.25" y2="32.4"/><line class="cls-2" x1="-72.25" y1="18" x2="0.25" y2="18"/><line class="cls-2" x1="-72.25" y1="3.6" x2="0.25" y2="3.6"/></pattern></defs><g id="Layer_2" data-name="Layer 2"><g id="regular"><g id="tracks"><path class="cls-3" d="M357.52,195.44c4.34,2.56,6.57,5,6.55,7.55-.07,8.35-24.64,15.41-42.17,17.93C300.57,224,287,220.76,271,219c-65.22-7.24-79,20.18-128.61,6.4-11.36-3.15-21-7.46-39.12-9.31-19.48-2-23.42,1.47-46.54,1C34.55,216.57.85,212.57,0,204.44c-.33-3.13,4.26-6.21,9.66-9,33.05-17.1,73.53-11.48,112-10.39,9.68.28,28.27-.62,65.44-2.42C216.27,181.22,323.61,175.37,357.52,195.44Z"/></g><g id="new_no_outline_rock" data-name="new no outline rock"><path class="cls-4" d="M109.68,192.43c-7-8.72-3.31-22-.73-31.34,1.66-6,6-21.83,20.06-29a36.34,36.34,0,0,1,12.34-3.54,43,43,0,0,1,23.31,3.54,42.46,42.46,0,0,1,14.64,11.46,47.3,47.3,0,0,1,9.55,17.83c1.14,4,6.27,22.32-2.86,32.78-6.19,7.1-18,6.64-41.7,5.73C124.63,199.17,114.69,198.67,109.68,192.43Z"/><path class="cls-5" d="M114.22,164.31c-3.81,1-5.88,10.12-3.64,17.22,2.54,8.07,10.07,11.69,12.18,12.7,1.79.86,4.3,1.81,18.27,2.52,12.54.65,18.81.94,19.2-.66.3-1.2-2.85-2.53-11.25-7.28-11.48-6.49-17.22-9.73-22.18-13.9C118.69,168.09,117.12,163.55,114.22,164.31Z"/><path class="cls-5" d="M131.14,131.72c7.85.52,16.33,1.43,25.32,2.9,5.79.95,11.28,2,16.47,3.23a39.79,39.79,0,0,0-41.79-6.13Z"/><path class="cls-6" d="M109.93,192.43c-9.55-10-1.19-30.28-.74-31.34a74.9,74.9,0,0,0,22.28,22.36c23.2,14.92,47.62,11.9,54.76,10.74a29.26,29.26,0,0,1-4.46,3.3c-9.31,5.59-16.46,2.69-37.24,2.43-11.5-.13-15.71.67-23.45-1.76C117,196.85,113,195.6,109.93,192.43Z"/><path class="cls-4" d="M109.48,100.71c-1.25,2.82.17,6,1.06,7.86,1.15,2.44,4.1,7.56,14.43,13.36a71.24,71.24,0,0,0,21.65,7.85,77.1,77.1,0,0,0,21.44.85c11-.8,17.22-1.34,22.07-6.15,1.19-1.19,5.83-6.13,4.67-11.25-.88-3.82-4.66-6.31-11.68-9.13-12.34-4.95-18.17-4.29-38.41-7.64-6-1-15.74-2.74-26.53-.63C114.68,96.51,110.84,97.65,109.48,100.71Z"/><path class="cls-5" d="M116.87,105.06c-1.29,1,1.61,8.83,7.61,13.9,8.39,7.09,20.65,7,21.19,5.3.34-1.08-4.12-2.37-13.91-8.94C121.56,108.46,118,104.18,116.87,105.06Z"/><path class="cls-7" d="M109.48,100.71a17.11,17.11,0,0,0,.36,5.42c1.82,7.78,8.83,12,15.13,15.8a62.63,62.63,0,0,0,21.65,7.85c2.43.46,4.71.76,6.84.95,1.57.14,5.29.44,14.6-.1,11.9-.68,14.53-1.65,16.3-2.47a26.18,26.18,0,0,0,5.77-3.68c-8.86,1.8-30.6,4.91-54.15-5.5A87.34,87.34,0,0,1,109.48,100.71Z"/><path class="cls-5" d="M123.45,95.59a67.55,67.55,0,0,1,7.45-.72c8.15-.33,10.9,1.09,24.5,3.21,9.86,1.54,13.27,1.56,20.37,3.83,2.65.85,4.81,1.69,6.27,2.3a64.14,64.14,0,0,1-16.27,5.21c-7.14,1.27-18.39,3.26-29.52-2.52A36.36,36.36,0,0,1,123.45,95.59Z"/><path class="cls-4" d="M127.94,75.67c-1.36,1-5.16,3.75-6.17,8.62s1.47,9,2.51,10.73c4.23,6.94,11.61,9.27,16.4,10.78,9.56,3,17.56,1.76,22.92.85,8.1-1.37,12.44-2.11,15.32-6,4.07-5.45,3.09-14.25-1.24-20a18.74,18.74,0,0,0-9.84-6.53c-7.77-1-14.42-1.33-19.52-1.49C134.93,72.29,131.09,73.43,127.94,75.67Z"/><path class="cls-5" d="M129.14,88.07c-1.49.88-1.25,4.7,0,7.39,3.28,7.2,15,9,16.17,7,.78-1.34-2.81-4.73-6.56-8.28C135.46,91.07,131.08,86.94,129.14,88.07Z"/><path class="cls-8" d="M127.94,75.67a18.56,18.56,0,0,0-5.42,6.14,58.49,58.49,0,0,1,11.87.08c17.58,1.92,25.43,11,34.51,7.57,2.31-.86,5.73-2.93,8.78-8.75a17.77,17.77,0,0,0-3.68-3.6,18.14,18.14,0,0,0-6.16-2.93c-7.71-.89-14.33-1.33-19.52-1.49C135.94,72.32,131.67,73,127.94,75.67Z"/><path class="cls-9" d="M122.21,84.71A19.16,19.16,0,0,0,124.28,95c3.64,6.8,10.76,9,16.4,10.78a45.38,45.38,0,0,0,22.92.85c7.33-1.39,15.6-4.54,15.32-6-.39-2-17,3.37-34.87-2.46A56.89,56.89,0,0,1,122.21,84.71Z"/><path class="cls-10" d="M150.88,79.19A71,71,0,0,0,174,77.11a24,24,0,0,0-4.66-2.46c-4.49-1.78-7.5-1.37-13-1.56-10.69-.36-11.79-2.34-18.3-1.21a31.49,31.49,0,0,0-8,2.54A71.18,71.18,0,0,0,150.88,79.19Z"/><path class="cls-4" d="M118.07,59.21a11.2,11.2,0,0,0,2,7.12c4.09,6.27,12.26,7.48,21.86,8.91a67.09,67.09,0,0,0,18.47.21c8.37-.9,11-2.57,11.88-3.18.34-.24,8.18-5.77,7-12.52-.86-4.93-6-7.55-9.12-9.13-4-2-7.3-2.52-20.8-3-17.6-.58-21,0-24.62,2.34C123.29,51,118.57,54.1,118.07,59.21Z"/><path class="cls-5" d="M123.82,59.71c-1,.93.45,5,3,7.89,8,9.07,26.52,5.49,26.64,4,.06-.86-5.67-.43-15.06-4.56C129.55,63.1,125.11,58.53,123.82,59.71Z"/><path class="cls-5" d="M138.86,47.43a15.84,15.84,0,0,0,9.29,5.49c7.74,1.36,13.33-4,13.91-4.54q-6.72-.37-13.62-.64Q143.6,47.56,138.86,47.43Z"/><path class="cls-9" d="M118.07,59.21a14.14,14.14,0,0,0,2,7.12c3.85,6.17,12.16,7.47,21.86,8.91a67.09,67.09,0,0,0,18.47.21c5.64-.6,8.59-1.07,11.53-3l.35-.23a95.4,95.4,0,0,1-32.15-3.53A94.84,94.84,0,0,1,118.07,59.21Z"/><path class="cls-4" d="M141.42,47.63A19.92,19.92,0,0,1,130.6,31.92c-.2-2.05-.75-7.7,3-11.67,4.73-5,12.77-3.52,15.7-3,6.78,1.28,16.47,6.11,17.62,14.22a15.52,15.52,0,0,1-1.7,8.7,17.27,17.27,0,0,1-7.43,7.85C150.33,51.9,142.65,48.24,141.42,47.63Z"/><path class="cls-8" d="M130.6,31.92c-.19-1.27-1-7.43,3-11.67,4.53-4.87,12-3.61,15.7-3a27.14,27.14,0,0,1,14.43,7.64c-6.85-.81-11.39.62-14.29,2.1-4.8,2.47-7.13,6.14-12.16,6.46A12.6,12.6,0,0,1,130.6,31.92Z"/><path class="cls-5" d="M143.6,38.23c2.67-.72,6.3.23,7.34,3a4.82,4.82,0,0,1-1.22,5.23c-3.09,2.49-10.27-1-10.42-4.11C139.22,40.5,141.6,38.77,143.6,38.23Z"/><path class="cls-10" d="M139.05,22.8a34.67,34.67,0,0,0,6.77-2.08,32.7,32.7,0,0,0,5.47-3,27.2,27.2,0,0,0-4.78-.83,20.45,20.45,0,0,0-7.76.55,10.64,10.64,0,0,0-5.47,2.95,9,9,0,0,0-1.85,3.26A40.51,40.51,0,0,0,139.05,22.8Z"/><path class="cls-9" d="M141.42,47.63c-9.12-4.57-10.69-14.72-10.82-15.71.78,1.32,6.5,10.57,17.9,12.27a25.27,25.27,0,0,0,16.33-3.28,17,17,0,0,1-7.07,7.14C150.39,51.88,142.9,48.37,141.42,47.63Z"/><path class="cls-4" d="M137.43.09c-1.91.47-2.68,1.7-8.19,10.25-5.81,9-6.55,10.12-6,11.07.67,1.11,2.76,1.45,18.38-2.26S159,14.22,159.1,12.83s-3.2-3.57-9.88-7.6C140-.31,138.37-.14,137.43.09Z"/><path class="cls-8" d="M136.75.3c-.78.35-1.5,1.26-2.93,3.06a33.57,33.57,0,0,0-3.61,5.58,11.51,11.51,0,0,0,4.93,2.44c4.69,1,7.51-2,13.78-2.36a27.14,27.14,0,0,1,7.25.55c-1.69-1.09-4.07-2.6-6.95-4.34C141.13.32,138.73-.59,136.75.3Z"/><path class="cls-5" d="M130.6,12.63c-1.09.09-1.82,2-2.6,4-.72,1.83-1.08,2.74-.78,3.22.46.73,2,1,11.83-1.73,6.9-1.94,8.36-2.71,8.31-2.86-.11-.39-10.28,3.84-14.23-.14C132.1,14,131.59,12.55,130.6,12.63Z"/><path class="cls-11" d="M129.24,10.34a53.73,53.73,0,0,0-4.79,8.27c-1,2.18-1,2.63-.87,3,1.24,2.6,14-1,18.39-2.26,9.38-2.66,17.57-6,17.44-6.32-.06-.19-5.23,1.93-13.22,3.11-8.33,1.24-11.21.19-13.06-1.06A11.41,11.41,0,0,1,129.24,10.34Z"/><path class="cls-12" d="M20.15,189.61c3.92-5.65,9.25-8.42,19.76-13.73,16.53-8.34,24.89-12.53,29.65-13.17,5.47-.74,13.08-1.79,20.31,2.19,6.68,3.68,4.7,6.73,13.18,13.73s13.67,6.72,17.57,13.72c1.38,2.49,3.49,6.19,2.2,9.34-2.07,5-10.75,3.88-29.1,6C72.35,210.24,68.87,213.55,58,211c-7.66-1.79-6.8-3.65-15.37-5.49-14.83-3.17-23.72,1-26.36-3.29C14,198.46,18.64,191.77,20.15,189.61Z"/><path class="cls-13" d="M35.4,183.44c-4.34-.44-8.26,4.42-9.57,6-1.51,1.88-5,6.16-3.64,8.94,1.43,3,7.16,1.72,15.89,2.65,11.74,1.25,11.23,4.58,22.51,6.29,9.23,1.4,16.5.22,26.82-1.44,8.07-1.31,18.5-3.72,18.35-4.83-.32-2.44-51.17,7.77-62.38-10C42,189,39.6,183.86,35.4,183.44Z"/><path class="cls-14" d="M23.91,185.38a49.56,49.56,0,0,0,9.68,8.88c4.29,3,14.69,9.18,43.32,9.06A201.13,201.13,0,0,0,123,197.73a6.4,6.4,0,0,1-.15,4c-2.2,5.31-11.79,4-29.1,6C72.35,210.24,68.87,213.55,58,211c-7.66-1.79-6.8-3.65-15.37-5.49-9.52-2-23.45,1.44-26.36-3.29-1.79-2.92,1.12-8.12,2.62-10.8A22.3,22.3,0,0,1,23.91,185.38Z"/><path class="cls-15" d="M178.42,200.78c-4.06-10.92,18.45-28.3,25.07-33.4,10.74-8.29,38.34-29.59,77.6-26.36,0,0,32.1,2.64,57.1,24.76,14.47,12.8,14.67,22.45,14.64,24.66a22.08,22.08,0,0,1-2.56,9.88c-6.8,11.62-27.27,8.51-63.32,9.15-32.31.58-42.81,3.56-73.58,1.1C184.71,208.28,179.83,204.57,178.42,200.78Z"/><path class="cls-8" d="M214.71,159.35c6.48-4.65,31.45-21.39,66.38-18.33a99.84,99.84,0,0,1,57.1,24.76c-5.12.22-12.72.48-21.94.53-31,.15-30.07-2.4-45-1.34-25.43,1.79-36.92,9.76-49.07,1.83A26.28,26.28,0,0,1,214.71,159.35Z"/><path class="cls-10" d="M245.32,144.57c3.13.67,7.4,1.49,12.51,2.19,10.83,1.48,18,2.41,26.56.62a49.87,49.87,0,0,0,11.44-3.91,102.35,102.35,0,0,0-50.51,1.1Z"/><path class="cls-15" d="M237.86,129c-.15,5.71,5.36,9.86,6.38,10.63,3.13,2.36,6.12,3,14.53,3.9,14.14,1.58,21.27,2.33,24.81.35.92-.51,8.24-4.75,9.22-13.11a16.92,16.92,0,0,0-5-13.82c-4.22-4.13-9.36-4.5-15.94-5-4.88-.35-13.73-.85-22.68,4.25C245.19,118.52,238,122.6,237.86,129Z"/><path class="cls-5" d="M246.8,133.17c-.73,1.07,1,3.49,2,4.68,2,2.23,4.59,3.09,16.07,4.12,9.37.83,11.69.62,13.47-1.13,1.24-1.22,2.39-3.38,1.68-4.58-1.21-2-6.46.8-14.15.74C255.13,136.92,248.11,131.23,246.8,133.17Z"/><path class="cls-5" d="M267.63,200.15c-44.39.75-50.39-2.75-53.65-7.05-2.34-3.08-3.79-7.26-8.15-8.43-5.51-1.48-12.14,2.81-15.64,7.45-1.73,2.29-4.2,5.57-3.47,8.44,2.1,8.31,29.65,8.33,53.13,8.19,28.67-.16,25.84-2.68,53.73-2.84,23.8-.14,39.2,1.63,40.86-3.61.83-2.61-1.9-6.44-5-8-5.13-2.52-11.7,1.25-14,2.47C310.47,199.42,296.19,199.66,267.63,200.15Z"/><path class="cls-5" d="M248.85,117.05a67.57,67.57,0,0,0,20.79,2.9,67,67,0,0,0,17.73-2.7A21.36,21.36,0,0,0,284.6,115c-6.45-4.32-13.64-3.76-18.2-3.4A42.62,42.62,0,0,0,248.85,117.05Z"/><path class="cls-16" d="M237.86,129a19.3,19.3,0,0,0,6.38,10.63c2.6,2.07,5,2.68,14.53,3.9,19.56,2.52,22.45,1.66,24.81.35a19.73,19.73,0,0,0,7.87-8.36A71.76,71.76,0,0,1,237.86,129Z"/><path class="cls-15" d="M266.54,91.78c-2.47,0-3.76,1.31-12.9,10.16-9.66,9.34-10.86,10.47-10.43,11.8.5,1.55,3,2.55,23,2.47s22.5-1.09,23.06-2.74c.62-1.82-2.87-5.27-9.88-12.08C269.82,92,267.75,91.76,266.54,91.78Z"/><path class="cls-5" d="M252.26,112.42c0,1.27,8.95,2.17,14.63,2.27,5.32.09,12.38-.45,12.45-1.54s-5.86-2.1-6.47-2.22C262.71,109.05,252.24,111.05,252.26,112.42Z"/><path class="cls-16" d="M178.42,200.78c-3.2-7.48,7.61-21.13,25.07-33.4A38.26,38.26,0,0,0,209.2,181c13.19,19.36,42.14,20.51,74.32,21.35a331.71,331.71,0,0,0,68-5.3,13.78,13.78,0,0,1-1.28,3.25c-6.08,11-24.8,8.46-63.32,9.15-32.31.58-42.81,3.56-73.58,1.1C194.5,209.06,181.22,207.31,178.42,200.78Z"/><path class="cls-16" d="M253.64,101.94a49.52,49.52,0,0,1-3.95,3.82,59,59,0,0,0-6.14,6.55,1.64,1.64,0,0,0-.42,1,1.77,1.77,0,0,0,.08.42c.5,1.55,3,2.55,23,2.47,12.23,0,23.11-1.93,23.06-2.74-.05-1-17.33,2.56-31-7.35A32.56,32.56,0,0,1,253.64,101.94Z"/></g></g></g></svg>