<svg xmlns="http://www.w3.org/2000/svg" xmlns:xlink="http://www.w3.org/1999/xlink" viewBox="0 0 319.9 102.22"><defs><style>.cls-1,.cls-2{fill:none;}.cls-2{stroke:#63594c;stroke-width:1.44px;}.cls-3{fill:#b7b09e;}.cls-4{fill:#8c8577;}.cls-5{fill:url(#New_Pattern_13);}.cls-6{fill:url(#New_Pattern_13-3);}.cls-7{fill:#c0e0ec;}.cls-8{fill:#63594c;}.cls-9{fill:#fff;}.cls-10{fill:#a8c1af;}.cls-11{fill:#d3b49c;}</style><pattern id="New_Pattern_13" data-name="New Pattern 13" width="72" height="72" patternTransform="translate(-446.14 -214.68) rotate(-45) scale(0.98)" patternUnits="userSpaceOnUse" viewBox="0 0 72 72"><rect class="cls-1" width="72" height="72"/><line class="cls-2" x1="71.75" y1="68.4" x2="144.25" y2="68.4"/><line class="cls-2" x1="71.75" y1="54" x2="144.25" y2="54"/><line class="cls-2" x1="71.75" y1="39.6" x2="144.25" y2="39.6"/><line class="cls-2" x1="71.75" y1="25.2" x2="144.25" y2="25.2"/><line class="cls-2" x1="71.75" y1="10.8" x2="144.25" y2="10.8"/><line class="cls-2" x1="71.75" y1="61.2" x2="144.25" y2="61.2"/><line class="cls-2" x1="71.75" y1="46.8" x2="144.25" y2="46.8"/><line class="cls-2" x1="71.75" y1="32.4" x2="144.25" y2="32.4"/><line class="cls-2" x1="71.75" y1="18" x2="144.25" y2="18"/><line class="cls-2" x1="71.75" y1="3.6" x2="144.25" y2="3.6"/><line class="cls-2" x1="-0.25" y1="68.4" x2="72.25" y2="68.4"/><line class="cls-2" x1="-0.25" y1="54" x2="72.25" y2="54"/><line class="cls-2" x1="-0.25" y1="39.6" x2="72.25" y2="39.6"/><line class="cls-2" x1="-0.25" y1="25.2" x2="72.25" y2="25.2"/><line class="cls-2" x1="-0.25" y1="10.8" x2="72.25" y2="10.8"/><line class="cls-2" x1="-0.25" y1="61.2" x2="72.25" y2="61.2"/><line class="cls-2" x1="-0.25" y1="46.8" x2="72.25" y2="46.8"/><line class="cls-2" x1="-0.25" y1="32.4" x2="72.25" y2="32.4"/><line class="cls-2" x1="-0.25" y1="18" x2="72.25" y2="18"/><line class="cls-2" x1="-0.25" y1="3.6" x2="72.25" y2="3.6"/><line class="cls-2" x1="-72.25" y1="68.4" x2="0.25" y2="68.4"/><line class="cls-2" x1="-72.25" y1="54" x2="0.25" y2="54"/><line class="cls-2" x1="-72.25" y1="39.6" x2="0.25" y2="39.6"/><line class="cls-2" x1="-72.25" y1="25.2" x2="0.25" y2="25.2"/><line class="cls-2" x1="-72.25" y1="10.8" x2="0.25" y2="10.8"/><line class="cls-2" x1="-72.25" y1="61.2" x2="0.25" y2="61.2"/><line class="cls-2" x1="-72.25" y1="46.8" x2="0.25" y2="46.8"/><line class="cls-2" x1="-72.25" y1="32.4" x2="0.25" y2="32.4"/><line class="cls-2" x1="-72.25" y1="18" x2="0.25" y2="18"/><line class="cls-2" x1="-72.25" y1="3.6" x2="0.25" y2="3.6"/></pattern><pattern id="New_Pattern_13-3" data-name="New Pattern 13" width="72" height="72" patternTransform="translate(-426.23 -164.66) rotate(-45) scale(0.98)" patternUnits="userSpaceOnUse" viewBox="0 0 72 72"><rect class="cls-1" width="72" height="72"/><line class="cls-2" x1="71.75" y1="68.4" x2="144.25" y2="68.4"/><line class="cls-2" x1="71.75" y1="54" x2="144.25" y2="54"/><line class="cls-2" x1="71.75" y1="39.6" x2="144.25" y2="39.6"/><line class="cls-2" x1="71.75" y1="25.2" x2="144.25" y2="25.2"/><line class="cls-2" x1="71.75" y1="10.8" x2="144.25" y2="10.8"/><line class="cls-2" x1="71.75" y1="61.2" x2="144.25" y2="61.2"/><line class="cls-2" x1="71.75" y1="46.8" x2="144.25" y2="46.8"/><line class="cls-2" x1="71.75" y1="32.4" x2="144.25" y2="32.4"/><line class="cls-2" x1="71.75" y1="18" x2="144.25" y2="18"/><line class="cls-2" x1="71.75" y1="3.6" x2="144.25" y2="3.6"/><line class="cls-2" x1="-0.25" y1="68.4" x2="72.25" y2="68.4"/><line class="cls-2" x1="-0.25" y1="54" x2="72.25" y2="54"/><line class="cls-2" x1="-0.25" y1="39.6" x2="72.25" y2="39.6"/><line class="cls-2" x1="-0.25" y1="25.2" x2="72.25" y2="25.2"/><line class="cls-2" x1="-0.25" y1="10.8" x2="72.25" y2="10.8"/><line class="cls-2" x1="-0.25" y1="61.2" x2="72.25" y2="61.2"/><line class="cls-2" x1="-0.25" y1="46.8" x2="72.25" y2="46.8"/><line class="cls-2" x1="-0.25" y1="32.4" x2="72.25" y2="32.4"/><line class="cls-2" x1="-0.25" y1="18" x2="72.25" y2="18"/><line class="cls-2" x1="-0.25" y1="3.6" x2="72.25" y2="3.6"/><line class="cls-2" x1="-72.25" y1="68.4" x2="0.25" y2="68.4"/><line class="cls-2" x1="-72.25" y1="54" x2="0.25" y2="54"/><line class="cls-2" x1="-72.25" y1="39.6" x2="0.25" y2="39.6"/><line class="cls-2" x1="-72.25" y1="25.2" x2="0.25" y2="25.2"/><line class="cls-2" x1="-72.25" y1="10.8" x2="0.25" y2="10.8"/><line class="cls-2" x1="-72.25" y1="61.2" x2="0.25" y2="61.2"/><line class="cls-2" x1="-72.25" y1="46.8" x2="0.25" y2="46.8"/><line class="cls-2" x1="-72.25" y1="32.4" x2="0.25" y2="32.4"/><line class="cls-2" x1="-72.25" y1="18" x2="0.25" y2="18"/><line class="cls-2" x1="-72.25" y1="3.6" x2="0.25" y2="3.6"/></pattern></defs><g id="Layer_2" data-name="Layer 2"><g id="regular"><g id="new_no_outline_rock" data-name="new no outline rock"><path class="cls-3" d="M139,94.12c-7-5.94-7.76-15.35-8.54-25.35-.85-10.83.63-19,2.5-29.26,1.68-9.17,2.51-13.76,4.46-16.16,2.13-2.61,6.67-6.49,35.37-7.84,9.84-.47,18-.42,25.1-.24,35.14.91,39.3,5,41,7.25.52.69,1.65,6.41,3.9,17.83,2.84,14.47,3.31,17.07,3.62,21.46.39,5.62.72,11-.84,17.83-1.1,4.85-2.21,9.69-6,13.66-4.24,4.42-9.71,5.54-15.15,6.4a215.31,215.31,0,0,1-34.4,2.51c-17.19.06-28.19,0-41.4-3.62C144.81,97.59,141.84,96.56,139,94.12Z"/><path class="cls-4" d="M153,75.84c3.71,3.54,8.25,6.28,25.7,11.06,25,6.85,37.42,7.2,37.38,8.92-.05,2.32-23.05,3.29-42.43,2.14-17.28-1-23.09-3.23-27.65-7.48-7.38-6.88-8.68-16.52-8.93-19.19-.52-5.29.12-13.16,2.6-13.66C142.62,57,144.28,67.5,153,75.84Z"/><path class="cls-4" d="M138.11,26.94c-.13.86,16.59,5.53,35.4,6.9A162.43,162.43,0,0,0,238.71,25a268.64,268.64,0,0,1-54.32,5.16C158.31,30,138.26,26,138.11,26.94Z"/><path class="cls-5" d="M139,94.12c-7-5.9-7.8-15.26-8.54-25.35a94,94,0,0,1,2.5-29.26A63.19,63.19,0,0,0,143.3,65.34c17.95,25.59,55.64,35.72,96.17,28A18.93,18.93,0,0,1,233,97.58c-2,.79-3.13.79-8.67,2.12-2.4.58-4,1-4.46,1.14-5.65,1.14-12.4,1.32-29.94,1.37-17.19.06-28.19,0-41.4-3.62C144.81,97.59,141.84,96.56,139,94.12Z"/><path class="cls-4" d="M159.46,23.8c-.31-1.1,1.61-2.62,3.42-3.8l61.44-.28h0l-5.59,1.93c-7.13,2.45-26.39,2.21-39.51,2.68C167.31,24.76,160,25.78,159.46,23.8Z"/><path class="cls-3" d="M8.79,94.12C1.77,88.18,1,78.77.25,68.77c-.85-10.83.63-19,2.5-29.26,1.68-9.17,2.51-13.76,4.46-16.16,2.13-2.61,6.67-6.49,35.36-7.84,9.85-.47,18-.42,25.11-.24,35.14.91,39.3,5,41,7.25.53.69,1.66,6.41,3.91,17.83,2.84,14.47,3.31,17.07,3.62,21.46.39,5.62.72,11-.84,17.83-1.1,4.85-2.21,9.69-6,13.66-4.24,4.42-9.71,5.54-15.16,6.4a215.14,215.14,0,0,1-34.39,2.51c-17.19.06-28.19,0-41.4-3.62C14.64,97.59,11.68,96.56,8.79,94.12Z"/><path class="cls-4" d="M8,36.81c3.21-.21,1.74,24,17.24,37.08,2.55,2.16,8,4.47,18.87,9.11,20.67,8.81,28.84,10.31,28.59,12.41-.35,2.91-16.47,3.84-29.9,2.55-14.2-1.36-21.3-2-27.64-7.48C2.55,79.69,4.06,59.94,4.94,48.54,5,47.35,5.87,37,8,36.81Z"/><path class="cls-4" d="M7.21,26.42c-.13.85,16.6,5.52,35.4,6.9a162.76,162.76,0,0,0,65.2-8.85,269.22,269.22,0,0,1-54.32,5.16C27.41,29.44,7.36,25.48,7.21,26.42Z"/><path class="cls-6" d="M8.79,94.12C1.82,88.22,1,78.86.25,68.77a94,94,0,0,1,2.5-29.26A63.19,63.19,0,0,0,13.14,65.34c18,25.59,55.64,35.72,96.17,28a18.93,18.93,0,0,1-6.48,4.28c-2,.79-3.13.79-8.68,2.12-2.39.58-4,1-4.45,1.14-5.65,1.14-12.4,1.32-29.94,1.37-17.19.06-28.19,0-41.4-3.62C14.64,97.59,11.68,96.56,8.79,94.12Z"/><path class="cls-7" d="M314.53,85.9l-63.29.88a5.28,5.28,0,0,0-.59.25,5.87,5.87,0,0,0-2.58,2.89,9.38,9.38,0,0,0-.66,3.66,13.67,13.67,0,0,0,2,8,.84.84,0,0,0,.72.38L314,100.75c.74,0,.83-1,.83-1h0c0-.36-1.89-.65-2.75-1.11s-1.77-1.75-1.83-5.24a13.93,13.93,0,0,1,2.16-5.16A13.54,13.54,0,0,1,314.53,85.9Z"/><path class="cls-8" d="M318.34,61.44l.25,0c.71.16,1.27.49,1.31.85s-.72,1-2,1.23a.55.55,0,0,1-.18,0l-68.65-.91a1.16,1.16,0,0,0-.87.39A17.67,17.67,0,0,0,247,84.77a1.15,1.15,0,0,0,1,.5l70.65-1a1.06,1.06,0,0,1,1.08,1,1,1,0,0,1-.28.81,1.06,1.06,0,0,1-.79.32H247.05a1.13,1.13,0,0,1-.89-.43,19.46,19.46,0,0,1-3.06-5.52,19,19,0,0,1-1.12-7,19.49,19.49,0,0,1,4.18-11.18,1.13,1.13,0,0,1,.89-.43Z"/><path class="cls-9" d="M314.23,49.32a9.24,9.24,0,0,0-1.16,2.24,9.72,9.72,0,0,0-.46,1.76,10.56,10.56,0,0,0,.06,3.37,17,17,0,0,0,1.14,4.06l-60.14.51c-.62-.43-4.14-3-3.51-6.67.51-3,3.41-4.83,4.28-5.35Z"/><path class="cls-9" d="M226.63,1.07a19.05,19.05,0,0,0-1.28,3.67,25.59,25.59,0,0,0-.5,2.9,26.75,26.75,0,0,0,.07,5.53,38.44,38.44,0,0,0,1.25,6.66l-65.71.84a14.09,14.09,0,0,1-3.84-11A14.26,14.26,0,0,1,161.3.93Z"/><path class="cls-9" d="M317,63.49a22.13,22.13,0,0,0-2.62,12.44,21.88,21.88,0,0,0,2.79,8.86l-69.85.46A18.49,18.49,0,0,1,244,71.43c.29-1.8,1.17-7.34,4.65-8.56a4,4,0,0,1,.9-.21Z"/><path class="cls-10" d="M226.09,0a.76.76,0,0,1,.23,0,1.22,1.22,0,0,1,.78,1.05c0,.54-.78.76-.89.79a1.19,1.19,0,0,1-.66,0l-64,.39a2.71,2.71,0,0,0-2.44,1.19c-1.71,2.17-1.67,6.31-1.65,7.42,0,.61.11,6,2.37,8.24a2.83,2.83,0,0,0,2,.92c28.33-.29,63.22-.57,64.51-.17.22.07,1,.3,1,.84a.92.92,0,0,1-.26.7,1.06,1.06,0,0,1-.73.27h-66a2.87,2.87,0,0,1-.82-.37c-1.75-1.11-2.55-3.85-2.82-4.8a18.86,18.86,0,0,1-.61-6.49c.2-3.27,1.24-7.83,3.43-9.29a2,2,0,0,1,.82-.38Z"/><path class="cls-9" d="M312.65,87.32l-61.33.22a4.77,4.77,0,0,0-1,.84c-1.15,1.27-1.22,2.8-1.32,5.11a18.13,18.13,0,0,0,.66,5.58c.2.58.4,1.06.56,1.41h0a2.2,2.2,0,0,0,1.19.44c.55,0,26.71-.59,62.19-1.52a15.29,15.29,0,0,1-.94-12.08Z"/><path class="cls-11" d="M313.74,48.68a.85.85,0,0,1,.21,0c.35.07.74.38.72.64s-.72.46-.82.48a1.71,1.71,0,0,1-.61,0L254.65,50a3.12,3.12,0,0,0-2.24.72c-1.57,1.32-1.52,3.85-1.51,4.52,0,.38.1,3.65,2.17,5a3.34,3.34,0,0,0,1.84.56c25.93-.18,57.86-.35,59-.1.2,0,.87.18.92.5a.46.46,0,0,1-.24.43,1.18,1.18,0,0,1-.66.17H253.6a3.34,3.34,0,0,1-.75-.23,5.32,5.32,0,0,1-2.58-2.92,7.87,7.87,0,0,1-.56-4c.18-2,1.13-4.77,3.14-5.66a2.33,2.33,0,0,1,.75-.23Z"/></g></g></g></svg>