<svg xmlns="http://www.w3.org/2000/svg" viewBox="0 0 549.57 82.64"><defs><style>.cls-1{fill:#dbcbab;}</style></defs><g id="Layer_2" data-name="Layer 2"><g id="regular"><g id="tracks"><path class="cls-1" d="M0,0A272.65,272.65,0,0,0,46.16,15.64c31.61,7.64,52.28,6.57,97.58,9.68,36.66,2.53,35.64,4.5,66.48,6.36,71.84,4.36,100.12-1.95,200.12-.78,23.64.27,72.82,1,73.09,3.84S437.06,40,437.31,42.89c.4,4.43,111.13,2.29,112.25,8.63.58,3.29-28.42,7.73-49.6,10.08-47.37,5.26-82.21,3-114.82,1.74-28.2-1.12-33.93-.14-55.31.48-24.67.71-58.57.27-116.93-.84-87.94-1.66-94.12-.61-94.23.36-.18,1.49,13.61,4.36,25.89,5.42,18.65,1.6,27.42-1.52,45,2,4.2.84,15.56,3.11,15.39,5.39-.37,5.08-57.68,6.27-64.21,6.39-11.73.22-20.12.11-27-.14-13.19-.49-17.49-1-28.24-1.48-17.83-.71-23.51.35-36.4.29A245.34,245.34,0,0,1,.73,76Q.37,38,0,0Z"/></g></g></g></svg>