<svg xmlns="http://www.w3.org/2000/svg" xmlns:xlink="http://www.w3.org/1999/xlink" viewBox="0 0 377.46 231.77"><defs><style>.cls-1,.cls-2{fill:none;}.cls-2{stroke:#63594c;stroke-width:1.44px;}.cls-3{fill:#ada699;}.cls-4{fill:#8ba592;}.cls-5{fill:#878074;}.cls-6{fill:url(#New_Pattern_13);}.cls-7{fill:#aaa293;}.cls-8{fill:#8c8577;}.cls-9{fill:url(#New_Pattern_13-3);}.cls-10{fill:#b7b09e;}.cls-11{fill:url(#New_Pattern_13-5);}.cls-12{fill:url(#New_Pattern_13-7);}.cls-13{fill:#bfbaa9;}.cls-14{fill:#9b9286;}.cls-15{fill:url(#New_Pattern_13-9);}</style><pattern id="New_Pattern_13" data-name="New Pattern 13" width="72" height="72" patternTransform="translate(-247.11 -279.48) rotate(-45)" patternUnits="userSpaceOnUse" viewBox="0 0 72 72"><rect class="cls-1" width="72" height="72"/><line class="cls-2" x1="71.75" y1="68.4" x2="144.25" y2="68.4"/><line class="cls-2" x1="71.75" y1="54" x2="144.25" y2="54"/><line class="cls-2" x1="71.75" y1="39.6" x2="144.25" y2="39.6"/><line class="cls-2" x1="71.75" y1="25.2" x2="144.25" y2="25.2"/><line class="cls-2" x1="71.75" y1="10.8" x2="144.25" y2="10.8"/><line class="cls-2" x1="71.75" y1="61.2" x2="144.25" y2="61.2"/><line class="cls-2" x1="71.75" y1="46.8" x2="144.25" y2="46.8"/><line class="cls-2" x1="71.75" y1="32.4" x2="144.25" y2="32.4"/><line class="cls-2" x1="71.75" y1="18" x2="144.25" y2="18"/><line class="cls-2" x1="71.75" y1="3.6" x2="144.25" y2="3.6"/><line class="cls-2" x1="-0.25" y1="68.4" x2="72.25" y2="68.4"/><line class="cls-2" x1="-0.25" y1="54" x2="72.25" y2="54"/><line class="cls-2" x1="-0.25" y1="39.6" x2="72.25" y2="39.6"/><line class="cls-2" x1="-0.25" y1="25.2" x2="72.25" y2="25.2"/><line class="cls-2" x1="-0.25" y1="10.8" x2="72.25" y2="10.8"/><line class="cls-2" x1="-0.25" y1="61.2" x2="72.25" y2="61.2"/><line class="cls-2" x1="-0.25" y1="46.8" x2="72.25" y2="46.8"/><line class="cls-2" x1="-0.25" y1="32.4" x2="72.25" y2="32.4"/><line class="cls-2" x1="-0.25" y1="18" x2="72.25" y2="18"/><line class="cls-2" x1="-0.25" y1="3.6" x2="72.25" y2="3.6"/><line class="cls-2" x1="-72.25" y1="68.4" x2="0.25" y2="68.4"/><line class="cls-2" x1="-72.25" y1="54" x2="0.25" y2="54"/><line class="cls-2" x1="-72.25" y1="39.6" x2="0.25" y2="39.6"/><line class="cls-2" x1="-72.25" y1="25.2" x2="0.25" y2="25.2"/><line class="cls-2" x1="-72.25" y1="10.8" x2="0.25" y2="10.8"/><line class="cls-2" x1="-72.25" y1="61.2" x2="0.25" y2="61.2"/><line class="cls-2" x1="-72.25" y1="46.8" x2="0.25" y2="46.8"/><line class="cls-2" x1="-72.25" y1="32.4" x2="0.25" y2="32.4"/><line class="cls-2" x1="-72.25" y1="18" x2="0.25" y2="18"/><line class="cls-2" x1="-72.25" y1="3.6" x2="0.25" y2="3.6"/></pattern><pattern id="New_Pattern_13-3" data-name="New Pattern 13" width="72" height="72" patternTransform="translate(-303.33 -319.45) rotate(-45)" patternUnits="userSpaceOnUse" viewBox="0 0 72 72"><rect class="cls-1" width="72" height="72"/><line class="cls-2" x1="71.75" y1="68.4" x2="144.25" y2="68.4"/><line class="cls-2" x1="71.75" y1="54" x2="144.25" y2="54"/><line class="cls-2" x1="71.75" y1="39.6" x2="144.25" y2="39.6"/><line class="cls-2" x1="71.75" y1="25.2" x2="144.25" y2="25.2"/><line class="cls-2" x1="71.75" y1="10.8" x2="144.25" y2="10.8"/><line class="cls-2" x1="71.75" y1="61.2" x2="144.25" y2="61.2"/><line class="cls-2" x1="71.75" y1="46.8" x2="144.25" y2="46.8"/><line class="cls-2" x1="71.75" y1="32.4" x2="144.25" y2="32.4"/><line class="cls-2" x1="71.75" y1="18" x2="144.25" y2="18"/><line class="cls-2" x1="71.75" y1="3.6" x2="144.25" y2="3.6"/><line class="cls-2" x1="-0.25" y1="68.4" x2="72.25" y2="68.4"/><line class="cls-2" x1="-0.25" y1="54" x2="72.25" y2="54"/><line class="cls-2" x1="-0.25" y1="39.6" x2="72.25" y2="39.6"/><line class="cls-2" x1="-0.25" y1="25.2" x2="72.25" y2="25.2"/><line class="cls-2" x1="-0.25" y1="10.8" x2="72.25" y2="10.8"/><line class="cls-2" x1="-0.25" y1="61.2" x2="72.25" y2="61.2"/><line class="cls-2" x1="-0.25" y1="46.8" x2="72.25" y2="46.8"/><line class="cls-2" x1="-0.25" y1="32.4" x2="72.25" y2="32.4"/><line class="cls-2" x1="-0.25" y1="18" x2="72.25" y2="18"/><line class="cls-2" x1="-0.25" y1="3.6" x2="72.25" y2="3.6"/><line class="cls-2" x1="-72.25" y1="68.4" x2="0.25" y2="68.4"/><line class="cls-2" x1="-72.25" y1="54" x2="0.25" y2="54"/><line class="cls-2" x1="-72.25" y1="39.6" x2="0.25" y2="39.6"/><line class="cls-2" x1="-72.25" y1="25.2" x2="0.25" y2="25.2"/><line class="cls-2" x1="-72.25" y1="10.8" x2="0.25" y2="10.8"/><line class="cls-2" x1="-72.25" y1="61.2" x2="0.25" y2="61.2"/><line class="cls-2" x1="-72.25" y1="46.8" x2="0.25" y2="46.8"/><line class="cls-2" x1="-72.25" y1="32.4" x2="0.25" y2="32.4"/><line class="cls-2" x1="-72.25" y1="18" x2="0.25" y2="18"/><line class="cls-2" x1="-72.25" y1="3.6" x2="0.25" y2="3.6"/></pattern><pattern id="New_Pattern_13-5" data-name="New Pattern 13" width="72" height="72" patternTransform="translate(-413.52 -211.58) rotate(-45)" patternUnits="userSpaceOnUse" viewBox="0 0 72 72"><rect class="cls-1" width="72" height="72"/><line class="cls-2" x1="71.75" y1="68.4" x2="144.25" y2="68.4"/><line class="cls-2" x1="71.75" y1="54" x2="144.25" y2="54"/><line class="cls-2" x1="71.75" y1="39.6" x2="144.25" y2="39.6"/><line class="cls-2" x1="71.75" y1="25.2" x2="144.25" y2="25.2"/><line class="cls-2" x1="71.75" y1="10.8" x2="144.25" y2="10.8"/><line class="cls-2" x1="71.75" y1="61.2" x2="144.25" y2="61.2"/><line class="cls-2" x1="71.75" y1="46.8" x2="144.25" y2="46.8"/><line class="cls-2" x1="71.75" y1="32.4" x2="144.25" y2="32.4"/><line class="cls-2" x1="71.75" y1="18" x2="144.25" y2="18"/><line class="cls-2" x1="71.75" y1="3.6" x2="144.25" y2="3.6"/><line class="cls-2" x1="-0.25" y1="68.4" x2="72.25" y2="68.4"/><line class="cls-2" x1="-0.25" y1="54" x2="72.25" y2="54"/><line class="cls-2" x1="-0.25" y1="39.6" x2="72.25" y2="39.6"/><line class="cls-2" x1="-0.25" y1="25.2" x2="72.25" y2="25.2"/><line class="cls-2" x1="-0.25" y1="10.8" x2="72.25" y2="10.8"/><line class="cls-2" x1="-0.25" y1="61.2" x2="72.25" y2="61.2"/><line class="cls-2" x1="-0.25" y1="46.8" x2="72.25" y2="46.8"/><line class="cls-2" x1="-0.25" y1="32.4" x2="72.25" y2="32.4"/><line class="cls-2" x1="-0.25" y1="18" x2="72.25" y2="18"/><line class="cls-2" x1="-0.25" y1="3.6" x2="72.25" y2="3.6"/><line class="cls-2" x1="-72.25" y1="68.4" x2="0.25" y2="68.4"/><line class="cls-2" x1="-72.25" y1="54" x2="0.25" y2="54"/><line class="cls-2" x1="-72.25" y1="39.6" x2="0.25" y2="39.6"/><line class="cls-2" x1="-72.25" y1="25.2" x2="0.25" y2="25.2"/><line class="cls-2" x1="-72.25" y1="10.8" x2="0.25" y2="10.8"/><line class="cls-2" x1="-72.25" y1="61.2" x2="0.25" y2="61.2"/><line class="cls-2" x1="-72.25" y1="46.8" x2="0.25" y2="46.8"/><line class="cls-2" x1="-72.25" y1="32.4" x2="0.25" y2="32.4"/><line class="cls-2" x1="-72.25" y1="18" x2="0.25" y2="18"/><line class="cls-2" x1="-72.25" y1="3.6" x2="0.25" y2="3.6"/></pattern><pattern id="New_Pattern_13-7" data-name="New Pattern 13" width="72" height="72" patternTransform="translate(-394.94 -199.46) rotate(-45)" patternUnits="userSpaceOnUse" viewBox="0 0 72 72"><rect class="cls-1" width="72" height="72"/><line class="cls-2" x1="71.75" y1="68.4" x2="144.25" y2="68.4"/><line class="cls-2" x1="71.75" y1="54" x2="144.25" y2="54"/><line class="cls-2" x1="71.75" y1="39.6" x2="144.25" y2="39.6"/><line class="cls-2" x1="71.75" y1="25.2" x2="144.25" y2="25.2"/><line class="cls-2" x1="71.75" y1="10.8" x2="144.25" y2="10.8"/><line class="cls-2" x1="71.75" y1="61.2" x2="144.25" y2="61.2"/><line class="cls-2" x1="71.75" y1="46.8" x2="144.25" y2="46.8"/><line class="cls-2" x1="71.75" y1="32.4" x2="144.25" y2="32.4"/><line class="cls-2" x1="71.75" y1="18" x2="144.25" y2="18"/><line class="cls-2" x1="71.75" y1="3.6" x2="144.25" y2="3.6"/><line class="cls-2" x1="-0.25" y1="68.4" x2="72.25" y2="68.4"/><line class="cls-2" x1="-0.25" y1="54" x2="72.25" y2="54"/><line class="cls-2" x1="-0.25" y1="39.6" x2="72.25" y2="39.6"/><line class="cls-2" x1="-0.25" y1="25.2" x2="72.25" y2="25.2"/><line class="cls-2" x1="-0.25" y1="10.8" x2="72.25" y2="10.8"/><line class="cls-2" x1="-0.25" y1="61.2" x2="72.25" y2="61.2"/><line class="cls-2" x1="-0.25" y1="46.8" x2="72.25" y2="46.8"/><line class="cls-2" x1="-0.25" y1="32.4" x2="72.25" y2="32.4"/><line class="cls-2" x1="-0.25" y1="18" x2="72.25" y2="18"/><line class="cls-2" x1="-0.25" y1="3.6" x2="72.25" y2="3.6"/><line class="cls-2" x1="-72.25" y1="68.4" x2="0.25" y2="68.4"/><line class="cls-2" x1="-72.25" y1="54" x2="0.25" y2="54"/><line class="cls-2" x1="-72.25" y1="39.6" x2="0.25" y2="39.6"/><line class="cls-2" x1="-72.25" y1="25.2" x2="0.25" y2="25.2"/><line class="cls-2" x1="-72.25" y1="10.8" x2="0.25" y2="10.8"/><line class="cls-2" x1="-72.25" y1="61.2" x2="0.25" y2="61.2"/><line class="cls-2" x1="-72.25" y1="46.8" x2="0.25" y2="46.8"/><line class="cls-2" x1="-72.25" y1="32.4" x2="0.25" y2="32.4"/><line class="cls-2" x1="-72.25" y1="18" x2="0.25" y2="18"/><line class="cls-2" x1="-72.25" y1="3.6" x2="0.25" y2="3.6"/></pattern><pattern id="New_Pattern_13-9" data-name="New Pattern 13" width="72" height="72" patternTransform="translate(-252.27 -227.18) rotate(-45)" patternUnits="userSpaceOnUse" viewBox="0 0 72 72"><rect class="cls-1" width="72" height="72"/><line class="cls-2" x1="71.75" y1="68.4" x2="144.25" y2="68.4"/><line class="cls-2" x1="71.75" y1="54" x2="144.25" y2="54"/><line class="cls-2" x1="71.75" y1="39.6" x2="144.25" y2="39.6"/><line class="cls-2" x1="71.75" y1="25.2" x2="144.25" y2="25.2"/><line class="cls-2" x1="71.75" y1="10.8" x2="144.25" y2="10.8"/><line class="cls-2" x1="71.75" y1="61.2" x2="144.25" y2="61.2"/><line class="cls-2" x1="71.75" y1="46.8" x2="144.25" y2="46.8"/><line class="cls-2" x1="71.75" y1="32.4" x2="144.25" y2="32.4"/><line class="cls-2" x1="71.75" y1="18" x2="144.25" y2="18"/><line class="cls-2" x1="71.75" y1="3.6" x2="144.25" y2="3.6"/><line class="cls-2" x1="-0.25" y1="68.4" x2="72.25" y2="68.4"/><line class="cls-2" x1="-0.25" y1="54" x2="72.25" y2="54"/><line class="cls-2" x1="-0.25" y1="39.6" x2="72.25" y2="39.6"/><line class="cls-2" x1="-0.25" y1="25.2" x2="72.25" y2="25.2"/><line class="cls-2" x1="-0.25" y1="10.8" x2="72.25" y2="10.8"/><line class="cls-2" x1="-0.25" y1="61.2" x2="72.25" y2="61.2"/><line class="cls-2" x1="-0.25" y1="46.8" x2="72.25" y2="46.8"/><line class="cls-2" x1="-0.25" y1="32.4" x2="72.25" y2="32.4"/><line class="cls-2" x1="-0.25" y1="18" x2="72.25" y2="18"/><line class="cls-2" x1="-0.25" y1="3.6" x2="72.25" y2="3.6"/><line class="cls-2" x1="-72.25" y1="68.4" x2="0.25" y2="68.4"/><line class="cls-2" x1="-72.25" y1="54" x2="0.25" y2="54"/><line class="cls-2" x1="-72.25" y1="39.6" x2="0.25" y2="39.6"/><line class="cls-2" x1="-72.25" y1="25.2" x2="0.25" y2="25.2"/><line class="cls-2" x1="-72.25" y1="10.8" x2="0.25" y2="10.8"/><line class="cls-2" x1="-72.25" y1="61.2" x2="0.25" y2="61.2"/><line class="cls-2" x1="-72.25" y1="46.8" x2="0.25" y2="46.8"/><line class="cls-2" x1="-72.25" y1="32.4" x2="0.25" y2="32.4"/><line class="cls-2" x1="-72.25" y1="18" x2="0.25" y2="18"/><line class="cls-2" x1="-72.25" y1="3.6" x2="0.25" y2="3.6"/></pattern></defs><g id="Layer_2" data-name="Layer 2"><g id="regular"><g id="new_no_outline_rock" data-name="new no outline rock"><path class="cls-3" d="M2.36,201.62c-4-7.44-.81-18.19,1.45-25.85a80,80,0,0,1,13.88-26.71c4.58-6.1,11.1-14.79,22.12-20.57,10.86-5.69,20.24-5.5,27.13-5.26,7.71.26,18.81.63,30.35,9.18,8.32,6.16,13,13.75,16.63,19.49a81.65,81.65,0,0,1,12.12,30c1.77,9.79,3,16.35.66,21.91-4,9.57-14.87,7.94-51.52,10,0,0-26.36,1.49-60.44-4.63C11.56,208.64,5.47,207.44,2.36,201.62Z"/><path class="cls-4" d="M39.81,128.49a49.71,49.71,0,0,1,9-3.59,56.49,56.49,0,0,1,18.14-1.67c5.56.18,12.89.43,20.87,3.76a49.71,49.71,0,0,1,9.48,5.42,55.78,55.78,0,0,1,16.63,19.49c-13.64,12.32-23.46,13.93-30.17,12.75C68.4,161.93,57.24,142.42,44.19,145a25.32,25.32,0,0,1-9.76.5,24.85,24.85,0,0,1-10.36-4.36A52,52,0,0,1,39.81,128.49Z"/><path class="cls-5" d="M13.25,170C8,171.12,3.36,186.79,9,197c6.53,11.79,24.62,12.5,47.67,13.41,10.69.42,25.41,1,26.81-3.72,1.09-3.69-5.93-10.56-13.57-11.92s-9.72,4-17.71,3.72c-8.61-.29-15.39-6.82-25.82-16.88C17.76,173.3,16.1,169.34,13.25,170Z"/><path class="cls-6" d="M2.36,201.62c-4.6-7.05-1.58-16.44,1.45-25.85a91.7,91.7,0,0,1,13.88-26.71c-4.28,21.83,2.65,33,5.37,36.72C33.47,200,53,201.6,82.31,204a260.29,260.29,0,0,0,44.39-.17,11.43,11.43,0,0,1-2.28,3.56c-3,3.16-7.16,3.69-8.91,3.89a421.6,421.6,0,0,1-46,2.72S43,213.71,30.26,212.1c-2.82-.36-5.63-.83-5.63-.83a90.2,90.2,0,0,1-9.89-2.06C13.76,208.92,5.75,206.82,2.36,201.62Z"/><path class="cls-7" d="M252.94,203.8c1.95-3.53,5.26-3,14.56-6.79,7.85-3.17,8.49-4.74,18.11-8.41,1.73-.66,4.29-1.59,7.43-2.59,5.48-1.72,9.24-2.9,12.86-3.31s8.64.93,18.52,3.64c10.5,2.87,10.17,3.37,16.33,4.63,7.11,1.46,7.95.87,11.15,2.48,5.13,2.57,6.3,5.72,10.87,6.1,3,.25,4-1,6.35,0,1.87.79,3,2.45,5.18,5.74s3.24,4.89,3.15,6c-.39,4.75-13.57,7.28-16.17,7.76-18.77,3.47-34.4,1.42-43.65.53-39.39-3.81-59.8,3.94-64.69-6A11.27,11.27,0,0,1,252.94,203.8Z"/><path class="cls-8" d="M268.05,199.14c.37-.35,2.76-2.55,5.77-2.09,5,.76,4.84,7.71,10.3,11.81,2.75,2.07,4.81,1.82,20.85,1.82,15.77,0,20.71.23,21.43,2.43.45,1.39-.82,3.4-2.18,4.35-1.84,1.29-4.17.85-5.18.67-4.8-.85-9.73-.59-14.57-1.16a96,96,0,0,0-17.87-.33c-3.26.25-5.92.28-11.26.33-3.87,0-4.59,0-5.46-.5C265.17,214,263.2,203.61,268.05,199.14Z"/><path class="cls-9" d="M253.55,202.89c2.18-3,5.82-3.06,12.57-5.37a65.35,65.35,0,0,0,11.74-5.38,99.87,99.87,0,0,0,13.7,9.6c32.77,19.06,68.34,14.47,85.38,10.91a14.21,14.21,0,0,1-2.29,2A14.87,14.87,0,0,1,369.4,217a94.57,94.57,0,0,1-9.56,2.23,173.78,173.78,0,0,1-24.22,1.65,171.31,171.31,0,0,1-18-1.36c-36.25-4.45-59.42,4-64.69-6A11,11,0,0,1,253.55,202.89Z"/><path class="cls-10" d="M162.73,220.19c-4.5-2.5-4.94-8.7-5.37-16.27a55.74,55.74,0,0,1,1.56-18.66c2.56-9.85,5.42-10.39,7.82-19s-.15-8.91,1.18-22.17c1.2-12,2-19.44,7-27.46,3-4.67,5.75-7,8.22-13.38,2.36-6.18,1-7.3,3.13-11.62,3.56-7.28,12.61-14.47,19.95-13,2,.39,4.46,2.73,9.39,7.39s8.13,7.76,10.56,12.67c1.41,2.87.89,3,2.74,7.75,2.33,6,4.41,9.15,6.65,13.38,5,9.38,3.09,9.93,7.24,18.06,6,11.77,10,10.65,13.33,20.13a43.15,43.15,0,0,1,2.12,18.13c-.75,8.76-3,7.5-2.84,13.11.26,7.76,4.61,9.16,6,18.92.64,4.59,1.23,8.87-1.57,12s-7.46,3.51-14.86,3.52c-18,0-19.88-2.71-31.3-2.46-14.66.31-19.35,5-29.73,2.81a114.92,114.92,0,0,0-12.52-2.46C165.49,220.75,164.55,221.2,162.73,220.19Z"/><path class="cls-8" d="M174.45,155.14c-1.89.61-1.35,5-2.31,12.58s-2.18,8.14-4.39,17.95c-3.3,14.65-5.26,23.44-1,27.4,2,1.85,3.52.88,12.91,2.15,10.31,1.39,10,2.77,16.88,3.48,10.41,1.06,11-2.12,24.08-2,9.84.09,14.34,1.93,15.89-.53,1.72-2.73-1.84-8.14-4.47-10.94-2.26-2.42-6.05-5.27-13.65-6.9-14.68-3.16-19.6,3.63-26.07-.5-7.69-4.91-8.51-19.38-8.61-21.19-.28-5,.67-8-1.32-12.91C180.5,159.1,176.6,154.44,174.45,155.14Z"/><path class="cls-10" d="M215,43.67c-4.7,0-9.2,3.46-11.54,8.78-2.85-5.83-8.11-9.22-13-8.67a11.48,11.48,0,0,0-9,7.19c-3.68,9.78,7.91,28.37,21.64,28.33,14.75,0,25.9-21.58,21.42-30.32C222.82,45.84,218.82,43.63,215,43.67Z"/><path class="cls-8" d="M203.5,76a7.32,7.32,0,0,1-5.21.13c-8.08-2.2-13.95-12.73-12.91-13.66.65-.58,3.12,3.5,9.81,6,6.38,2.35,11,1.2,11.66,3.23C207.29,73,205.36,75.09,203.5,76Z"/><path class="cls-11" d="M162.73,220.19c-4.5-2.5-4.94-8.7-5.37-16.27a55.74,55.74,0,0,1,1.56-18.66c2.56-9.85,5.42-10.39,7.82-19,1.75-6.26.84-8.13.77-14a79.25,79.25,0,0,1,.41-8.2c.69-8.37,1.05-12.82,2.84-18.24a47.36,47.36,0,0,1,4.2-9.22c-4.78,30,6.27,59.68,29,77,24,18.25,51.25,15.34,57.42,14.53.59,2.39,1.67,8.23-1.57,12-2.62,3-6.82,3.51-14.86,3.52-18,0-19.88-2.71-31.3-2.46-14.66.31-19.35,5-29.73,2.81a114.92,114.92,0,0,0-12.52-2.46C165.49,220.75,164.55,221.2,162.73,220.19Z"/><path class="cls-12" d="M180.69,55.32A27.92,27.92,0,0,0,188.21,72c2.29,2.34,7.27,7.45,14.8,7.34a18.47,18.47,0,0,0,11.42-4.49,34.23,34.23,0,0,1-12.79-1.49C188.69,69.2,182.36,58.42,180.69,55.32Z"/><path class="cls-13" d="M86.3,228.52a28.43,28.43,0,0,1-12-13.68c-2.38-6.07-1.74-11.41-1.11-16.64.71-5.91,1.29-10.71,5-15.17,1-1.13,5.26-6.05,12-7.21,6.16-1,9.61,1.83,12.32-.74,1.65-1.56,1.53-3.73,4.69-6.65a17.74,17.74,0,0,1,2.22-1.73c7-4.73,10.49-7.09,12-7.89,5.89-3.06,15.43-4.85,25.09-3,4.33.83,17.58,3.39,21.87,12.41,1.15,2.41,1.31,4.55,3.88,9.62,2.22,4.36,3.34,5.21,4.07,8.13,1,4,.15,7.46-.55,10.17-1.5,5.75-4,9.18-6.59,13.31-7.61,12.13-5.53,13.59-9.13,17.38-5.9,6.23-12.34,3.22-42.52,4.26C99.69,231.72,93.9,233,86.3,228.52Z"/><path class="cls-14" d="M79.29,207.45c-2.15,1.88,1.13,11.43,7.94,16.39,5,3.6,10.11,3.58,17.38,3.72,29,.57,39.31,2.72,39.73.5.37-2-7.73-5.06-11.42-6.46-18.68-7.06-25.93-1.89-41.22-8.69C84.24,209.6,80.84,206.09,79.29,207.45Z"/><path class="cls-15" d="M86.3,228.52a28.19,28.19,0,0,1-12-13.68,27.8,27.8,0,0,1-1.11-16.64,67.89,67.89,0,0,0,21.28,17.55c28.51,14.73,66.86,6.66,67.07,9.26,0,.3-.47.81-1.45,1.84-5.9,6.23-12.34,3.22-42.52,4.26C99.69,231.72,93.9,233,86.3,228.52Z"/><path class="cls-1" d="M195.12,47.63a20,20,0,0,1-10.83-15.71c-.2-2.06-.75-7.71,3-11.67C192,15.2,200,16.72,203,17.28c6.78,1.28,16.47,6.11,17.61,14.22a15.45,15.45,0,0,1-1.69,8.7,17.27,17.27,0,0,1-7.43,7.85C204,51.89,196.35,48.24,195.12,47.63Z"/><path class="cls-1" d="M191.13.09c-1.92.47-2.69,1.7-8.19,10.24-5.82,9-6.55,10.13-6,11.08.67,1.11,2.77,1.45,18.39-2.26s17.31-4.94,17.44-6.32-3.19-3.58-9.88-7.61C193.73-.31,192.07-.15,191.13.09Z"/></g></g></g></svg>