<svg xmlns="http://www.w3.org/2000/svg" xmlns:xlink="http://www.w3.org/1999/xlink" viewBox="0 0 300.64 112.2"><defs><style>.cls-1,.cls-2{fill:none;}.cls-2{stroke:#63594c;stroke-width:1.44px;}.cls-3{fill:#b7b09e;}.cls-4{fill:#c0e0ec;}.cls-5{fill:#8c8577;}.cls-6{fill:url(#New_Pattern_13);}</style><pattern id="New_Pattern_13" data-name="New Pattern 13" width="72" height="72" patternTransform="translate(-434.41 -312.25) rotate(-45) scale(0.95)" patternUnits="userSpaceOnUse" viewBox="0 0 72 72"><rect class="cls-1" width="72" height="72"/><line class="cls-2" x1="71.75" y1="68.4" x2="144.25" y2="68.4"/><line class="cls-2" x1="71.75" y1="54" x2="144.25" y2="54"/><line class="cls-2" x1="71.75" y1="39.6" x2="144.25" y2="39.6"/><line class="cls-2" x1="71.75" y1="25.2" x2="144.25" y2="25.2"/><line class="cls-2" x1="71.75" y1="10.8" x2="144.25" y2="10.8"/><line class="cls-2" x1="71.75" y1="61.2" x2="144.25" y2="61.2"/><line class="cls-2" x1="71.75" y1="46.8" x2="144.25" y2="46.8"/><line class="cls-2" x1="71.75" y1="32.4" x2="144.25" y2="32.4"/><line class="cls-2" x1="71.75" y1="18" x2="144.25" y2="18"/><line class="cls-2" x1="71.75" y1="3.6" x2="144.25" y2="3.6"/><line class="cls-2" x1="-0.25" y1="68.4" x2="72.25" y2="68.4"/><line class="cls-2" x1="-0.25" y1="54" x2="72.25" y2="54"/><line class="cls-2" x1="-0.25" y1="39.6" x2="72.25" y2="39.6"/><line class="cls-2" x1="-0.25" y1="25.2" x2="72.25" y2="25.2"/><line class="cls-2" x1="-0.25" y1="10.8" x2="72.25" y2="10.8"/><line class="cls-2" x1="-0.25" y1="61.2" x2="72.25" y2="61.2"/><line class="cls-2" x1="-0.25" y1="46.8" x2="72.25" y2="46.8"/><line class="cls-2" x1="-0.25" y1="32.4" x2="72.25" y2="32.4"/><line class="cls-2" x1="-0.25" y1="18" x2="72.25" y2="18"/><line class="cls-2" x1="-0.25" y1="3.6" x2="72.25" y2="3.6"/><line class="cls-2" x1="-72.25" y1="68.4" x2="0.25" y2="68.4"/><line class="cls-2" x1="-72.25" y1="54" x2="0.25" y2="54"/><line class="cls-2" x1="-72.25" y1="39.6" x2="0.25" y2="39.6"/><line class="cls-2" x1="-72.25" y1="25.2" x2="0.25" y2="25.2"/><line class="cls-2" x1="-72.25" y1="10.8" x2="0.25" y2="10.8"/><line class="cls-2" x1="-72.25" y1="61.2" x2="0.25" y2="61.2"/><line class="cls-2" x1="-72.25" y1="46.8" x2="0.25" y2="46.8"/><line class="cls-2" x1="-72.25" y1="32.4" x2="0.25" y2="32.4"/><line class="cls-2" x1="-72.25" y1="18" x2="0.25" y2="18"/><line class="cls-2" x1="-72.25" y1="3.6" x2="0.25" y2="3.6"/></pattern></defs><g id="Layer_2" data-name="Layer 2"><g id="regular"><g id="new_no_outline_rock" data-name="new no outline rock"><path class="cls-3" d="M.06,41c-.38,3.94,1.19,7,3.41,11.09a42,42,0,0,0,12.3,14.47C23.7,72.41,26.08,70,38.45,76.36,44.6,79.55,49,82.73,55.51,87.46c11.08,8,9.56,8.55,14.08,11.09,12,6.76,18.14.42,38.4,5.12,10.17,2.36,9.36,4.13,20.47,6.4,2.36.48,10.75,2.1,26,2.13a245.14,245.14,0,0,0,27.72-1.71c35.25-3.68,41.67-6.6,52.3-7.86,1-.12,5.47-.54,11.69-.67,13-.28,13.48,1.21,17.82.41,10.14-1.85,16.46-11.54,22.28-20.46,3.1-4.75,5.18-9.79,9.33-19.87,5.3-12.88,5.12-15.79,4.95-17.22-.37-3.07-1.89-9.32-2.76-15a23,23,0,0,1-.41-4.26c0-2.82.61-3.9-.44-6.4-1.52-3.63-9.94-7.55-15.79-10.67-7.67-4.08-6.85-4.74-9.61-5.22S265.29,3,260.24,1c-.9-.36-.78-.38-1.24-.53-5.65-1.81-10.62,2.53-16.41,5-7.48,3.18-13.21,1.9-22.39,1.31-16.87-1.1-26.73,1.33-47.37,2.51-7.93.46-16.08.57-26.45.57-22.75,0-38.16-1.31-68-1.27-10.77,0-22.38.21-29.68,5.11a95.43,95.43,0,0,1-12.91,7,39.17,39.17,0,0,1-6,2.13C20,25.53,15.94,23.64,9.35,28,7.71,29,.76,33.58.06,41Z"/><path class="cls-4" d="M72.17,15.1c-3.69.45-9.84,1.31-9.93,2.84,0,.47.42,2.32,18.62,5.69a318.48,318.48,0,0,0,42.22,4.84c30.41,1.63,45.63,2.11,61.78.56,17.79-1.69,17.82-3.57,33.12-4.51a65,65,0,0,0,15.62-2.88c3.79-1.2,13.47-5,13-7.11-.33-1.62-6.14-.95-21-1.92-11.56-.75-12.62-1.44-19.7-1.49a117.19,117.19,0,0,0-20.68,1.82c-14,2.2-25.77,2.05-44.86,1.8C118.7,14.46,97,12.07,72.17,15.1Z"/><path class="cls-5" d="M33.19,52.89a10.06,10.06,0,0,1,3.73,5.66C39.35,66,49,69.17,60.86,78.36c7,5.43,16.88,14.62,15.73,16.35S65,88.79,34.76,74c-7.27-3.57-14.62-7-20.44-15.1-5.48-7.58-7.48-16.3-5.71-17.43C10.83,40,17.19,51.67,26.9,51.63,28.35,51.62,30.86,51.35,33.19,52.89Z"/><path class="cls-5" d="M239.79,80.93c-14,15-40.91,8.73-41,11.42-.09,2.07,15.7,5.53,33.31,5.53,15.82,0,29.83-.2,41.22-9.87,6.12-5.2,9.23-11.21,11.87-16.32,5.87-11.38,8.53-24.5,6.06-25.67-2.87-1.36-8.37,15.43-23.59,19.34-5.56,1.44-7.72-.06-13.36,2.31C246.48,71,243.81,76.65,239.79,80.93Z"/><path class="cls-6" d="M.06,41A36.42,36.42,0,0,0,3.47,52.05a37.39,37.39,0,0,0,5.19,7.79,41.8,41.8,0,0,0,7.11,6.68C23.7,72.41,26.08,70,38.45,76.36,44.6,79.55,49,82.73,55.51,87.46c11.08,8,9.56,8.55,14.08,11.09,12,6.76,18.14.42,38.4,5.12,10.17,2.36,9.36,4.13,20.47,6.4,2.36.48,10.75,2.1,26,2.13a245.14,245.14,0,0,0,27.72-1.71c35.25-3.68,41.67-6.6,52.3-7.86,1-.12,5.47-.54,11.69-.67,10.88-.23,13,.76,15.92.64,0,0,.95-.07,1.9-.23,2.2-.36,7-2,12-6.25A38.74,38.74,0,0,0,286.3,81.91c-33.37,9.59-99.75,23.57-178.91,4.78A347.59,347.59,0,0,1,.06,41Z"/></g></g></g></svg>