<svg xmlns="http://www.w3.org/2000/svg" viewBox="0 0 750.29 150.96"><defs><style>.cls-1,.cls-2,.cls-3{fill:none;stroke:#d3b49c;stroke-miterlimit:10;}.cls-1{stroke-width:1.77px;}.cls-2{stroke-width:2.13px;}.cls-3{stroke-width:2.28px;}</style></defs><g id="Layer_2" data-name="Layer 2"><g id="mobile"><g id="track_lines" data-name="track lines"><path class="cls-1" d="M.15,98.3C34,92.38,71.55,83.81,71.45,73.84,71.37,66.37,50,64.94,49.7,57.31,48.85,35.55,190.47,13.26,225.23,9.14,244.51,6.86,262.6,5.19,279.51,4,311.37,1.69,344.65.51,391.08,1c69.06.71,103.59,1.06,132.74,5.44,59.89,9,145.66,32.7,145.33,58.32-.08,6.25-5.26,11.36-9.95,14.85"/><path class="cls-1" d="M631,88.54c9.46-5.17,23-14.33,22.79-25.28-.34-16.65-32.36-28.21-55.72-36.44A337.41,337.41,0,0,0,523.16,9.64c-50.46-5.45-94-10-163.81-8.31-28.22.67-59.9,1-101.67,6.33C196.08,15.53,96.57,35.89,96.62,59.79c0,11.47,26.2,14.56,26.32,25.32.18,16.11-57.56,30.55-122.79,42"/><path class="cls-1" d="M120.77,90.26a631.72,631.72,0,0,0,70.89,22.36c83.3,21,149.58,19.57,198.43,18.18,40.24-1.15,159.67-4.55,225.68-35.51,3.24-1.52,9.63-4.64,18.62-8a221.87,221.87,0,0,1,43.94-11.32,233.94,233.94,0,0,1,71.82.73"/><path class="cls-1" d="M103.73,101.82a666.68,666.68,0,0,0,65.89,22.52c84.6,24.07,161.59,27.89,222.45,24.83,0,0,81.82-1.23,158.15-17.38,40.12-8.49,64.06-18.62,64.06-18.62A228.12,228.12,0,0,1,750.15,93.05"/><ellipse class="cls-2" cx="377.76" cy="61.04" rx="249.65" ry="55.35"/><ellipse class="cls-3" cx="379.08" cy="54.43" rx="217.4" ry="44.64"/></g></g></g></svg>