<svg id="Layer_1" data-name="Layer 1" xmlns="http://www.w3.org/2000/svg" xmlns:xlink="http://www.w3.org/1999/xlink" viewBox="0 0 750 7971.12"><defs><style>.cls-1,.cls-2{fill:none;}.cls-2{stroke:#63594c;stroke-width:1.44px;}.cls-3{clip-path:url(#clip-path);}.cls-4{fill:#c0e0ec;}.cls-5{fill:#fcc57b;}.cls-6{fill:#b9c6bb;}.cls-7{fill:#acbcaf;}.cls-8{fill:url(#New_Pattern_13);}.cls-9{fill:#a7b7ab;}.cls-10{fill:url(#New_Pattern_13-3);}.cls-11{fill:#a4b2a5;}.cls-12{fill:#93a393;}.cls-13{fill:url(#New_Pattern_13-5);}</style><clipPath id="clip-path"><rect class="cls-1" width="750" height="7971.12"/></clipPath><pattern id="New_Pattern_13" data-name="New Pattern 13" width="72" height="72" patternTransform="matrix(0.71, -0.71, -0.71, -0.71, 86.77, 699.38)" patternUnits="userSpaceOnUse" viewBox="0 0 72 72"><rect class="cls-1" width="72" height="72"/><rect class="cls-1" width="72" height="72"/><line class="cls-2" x1="71.75" y1="3.6" x2="144.25" y2="3.6"/><line class="cls-2" x1="71.75" y1="18" x2="144.25" y2="18"/><line class="cls-2" x1="71.75" y1="32.4" x2="144.25" y2="32.4"/><line class="cls-2" x1="71.75" y1="46.8" x2="144.25" y2="46.8"/><line class="cls-2" x1="71.75" y1="61.2" x2="144.25" y2="61.2"/><line class="cls-2" x1="71.75" y1="10.8" x2="144.25" y2="10.8"/><line class="cls-2" x1="71.75" y1="25.2" x2="144.25" y2="25.2"/><line class="cls-2" x1="71.75" y1="39.6" x2="144.25" y2="39.6"/><line class="cls-2" x1="71.75" y1="54" x2="144.25" y2="54"/><line class="cls-2" x1="71.75" y1="68.4" x2="144.25" y2="68.4"/><line class="cls-2" x1="-0.25" y1="3.6" x2="72.25" y2="3.6"/><line class="cls-2" x1="-0.25" y1="18" x2="72.25" y2="18"/><line class="cls-2" x1="-0.25" y1="32.4" x2="72.25" y2="32.4"/><line class="cls-2" x1="-0.25" y1="46.8" x2="72.25" y2="46.8"/><line class="cls-2" x1="-0.25" y1="61.2" x2="72.25" y2="61.2"/><line class="cls-2" x1="-0.25" y1="10.8" x2="72.25" y2="10.8"/><line class="cls-2" x1="-0.25" y1="25.2" x2="72.25" y2="25.2"/><line class="cls-2" x1="-0.25" y1="39.6" x2="72.25" y2="39.6"/><line class="cls-2" x1="-0.25" y1="54" x2="72.25" y2="54"/><line class="cls-2" x1="-0.25" y1="68.4" x2="72.25" y2="68.4"/><line class="cls-2" x1="-72.25" y1="3.6" x2="0.25" y2="3.6"/><line class="cls-2" x1="-72.25" y1="18" x2="0.25" y2="18"/><line class="cls-2" x1="-72.25" y1="32.4" x2="0.25" y2="32.4"/><line class="cls-2" x1="-72.25" y1="46.8" x2="0.25" y2="46.8"/><line class="cls-2" x1="-72.25" y1="61.2" x2="0.25" y2="61.2"/><line class="cls-2" x1="-72.25" y1="10.8" x2="0.25" y2="10.8"/><line class="cls-2" x1="-72.25" y1="25.2" x2="0.25" y2="25.2"/><line class="cls-2" x1="-72.25" y1="39.6" x2="0.25" y2="39.6"/><line class="cls-2" x1="-72.25" y1="54" x2="0.25" y2="54"/><line class="cls-2" x1="-72.25" y1="68.4" x2="0.25" y2="68.4"/></pattern><pattern id="New_Pattern_13-3" data-name="New Pattern 13-3" width="72" height="72" patternTransform="matrix(0.71, -0.71, -0.71, -0.71, 94.48, 663.13)" patternUnits="userSpaceOnUse" viewBox="0 0 72 72"><rect class="cls-1" width="72" height="72"/><rect class="cls-1" width="72" height="72"/><line class="cls-2" x1="71.75" y1="3.6" x2="144.25" y2="3.6"/><line class="cls-2" x1="71.75" y1="18" x2="144.25" y2="18"/><line class="cls-2" x1="71.75" y1="32.4" x2="144.25" y2="32.4"/><line class="cls-2" x1="71.75" y1="46.8" x2="144.25" y2="46.8"/><line class="cls-2" x1="71.75" y1="61.2" x2="144.25" y2="61.2"/><line class="cls-2" x1="71.75" y1="10.8" x2="144.25" y2="10.8"/><line class="cls-2" x1="71.75" y1="25.2" x2="144.25" y2="25.2"/><line class="cls-2" x1="71.75" y1="39.6" x2="144.25" y2="39.6"/><line class="cls-2" x1="71.75" y1="54" x2="144.25" y2="54"/><line class="cls-2" x1="71.75" y1="68.4" x2="144.25" y2="68.4"/><line class="cls-2" x1="-0.25" y1="3.6" x2="72.25" y2="3.6"/><line class="cls-2" x1="-0.25" y1="18" x2="72.25" y2="18"/><line class="cls-2" x1="-0.25" y1="32.4" x2="72.25" y2="32.4"/><line class="cls-2" x1="-0.25" y1="46.8" x2="72.25" y2="46.8"/><line class="cls-2" x1="-0.25" y1="61.2" x2="72.25" y2="61.2"/><line class="cls-2" x1="-0.25" y1="10.8" x2="72.25" y2="10.8"/><line class="cls-2" x1="-0.25" y1="25.2" x2="72.25" y2="25.2"/><line class="cls-2" x1="-0.25" y1="39.6" x2="72.25" y2="39.6"/><line class="cls-2" x1="-0.25" y1="54" x2="72.25" y2="54"/><line class="cls-2" x1="-0.25" y1="68.4" x2="72.25" y2="68.4"/><line class="cls-2" x1="-72.25" y1="3.6" x2="0.25" y2="3.6"/><line class="cls-2" x1="-72.25" y1="18" x2="0.25" y2="18"/><line class="cls-2" x1="-72.25" y1="32.4" x2="0.25" y2="32.4"/><line class="cls-2" x1="-72.25" y1="46.8" x2="0.25" y2="46.8"/><line class="cls-2" x1="-72.25" y1="61.2" x2="0.25" y2="61.2"/><line class="cls-2" x1="-72.25" y1="10.8" x2="0.25" y2="10.8"/><line class="cls-2" x1="-72.25" y1="25.2" x2="0.25" y2="25.2"/><line class="cls-2" x1="-72.25" y1="39.6" x2="0.25" y2="39.6"/><line class="cls-2" x1="-72.25" y1="54" x2="0.25" y2="54"/><line class="cls-2" x1="-72.25" y1="68.4" x2="0.25" y2="68.4"/></pattern><pattern id="New_Pattern_13-5" data-name="New Pattern 13-5" width="72" height="72" patternTransform="matrix(0.71, -0.71, -0.71, -0.71, 96.03, 696.08)" patternUnits="userSpaceOnUse" viewBox="0 0 72 72"><rect class="cls-1" width="72" height="72"/><rect class="cls-1" width="72" height="72"/><line class="cls-2" x1="71.75" y1="3.6" x2="144.25" y2="3.6"/><line class="cls-2" x1="71.75" y1="18" x2="144.25" y2="18"/><line class="cls-2" x1="71.75" y1="32.4" x2="144.25" y2="32.4"/><line class="cls-2" x1="71.75" y1="46.8" x2="144.25" y2="46.8"/><line class="cls-2" x1="71.75" y1="61.2" x2="144.25" y2="61.2"/><line class="cls-2" x1="71.75" y1="10.8" x2="144.25" y2="10.8"/><line class="cls-2" x1="71.75" y1="25.2" x2="144.25" y2="25.2"/><line class="cls-2" x1="71.75" y1="39.6" x2="144.25" y2="39.6"/><line class="cls-2" x1="71.75" y1="54" x2="144.25" y2="54"/><line class="cls-2" x1="71.75" y1="68.4" x2="144.25" y2="68.4"/><line class="cls-2" x1="-0.25" y1="3.6" x2="72.25" y2="3.6"/><line class="cls-2" x1="-0.25" y1="18" x2="72.25" y2="18"/><line class="cls-2" x1="-0.25" y1="32.4" x2="72.25" y2="32.4"/><line class="cls-2" x1="-0.25" y1="46.8" x2="72.25" y2="46.8"/><line class="cls-2" x1="-0.25" y1="61.2" x2="72.25" y2="61.2"/><line class="cls-2" x1="-0.25" y1="10.8" x2="72.25" y2="10.8"/><line class="cls-2" x1="-0.25" y1="25.2" x2="72.25" y2="25.2"/><line class="cls-2" x1="-0.25" y1="39.6" x2="72.25" y2="39.6"/><line class="cls-2" x1="-0.25" y1="54" x2="72.25" y2="54"/><line class="cls-2" x1="-0.25" y1="68.4" x2="72.25" y2="68.4"/><line class="cls-2" x1="-72.25" y1="3.6" x2="0.25" y2="3.6"/><line class="cls-2" x1="-72.25" y1="18" x2="0.25" y2="18"/><line class="cls-2" x1="-72.25" y1="32.4" x2="0.25" y2="32.4"/><line class="cls-2" x1="-72.25" y1="46.8" x2="0.25" y2="46.8"/><line class="cls-2" x1="-72.25" y1="61.2" x2="0.25" y2="61.2"/><line class="cls-2" x1="-72.25" y1="10.8" x2="0.25" y2="10.8"/><line class="cls-2" x1="-72.25" y1="25.2" x2="0.25" y2="25.2"/><line class="cls-2" x1="-72.25" y1="39.6" x2="0.25" y2="39.6"/><line class="cls-2" x1="-72.25" y1="54" x2="0.25" y2="54"/><line class="cls-2" x1="-72.25" y1="68.4" x2="0.25" y2="68.4"/></pattern></defs><g id="mobile"><g id="main-3"><g class="cls-3"><path class="cls-4" d="M895.65,3580.34c31.4,16.32,77.25,43.84,104.77,96.13,52.65,100,6.89,229.32-36.26,293.46-92.81,138-252.92,148.11-546.69,208.55C249.94,4213,113.89,4241,0,4270.46l-1.64,190.9c87.15-48.09,186.67-73.3,291.5-96.16,710.9-155.05,927.8-127.29,1032.83-295.95,58.86-94.53,67.92-227.22,23.83-325.74-40.1-89.58-121.51-144-222.19-187.05"/><path class="cls-4" d="M0,2099.47c197-31,372.58-35.44,515.29-38.9,69.76-1.69,139.43-6.12,209.14-9,59.05-2.46,52.83-1.29,77.87-2.39,66.49-2.91,169.73-7.84,282.29-32.48,54.75-12,168.07-36.87,166.59-60.33-1.72-27.41-159.63-43.9-186.21-46.68s-54.53-4.46-54.53-4.46c-32.78-2-60.37-2.41-80.5-2.36h0c-1.85,0-125.65-3.21-218.34-26.53-11-2.78-31.37-8.29-31.39-15.56,0-8.48,27.68-14.89,37.85-17.24,93.67-21.67,473.35-27.77,680.12-85.29,90.11-25.07,269.28-95.21,266.65-171.31C1660.45,1461,1159.48,1355,1108.5,1344.46a277.17,277.17,0,0,0-31-6.15c-231.06-31-561.48-46.16-660.56-51.32-63.73-3.32-271.7-14.17-271.61-25.57s210.42-18.5,266.65-20.11c345.38-9.93,586.28,6,586.92-3.73.37-5.48-71.3-14.81-145-24.08-88.3-11.11-174.57-18.18-211.53-20.86-86.58-6.26-152.08-13.4-192.66-17.87-65.85-7.25-148.11-17.61-242.9-32.66l-17.3-17c33.83,5.13,85.22,12.68,148,20.86,48.84,6.36,137.14,17.78,246.29,27.8,119.39,11,196.11,20.89,349.57,40.72,35.93,4.65,94.3,12.72,95.64,29.38a5.42,5.42,0,0,1,0,.57v.23c-1.18,8.35-513.51,8.55-513.51,8.55-170.11.07-339.87,4.12-339.89,8,0,3.45,137.76,6.69,520.14,21.85,12.56.49,61.17,2.45,126,6.46,176,10.88,327.12,38.23,327.12,38.23s377,67.3,535.28,233.87c6.25,6.57,16.34,18,17.88,34.26,6.83,72-164.33,150.11-281.54,186.21-67.39,20.75-116.28,27.42-407.21,49-212,15.7-293.78,20.13-293.93,29-.16,9.81,104.82,26.39,210,29.3,48.32,1.33,190.39,2.38,322.26,34.26,13.22,3.19,35.28,8.86,37.24,20.85,4.42,27-95.41,69.43-170.81,90.33-94.21,26.12-185.11,30.48-366.95,38.32-46.35,2-15.62.59-215.51,5.88-190.82,5-302.06,11.37-402,23-43.63,5.06-72.91,9.55-98.91,13.51Q16.87,2118.23,0,2121"/><circle class="cls-5" cx="660.64" cy="735.74" r="43.49"/><path class="cls-6" d="M-322.81,852l90.12-26.83a8.5,8.5,0,0,0,4.14-2.75L-209,798.55a8.41,8.41,0,0,1,2.08-1.82l55.35-34.43a8.7,8.7,0,0,0,2.28-2.08l32-42.24a8.49,8.49,0,0,1,9.5-2.9L-93.42,720a8.5,8.5,0,0,0,5.59,0L-71,714a8.52,8.52,0,0,0,4-3l12.13-16.8a8.48,8.48,0,0,1,10.63-2.63l.55.27a4,4,0,0,0,1,.35,5.47,5.47,0,0,0,3.61-.34c1.55-.78,1.94-2.15,2.65-3.11,1.91-2.59,6.26-2.38,13.4-1.91,6.16.42,11.14.81,14.52,1.1a4.24,4.24,0,0,1,1.52.41c12.7,6.39,21.31,21,35.57,32.5a4.34,4.34,0,0,1,1.62,3.36q1.89,8.64,3.79,17.26a4.15,4.15,0,0,0,2.74,3.06l4.11,1.37,16,3.36a4.2,4.2,0,0,1,2.14,1l78.47,66.41,66.65,56.88a4.2,4.2,0,0,0,1.31.76L331.6,920.62a8.54,8.54,0,0,0,3.36.51l98-5a8.48,8.48,0,0,1,8.71,6.66l21,96.49a4.3,4.3,0,0,1-3.28,5.12,4.19,4.19,0,0,1-1,.1q-239.05-4.17-478.14-4.78-218.76-.56-437.52,1.88c-3.36,0-3.48-4.59-3.4-6.38a4.39,4.39,0,0,0-.19-1.44c-16-50.94,86-126.52,136.91-161.2A4.09,4.09,0,0,1-322.81,852Z"/><path class="cls-7" d="M-105,750.19c18.51,4,11.37,33.28,36.49,61.07,30.64,33.89,74.14,27.66,76.35,47.4,1.51,13.5-17.8,25.78-25.7,30.81C-47.5,908.3-80,901.79-89,899.64h-.5c-.25,0-103.45-22.65-101.88-69,.44-13.21,11.22-24,32.77-45.44C-136,762.56-120.26,746.9-105,750.19Z"/><path class="cls-7" d="M368.92,967.92c-36.2,31.53-44.94,34.94-50.16,36.25-15.73,4-43.31,6.05-48.67-5.34-4-8.43,5.89-20.77,13.19-29.71,10.91-13.37,32.83-35,74.17-49.14,4,.12,38.06,1.37,41.26,14.18C399.74,938.31,397.41,943.11,368.92,967.92Z"/><path class="cls-8" d="M-323.21,851.74l92-27.38a4.19,4.19,0,0,0,2.1-1.4l20.84-25.42a4.27,4.27,0,0,1,1.06-.93l56.59-35.2.63-.48a35.77,35.77,0,0,0,8.35-9.25A369.37,369.37,0,0,0-86.92,813.5c60.67,54.63,123.14,73.41,334.68,133.07,56.69,16,101,28.4,120.16,33.77l-826.48,42.14a45.88,45.88,0,0,1-3.26-9.33c-2.14-9.3-4.7-34.19,44.41-86.42A426.81,426.81,0,0,1-323.21,851.74Z"/><path class="cls-6" d="M351.49,929.13,457.4,830.32a9.27,9.27,0,0,1,6.32-2.49c8.3-.84,17.46-1.4,27.35-1.42a274.64,274.64,0,0,1,28.67,1.42,9.2,9.2,0,0,1,6.61,2.78l41.74,42.57a9.26,9.26,0,0,0,11.5,1.38L649,831.4a9.27,9.27,0,0,1,10.89.81l110,93.53a9.24,9.24,0,0,0,8.94,1.72l141.66-47.53a9.28,9.28,0,0,1,8.12,1.11l201.72,136.06a9.28,9.28,0,0,0,10.15.14l58-36.94a9.33,9.33,0,0,1,5.21-1.45l75.91,1.9a9.65,9.65,0,0,0,1.42-.07l104.39-13.53a9.12,9.12,0,0,1,4.21.43l354.56,122.29c9.88,3.41,7.43,18-3,18H171a9.27,9.27,0,0,1-6.08-16.25Z"/><path class="cls-7" d="M394.74,926c9.86.64,9.62,12.45,23.83,19.36,22.29,10.85,37.26-11.22,61.82-2.23,17.54,6.42,18.4,20.36,40.22,26.07,13.16,3.44,21.76.13,22.1,1.73.81,3.84-48,23.72-105.77,24.33-30.93.33-67.14.72-75-17.87C354,958.5,377.72,924.85,394.74,926Z"/><path class="cls-9" d="M701.61,959.48c-19.81-11-38.53,15.25-85.66,22.35-33.79,5.09-33.58-7-73.74-1.49-35.55,4.85-42.25,15.2-68.52,12.66-31.56-3-45.4-20.26-52.88-14.15-10.11,8.25,0,52.05,26.06,76,70.9,65,268.29-9.18,271-65.54C718.43,978.27,711.68,965.06,701.61,959.48Z"/><path class="cls-10" d="M346.07,933.33c17.41,22.77,62.4,75.28,141,104.77,83.62,31.38,156.33,18.35,184,11.92-139.39,38.24-457.76,119-497.11,54.56a49.85,49.85,0,0,1-6.08-16.25Z"/><path class="cls-4" d="M490.24,826.41A709.76,709.76,0,0,1,501.5,960a710.22,710.22,0,0,1-7.45,95.3l19.86,3c-1.09-40.12-1.67-72.12-2-93.35-.55-36.51-.7-53.66-4-78.63a445.6,445.6,0,0,0-12.08-59.88h-2.32Z"/><path class="cls-11" d="M-167.14,1093.26q18.88-77.1,37.78-154.18l157.51-86.4L92,798.06l38.54-58.34a9.19,9.19,0,0,1,7.67-4H148.3a9.13,9.13,0,0,1,8,4.48l28.08,50a9.29,9.29,0,0,0,11.18,3.94l18.16-6.41a9.63,9.63,0,0,1,6.36,0l4.81,1.67a8.82,8.82,0,0,1,4.6,3.59l21,33.15a7.92,7.92,0,0,1,1,2.51l31.78,140.48c1.5,6.64,10.48,8.92,15.43,3.92l16.85-17a9.15,9.15,0,0,1,3.6-2.22l12-4a9.56,9.56,0,0,1,9.06,1.67l51.34,42.9a9.34,9.34,0,0,1,1.61,1.77l25,37.09a8.9,8.9,0,0,0,4.94,3.54l16.57,4.8a9.11,9.11,0,0,1,3.81,2.19L488,1086.9c5.44,5.27,1.48,14-6.38,14.1l-556.21,6.89Z"/><path class="cls-12" d="M45.45,913.26c12-5.9,32.86,10.25,38,14.2,16.55,12.83,17.74,24.17,29.05,35.75,16.31,16.69,34.14,13.89,67.78,20.85,58.58,12.12,112.52,43,109.92,54.57-.53,2.34-5,3.76-13.84,6.51-40.45,12.52-60.72,18.79-63.31,19.36-33.4,7.35-50.1,11-55.12,11.18-3.1.09-64.86.58-100.55-46.18C25,987.09,26.74,922.43,45.45,913.26Z"/><path class="cls-13" d="M-167.14,1093.26q18.88-77.1,37.78-154.18l157.51-86.4c9,22.05,49.34,114.37,154.68,165.24,111.21,53.7,214.24,22.3,235.39,15.34a8.66,8.66,0,0,0,2.13,2.18,9.15,9.15,0,0,0,2.81,1.36l16.57,4.8a9.11,9.11,0,0,1,3.81,2.19L488,1086.9c5.44,5.27,1.48,14-6.38,14.1l-556.21,6.89Z"/></g></g></g></svg>