<svg id="Layer_1" data-name="Layer 1" xmlns="http://www.w3.org/2000/svg" xmlns:xlink="http://www.w3.org/1999/xlink" viewBox="0 0 750 7971.12"><defs><style>.cls-1,.cls-2{fill:none;}.cls-2{stroke:#63594c;stroke-width:1.44px;}.cls-3{clip-path:url(#clip-path);}.cls-4{fill:#c0e0ec;}.cls-5{fill:#fcc57b;}.cls-6{fill:#a8c1af;}.cls-7{fill:#8ba592;}.cls-8{fill:url(#New_Pattern_13);}.cls-9{fill:url(#New_Pattern_13-3);}</style><clipPath id="clip-path"><rect class="cls-1" width="750" height="7971.12"/></clipPath><pattern id="New_Pattern_13" data-name="New Pattern 13" width="72" height="72" patternTransform="matrix(0.71, -0.71, -0.71, -0.71, 86.61, 719.97)" patternUnits="userSpaceOnUse" viewBox="0 0 72 72"><rect class="cls-1" width="72" height="72"/><rect class="cls-1" width="72" height="72"/><line class="cls-2" x1="71.75" y1="3.6" x2="144.25" y2="3.6"/><line class="cls-2" x1="71.75" y1="18" x2="144.25" y2="18"/><line class="cls-2" x1="71.75" y1="32.4" x2="144.25" y2="32.4"/><line class="cls-2" x1="71.75" y1="46.8" x2="144.25" y2="46.8"/><line class="cls-2" x1="71.75" y1="61.2" x2="144.25" y2="61.2"/><line class="cls-2" x1="71.75" y1="10.8" x2="144.25" y2="10.8"/><line class="cls-2" x1="71.75" y1="25.2" x2="144.25" y2="25.2"/><line class="cls-2" x1="71.75" y1="39.6" x2="144.25" y2="39.6"/><line class="cls-2" x1="71.75" y1="54" x2="144.25" y2="54"/><line class="cls-2" x1="71.75" y1="68.4" x2="144.25" y2="68.4"/><line class="cls-2" x1="-0.25" y1="3.6" x2="72.25" y2="3.6"/><line class="cls-2" x1="-0.25" y1="18" x2="72.25" y2="18"/><line class="cls-2" x1="-0.25" y1="32.4" x2="72.25" y2="32.4"/><line class="cls-2" x1="-0.25" y1="46.8" x2="72.25" y2="46.8"/><line class="cls-2" x1="-0.25" y1="61.2" x2="72.25" y2="61.2"/><line class="cls-2" x1="-0.25" y1="10.8" x2="72.25" y2="10.8"/><line class="cls-2" x1="-0.25" y1="25.2" x2="72.25" y2="25.2"/><line class="cls-2" x1="-0.25" y1="39.6" x2="72.25" y2="39.6"/><line class="cls-2" x1="-0.25" y1="54" x2="72.25" y2="54"/><line class="cls-2" x1="-0.25" y1="68.4" x2="72.25" y2="68.4"/><line class="cls-2" x1="-72.25" y1="3.6" x2="0.25" y2="3.6"/><line class="cls-2" x1="-72.25" y1="18" x2="0.25" y2="18"/><line class="cls-2" x1="-72.25" y1="32.4" x2="0.25" y2="32.4"/><line class="cls-2" x1="-72.25" y1="46.8" x2="0.25" y2="46.8"/><line class="cls-2" x1="-72.25" y1="61.2" x2="0.25" y2="61.2"/><line class="cls-2" x1="-72.25" y1="10.8" x2="0.25" y2="10.8"/><line class="cls-2" x1="-72.25" y1="25.2" x2="0.25" y2="25.2"/><line class="cls-2" x1="-72.25" y1="39.6" x2="0.25" y2="39.6"/><line class="cls-2" x1="-72.25" y1="54" x2="0.25" y2="54"/><line class="cls-2" x1="-72.25" y1="68.4" x2="0.25" y2="68.4"/></pattern><pattern id="New_Pattern_13-3" data-name="New Pattern 13-3" width="72" height="72" patternTransform="matrix(0.71, -0.71, -0.71, -0.71, 106.57, 725.21)" patternUnits="userSpaceOnUse" viewBox="0 0 72 72"><rect class="cls-1" width="72" height="72"/><rect class="cls-1" width="72" height="72"/><line class="cls-2" x1="71.75" y1="3.6" x2="144.25" y2="3.6"/><line class="cls-2" x1="71.75" y1="18" x2="144.25" y2="18"/><line class="cls-2" x1="71.75" y1="32.4" x2="144.25" y2="32.4"/><line class="cls-2" x1="71.75" y1="46.8" x2="144.25" y2="46.8"/><line class="cls-2" x1="71.75" y1="61.2" x2="144.25" y2="61.2"/><line class="cls-2" x1="71.75" y1="10.8" x2="144.25" y2="10.8"/><line class="cls-2" x1="71.75" y1="25.2" x2="144.25" y2="25.2"/><line class="cls-2" x1="71.75" y1="39.6" x2="144.25" y2="39.6"/><line class="cls-2" x1="71.75" y1="54" x2="144.25" y2="54"/><line class="cls-2" x1="71.75" y1="68.4" x2="144.25" y2="68.4"/><line class="cls-2" x1="-0.25" y1="3.6" x2="72.25" y2="3.6"/><line class="cls-2" x1="-0.25" y1="18" x2="72.25" y2="18"/><line class="cls-2" x1="-0.25" y1="32.4" x2="72.25" y2="32.4"/><line class="cls-2" x1="-0.25" y1="46.8" x2="72.25" y2="46.8"/><line class="cls-2" x1="-0.25" y1="61.2" x2="72.25" y2="61.2"/><line class="cls-2" x1="-0.25" y1="10.8" x2="72.25" y2="10.8"/><line class="cls-2" x1="-0.25" y1="25.2" x2="72.25" y2="25.2"/><line class="cls-2" x1="-0.25" y1="39.6" x2="72.25" y2="39.6"/><line class="cls-2" x1="-0.25" y1="54" x2="72.25" y2="54"/><line class="cls-2" x1="-0.25" y1="68.4" x2="72.25" y2="68.4"/><line class="cls-2" x1="-72.25" y1="3.6" x2="0.25" y2="3.6"/><line class="cls-2" x1="-72.25" y1="18" x2="0.25" y2="18"/><line class="cls-2" x1="-72.25" y1="32.4" x2="0.25" y2="32.4"/><line class="cls-2" x1="-72.25" y1="46.8" x2="0.25" y2="46.8"/><line class="cls-2" x1="-72.25" y1="61.2" x2="0.25" y2="61.2"/><line class="cls-2" x1="-72.25" y1="10.8" x2="0.25" y2="10.8"/><line class="cls-2" x1="-72.25" y1="25.2" x2="0.25" y2="25.2"/><line class="cls-2" x1="-72.25" y1="39.6" x2="0.25" y2="39.6"/><line class="cls-2" x1="-72.25" y1="54" x2="0.25" y2="54"/><line class="cls-2" x1="-72.25" y1="68.4" x2="0.25" y2="68.4"/></pattern></defs><g id="mobile"><g id="main-3"><g class="cls-3"><path class="cls-4" d="M895.65,3580.34c31.4,16.32,77.25,43.84,104.77,96.13,52.65,100,6.89,229.32-36.26,293.46-92.81,138-252.92,148.11-546.69,208.55C249.94,4213,113.89,4241,0,4270.46l-1.64,190.9c87.15-48.09,186.67-73.3,291.5-96.16,710.9-155.05,927.8-127.29,1032.83-295.95,58.86-94.53,67.92-227.22,23.83-325.74C1306.9,3655,1227,3600.79,1127.92,3558"/><path class="cls-4" d="M0,2099.47c197-31,372.58-35.44,515.29-38.9,69.76-1.69,139.43-6.12,209.14-9,59.05-2.46,52.83-1.29,77.87-2.39,66.49-2.91,169.73-7.84,282.29-32.48,54.75-12,168.07-36.87,166.59-60.33-1.72-27.41-159.63-43.9-186.21-46.68s-54.53-4.46-54.53-4.46c-32.78-2-60.37-2.41-80.5-2.36h0c-1.85,0-125.65-3.21-218.34-26.53-11-2.78-31.37-8.29-31.39-15.56,0-8.48,27.68-14.89,37.85-17.24,93.67-21.67,473.35-27.77,680.12-85.29,90.11-25.07,269.28-95.21,266.65-171.31C1660.45,1461,1159.48,1355,1108.5,1344.46a277.17,277.17,0,0,0-31-6.15c-231.06-31-561.48-46.16-660.56-51.32-63.73-3.32-271.7-14.17-271.61-25.57s210.42-18.5,266.65-20.11c345.38-9.93,586.28,6,586.92-3.73.37-5.48-71.3-14.81-145-24.08-88.3-11.11-174.57-18.18-211.53-20.86-86.58-6.26-152.08-13.4-192.66-17.87-65.85-7.25-148.11-17.61-242.9-32.66l-17.3-17c33.83,5.13,85.22,12.68,148,20.86,48.84,6.36,137.14,17.78,246.29,27.8,119.39,11,196.11,20.89,349.57,40.72,35.93,4.65,94.3,12.72,95.64,29.38a5.42,5.42,0,0,1,0,.57v.23c-1.18,8.35-513.51,8.55-513.51,8.55-170.11.07-339.87,4.12-339.89,8,0,3.45,137.76,6.69,520.14,21.85,12.56.49,61.17,2.45,126,6.46,176,10.88,327.12,38.23,327.12,38.23s377,67.3,535.28,233.87c6.25,6.57,16.34,18,17.88,34.26,6.83,72-164.33,150.11-281.54,186.21-67.39,20.75-116.28,27.42-407.21,49-212,15.7-293.78,20.13-293.93,29-.16,9.81,104.82,26.39,210,29.3,48.32,1.33,190.39,2.38,322.26,34.26,13.22,3.19,35.28,8.86,37.24,20.85,4.42,27-95.41,69.43-170.81,90.33-94.21,26.12-185.11,30.48-366.95,38.32-46.35,2-15.62.59-215.51,5.88-190.82,5-302.06,11.37-402,23-43.63,5.06-72.91,9.55-98.91,13.51Q16.87,2118.23,0,2121"/><circle class="cls-5" cx="660.64" cy="735.74" r="43.49"/><path class="cls-6" d="M424.64,1002.58h36.87a14.72,14.72,0,0,1,10.74,4.66L493.53,1030a14.69,14.69,0,0,0,20.56.9l42.67-38.23a15.18,15.18,0,0,1,2.15-1.6l20.16-12.3a14.72,14.72,0,0,1,7.67-2.16h58.57A14.72,14.72,0,0,0,658.68,968l86.59-188.11a14.74,14.74,0,0,1,5.09-6l37.73-25.69a14.68,14.68,0,0,1,11-2.31l59,11a14.7,14.7,0,0,0,9.27-1.3l17.42-8.7a14.7,14.7,0,0,1,8.8-1.38l19.17,2.92a14.72,14.72,0,0,1,8,3.91L943,773.74a14.64,14.64,0,0,0,3.23,2.34l80.64,43.08a14.75,14.75,0,0,1,4.64,3.89l156.94,199.76a14.58,14.58,0,0,1,2.73,5.64l22.06,91.36a14.72,14.72,0,0,1-10.84,17.78,14.92,14.92,0,0,1-3.4.41H-31.64c-17.5,0-20.38-25.1-3.33-29l456.28-106A14.4,14.4,0,0,1,424.64,1002.58Z"/><path class="cls-7" d="M104.25,1075.68l41.62-8.6c9.57,8.87,25.28,20.9,47,26.47,27.26,7,43.76-1.4,77.46-1.49,28.18-.07,28.43,5.75,73,12.66,77.09,12,125.32,2.32,130.25,18.06.79,2.53.76,7-5.86,14.72l-357.52-.75Q107.25,1106.21,104.25,1075.68Z"/><path class="cls-7" d="M481.14,1104.72c-2.18-10.83,5.83-22.79,13.9-29.54,21.75-18.21,46.55-.82,114.7-5.46,15.21-1,19.21-2.26,32.28-2,3.24.07,63.69,1.61,66.54,15.89,3.51,17.61-78.68,63.77-160.39,53.13C538.12,1135.44,486,1128.65,481.14,1104.72Z"/><path class="cls-8" d="M198.43,1054.92a2832.08,2832.08,0,0,0,467.42,66.44,2833.43,2833.43,0,0,0,542.59-20.81l2.28,9.31c4.9,8.64,4.11,18.4-1.31,23.75A16.56,16.56,0,0,1,1199,1138H-31.64c-17.5,0-20.38-25.1-3.33-29Z"/><path class="cls-6" d="M-443.53,741l124.68,15.4a14.83,14.83,0,0,0,5.27-.3l25.4-6a14.79,14.79,0,0,1,9.9,1.07l90.06,43.4a14.86,14.86,0,0,0,6.45,1.48h43.08a14.87,14.87,0,0,1,9.84,3.72l45.79,40.4a14.88,14.88,0,0,0,4.7,2.81l56.17,20.69a15.22,15.22,0,0,1,2.31,1.09l27.64,16a15.32,15.32,0,0,1,2.34,1.67l96.61,84.46c3.69,3.23,3.7,7.54,5.07,10.73,11.63,27,14.77,53.43,12.79,146.22-.12,5.86-.24,10.76-.33,14.22l-22.52.27-715.34,12.83a14.9,14.9,0,0,1-15.15-14.63V747.08a34.28,34.28,0,0,1,4.63-10.78C-594.26,691.13-458.49,735.91-443.53,741Z"/><path class="cls-7" d="M-275.11,972.39c13.43-5.14,25.4,71.67,81.82,86.1,25.77,6.59,104.7,11.42,115.53,16.51,13,6.12,11,7.94,30,17.51,44.58,22.55,76.43,22.92,76.09,28.16-.62,9.38-103.3,9.38-153,9.38-56.48,0-90.16-1.89-110.09-20.65a59.56,59.56,0,0,1-4.53-5C-280.19,1057.22-288.67,977.59-275.11,972.39Z"/><path class="cls-9" d="M124.84,1108.45q-.11,7.62-.27,15.31-.13,7.14-.33,14.22l-22.52.27-715.34,12.83a14.9,14.9,0,0,1-15.15-14.63V869.09A884.62,884.62,0,0,0-512,960.48C-272.91,1117-13.9,1119.36,124.84,1108.45Z"/><path class="cls-4" d="M436.13,1002.63A346.59,346.59,0,0,1,442.41,1108c-.86,9-2.05,17.6-3.48,25.82l17,1.93c1.22-14.79,1.87-30.81,1.62-47.88a495.14,495.14,0,0,0-8.65-85.19H436.13Z"/></g></g></g></svg>