<svg id="Layer_1" data-name="Layer 1" xmlns="http://www.w3.org/2000/svg" xmlns:xlink="http://www.w3.org/1999/xlink" viewBox="0 0 750.05 1433.67"><defs><style>.cls-1{fill:none;}.cls-2{clip-path:url(#clip-path);}.cls-3{fill:#c0e0ec;}</style><clipPath id="clip-path"><rect class="cls-1" y="-5836.89" width="750" height="7971.12"/></clipPath></defs><g id="Layer_2" data-name="Layer 2"><g id="mobile"><g id="main"><g class="cls-2"><path class="cls-3" d="M-1.64-575.53C-56.23-545.42-106-506.32-149.09-453.21-175.67-420.5-292-277.29-248.4-155.28-178,41.88,271.6,76.32,456.7,90.51a2199,2199,0,0,1,222,26.82c157.93,27.32,246.57,60.68,284.52,76,68.25,27.49,106.92,43.07,152,76,34.28,25.05,104.64,83.38,181.73,254.73,80.8,179.58,166.33,369.67,89.38,555.85-8,19.32-37.15,85.61-115.2,158.9-199.13,187-474.66,192.39-856,194.64-259.46,1.54-520.1.76-826.26-111.22-31.81-11.64-202.58-75.61-386.32-217.21-106.12-81.77-251.28-193.33-226.43-280.06,17.08-59.6,104.44-82,278.57-126.62,169.85-43.52,221.14-32,362-79,96.73-32.23,230.67-76.85,232.39-140,1.27-46.61-75.19-79.85-178.76-151.94-124.49-86.65-150.8-86-212.52-143,0,0-98.06-88.33-143-210.54C-735-161.52-615-408.39-426.5-570.18-317-664.18-189-717.37.17-766.39"/></g></g></g></g></svg>