<svg xmlns="http://www.w3.org/2000/svg" viewBox="0 0 715.99 218.83"><defs><style>.cls-1{fill:#fff;}</style></defs><g id="Layer_2" data-name="Layer 2"><g id="regular"><g id="main"><path class="cls-1" d="M266.86,73.9c11.49.42,10.78,5.73,30,11.1,18,5,29.27,3.13,34.07-1.07,5.66-4.94,2.11-10,5.25-16.06,8-15.56,51.72-23.4,87.81-13.92,33,8.67,43.61,27.62,68.16,23.55,2.18-.36,15.33-2.53,18.34-9.63,4.35-10.25-16.7-20.78-13.1-26.77,2.6-4.33,16.92-4.3,73.39,5.36,33.13,5.66,56.68,10.52,58.88,6.42,1.7-3.19-12-7.16-15.62-18.2-4.35-13.12,7-31.38,21-34.26,22-4.55,47.41,29.66,52.42,36.4,23.71,31.87,47.07,95.17,6.56,136-28.84,29-76.23,32.79-121.89,36.4-58.31,4.61-59.37-9.14-121.9-4.28-58.95,4.58-69.78,17.72-116.65,12.85-25.52-2.66-22.58-6.59-74.7-15-44.7-7.21-49-4.68-77.33-11.78-34.82-8.74-38.35-15.1-55-12.85-19.17,2.59-30.78,13.16-52.43,9.64-5.83-.95-5.19-1.75-14.41-4.29-34.19-9.38-55-1.67-59-8.56-3.55-6.13,8.53-19.85,22.28-22.49,8.62-1.65,12,2.18,22.28,1.07,11.06-1.19,14.61-6.47,26.21-12.84,5.22-2.87,31.42-17.26,53.74-11.78,15.09,3.7,15.57,12.66,27.52,12.85,14.58.22,16.16-13.32,36.7-19.28,19.72-5.72,35.14,1.86,40.63-5.35,2.81-3.68-.62-6.45,1.31-16.06a31.94,31.94,0,0,1,6.85-15.61C248,73.59,263.78,73.78,266.86,73.9Z"/></g></g></g></svg>