<svg xmlns="http://www.w3.org/2000/svg" viewBox="0 0 1322.2 150.1"><defs><style>.cls-1{fill:#fff;}</style></defs><g id="Layer_2" data-name="Layer 2"><g id="regular"><g id="main"><path class="cls-1" d="M1305.32,58.82c-31.71-25.72-80.12,31.77-164.53,14.47-24.46-5-36.22-13.08-68.24-14.44-39-1.65-78.11,7.9-78.38,17-.22,7.33,25.1,10.23,24.57,16-.7,7.58-45.6,19.77-80.36,1.52C924.77,86.22,926,81.36,897.7,61c-15.15-10.92-25.4-18.31-39-24-21.1-8.82-40.89-9.58-60.24-8.64-52,2.5-78.46,16.06-110,21.9-71,13.15-72.1-30.65-170.45-31.87-72.23-.89-100.94,22.37-146.72-.29C362.42,13.71,345.19,3.75,320,1.67c-5.69-.47-47.17-4.1-58.66,16.24-7.57,13.42,4.65,25.3-4.3,36.84-9.85,12.71-33.24,9.34-39.19,8.48-9.71-1.4-24.44-5.9-24.72-12.06-.27-5.88,12.84-7.42,13.89-14.35,1.43-9.52-21.05-21.71-39.12-28.19C130.87-4.66,97.77.69,83,3.26c-19.58,3.4-41.5,7.49-61.17,24.8C16.49,32.79-3.9,50.73.66,65.51c3.12,10.1,16.42,14,37.4,19.8,37,10.27,51.67,4.24,69.75,17.2,13.08,9.38,12.32,17.47,20.7,26.05,29.27,30,92.94-13,185.35-23.69,54.46-6.29,38.67,7.91,183.82,11.63,62.14,1.6,74.91-.75,117.24,4.19,62.81,7.33,71.71,16.83,111.7,14.85,54.51-2.69,63.08-21.58,113.56-27.3,47.16-5.34,55.81,11.82,137.73,24.6,43.72,6.82,95.15,9.19,198,13.93,94.49,4.36,121.79,7.67,136.4-12C1327.71,114,1324.93,74.73,1305.32,58.82Z"/></g></g></g></svg>