<svg xmlns="http://www.w3.org/2000/svg" viewBox="0 0 1120.12 192.35"><defs><style>.cls-1{fill:#fff;}</style></defs><g id="Layer_2" data-name="Layer 2"><g id="regular"><g id="main"><path class="cls-1" d="M1073.45,149.92c-45.1,7-67.64,10.48-78.76,11.14-102.21,6.05-268.83-20.31-315.6-3a244.11,244.11,0,0,1-42.82,11.83,226,226,0,0,1-24.38,3.07c-32.66,2.34-41.88-3.95-72.51,0-33.3,4.29-33.87,13.19-63.67,17.61-48.08,7.13-95.95-8.71-95.49-16.26.21-3.42,10.31-3.72,42.44-14.89,19.07-6.63,32.43-12.41,31.83-13.54-.9-1.72-30.48,13.26-61.89,6.77-14.05-2.91-17-7.73-30.07-8.13-17.5-.53-28,7.68-38.9,12.19-31.05,12.83-53.76-9.06-118.49-14.9-60.6-5.46-76.25,10.52-104.34-4.06C78,125.91,82.37,112.33,53.05,98.46,26.78,86,.06,85.94,0,79.5c-.06-6.18,24.55-6.53,30.06-19,4.34-9.77-8.3-15.33-5.3-25.73C28.48,21.9,53.64,10.64,76,11.78c27.6,1.41,40.65,21.11,54.83,16.25,9.54-3.27,5.27-12.78,15.91-20.31,17.63-12.47,63.45-10.5,79.58,10.83,5,6.65.26,9.36,3.54,29.8,2.83,17.66,4.33,27,12.38,31.15,11.8,6.13,25.11-5.25,53-9.48,48.16-7.3,85.74,14.82,93.73,5.41,4.94-5.81-9.83-13.81-5.31-25.73,5.87-15.44,37.55-20.12,38.91-20.31,30.52-4.22,57.91,10.46,63.67,13.54,19,10.2,21.24,18.8,33.6,19,15.28.2,18.26-12.89,37.13-14.9,16.17-1.71,32.15,6,40.68,13.55,12.26,10.91,5.94,18.82,14.15,24.37,18.63,12.62,59.28-22.71,120.25-23,13-.06,39.34,6.73,92,20.31,63.58,16.42,59.89,18.47,81.35,21.67,24.35,3.64,92-23.89,136.17-20.31s82,39.68,78.24,53.25C1118.34,142.26,1110.06,144.24,1073.45,149.92Z"/></g></g></g></svg>