<svg xmlns="http://www.w3.org/2000/svg" viewBox="0 0 519.23 75.74"><defs><style>.cls-1{fill:#fff;}</style></defs><g id="Layer_2" data-name="Layer 2"><g id="regular"><g id="main"><path class="cls-1" d="M0,39.72c.52-3.25,16.73-5.32,57.85-8.89,74.36-6.46,119.31-5,122.46-11.35,2.18-4.4-17.89-7.75-16-12.07C167.77-.68,243.34-.15,273.46.12c35.65.33,246,2.26,245.77,8.18-.15,3.59-77.43,4.83-77.49,9.71-.06,4.37,61.85,5.81,63.1,12.77,1.42,7.94-77.59,14.63-76.56,25.59.44,4.69,15.22,6.19,14.52,9.34-.86,3.84-24.54,10-146.09,10C168.45,75.79,41.75,69,42.08,64c.22-3.3,61.26-5,60.89-7.41C102.73,55,76.49,56.12,42.64,51,33.79,49.62-.76,44.57,0,39.72Z"/></g></g></g></svg>