<svg xmlns="http://www.w3.org/2000/svg" viewBox="0 0 1302.77 150.36"><defs><style>.cls-1{fill:#fff;}</style></defs><g id="Layer_2" data-name="Layer 2"><g id="regular"><g id="main"><path class="cls-1" d="M16.08,115.64c19.82,9.41,51.53,8.24,60,8.06,93-2,822.73,38.82,901.07,23,16.08-3.24,40.32-9.51,79.79-13.64,96.37-10.08,153.5,6.16,194-12.16,1.17-.53,22.57-10.41,17.84-17.67-5.52-8.5-44.06-9.3-43.53-10.25.31-.55,12.72,1.11,27.8.09,5.13-.35,33.21-2.26,44.56-12.47,6.43-5.78,7.77-14.46-.86-17.64-9.21-3.39-21.14,2.65-37.42.06-17-2.71-13.94-12.06-28.73-13.62-17-1.79-29.59,4.44-61.12,12.72-25.8,6.78-79.78,21-104.14,13.07-12.29-4-6.92-10.3-21.26-14-16.18-4.16-43.6-1.07-54,6.18-9.24,6.47-1.51,13.89-9,16-6.45,1.82-13.92-3.18-26-5.43C918.51,71.18,880.51,97,823,94.16c-10.36-.52-23.59-2.08-23.46-4.11.17-2.81,25.74-4.76,62.05-10.16,47.34-7,77.67-11.49,79.56-18,2.51-8.71-37.5-19.47-75.87-21C813.9,38.72,756.05,52.75,753.63,53.35c-23,5.71-38.12,11.41-53.83,8.83-13.49-2.22-23.77-10-19.46-15,6.94-8.07,46.58-2.86,59.27-12.57,10-7.65-1.84-20.63-18.18-27.4C705.9.75,687.47.41,668.69.05,657.31-.16,614-.34,572.07,13.63c-17.59,5.87-15.84,7.86-29.35,12-37.8,11.71-83.31,5.95-104.56,4.24C322,20.6,281.18,81.07,120.85,83.49,90.41,84,18.46,82.83,0,99.14,1.3,103.34,4.77,110.27,16.08,115.64Z"/></g></g></g></svg>