<svg xmlns="http://www.w3.org/2000/svg" viewBox="0 0 493.89 79.57"><defs><style>.cls-1{fill:#fff;}</style></defs><g id="Layer_2" data-name="Layer 2"><g id="regular"><g id="main"><path class="cls-1" d="M137.17,17.1c3.33-2.6-5.24-5.39-3.8-8.67,3.49-8,62.51-9.53,166.06-7.78C394.55,2.25,419.31,4.8,419.89,8c.78,4.39-43.4,8.3-42.13,12.74.86,3,21.53,3.11,55.3,6.65,28.54,3,60.56,6.23,60.82,10.12.51,7.43-114.59,12.68-114,20.92.24,3.7,23.62,4.43,23.71,7.36.2,6.2-103.65,15.34-222,13.53C90.73,77.94-.18,68.74,0,60.89c.19-8.48,106.67-14.8,105-21.31-.14-.53-1-1-18.93-5.33C64.57,29,59.5,28.14,59.37,26.47c-.22-2.94,15.06-5.75,24.95-7C112.15,16.07,132.28,20.93,137.17,17.1Z"/></g></g></g></svg>