<svg xmlns="http://www.w3.org/2000/svg" viewBox="0 0 1302.77 150.36"><defs><style>.cls-1{fill:#fff;}</style></defs><g id="Layer_2" data-name="Layer 2"><g id="regular"><g id="main"><path class="cls-1" d="M1286.69,115.64c-19.82,9.41-51.53,8.24-60,8.06-93-2-822.72,38.82-901.07,23-16.07-3.24-40.31-9.51-79.78-13.64-96.37-10.08-153.5,6.16-194-12.16-1.18-.53-22.58-10.41-17.85-17.67C39.57,94.75,78.11,94,77.58,93c-.31-.55-12.72,1.11-27.8.09-5.13-.35-33.21-2.26-44.56-12.47C-1.21,74.84-2.55,66.16,6.08,63c9.21-3.39,21.14,2.65,37.42.06,17-2.71,13.94-12.06,28.73-13.62,17-1.79,29.59,4.44,61.12,12.72,25.8,6.78,79.77,21,104.13,13.07,12.29-4,6.92-10.3,21.27-14,16.18-4.16,43.6-1.07,53.95,6.18,9.24,6.47,1.52,13.89,9,16,6.45,1.82,13.91-3.18,26-5.43,36.52-6.78,74.52,19.07,132,16.2,10.36-.52,23.59-2.08,23.46-4.11-.17-2.81-25.74-4.76-62.05-10.16-47.34-7-77.68-11.49-79.57-18-2.51-8.71,37.5-19.47,75.87-21,51.38-2.09,109.23,11.94,111.65,12.54,23.05,5.71,38.12,11.41,53.82,8.83,13.5-2.22,23.77-10,19.47-15-6.94-8.07-46.58-2.86-59.28-12.57-10-7.65,1.85-20.63,18.18-27.4C596.87.75,615.3.41,634.07.05c11.39-.21,54.73-.39,96.63,13.58,17.59,5.87,15.83,7.86,29.34,12,37.8,11.71,83.32,5.95,104.57,4.24,116.13-9.32,157,51.15,317.31,53.57,30.44.46,102.39-.66,120.85,15.65C1301.47,103.34,1298,110.27,1286.69,115.64Z"/></g></g></g></svg>