<svg xmlns="http://www.w3.org/2000/svg" xmlns:xlink="http://www.w3.org/1999/xlink" viewBox="0 0 143.42 278.51"><defs><style>.cls-1,.cls-2{fill:none;}.cls-2{stroke:#84786a;stroke-width:1.44px;}.cls-3{fill:#cec8be;}.cls-4{fill:#645a4d;}.cls-5{fill:#a8a196;}.cls-6{fill:url(#New_Pattern_18);}.cls-7{fill:url(#New_Pattern_18-3);}.cls-8{fill:url(#New_Pattern_18-5);}</style><pattern id="New_Pattern_18" data-name="New Pattern 18" width="72" height="72" patternTransform="translate(-472.21 -367.5) rotate(-45) scale(0.86)" patternUnits="userSpaceOnUse" viewBox="0 0 72 72"><rect class="cls-1" width="72" height="72"/><line class="cls-2" x1="71.75" y1="68.4" x2="144.25" y2="68.4"/><line class="cls-2" x1="71.75" y1="54" x2="144.25" y2="54"/><line class="cls-2" x1="71.75" y1="39.6" x2="144.25" y2="39.6"/><line class="cls-2" x1="71.75" y1="25.2" x2="144.25" y2="25.2"/><line class="cls-2" x1="71.75" y1="10.8" x2="144.25" y2="10.8"/><line class="cls-2" x1="71.75" y1="61.2" x2="144.25" y2="61.2"/><line class="cls-2" x1="71.75" y1="46.8" x2="144.25" y2="46.8"/><line class="cls-2" x1="71.75" y1="32.4" x2="144.25" y2="32.4"/><line class="cls-2" x1="71.75" y1="18" x2="144.25" y2="18"/><line class="cls-2" x1="71.75" y1="3.6" x2="144.25" y2="3.6"/><line class="cls-2" x1="-0.25" y1="68.4" x2="72.25" y2="68.4"/><line class="cls-2" x1="-0.25" y1="54" x2="72.25" y2="54"/><line class="cls-2" x1="-0.25" y1="39.6" x2="72.25" y2="39.6"/><line class="cls-2" x1="-0.25" y1="25.2" x2="72.25" y2="25.2"/><line class="cls-2" x1="-0.25" y1="10.8" x2="72.25" y2="10.8"/><line class="cls-2" x1="-0.25" y1="61.2" x2="72.25" y2="61.2"/><line class="cls-2" x1="-0.25" y1="46.8" x2="72.25" y2="46.8"/><line class="cls-2" x1="-0.25" y1="32.4" x2="72.25" y2="32.4"/><line class="cls-2" x1="-0.25" y1="18" x2="72.25" y2="18"/><line class="cls-2" x1="-0.25" y1="3.6" x2="72.25" y2="3.6"/><line class="cls-2" x1="-72.25" y1="68.4" x2="0.25" y2="68.4"/><line class="cls-2" x1="-72.25" y1="54" x2="0.25" y2="54"/><line class="cls-2" x1="-72.25" y1="39.6" x2="0.25" y2="39.6"/><line class="cls-2" x1="-72.25" y1="25.2" x2="0.25" y2="25.2"/><line class="cls-2" x1="-72.25" y1="10.8" x2="0.25" y2="10.8"/><line class="cls-2" x1="-72.25" y1="61.2" x2="0.25" y2="61.2"/><line class="cls-2" x1="-72.25" y1="46.8" x2="0.25" y2="46.8"/><line class="cls-2" x1="-72.25" y1="32.4" x2="0.25" y2="32.4"/><line class="cls-2" x1="-72.25" y1="18" x2="0.25" y2="18"/><line class="cls-2" x1="-72.25" y1="3.6" x2="0.25" y2="3.6"/></pattern><pattern id="New_Pattern_18-3" data-name="New Pattern 18" width="72" height="72" patternTransform="translate(-474.93 -336.36) rotate(-45) scale(0.86)" patternUnits="userSpaceOnUse" viewBox="0 0 72 72"><rect class="cls-1" width="72" height="72"/><line class="cls-2" x1="71.75" y1="68.4" x2="144.25" y2="68.4"/><line class="cls-2" x1="71.75" y1="54" x2="144.25" y2="54"/><line class="cls-2" x1="71.75" y1="39.6" x2="144.25" y2="39.6"/><line class="cls-2" x1="71.75" y1="25.2" x2="144.25" y2="25.2"/><line class="cls-2" x1="71.75" y1="10.8" x2="144.25" y2="10.8"/><line class="cls-2" x1="71.75" y1="61.2" x2="144.25" y2="61.2"/><line class="cls-2" x1="71.75" y1="46.8" x2="144.25" y2="46.8"/><line class="cls-2" x1="71.75" y1="32.4" x2="144.25" y2="32.4"/><line class="cls-2" x1="71.75" y1="18" x2="144.25" y2="18"/><line class="cls-2" x1="71.75" y1="3.6" x2="144.25" y2="3.6"/><line class="cls-2" x1="-0.25" y1="68.4" x2="72.25" y2="68.4"/><line class="cls-2" x1="-0.25" y1="54" x2="72.25" y2="54"/><line class="cls-2" x1="-0.25" y1="39.6" x2="72.25" y2="39.6"/><line class="cls-2" x1="-0.25" y1="25.2" x2="72.25" y2="25.2"/><line class="cls-2" x1="-0.25" y1="10.8" x2="72.25" y2="10.8"/><line class="cls-2" x1="-0.25" y1="61.2" x2="72.25" y2="61.2"/><line class="cls-2" x1="-0.25" y1="46.8" x2="72.25" y2="46.8"/><line class="cls-2" x1="-0.25" y1="32.4" x2="72.25" y2="32.4"/><line class="cls-2" x1="-0.25" y1="18" x2="72.25" y2="18"/><line class="cls-2" x1="-0.25" y1="3.6" x2="72.25" y2="3.6"/><line class="cls-2" x1="-72.25" y1="68.4" x2="0.25" y2="68.4"/><line class="cls-2" x1="-72.25" y1="54" x2="0.25" y2="54"/><line class="cls-2" x1="-72.25" y1="39.6" x2="0.25" y2="39.6"/><line class="cls-2" x1="-72.25" y1="25.2" x2="0.25" y2="25.2"/><line class="cls-2" x1="-72.25" y1="10.8" x2="0.25" y2="10.8"/><line class="cls-2" x1="-72.25" y1="61.2" x2="0.25" y2="61.2"/><line class="cls-2" x1="-72.25" y1="46.8" x2="0.25" y2="46.8"/><line class="cls-2" x1="-72.25" y1="32.4" x2="0.25" y2="32.4"/><line class="cls-2" x1="-72.25" y1="18" x2="0.25" y2="18"/><line class="cls-2" x1="-72.25" y1="3.6" x2="0.25" y2="3.6"/></pattern><pattern id="New_Pattern_18-5" data-name="New Pattern 18" width="72" height="72" patternTransform="translate(-498.86 -314.91) rotate(-45) scale(0.86)" patternUnits="userSpaceOnUse" viewBox="0 0 72 72"><rect class="cls-1" width="72" height="72"/><line class="cls-2" x1="71.75" y1="68.4" x2="144.25" y2="68.4"/><line class="cls-2" x1="71.75" y1="54" x2="144.25" y2="54"/><line class="cls-2" x1="71.75" y1="39.6" x2="144.25" y2="39.6"/><line class="cls-2" x1="71.75" y1="25.2" x2="144.25" y2="25.2"/><line class="cls-2" x1="71.75" y1="10.8" x2="144.25" y2="10.8"/><line class="cls-2" x1="71.75" y1="61.2" x2="144.25" y2="61.2"/><line class="cls-2" x1="71.75" y1="46.8" x2="144.25" y2="46.8"/><line class="cls-2" x1="71.75" y1="32.4" x2="144.25" y2="32.4"/><line class="cls-2" x1="71.75" y1="18" x2="144.25" y2="18"/><line class="cls-2" x1="71.75" y1="3.6" x2="144.25" y2="3.6"/><line class="cls-2" x1="-0.25" y1="68.4" x2="72.25" y2="68.4"/><line class="cls-2" x1="-0.25" y1="54" x2="72.25" y2="54"/><line class="cls-2" x1="-0.25" y1="39.6" x2="72.25" y2="39.6"/><line class="cls-2" x1="-0.25" y1="25.2" x2="72.25" y2="25.2"/><line class="cls-2" x1="-0.25" y1="10.8" x2="72.25" y2="10.8"/><line class="cls-2" x1="-0.25" y1="61.2" x2="72.25" y2="61.2"/><line class="cls-2" x1="-0.25" y1="46.8" x2="72.25" y2="46.8"/><line class="cls-2" x1="-0.25" y1="32.4" x2="72.25" y2="32.4"/><line class="cls-2" x1="-0.25" y1="18" x2="72.25" y2="18"/><line class="cls-2" x1="-0.25" y1="3.6" x2="72.25" y2="3.6"/><line class="cls-2" x1="-72.25" y1="68.4" x2="0.25" y2="68.4"/><line class="cls-2" x1="-72.25" y1="54" x2="0.25" y2="54"/><line class="cls-2" x1="-72.25" y1="39.6" x2="0.25" y2="39.6"/><line class="cls-2" x1="-72.25" y1="25.2" x2="0.25" y2="25.2"/><line class="cls-2" x1="-72.25" y1="10.8" x2="0.25" y2="10.8"/><line class="cls-2" x1="-72.25" y1="61.2" x2="0.25" y2="61.2"/><line class="cls-2" x1="-72.25" y1="46.8" x2="0.25" y2="46.8"/><line class="cls-2" x1="-72.25" y1="32.4" x2="0.25" y2="32.4"/><line class="cls-2" x1="-72.25" y1="18" x2="0.25" y2="18"/><line class="cls-2" x1="-72.25" y1="3.6" x2="0.25" y2="3.6"/></pattern></defs><g id="Layer_2" data-name="Layer 2"><g id="regular"><g id="about"><rect class="cls-3" x="50.5" y="149.82" width="42.5" height="100.36"/><path class="cls-3" d="M93,250.18H50.5a88.93,88.93,0,0,0-30.2,28.33H123.21A104.19,104.19,0,0,0,93,250.18Z"/><rect class="cls-3" x="44.75" y="175.19" width="53.99" height="9.76"/><rect class="cls-3" x="24.61" y="136.82" width="94.27" height="13.21"/><rect class="cls-3" x="42.92" y="102.59" width="57.66" height="34.23"/><rect class="cls-3" x="29.95" y="97.43" width="83.37" height="5.16"/><path class="cls-3" d="M140.53,66c-2.53-2.13-6.28-2-8.41-1.87-4.32.18-5.23,1.67-7.63,1.55-5.28-.25-8.18-7.82-11.68-13.08S102.89,40.88,90,36.26l-18.26,0h0l-18.26,0c-12.9,4.62-19.32,11.07-22.82,16.31S24.21,65.4,18.93,65.65c-2.39.12-3.3-1.37-7.63-1.55C9.17,64,5.42,63.84,2.89,66-.61,68.9,0,74.7.12,76,1.55,89.64,28.55,97.06,30,97.43h83.52c1.4-.37,28.4-7.79,29.83-21.45C143.43,74.7,144,68.9,140.53,66Z"/><rect class="cls-3" x="53.51" y="32.94" width="36.48" height="3.32"/><path class="cls-3" d="M57.87,32.94H84.51A20.58,20.58,0,0,1,84,26.4a21.66,21.66,0,0,1,1.46-6c1-3-.29-8.51-10.9-19.59A6.42,6.42,0,0,0,71.42,0a6.24,6.24,0,0,0-3,.81C57.71,12.49,56.25,18,57.11,20.93A23.78,23.78,0,0,1,58.29,27,23.27,23.27,0,0,1,57.87,32.94Z"/><rect class="cls-4" x="53.51" y="107" width="36.48" height="24.91" rx="3.85"/><rect class="cls-4" x="58.98" y="110.74" width="25.54" height="17.43" rx="3.85"/><polygon class="cls-3" points="15.97 136.82 24.62 136.82 24.62 150.02 15.97 136.82"/><polygon class="cls-3" points="127.53 136.82 118.88 136.82 118.88 150.02 127.53 136.82"/><polygon class="cls-3" points="39.13 175.19 44.88 175.19 44.88 184.95 39.13 175.19"/><polygon class="cls-3" points="104.5 175.19 98.75 175.19 98.75 184.95 104.5 175.19"/><path class="cls-5" d="M68.52,4.26c-.81-.41-3.85,4.22-5.63,6.94-3.13,4.77-4.68,7.2-4.23,9.57.39,2.09,1.73,2.76,1.78,5.46,0,2.16-.79,2.86-.3,3.93.42.9,1.6,1.7,7,2,4.63.27,11.27.1,11.38-1,0-.37-.69-.45-2.08-1.58-1.85-1.51-1.77-2.39-3-3.36-2.16-1.71-3.95-.43-5.58-1.72-1-.75-1.67-2.23-1.29-7.52C67.09,9.11,69.28,4.64,68.52,4.26Z"/><path class="cls-5" d="M63.49,34.17c-2.28,0-5.72,0-10,.18V32.94H85.17a74,74,0,0,1-7.67,1C72.81,34.33,70,34.15,63.49,34.17Z"/><path class="cls-5" d="M87.27,38.14c-4,2-8.24,1.11-9.56.86-11.66-2.2-26.88,4-27.8,1.29-.2-.59.24-1.71,3.6-4H90A11.71,11.71,0,0,1,87.27,38.14Z"/><path class="cls-5" d="M9,76.8c.72-.64,4.22,3.36,11.43,7.11,1.93,1,10.53,5.48,12.35,3.36,1.37-1.58-2.58-5.11-4-12.88-.14-.78-1.9-10.4,1-11.88,4.1-2.08,10.19,15.8,26.33,20.18,8.59,2.33,12.27-1.25,25,2.15,3.34.89,14.06,3.75,13.89,6.59-.34,5.53-41.7,4.28-59,3-4.82-.35-14.18-1.19-21.19-7.87C10.72,82.63,8.22,77.45,9,76.8Z"/><path class="cls-5" d="M113.32,98.3q-23.71-.42-48.52-.15-17.71.21-34.85.75V97.43h83.37Z"/><path class="cls-5" d="M100.58,104.09c-8.79-.31-18-.41-27.7-.21-10.51.21-20.51.75-30,1.52v-2.81h57.66Z"/><path class="cls-5" d="M100.58,136.82H42.92v-3.31c.83.2,2.14.51,3.77.85,0,0,5.15,1.07,10.44,1.64,10.11,1.1,20.85-.6,38.44-.05,2.18.07,3.94.16,5,.22Z"/><path class="cls-5" d="M21.78,139.73c-1,1.25,1,5,3.87,7a10.86,10.86,0,0,0,6.15,1.71c11.86.11,23.72.41,35.59.43,2.54,0,2.36,0,4.88,0,11.52,0,22.17-.73,22.16-1.1,0-.55-24.37.43-44.31-2.48-9.35-1.36-14-2-17.6-3.11C26.51,140.37,22.78,138.44,21.78,139.73Z"/><path class="cls-5" d="M93,150.86c-10.42-.1-21.24.11-32.42.7-3.39.18-6.73.39-10,.63V150H93C93,150.3,93,150.58,93,150.86Z"/><path class="cls-5" d="M93,173.78a199.45,199.45,0,0,1-28.12.31c-5-.3-9.85-.78-14.38-1.38v2.48H93Z"/><path class="cls-5" d="M93,185H50.5v1.5q10.32-.42,21.25-.52t21.21.15C93,185.7,93,185.33,93,185Z"/><path class="cls-5" d="M43.75,177.82c-.66.73.42,3.3,2.29,4.61a6,6,0,0,0,3.17,1c9.47.41,14.21.62,17.07.53,7.22-.22,11.65.17,20.76-.65,1-.1,2.48-.18,2.48-.37,0-.5-10.56-1.76-22-1.86-9.87-.08-12.81.77-18-1.43C47.11,178.63,44.47,177,43.75,177.82Z"/><path class="cls-5" d="M57.16,171.37c-1,.64-2.92-.26-3.92-1.34-1.32-1.43-1.23-3.29-1.08-6.44A19.1,19.1,0,0,1,53.25,158c.58-1.62,1.31-3.67,2-3.61s.88,1.43,1.77,8.11C58,169.41,58,170.83,57.16,171.37Z"/><path class="cls-5" d="M63.17,247.37c-2,1.14-7.44-2.54-9.28-7.15a9.89,9.89,0,0,1-.7-3.15c-1.44-20.64-1-30.28-1-30.28.67-13.66,1.15-15.46,1.72-15.51.85-.07,1.81,3.85,2.25,5.64A65.67,65.67,0,0,1,57.91,216C57.09,234.2,66.3,245.59,63.17,247.37Z"/><path class="cls-5" d="M43.66,258.54a21.19,21.19,0,0,0-9.45,7.56c-1.76,2.62-3.38,4.71-2.76,6.54.9,2.64,5.82,3.2,14.46,3.61,22.36,1.08,22.55-1,34.49.11a74,74,0,0,0,16-.72c5.22-.75,5.67-1.35,5.72-1.71.24-1.69-7.11-5.34-15-5.45-6.36-.09-7.15,2.26-15.07,2.83-4.58.34-13.36,1-16.1-3.43-2.28-3.66,1.42-7.88-1-10.31C52.42,254.92,45.74,257.68,43.66,258.54Z"/><path class="cls-6" d="M26.35,59.45A12,12,0,0,1,23.83,63a10.38,10.38,0,0,1-3.66,2.41c-3.05,1-4.57-1.18-8.87-1.31C9,64,5.35,63.9,2.89,66-.61,68.9,0,74.7.12,76,1.55,89.64,28.55,97.06,30,97.43h83.52a64.67,64.67,0,0,0,11.66-4.07,66.39,66.39,0,0,0,6.12-3.23,346.58,346.58,0,0,1-37.9,1.37c-31.74-.6-53.43-1.29-62.66-15.14C26.88,70.64,26.23,64.23,26.35,59.45Z"/><path class="cls-7" d="M57.87,32.94H84.51A20.45,20.45,0,0,1,84,29.71c0-.36,0-.71,0-1.05A20.54,20.54,0,0,1,69,25.8,20.8,20.8,0,0,1,60,11.32c-3.17,5.51-3.38,8.18-2.93,9.61.07.24.35,1,.62,2.19A23.78,23.78,0,0,1,58.29,27,23.27,23.27,0,0,1,57.87,32.94Z"/><path class="cls-8" d="M88.7,262.48c-26.9-11.83-36.31-38.61-38.15-44.23q0,16,0,31.93h0a89.07,89.07,0,0,0-30.21,28.33H123.21c-1.42-1.92-2.95-3.9-4.59-5.91-1.36-1.65-2.7-3.23-4-4.72A65.24,65.24,0,0,1,88.7,262.48Z"/></g></g></g></svg>