<svg xmlns="http://www.w3.org/2000/svg" xmlns:xlink="http://www.w3.org/1999/xlink" viewBox="0 0 393.68 548.1"><defs><style>.cls-1,.cls-2{fill:none;}.cls-2{stroke:#63594c;stroke-width:1.44px;}.cls-3{fill:#dbcbab;}.cls-4{fill:#d3b49c;}.cls-5{fill:#a8c1af;}.cls-6{fill:#8ba592;}.cls-7{fill:url(#New_Pattern_13);}.cls-8{fill:url(#New_Pattern_13-3);}.cls-9{fill:url(#New_Pattern_13-5);}.cls-10{fill:url(#New_Pattern_13-7);}.cls-11{fill:url(#New_Pattern_13-9);}.cls-12{fill:url(#New_Pattern_13-11);}.cls-13{fill:url(#New_Pattern_13-13);}.cls-14{fill:url(#New_Pattern_13-15);}</style><pattern id="New_Pattern_13" data-name="New Pattern 13" width="72" height="72" patternTransform="translate(-497.42 -175.21) rotate(-45)" patternUnits="userSpaceOnUse" viewBox="0 0 72 72"><rect class="cls-1" width="72" height="72"/><line class="cls-2" x1="71.75" y1="68.4" x2="144.25" y2="68.4"/><line class="cls-2" x1="71.75" y1="54" x2="144.25" y2="54"/><line class="cls-2" x1="71.75" y1="39.6" x2="144.25" y2="39.6"/><line class="cls-2" x1="71.75" y1="25.2" x2="144.25" y2="25.2"/><line class="cls-2" x1="71.75" y1="10.8" x2="144.25" y2="10.8"/><line class="cls-2" x1="71.75" y1="61.2" x2="144.25" y2="61.2"/><line class="cls-2" x1="71.75" y1="46.8" x2="144.25" y2="46.8"/><line class="cls-2" x1="71.75" y1="32.4" x2="144.25" y2="32.4"/><line class="cls-2" x1="71.75" y1="18" x2="144.25" y2="18"/><line class="cls-2" x1="71.75" y1="3.6" x2="144.25" y2="3.6"/><line class="cls-2" x1="-0.25" y1="68.4" x2="72.25" y2="68.4"/><line class="cls-2" x1="-0.25" y1="54" x2="72.25" y2="54"/><line class="cls-2" x1="-0.25" y1="39.6" x2="72.25" y2="39.6"/><line class="cls-2" x1="-0.25" y1="25.2" x2="72.25" y2="25.2"/><line class="cls-2" x1="-0.25" y1="10.8" x2="72.25" y2="10.8"/><line class="cls-2" x1="-0.25" y1="61.2" x2="72.25" y2="61.2"/><line class="cls-2" x1="-0.25" y1="46.8" x2="72.25" y2="46.8"/><line class="cls-2" x1="-0.25" y1="32.4" x2="72.25" y2="32.4"/><line class="cls-2" x1="-0.25" y1="18" x2="72.25" y2="18"/><line class="cls-2" x1="-0.25" y1="3.6" x2="72.25" y2="3.6"/><line class="cls-2" x1="-72.25" y1="68.4" x2="0.25" y2="68.4"/><line class="cls-2" x1="-72.25" y1="54" x2="0.25" y2="54"/><line class="cls-2" x1="-72.25" y1="39.6" x2="0.25" y2="39.6"/><line class="cls-2" x1="-72.25" y1="25.2" x2="0.25" y2="25.2"/><line class="cls-2" x1="-72.25" y1="10.8" x2="0.25" y2="10.8"/><line class="cls-2" x1="-72.25" y1="61.2" x2="0.25" y2="61.2"/><line class="cls-2" x1="-72.25" y1="46.8" x2="0.25" y2="46.8"/><line class="cls-2" x1="-72.25" y1="32.4" x2="0.25" y2="32.4"/><line class="cls-2" x1="-72.25" y1="18" x2="0.25" y2="18"/><line class="cls-2" x1="-72.25" y1="3.6" x2="0.25" y2="3.6"/></pattern><pattern id="New_Pattern_13-3" data-name="New Pattern 13" width="72" height="72" patternTransform="translate(-476.63 -189.52) rotate(-45)" patternUnits="userSpaceOnUse" viewBox="0 0 72 72"><rect class="cls-1" width="72" height="72"/><line class="cls-2" x1="71.75" y1="68.4" x2="144.25" y2="68.4"/><line class="cls-2" x1="71.75" y1="54" x2="144.25" y2="54"/><line class="cls-2" x1="71.75" y1="39.6" x2="144.25" y2="39.6"/><line class="cls-2" x1="71.75" y1="25.2" x2="144.25" y2="25.2"/><line class="cls-2" x1="71.75" y1="10.8" x2="144.25" y2="10.8"/><line class="cls-2" x1="71.75" y1="61.2" x2="144.25" y2="61.2"/><line class="cls-2" x1="71.75" y1="46.8" x2="144.25" y2="46.8"/><line class="cls-2" x1="71.75" y1="32.4" x2="144.25" y2="32.4"/><line class="cls-2" x1="71.75" y1="18" x2="144.25" y2="18"/><line class="cls-2" x1="71.75" y1="3.6" x2="144.25" y2="3.6"/><line class="cls-2" x1="-0.25" y1="68.4" x2="72.25" y2="68.4"/><line class="cls-2" x1="-0.25" y1="54" x2="72.25" y2="54"/><line class="cls-2" x1="-0.25" y1="39.6" x2="72.25" y2="39.6"/><line class="cls-2" x1="-0.25" y1="25.2" x2="72.25" y2="25.2"/><line class="cls-2" x1="-0.25" y1="10.8" x2="72.25" y2="10.8"/><line class="cls-2" x1="-0.25" y1="61.2" x2="72.25" y2="61.2"/><line class="cls-2" x1="-0.25" y1="46.8" x2="72.25" y2="46.8"/><line class="cls-2" x1="-0.25" y1="32.4" x2="72.25" y2="32.4"/><line class="cls-2" x1="-0.25" y1="18" x2="72.25" y2="18"/><line class="cls-2" x1="-0.25" y1="3.6" x2="72.25" y2="3.6"/><line class="cls-2" x1="-72.25" y1="68.4" x2="0.25" y2="68.4"/><line class="cls-2" x1="-72.25" y1="54" x2="0.25" y2="54"/><line class="cls-2" x1="-72.25" y1="39.6" x2="0.25" y2="39.6"/><line class="cls-2" x1="-72.25" y1="25.2" x2="0.25" y2="25.2"/><line class="cls-2" x1="-72.25" y1="10.8" x2="0.25" y2="10.8"/><line class="cls-2" x1="-72.25" y1="61.2" x2="0.25" y2="61.2"/><line class="cls-2" x1="-72.25" y1="46.8" x2="0.25" y2="46.8"/><line class="cls-2" x1="-72.25" y1="32.4" x2="0.25" y2="32.4"/><line class="cls-2" x1="-72.25" y1="18" x2="0.25" y2="18"/><line class="cls-2" x1="-72.25" y1="3.6" x2="0.25" y2="3.6"/></pattern><pattern id="New_Pattern_13-5" data-name="New Pattern 13" width="72" height="72" patternTransform="translate(-474.9 -222.4) rotate(-45)" patternUnits="userSpaceOnUse" viewBox="0 0 72 72"><rect class="cls-1" width="72" height="72"/><line class="cls-2" x1="71.75" y1="68.4" x2="144.25" y2="68.4"/><line class="cls-2" x1="71.75" y1="54" x2="144.25" y2="54"/><line class="cls-2" x1="71.75" y1="39.6" x2="144.25" y2="39.6"/><line class="cls-2" x1="71.75" y1="25.2" x2="144.25" y2="25.2"/><line class="cls-2" x1="71.75" y1="10.8" x2="144.25" y2="10.8"/><line class="cls-2" x1="71.75" y1="61.2" x2="144.25" y2="61.2"/><line class="cls-2" x1="71.75" y1="46.8" x2="144.25" y2="46.8"/><line class="cls-2" x1="71.75" y1="32.4" x2="144.25" y2="32.4"/><line class="cls-2" x1="71.75" y1="18" x2="144.25" y2="18"/><line class="cls-2" x1="71.75" y1="3.6" x2="144.25" y2="3.6"/><line class="cls-2" x1="-0.25" y1="68.4" x2="72.25" y2="68.4"/><line class="cls-2" x1="-0.25" y1="54" x2="72.25" y2="54"/><line class="cls-2" x1="-0.25" y1="39.6" x2="72.25" y2="39.6"/><line class="cls-2" x1="-0.25" y1="25.2" x2="72.25" y2="25.2"/><line class="cls-2" x1="-0.25" y1="10.8" x2="72.25" y2="10.8"/><line class="cls-2" x1="-0.25" y1="61.2" x2="72.25" y2="61.2"/><line class="cls-2" x1="-0.25" y1="46.8" x2="72.25" y2="46.8"/><line class="cls-2" x1="-0.25" y1="32.4" x2="72.25" y2="32.4"/><line class="cls-2" x1="-0.25" y1="18" x2="72.25" y2="18"/><line class="cls-2" x1="-0.25" y1="3.6" x2="72.25" y2="3.6"/><line class="cls-2" x1="-72.25" y1="68.4" x2="0.25" y2="68.4"/><line class="cls-2" x1="-72.25" y1="54" x2="0.25" y2="54"/><line class="cls-2" x1="-72.25" y1="39.6" x2="0.25" y2="39.6"/><line class="cls-2" x1="-72.25" y1="25.2" x2="0.25" y2="25.2"/><line class="cls-2" x1="-72.25" y1="10.8" x2="0.25" y2="10.8"/><line class="cls-2" x1="-72.25" y1="61.2" x2="0.25" y2="61.2"/><line class="cls-2" x1="-72.25" y1="46.8" x2="0.25" y2="46.8"/><line class="cls-2" x1="-72.25" y1="32.4" x2="0.25" y2="32.4"/><line class="cls-2" x1="-72.25" y1="18" x2="0.25" y2="18"/><line class="cls-2" x1="-72.25" y1="3.6" x2="0.25" y2="3.6"/></pattern><pattern id="New_Pattern_13-7" data-name="New Pattern 13" width="72" height="72" patternTransform="translate(-492.22 -213.63) rotate(-45)" patternUnits="userSpaceOnUse" viewBox="0 0 72 72"><rect class="cls-1" width="72" height="72"/><line class="cls-2" x1="71.75" y1="68.4" x2="144.25" y2="68.4"/><line class="cls-2" x1="71.75" y1="54" x2="144.25" y2="54"/><line class="cls-2" x1="71.75" y1="39.6" x2="144.25" y2="39.6"/><line class="cls-2" x1="71.75" y1="25.2" x2="144.25" y2="25.2"/><line class="cls-2" x1="71.75" y1="10.8" x2="144.25" y2="10.8"/><line class="cls-2" x1="71.75" y1="61.2" x2="144.25" y2="61.2"/><line class="cls-2" x1="71.75" y1="46.8" x2="144.25" y2="46.8"/><line class="cls-2" x1="71.75" y1="32.4" x2="144.25" y2="32.4"/><line class="cls-2" x1="71.75" y1="18" x2="144.25" y2="18"/><line class="cls-2" x1="71.75" y1="3.6" x2="144.25" y2="3.6"/><line class="cls-2" x1="-0.25" y1="68.4" x2="72.25" y2="68.4"/><line class="cls-2" x1="-0.25" y1="54" x2="72.25" y2="54"/><line class="cls-2" x1="-0.25" y1="39.6" x2="72.25" y2="39.6"/><line class="cls-2" x1="-0.25" y1="25.2" x2="72.25" y2="25.2"/><line class="cls-2" x1="-0.25" y1="10.8" x2="72.25" y2="10.8"/><line class="cls-2" x1="-0.25" y1="61.2" x2="72.25" y2="61.2"/><line class="cls-2" x1="-0.25" y1="46.8" x2="72.25" y2="46.8"/><line class="cls-2" x1="-0.25" y1="32.4" x2="72.25" y2="32.4"/><line class="cls-2" x1="-0.25" y1="18" x2="72.25" y2="18"/><line class="cls-2" x1="-0.25" y1="3.6" x2="72.25" y2="3.6"/><line class="cls-2" x1="-72.25" y1="68.4" x2="0.25" y2="68.4"/><line class="cls-2" x1="-72.25" y1="54" x2="0.25" y2="54"/><line class="cls-2" x1="-72.25" y1="39.6" x2="0.25" y2="39.6"/><line class="cls-2" x1="-72.25" y1="25.2" x2="0.25" y2="25.2"/><line class="cls-2" x1="-72.25" y1="10.8" x2="0.25" y2="10.8"/><line class="cls-2" x1="-72.25" y1="61.2" x2="0.25" y2="61.2"/><line class="cls-2" x1="-72.25" y1="46.8" x2="0.25" y2="46.8"/><line class="cls-2" x1="-72.25" y1="32.4" x2="0.25" y2="32.4"/><line class="cls-2" x1="-72.25" y1="18" x2="0.25" y2="18"/><line class="cls-2" x1="-72.25" y1="3.6" x2="0.25" y2="3.6"/></pattern><pattern id="New_Pattern_13-9" data-name="New Pattern 13" width="72" height="72" patternTransform="translate(-555.17 -211.05) rotate(-45)" patternUnits="userSpaceOnUse" viewBox="0 0 72 72"><rect class="cls-1" width="72" height="72"/><line class="cls-2" x1="71.75" y1="68.4" x2="144.25" y2="68.4"/><line class="cls-2" x1="71.75" y1="54" x2="144.25" y2="54"/><line class="cls-2" x1="71.75" y1="39.6" x2="144.25" y2="39.6"/><line class="cls-2" x1="71.75" y1="25.2" x2="144.25" y2="25.2"/><line class="cls-2" x1="71.75" y1="10.8" x2="144.25" y2="10.8"/><line class="cls-2" x1="71.75" y1="61.2" x2="144.25" y2="61.2"/><line class="cls-2" x1="71.75" y1="46.8" x2="144.25" y2="46.8"/><line class="cls-2" x1="71.75" y1="32.4" x2="144.25" y2="32.4"/><line class="cls-2" x1="71.75" y1="18" x2="144.25" y2="18"/><line class="cls-2" x1="71.75" y1="3.6" x2="144.25" y2="3.6"/><line class="cls-2" x1="-0.25" y1="68.4" x2="72.25" y2="68.4"/><line class="cls-2" x1="-0.25" y1="54" x2="72.25" y2="54"/><line class="cls-2" x1="-0.25" y1="39.6" x2="72.25" y2="39.6"/><line class="cls-2" x1="-0.25" y1="25.2" x2="72.25" y2="25.2"/><line class="cls-2" x1="-0.25" y1="10.8" x2="72.25" y2="10.8"/><line class="cls-2" x1="-0.25" y1="61.2" x2="72.25" y2="61.2"/><line class="cls-2" x1="-0.25" y1="46.8" x2="72.25" y2="46.8"/><line class="cls-2" x1="-0.25" y1="32.4" x2="72.25" y2="32.4"/><line class="cls-2" x1="-0.25" y1="18" x2="72.25" y2="18"/><line class="cls-2" x1="-0.25" y1="3.6" x2="72.25" y2="3.6"/><line class="cls-2" x1="-72.25" y1="68.4" x2="0.25" y2="68.4"/><line class="cls-2" x1="-72.25" y1="54" x2="0.25" y2="54"/><line class="cls-2" x1="-72.25" y1="39.6" x2="0.25" y2="39.6"/><line class="cls-2" x1="-72.25" y1="25.2" x2="0.25" y2="25.2"/><line class="cls-2" x1="-72.25" y1="10.8" x2="0.25" y2="10.8"/><line class="cls-2" x1="-72.25" y1="61.2" x2="0.25" y2="61.2"/><line class="cls-2" x1="-72.25" y1="46.8" x2="0.25" y2="46.8"/><line class="cls-2" x1="-72.25" y1="32.4" x2="0.25" y2="32.4"/><line class="cls-2" x1="-72.25" y1="18" x2="0.25" y2="18"/><line class="cls-2" x1="-72.25" y1="3.6" x2="0.25" y2="3.6"/></pattern><pattern id="New_Pattern_13-11" data-name="New Pattern 13" width="72" height="72" patternTransform="translate(-497.04 -180.15) rotate(-45)" patternUnits="userSpaceOnUse" viewBox="0 0 72 72"><rect class="cls-1" width="72" height="72"/><line class="cls-2" x1="71.75" y1="68.4" x2="144.25" y2="68.4"/><line class="cls-2" x1="71.75" y1="54" x2="144.25" y2="54"/><line class="cls-2" x1="71.75" y1="39.6" x2="144.25" y2="39.6"/><line class="cls-2" x1="71.75" y1="25.2" x2="144.25" y2="25.2"/><line class="cls-2" x1="71.75" y1="10.8" x2="144.25" y2="10.8"/><line class="cls-2" x1="71.75" y1="61.2" x2="144.25" y2="61.2"/><line class="cls-2" x1="71.75" y1="46.8" x2="144.25" y2="46.8"/><line class="cls-2" x1="71.75" y1="32.4" x2="144.25" y2="32.4"/><line class="cls-2" x1="71.75" y1="18" x2="144.25" y2="18"/><line class="cls-2" x1="71.75" y1="3.6" x2="144.25" y2="3.6"/><line class="cls-2" x1="-0.25" y1="68.4" x2="72.25" y2="68.4"/><line class="cls-2" x1="-0.25" y1="54" x2="72.25" y2="54"/><line class="cls-2" x1="-0.25" y1="39.6" x2="72.25" y2="39.6"/><line class="cls-2" x1="-0.25" y1="25.2" x2="72.25" y2="25.2"/><line class="cls-2" x1="-0.25" y1="10.8" x2="72.25" y2="10.8"/><line class="cls-2" x1="-0.25" y1="61.2" x2="72.25" y2="61.2"/><line class="cls-2" x1="-0.25" y1="46.8" x2="72.25" y2="46.8"/><line class="cls-2" x1="-0.25" y1="32.4" x2="72.25" y2="32.4"/><line class="cls-2" x1="-0.25" y1="18" x2="72.25" y2="18"/><line class="cls-2" x1="-0.25" y1="3.6" x2="72.25" y2="3.6"/><line class="cls-2" x1="-72.25" y1="68.4" x2="0.25" y2="68.4"/><line class="cls-2" x1="-72.25" y1="54" x2="0.25" y2="54"/><line class="cls-2" x1="-72.25" y1="39.6" x2="0.25" y2="39.6"/><line class="cls-2" x1="-72.25" y1="25.2" x2="0.25" y2="25.2"/><line class="cls-2" x1="-72.25" y1="10.8" x2="0.25" y2="10.8"/><line class="cls-2" x1="-72.25" y1="61.2" x2="0.25" y2="61.2"/><line class="cls-2" x1="-72.25" y1="46.8" x2="0.25" y2="46.8"/><line class="cls-2" x1="-72.25" y1="32.4" x2="0.25" y2="32.4"/><line class="cls-2" x1="-72.25" y1="18" x2="0.25" y2="18"/><line class="cls-2" x1="-72.25" y1="3.6" x2="0.25" y2="3.6"/></pattern><pattern id="New_Pattern_13-13" data-name="New Pattern 13" width="72" height="72" patternTransform="translate(-498.65 -236.26) rotate(-45)" patternUnits="userSpaceOnUse" viewBox="0 0 72 72"><rect class="cls-1" width="72" height="72"/><line class="cls-2" x1="71.75" y1="68.4" x2="144.25" y2="68.4"/><line class="cls-2" x1="71.75" y1="54" x2="144.25" y2="54"/><line class="cls-2" x1="71.75" y1="39.6" x2="144.25" y2="39.6"/><line class="cls-2" x1="71.75" y1="25.2" x2="144.25" y2="25.2"/><line class="cls-2" x1="71.75" y1="10.8" x2="144.25" y2="10.8"/><line class="cls-2" x1="71.75" y1="61.2" x2="144.25" y2="61.2"/><line class="cls-2" x1="71.75" y1="46.8" x2="144.25" y2="46.8"/><line class="cls-2" x1="71.75" y1="32.4" x2="144.25" y2="32.4"/><line class="cls-2" x1="71.75" y1="18" x2="144.25" y2="18"/><line class="cls-2" x1="71.75" y1="3.6" x2="144.25" y2="3.6"/><line class="cls-2" x1="-0.25" y1="68.4" x2="72.25" y2="68.4"/><line class="cls-2" x1="-0.25" y1="54" x2="72.25" y2="54"/><line class="cls-2" x1="-0.25" y1="39.6" x2="72.25" y2="39.6"/><line class="cls-2" x1="-0.25" y1="25.2" x2="72.25" y2="25.2"/><line class="cls-2" x1="-0.25" y1="10.8" x2="72.25" y2="10.8"/><line class="cls-2" x1="-0.25" y1="61.2" x2="72.25" y2="61.2"/><line class="cls-2" x1="-0.25" y1="46.8" x2="72.25" y2="46.8"/><line class="cls-2" x1="-0.25" y1="32.4" x2="72.25" y2="32.4"/><line class="cls-2" x1="-0.25" y1="18" x2="72.25" y2="18"/><line class="cls-2" x1="-0.25" y1="3.6" x2="72.25" y2="3.6"/><line class="cls-2" x1="-72.25" y1="68.4" x2="0.25" y2="68.4"/><line class="cls-2" x1="-72.25" y1="54" x2="0.25" y2="54"/><line class="cls-2" x1="-72.25" y1="39.6" x2="0.25" y2="39.6"/><line class="cls-2" x1="-72.25" y1="25.2" x2="0.25" y2="25.2"/><line class="cls-2" x1="-72.25" y1="10.8" x2="0.25" y2="10.8"/><line class="cls-2" x1="-72.25" y1="61.2" x2="0.25" y2="61.2"/><line class="cls-2" x1="-72.25" y1="46.8" x2="0.25" y2="46.8"/><line class="cls-2" x1="-72.25" y1="32.4" x2="0.25" y2="32.4"/><line class="cls-2" x1="-72.25" y1="18" x2="0.25" y2="18"/><line class="cls-2" x1="-72.25" y1="3.6" x2="0.25" y2="3.6"/></pattern><pattern id="New_Pattern_13-15" data-name="New Pattern 13" width="72" height="72" patternTransform="matrix(0.66, -0.66, 0.66, 0.66, -535.29, -338.04)" patternUnits="userSpaceOnUse" viewBox="0 0 72 72"><rect class="cls-1" width="72" height="72"/><line class="cls-2" x1="71.75" y1="68.4" x2="144.25" y2="68.4"/><line class="cls-2" x1="71.75" y1="54" x2="144.25" y2="54"/><line class="cls-2" x1="71.75" y1="39.6" x2="144.25" y2="39.6"/><line class="cls-2" x1="71.75" y1="25.2" x2="144.25" y2="25.2"/><line class="cls-2" x1="71.75" y1="10.8" x2="144.25" y2="10.8"/><line class="cls-2" x1="71.75" y1="61.2" x2="144.25" y2="61.2"/><line class="cls-2" x1="71.75" y1="46.8" x2="144.25" y2="46.8"/><line class="cls-2" x1="71.75" y1="32.4" x2="144.25" y2="32.4"/><line class="cls-2" x1="71.75" y1="18" x2="144.25" y2="18"/><line class="cls-2" x1="71.75" y1="3.6" x2="144.25" y2="3.6"/><line class="cls-2" x1="-0.25" y1="68.4" x2="72.25" y2="68.4"/><line class="cls-2" x1="-0.25" y1="54" x2="72.25" y2="54"/><line class="cls-2" x1="-0.25" y1="39.6" x2="72.25" y2="39.6"/><line class="cls-2" x1="-0.25" y1="25.2" x2="72.25" y2="25.2"/><line class="cls-2" x1="-0.25" y1="10.8" x2="72.25" y2="10.8"/><line class="cls-2" x1="-0.25" y1="61.2" x2="72.25" y2="61.2"/><line class="cls-2" x1="-0.25" y1="46.8" x2="72.25" y2="46.8"/><line class="cls-2" x1="-0.25" y1="32.4" x2="72.25" y2="32.4"/><line class="cls-2" x1="-0.25" y1="18" x2="72.25" y2="18"/><line class="cls-2" x1="-0.25" y1="3.6" x2="72.25" y2="3.6"/><line class="cls-2" x1="-72.25" y1="68.4" x2="0.25" y2="68.4"/><line class="cls-2" x1="-72.25" y1="54" x2="0.25" y2="54"/><line class="cls-2" x1="-72.25" y1="39.6" x2="0.25" y2="39.6"/><line class="cls-2" x1="-72.25" y1="25.2" x2="0.25" y2="25.2"/><line class="cls-2" x1="-72.25" y1="10.8" x2="0.25" y2="10.8"/><line class="cls-2" x1="-72.25" y1="61.2" x2="0.25" y2="61.2"/><line class="cls-2" x1="-72.25" y1="46.8" x2="0.25" y2="46.8"/><line class="cls-2" x1="-72.25" y1="32.4" x2="0.25" y2="32.4"/><line class="cls-2" x1="-72.25" y1="18" x2="0.25" y2="18"/><line class="cls-2" x1="-72.25" y1="3.6" x2="0.25" y2="3.6"/></pattern></defs><g id="Layer_2" data-name="Layer 2"><g id="regular"><g id="about"><path class="cls-3" d="M70.26,507.87c10.52,1.42,26.36,3.29,45.68,4.47,54.13,3.3,71.68-2.7,121.54-.69,40.87,1.65,86,8,85.94,13.1,0,3.43-20.63,6-32.33,7.45-32.94,4.09-58.42,1.71-58.58,4-.12,1.66,13.34,3,13.19,5.38-.32,5.08-49.43,6.27-55,6.4-10.05.22-17.25.11-23.14-.15-11.29-.48-15-1.05-24.19-1.48-4.48-.2-8.06-.26-11.17-.24-10.27.08-17.89.42-20,.53-7.65.41-20.26.49-41.9-1Z"/><path class="cls-4" d="M146.23,521.44c-.79-4.24-1.32-7.77-1.65-10.26a243.12,243.12,0,0,1-1.85-26.58c0-2.24,0-4.44.13-7.07.21-3.85.61-6.71.8-8.28,2.6-20.83-.66-44.57-1.73-94.51-.34-16.12-.32-31.46-.26-62.14,0-3,0-17.67.2-37.15.1-12.95.17-20.39.33-30.11.57-34.56,1.28-30.92,1.05-44.52-.32-19.54-1.76-24.65-1.19-44.28.11-3.5.3-8.31,1.06-19.13,1-13.63,2.56-32.74,5.29-56.38l5.82.17c-.95,16.64-2.13,30-3,39.23-1.26,12.77-2.42,21.66-2.25,35.39,0,2.89.23,7.33.62,16.2.67,15.58,1.29,27,1.42,29.41,1.46,27.77-.76,39.85,0,80.9,0,1,0,1,.88,28.52,2.13,67.63,2.21,70.45,2.55,78.46,2.56,59.75,4.07,45.05,4,66.46-.05,11.94-.58,28.62,5.56,48.68a121.39,121.39,0,0,0,6.61,17Z"/><path class="cls-4" d="M82.49,133.44A92.8,92.8,0,0,0,104.58,156a93.57,93.57,0,0,0,38.32,16.13q-.48-3.46-1-6.94a73.2,73.2,0,0,1-57.8-31.88Z"/><path class="cls-4" d="M151.48,219.24a59.93,59.93,0,0,0,54.09-23.06l1.72-1.05a59.89,59.89,0,0,1-29,24.85,58.45,58.45,0,0,1-26.82,3.73Z"/><path class="cls-4" d="M170.5,266.8a142.38,142.38,0,0,1-10.57,14.41c-3,3.55-5.91,6.73-8.75,9.56l.29,9.4A145.36,145.36,0,0,0,172.9,266.8Z"/><path class="cls-4" d="M125.11,170.31c.37,1.47,1,3.72,1.74,6.46,3,10.39,4.48,15.68,7.57,19.86a28.92,28.92,0,0,0,8.88,7.82c0-1.21,0-2.42-.05-3.63a19.68,19.68,0,0,1-5.88-3.64c-1.77-1.6-4.17-4.4-8-16.44-.8-2.49-1.85-6-2.92-10.14Z"/><path class="cls-4" d="M135.41,170.81a17.62,17.62,0,0,1-5.89,11.79l.86,2.55a54.1,54.1,0,0,0,3.73-6.64,12.82,12.82,0,0,0,1.49-5A10.51,10.51,0,0,0,135.41,170.81Z"/><path class="cls-4" d="M74.21,134.93a10.87,10.87,0,0,0,3.23,2.86,12.42,12.42,0,0,0,5.63,1.49,17.07,17.07,0,0,0,4.3-.25l1.16,1.28c-1.33,0-3.13-.12-5.26-.29-4.12-.32-5.06-.62-5.91-1.13A7.82,7.82,0,0,1,74.21,134.93Z"/><path class="cls-4" d="M136.36,74.87c-.13,1.7-.27,4.19-.25,7.21.06,5.64.1,9.79,1.53,13.86a21,21,0,0,0,8.16,10.44l.49,5.89c-10.35-7.88-11.67-15.08-11.91-17.68s-.17-8.88-.13-11.29c.06-3.52.18-6.43.29-8.43Z"/><path class="cls-4" d="M306.86,339.53a55.53,55.53,0,0,1-4.45,15,52.87,52.87,0,0,1-8.17,12.64c-12.8,14.68-29.52,17.4-34,18,.58,2.7,1.15,5.4,1.73,8.1,7-2.29,28.1-10.18,40.11-31.55a63.49,63.49,0,0,0,7-19.13C308.36,341.54,307.61,340.53,306.86,339.53Z"/><path class="cls-4" d="M302.13,349.75a24.81,24.81,0,0,1-3.42-9.83,23.22,23.22,0,0,1,1.08-9.86,18.55,18.55,0,0,0-2.64,8c-.4,4.72,1.21,8.47,2.53,11.51a33.75,33.75,0,0,0,3,5.52l1.17-2.88A25.3,25.3,0,0,1,302.13,349.75Z"/><path class="cls-4" d="M293.93,370.65a23.83,23.83,0,0,0,3.82.26,25.54,25.54,0,0,0,10.52-2.48c6.5-3.21,9.59-8.81,10-8.47.25.19-.9,2.1-1.74,3.31a21.7,21.7,0,0,1-7.56,7c-2.69,1.45-5.47,1.89-11,2.79-2.79.44-5.12.69-6.72.83C292.13,372.78,293,371.72,293.93,370.65Z"/><path class="cls-5" d="M128.54,12.17c9.37-.74,9.85-7.62,21.78-10.89C151.94.84,163-2,174.27,2.6c8.9,3.66,7.79,7.82,18.37,13.91,12.27,7,16.38,3,22.58,9.21,7.36,7.42,3.39,15,11.68,22.07,5.46,4.62,8.46,2.41,13.16,6.7,7.71,7,10.37,22.84,4.22,29.3S228,82.55,205.05,87c-8.67,1.68-8.71,2.77-15.65,4.58-25.31,6.63-35.5-11.79-66.28-11.54-18.8.16-20.63,7.08-40.22,5-9-1-27.7-3-32.54-15.25-2.84-7.24-.46-17,4.89-22.64,6.64-7,14.08-3.73,20.12-11.27,4.78-5.94,1.3-9.44,5.79-16.63,5.19-8.3,16.13-13.77,26.07-13.41C117.82,6.21,119.2,12.91,128.54,12.17Z"/><path class="cls-5" d="M152.33,264.8c-11.27-5.36-17-4.82-18.12-8.72-1.06-3.67,2.63-8.84,6.79-11.16,6.75-3.77,12.46,1.23,18.12-3,3.29-2.44,1.81-4.45,5.71-7.94,6-5.36,14.08-4.79,14.9-4.72,5.57.47,5.54,3,10.43,3.47,8.56.91,11-6.45,18.37-5.95,8,.53,8.32,9.38,17.38,11.17,8,1.56,10.5-4.7,19.12-4,9,.75,19.35,8.71,19.86,17.87.62,11.22-13.82,18.64-18.62,21.1a47.88,47.88,0,0,1-20.59,4.95c-16.11.33-17.67-7.16-33-7.18-13,0-16.56,5.37-26.49,2C160.66,270.87,161.37,269.1,152.33,264.8Z"/><path class="cls-5" d="M207.29,205.44c-2.53-.5-12.81-2.54-14.4-9.43-1.21-5.26,3-11.65,8.19-13.9,6.74-2.94,10.62,3.1,20.11.74,6.16-1.53,6.53-4.58,12.17-5,7.54-.51,13.14,4.5,13.65,5,6.7,6.18,8.89,17.67,4.72,21.85-3.94,4-9.94-2.26-25.82-1C216.72,204.44,214.41,206.86,207.29,205.44Z"/><path class="cls-5" d="M172.28,326.35c-9.25-4.09-7.6-12.69-15.89-15.89-8.46-3.26-13.56,4.4-21.85.67-6.64-3-5.15-8.71-12.25-12.25-6.57-3.28-15.23-2.07-21.18,1.32-8.85,5-8,12.77-14.71,14.26-7.22,1.59-10.31-6.87-18.06-5.32-6,1.19-10.3,7.43-15.23,14.57C49,329.64,50,330.2,47.81,332c-6.54,5.24-13.24-1.44-28.81,1.12C9.89,334.6,2.43,338.49.6,343.47c-.08.23-.16.47-.17.52s-1.82,5.78,2,13.48c3.65,7.31,23.82,23.23,44.84,18.66,7.94-1.73,10.15-5.07,19.55-5.58,8.15-.45,13.58,1.68,20,3.64,9.15,2.78,27,8.2,45,6.45a67.37,67.37,0,0,0,31.24-11c9.42-6.52,14.43-13.93,17.94-19.21,4-6.07,11.17-16.84,7.76-21.4C186.18,325.46,180.32,329.92,172.28,326.35Z"/><path class="cls-6" d="M14.54,349.14c-1.51,2.66,7,13.22,18.87,17.63,17,6.29,25.6-5.75,43-1.74,19.65,4.54,17.42,21.16,34.75,24.58,19.73,3.9,30.4-19,68.2-44.85,2.31-1.58,6.43-4.33,6-6.95-.92-5.05-18.73-9-34.1-4-12.28,4-12.29,10.23-22.51,12.58-14.3,3.29-18.28-8.46-35.06-8.88C71.4,337,66.34,354.59,42.27,354.36,26.43,354.21,16.07,346.46,14.54,349.14Z"/><path class="cls-7" d="M.6,343.47a22.73,22.73,0,0,0,.71,11.08c2.52,7.58,8.69,11.54,13.92,14.9a42.52,42.52,0,0,0,15.56,6.47c7.41,1.42,16.88,1.07,23-1.87a33.34,33.34,0,0,1,7-2.61,38.29,38.29,0,0,1,6.11-.89c8.15-.45,13.58,1.68,20,3.64,9.15,2.78,27,8.2,45,6.45a67.37,67.37,0,0,0,31.24-11,63,63,0,0,0,17.94-19.21,301.38,301.38,0,0,1-63.49,10.16A305.68,305.68,0,0,1,.6,343.47Z"/><path class="cls-5" d="M254.87,333.8C241,326.27,234,327,232.58,321.54c-1.67-6.66,7.63-15.06,8.36-15.68A37.11,37.11,0,0,1,254.27,299c5.3-1.52,9.62-1.49,13.5-5.32,1.44-1.43.84-1.54,2.48-3.22,7.36-7.53,17.31-6.73,18.33-6.63,5.47.53,6.55,2.87,9.83,4.15a16.59,16.59,0,0,0,3,.73c5.87.91,17.56-3,24.38-3,7.79.06,6.82,5.29,19.6,10.29,12.06,4.72,15.37,1,28.06,5.6,7.78,2.81,17.85,6.44,19.88,13.95,3.07,11.36-14.23,24.58-22.9,29.67a53.07,53.07,0,0,1-25.33,6.94c-19.81.48-21.73-10.06-40.63-10.08-16,0-20.37,7.54-32.58,2.8C265.13,342.34,266,339.85,254.87,333.8Z"/><path class="cls-6" d="M255.9,323.35a64.47,64.47,0,0,1,6,2.89c4.78,3.13,6.63,6.9,12.74,10.38,15.81,9,24.31-4.27,48.46,3,7.82,2.36,9.13,4.42,15.77,4.89,9.64.68,28.13-6.37,27.39-10.71s-21.45-5.12-46.76-6c-15.62-.53-18.86.22-25.16-2.65-11.26-5.14-14.53-13.79-24.5-13.91-2.39,0-3.72.45-13.69,1.05a40,40,0,0,0-6.41.88c-3.65.81-7.22,1.59-7.36,3S245.41,318.45,255.9,323.35Z"/><path class="cls-8" d="M254.87,333.8c-13-7.08-20.57-7.62-22.29-12.26-1-2.63-.25-7.22,8.36-15.68a203.8,203.8,0,0,0,37.83,21c38.57,16.3,74,17.17,95.91,15.74-6.84,4.56-17.06,9.61-29.59,9.66a43.64,43.64,0,0,1-11.15-1.13c-10.41-2.64-14.88-8.94-29.48-8.95-16,0-20.37,7.54-32.58,2.8C265.13,342.34,266,339.85,254.87,333.8Z"/><path class="cls-5" d="M178.1,440.62c-16.27,1-26,7.24-36.5,1.1-5.82-3.41-5.57-6.94-13.77-11.87-7.9-4.75-12.74-4.25-19.75-6.59-11.55-3.84-27.53-14.88-28.18-27.47-.71-13.71,16.91-26.78,31.56-31.05C128,359.94,135,368,146.7,361c12.7-7.57,10-20.33,20.88-23.66,11.13-3.41,17.39,8.86,31.08,5.57,9.35-2.25,9-8.6,19.49-11.14,13.24-3.21,24.92,4.7,25.51,5.11,9,6.24,6.19,11.72,15.77,20.87,10.69,10.2,20.93,8.69,22.73,16.24,1.51,6.3-5,9.43-3.24,14.84,2.86,8.94,22.24,5.64,26,13.92,3.38,7.47-7.84,20.34-16.23,27.37-27.77,23.28-67.38,18.59-73,17.84C196.07,445.37,194.6,439.62,178.1,440.62Z"/><path class="cls-5" d="M163.34,154.22c-2.45-6.35-10.15-10.75-16.55-10.27-5.78.45-9.68,4.81-15.69,3.38a28.35,28.35,0,0,1-4.45-1.56,26.21,26.21,0,0,1-5.82-3.66c-4.07-3.22-16.08-5.27-26,.19-1.51.83-13.06,7.4-12.8,18a15.15,15.15,0,0,0,3.53,9.44c5.38,6.13,14.3,4.59,28.47,4.31,29.91-.6,37.4,5.27,44.63-1.76C163.18,167.91,165.69,160.28,163.34,154.22Z"/><path class="cls-5" d="M118.52,128.2c1.93-5.15-3.43-13.76-10.15-17-5.81-2.79-10.43-.51-26.42-2.46a16.25,16.25,0,0,1-8.4-3.1c-3.14-2.44-3.54-5-5-7.21-5.92-8.7-26.93-9.31-37.35-.41-2.69,2.29-1.91,2.86-5,5.44-8.13,6.67-14.81,4-18.67,8.87-3.34,4.18-3.17,12.18.49,16.39,4.64,5.32,11.7,1.33,26.57,4.71,11.44,2.6,10.36,5.67,19.75,7.49,9.11,1.77,12.2-.73,33.88-4.76C110.12,132.08,116.78,132.82,118.52,128.2Z"/><path class="cls-6" d="M89.61,31.27C85.29,32.8,89.49,44,82.32,50.8c-6.09,5.81-13.84,2.25-18.2,8.61-2.32,3.38-2.93,8.47-1,11.91,3.56,6.31,14.86,5.87,25.82,5.3,25.66-1.33,28.62-9.09,44.69-6.62,11.24,1.73,14.66,6.26,23.84,4.3s18.28-9.16,17.21-13.24c-2.08-8-40,7.16-65.27-13.14C100.09,40.42,94.22,29.63,89.61,31.27Z"/><path class="cls-6" d="M16.39,124.66c2.34,3.77,8.39,1,17.36,3.14,11.4,2.67,12.55,9.63,19.86,9,8.13-.71,15.17-10.06,13.6-13.38-1.26-2.67-7.16.49-17.78-2.3-8.3-2.19-8.72-5.18-16.8-6.52-3.42-.56-12.26-2-15.61,2.75C15.67,119.27,15,122.47,16.39,124.66Z"/><path class="cls-6" d="M94,151.23c-3.2,0-7.12,8.79-4.63,11.92,1.64,2.07,5,.27,10.26,3,2.74,1.41,2.49,2.25,4.8,3.64,5.11,3.08,9.22.69,19.2,1,8.25.25,11.55,2.07,11.91,1.16.7-1.72-9.93-11-21.68-10.43-5.06.26-7.18,2.2-10.76.66C97,159.52,97.05,151.24,94,151.23Z"/><path class="cls-6" d="M201.33,188.84c-1.83.36-3.3,4.83-1.87,8.11,1.36,3.11,5,4.36,7.34,4.49a7.11,7.11,0,0,0,1,0c6.89-.5,22.8-.35,22.82-1,0-.32-3.68-.34-10.65-1.53-6.65-1.13-10-1.74-12.69-3.77C203.39,192.14,203,188.52,201.33,188.84Z"/><path class="cls-6" d="M153.17,257.36c8.13,2.49,8.6,6.14,15.22,9.44,12.86,6.4,19.77-3,39.4,2.15,6.36,1.68,7.42,3.14,12.82,3.48,12.17.75,22.76-5.7,22.27-7.62-.87-3.4-36.3,8.87-47.67-5.62-2.43-3.1-3.33-6.85-7.77-8.89-5.18-2.38-7.88.93-17.23,1.27-10.45.38-13.07-3.53-22.06-1.42-4.31,1-8.75,3.1-8.56,4.4C139.82,256,146,255.16,153.17,257.36Z"/><path class="cls-6" d="M99.77,380.2c-5.42,3.53-4.79,20,3.25,27.84,9.08,8.8,22.69,1.71,37.11,13.3,6,4.8,3.47,5.88,8.59,9.43,13.43,9.33,25.72-1.64,49.9,4.94,5.38,1.46,8,2.87,14.35,3.64,7,.84,16.4,2,23.66-3.71,5.42-4.25,10-12.56,7.42-16.47-3.13-4.81-15.05,0-30.62,1.86-25.22,2.94-45.39-3.79-55.36-7.12C121.37,401.67,107.63,375.09,99.77,380.2Z"/><path class="cls-9" d="M246.08,81.16a11.71,11.71,0,0,1-4,4.19c-3.63,2.21-7,1.18-13.28.59-9.33-.89-18.41-.2-23.76,1.08l-6.52,1.58h0c-3,.93-4.58,1.81-9.13,3-25.31,6.63-35.5-11.79-66.28-11.54-18.8.16-20.63,7.08-40.22,5-8.32-.9-27.75-2.73-32.54-15.25C47.83,63.17,49.79,54.65,54,49a22.19,22.19,0,0,1,4.82-4.72A107.69,107.69,0,0,0,76,59.07c16,11.11,38.52,20.1,118.68,22C206.94,81.38,224.61,81.61,246.08,81.16Z"/><path class="cls-10" d="M118.52,128.2a191.22,191.22,0,0,1-45.88,4.7C55,132.54,37.07,132,19,121a76.7,76.7,0,0,1-11.58-8.64,14,14,0,0,0-2.27,5.82,14.39,14.39,0,0,0,2.76,10.57c4.62,5.7,12.62,1.54,26.57,4.71,11.44,2.6,10.36,5.67,19.75,7.49a30.57,30.57,0,0,0,3.91.52c6.18.42,19.62-3.26,30-5.28,6.07-1.18,9.11-1.77,12.45-2.11,3.73-.38,7.39-1.27,11.09-1.83a9.09,9.09,0,0,0,4.06-1.32A9.36,9.36,0,0,0,118.52,128.2Z"/><path class="cls-11" d="M82,160.33a14.54,14.54,0,0,0,3.53,9.44c.72.79,2.72,2.77,7.86,4.17,6.45,1.77,9.92.48,20.61.14,2.41-.08,6.62-.2,12.11.1,9.85.55,14.77.83,19,1.45,2.48.37,5.9,1,9.59-.65a13.81,13.81,0,0,0,4-2.66c-10.76.06-19.77-.36-26.44-.8-23.59-1.58-33.29-4.57-36.77-5.71A102.6,102.6,0,0,1,82,160.33Z"/><path class="cls-12" d="M207.29,205.44c-3.08-.45-10.33-1.53-13.34-6.93a10.62,10.62,0,0,1-1.25-3.95,71.07,71.07,0,0,0,10,4.05c8,2.54,14.08,2.92,32.6,3.89l17.45.88a5.74,5.74,0,0,1-2.55,2.43c-1.77.78-3.51.22-4.92-.17a74.32,74.32,0,0,0-11.4-2,37.28,37.28,0,0,0-7.93,0c-5.18.49-6.46,1.54-11.37,1.9A30.89,30.89,0,0,1,207.29,205.44Z"/><path class="cls-13" d="M152.33,264.8c-10.48-5-17.05-4.58-18.12-8.72-.87-3.34,2.35-7.32,2.81-7.9a13.21,13.21,0,0,1,4.93-3.74,102.16,102.16,0,0,0,18.83,13.21c20.75,11.32,40.82,12.8,58.92,14a218.09,218.09,0,0,0,29.45-.15,49.06,49.06,0,0,1-23.47,6.47c-16.36.06-18.65-7.16-33-7.18-13,0-16.56,5.37-26.49,2C160.66,270.87,161.37,269.1,152.33,264.8Z"/><path class="cls-14" d="M178.1,440.62c-25.84,1.25-29.45,4.25-36.5,1.1s-5-6.8-14.62-12.37c-7.87-4.57-9.72-2.41-20-6.5-4.33-1.73-23.45-9.36-26.68-24.21a20.36,20.36,0,0,1-.42-2.85,301.43,301.43,0,0,0,83.59,32.67,303.57,303.57,0,0,0,125.17,1.66,94.25,94.25,0,0,1-13.37,8.55,90.52,90.52,0,0,1-10.81,4.82s-23.34,8.62-48.84,4.47a119.56,119.56,0,0,1-13.24-2.8c-6-1.78-8.39-3.22-13.77-4.1A46.38,46.38,0,0,0,178.1,440.62Z"/></g></g></g></svg>