<?xml version="1.0" encoding="UTF-8"?>
<svg id="SVGRoot" width="500" height="98.521" version="1.1" viewBox="0 0 500 98.520889" xmlns="http://www.w3.org/2000/svg" xmlns:cc="http://creativecommons.org/ns#" xmlns:dc="http://purl.org/dc/elements/1.1/" xmlns:rdf="http://www.w3.org/1999/02/22-rdf-syntax-ns#"><metadata><rdf:RDF><cc:Work rdf:about=""><dc:format>image/svg+xml</dc:format><dc:type rdf:resource="http://purl.org/dc/dcmitype/StillImage"/><dc:title/></cc:Work></rdf:RDF></metadata><g transform="translate(-143.75 -217.93)"><g fill="#a22034"><g stroke-width="1.2808"><path class="cls-1" d="m274.05 231.93h2.5617l16.343 35.351h-2.9075l-4.4573-9.824h-20.711l-4.4573 9.824h-2.7154zm10.426 23.17-9.222-20.314-9.2732 20.314z"/><path class="cls-1" d="m299.08 232.19h14.742a13.833 13.833 0 0 1 9.8752 3.4582 9.2476 9.2476 0 0 1 2.6513 6.5194v0.10247c0 5.8662-4.3676 9.222-10.247 10.029l11.527 14.999h-3.3173l-11.143-14.55h-11.527v14.537h-2.5616zm14.435 18.201c5.8662 0 10.247-2.9587 10.247-8.018v-0.10246c0-4.7134-3.7144-7.685-10.08-7.685h-12.001v15.805z"/><path class="cls-1" d="m334.07 232.19h14.742a13.833 13.833 0 0 1 9.8752 3.4582 9.2476 9.2476 0 0 1 2.6513 6.5194v0.10247c0 5.8662-4.3676 9.222-10.247 10.029l11.527 14.999h-3.2789l-11.182-14.537h-11.527v14.537h-2.5617zm14.448 18.201c5.8662 0 10.247-2.9587 10.247-8.018v-0.10246c0-4.7134-3.7144-7.685-10.08-7.685h-12.001v15.805z"/><path class="cls-1" d="m365.02 249.84v-0.10247c0-9.5806 7.0702-18.149 17.701-18.149 10.631 0 17.599 8.4791 17.599 18.047v0.10246c0 9.5806-7.0702 18.149-17.701 18.149-10.631 0-17.599-8.4791-17.599-18.047zm32.597 0v-0.10247c0-8.6712-6.3145-15.793-14.999-15.793-8.684 0-14.896 7.0189-14.896 15.69v0.10246c0 8.6712 6.3145 15.793 14.999 15.793 8.684 0 14.883-7.019 14.883-15.69z"/><path class="cls-1" d="m403.97 232.19h2.9075l11.028 31.239 10.247-31.342h2.0109l10.247 31.342 11.028-31.239h2.7026l-12.731 35.351h-2.1134l-10.247-30.484-10.247 30.484h-2.1006z"/><path class="cls-1" d="m457.17 262.17 1.7035-1.9597c3.8425 3.5607 7.416 5.213 12.591 5.213s8.8762-2.9587 8.8762-6.9677v-0.10247c0-3.7144-1.9597-5.8662-9.9264-7.4672-8.4279-1.7035-11.835-4.5598-11.835-9.8752v-0.10246c0-5.213 4.7647-9.222 11.284-9.222a17.496 17.496 0 0 1 11.989 4.2652l-1.6523 2.0493a15.101 15.101 0 0 0 -10.477 -3.9578c-5.1233 0-8.5687 2.9587-8.5687 6.6219v0.10247c0 3.7144 1.9084 5.9687 10.247 7.685 8.1204 1.6523 11.527 4.5598 11.527 9.6831v0.10247c0 5.6613-4.8672 9.5806-11.63 9.5806a19.981 19.981 0 0 1 -14.128 -5.6484z"/><path class="cls-1" d="m499.23 234.58h-12.258v-2.3952h27.077v2.408h-12.232v32.7h-2.5617z"/><path class="cls-1" d="m520.75 232.19h14.742a13.833 13.833 0 0 1 9.8752 3.4582 9.2476 9.2476 0 0 1 2.6513 6.5194v0.10247c0 5.8662-4.3676 9.222-10.247 10.029l11.527 14.999h-3.2789l-11.182-14.537h-11.527v14.537h-2.5617zm14.435 18.201c5.8662 0 10.247-2.9587 10.247-8.018v-0.10246c0-4.7134-3.7144-7.685-10.08-7.685h-12.001v15.805z"/><path class="cls-1" d="m554.49 232.19h24.976v2.408h-22.363v13.782h20.109v2.408h-20.109v14.089h22.619v2.408h-25.232z"/><path class="cls-1" d="m586.88 232.19h24.976v2.408h-22.415v13.782h20.109v2.408h-20.109v14.089h22.619v2.408h-25.181z"/><path class="cls-1" d="m628.91 234.58h-12.232v-2.3952h27.077v2.408h-12.232v32.7h-2.5617z"/><path class="cls-1" d="m351.71 303.12v-0.0769a12.808 12.808 0 0 1 12.975 -13.013 13.116 13.116 0 0 1 9.8496 3.9193l-2.8306 3.2661a10.016 10.016 0 0 0 -7.0446 -3.1252 8.4663 8.4663 0 0 0 -8.3254 8.889v0.0768c0 4.9312 3.4839 8.9658 8.2998 8.9658a9.8368 9.8368 0 0 0 7.2239 -3.2405l2.8434 2.8819a12.988 12.988 0 0 1 -10.247 4.4573 12.655 12.655 0 0 1 -12.744 -13z"/><path class="cls-1" d="m395.46 290.27h4.0987l11.079 25.348h-4.675l-2.5617-6.0711h-11.899l-2.5616 6.0711h-4.5598zm6.3273 15.37-4.3548-10.067-4.3164 10.067z"/><path class="cls-1" d="m419.44 290.45h9.9008c5.9046 0 9.5678 3.343 9.5678 8.415v0.0769c0 5.6484-4.5341 8.5944-10.067 8.5944h-4.9952v8.0948h-4.4189zm9.5678 13.09c3.343 0 5.4307-1.87 5.4307-4.4957v-0.0768c0-2.9459-2.1262-4.4957-5.4307-4.4957h-5.1233v9.0683z"/><path class="cls-1" d="m450.91 290.45h4.4189v25.168h-4.4189z"/><path class="cls-1" d="m475.45 294.56h-7.9796v-4.0987h20.404v4.0987h-7.9796v21.07h-4.4445z"/><path class="cls-1" d="m505.42 290.27h4.0987l11.079 25.348h-4.675l-2.5616-6.0711h-11.899l-2.5617 6.0711h-4.5341zm6.3273 15.37-4.3548-10.067-4.3164 10.067z"/><path class="cls-1" d="m532.09 290.45h4.4189v21.146h13.231v4.0346h-17.65z"/></g><polygon class="cls-1" transform="matrix(1.6561 0 0 1.6561 -62.019 217.93)" points="131.18 59.49 138.03 43.38 140.59 37.5 150.31 14.76 158.27 33.84 163.02 29.27 150.46 0 124.25 59.49"/><polygon class="cls-1" transform="matrix(1.6561 0 0 1.6561 -62.019 217.93)" points="162.28 43.38 168.98 59.49 175.99 59.49 165.71 35.53 160.62 39.46"/></g><path class="cls-2" d="m233.89 271.24 1.1261-19.211-22.49 10.45 6.4588 0.56307c-8.9263 9.1913-23.036 22.987-36.749 25.57-4.4549 0.8446-9.4397 0-11.775-2.7326a19.558 19.558 0 0 0 7.6511 6.1772c17.803 9.3735 39.978-11.874 52.432-24.576z" fill="#52555a" fill-rule="evenodd" stroke-width="1.6561"/></g></svg>
