<?xml version="1.0" standalone="no"?>
<!DOCTYPE svg PUBLIC "-//W3C//DTD SVG 20010904//EN"
 "http://www.w3.org/TR/2001/REC-SVG-20010904/DTD/svg10.dtd">
<svg version="1.0" xmlns="http://www.w3.org/2000/svg"
 width="1251.000000pt" height="1251.000000pt" viewBox="0 0 1251.000000 1251.000000"
 preserveAspectRatio="xMidYMid meet">
<metadata>
Created by potrace 1.14, written by Peter Selinger 2001-2017
</metadata>
<g transform="translate(0.000000,1251.000000) scale(0.100000,-0.100000)"
fill="#000000" stroke="none">
<path d="M595 12500 c-128 -33 -227 -123 -270 -245 -17 -47 -18 -158 -19
-2183 -1 -1897 0 -2133 14 -2137 8 -2 33 -7 55 -11 22 -3 112 -24 200 -46 88
-22 167 -41 175 -43 8 -2 71 -17 140 -34 146 -35 215 -51 250 -57 14 -2 45 -9
70 -14 25 -5 56 -12 70 -14 14 -2 41 -7 60 -10 84 -14 109 -18 210 -31 211
-26 594 -26 820 0 76 9 126 16 145 20 11 3 38 7 60 10 22 3 47 7 55 10 8 2 31
6 50 9 19 3 50 10 68 15 18 5 35 10 37 10 3 0 30 5 60 12 l55 12 0 372 c0 403
2 422 56 492 13 18 46 45 72 60 39 24 58 28 117 28 59 0 77 -5 112 -27 53 -35
94 -88 107 -142 7 -26 11 -157 11 -334 0 -161 1 -292 3 -292 8 0 80 34 187 87
218 110 406 241 685 478 84 72 158 135 164 140 6 6 36 30 66 55 30 25 57 47
60 50 12 14 202 152 266 193 94 61 224 130 314 167 41 17 84 35 95 40 69 31
350 104 449 116 22 2 50 6 61 8 37 7 177 22 233 25 9 1 12 298 12 1450 0 1334
-1 1453 -17 1502 -33 107 -101 184 -203 233 l-65 31 -997 3 -997 2 -65 -24
c-113 -40 -206 -138 -237 -247 -10 -33 -13 -212 -15 -734 -2 -761 1 -724 -66
-800 -88 -101 -237 -110 -331 -19 -77 75 -71 15 -77 819 -5 683 -6 722 -24
765 -41 94 -101 157 -196 203 l-65 32 -995 2 c-547 0 -1008 -2 -1025 -7z"/>
<path d="M9606 12075 c-58 -20 -97 -67 -161 -190 -32 -60 -79 -150 -105 -200
-26 -49 -82 -157 -125 -240 -43 -82 -92 -177 -110 -210 -18 -33 -62 -116 -98
-185 -125 -242 -190 -366 -242 -465 -29 -55 -85 -163 -125 -240 -40 -77 -92
-176 -115 -220 -23 -44 -73 -138 -110 -210 -37 -71 -89 -170 -115 -220 -26
-49 -78 -148 -115 -220 -37 -71 -92 -176 -122 -233 l-54 -103 33 5 c18 3 51 8
73 11 39 6 65 11 115 19 14 3 79 14 145 26 376 65 708 156 1015 277 91 36 185
75 210 88 25 12 83 42 130 65 140 71 421 246 490 306 8 8 58 48 110 91 52 43
154 135 227 206 l132 129 -66 127 c-36 69 -90 173 -120 231 -133 253 -218 415
-346 660 -32 63 -87 167 -120 230 -33 63 -91 173 -128 244 -37 71 -79 145 -94
164 -47 58 -135 82 -209 57z"/>
<path d="M10713 9970 c-62 -59 -145 -135 -185 -167 -40 -32 -82 -66 -92 -75
-11 -10 -38 -30 -60 -45 -23 -15 -43 -30 -46 -34 -13 -14 -242 -164 -302 -198
-21 -12 -55 -31 -75 -42 -264 -150 -659 -303 -1029 -399 -130 -34 -429 -99
-519 -113 -16 -3 -100 -16 -185 -30 -85 -15 -175 -29 -200 -32 -105 -13 -184
-25 -185 -28 -8 -16 -85 -165 -105 -202 -15 -27 -69 -131 -120 -230 -51 -99
-97 -185 -102 -191 -6 -8 20 -18 89 -34 103 -24 391 -116 465 -148 248 -112
491 -194 650 -219 92 -15 350 -8 448 12 14 3 41 8 60 11 19 3 49 10 65 14 17
5 41 11 55 14 143 26 393 149 526 258 86 70 246 242 351 378 267 345 386 468
574 597 136 93 376 203 441 203 10 0 18 5 18 11 0 6 -24 57 -54 113 -29 55
-82 155 -116 221 -211 404 -243 465 -250 465 -3 -1 -55 -50 -117 -110z"/>
<path d="M11300 8990 c-214 -55 -393 -170 -570 -366 -58 -64 -57 -63 -241
-295 -251 -314 -425 -482 -630 -603 -267 -159 -615 -250 -959 -249 -95 0 -237
10 -250 18 -3 1 -25 6 -50 9 -25 3 -79 15 -120 27 -41 11 -82 22 -90 24 -49
13 -300 107 -375 140 -188 84 -460 168 -615 189 l-45 6 -52 -102 c-29 -57 -83
-159 -119 -228 -36 -69 -102 -195 -146 -280 l-80 -155 5 -66 c4 -75 29 -124
80 -164 68 -51 -1 -49 1471 -50 l1378 -1 16 25 c106 176 244 352 369 471 116
111 131 123 240 196 208 139 359 199 753 299 121 30 252 67 292 81 100 35 247
108 286 141 l33 28 -19 35 c-43 80 -135 255 -212 405 -45 88 -93 178 -105 200
-12 22 -50 95 -85 162 -44 84 -68 121 -79 120 -9 0 -46 -8 -81 -17z"/>
<path d="M5949 8996 c-2 -2 -40 -7 -84 -10 -44 -4 -89 -9 -100 -11 -11 -2 -36
-7 -55 -9 -291 -42 -581 -163 -831 -347 -88 -65 -287 -225 -304 -245 -9 -10
-304 -256 -345 -288 -238 -182 -471 -320 -720 -426 -69 -29 -128 -57 -131 -62
-3 -5 -5 -109 -4 -231 2 -201 4 -227 24 -279 39 -101 117 -179 219 -219 55
-22 68 -23 466 -23 l408 -1 45 100 c72 163 142 303 211 420 36 61 68 112 71
115 3 3 26 34 50 70 142 209 351 405 557 521 114 64 326 156 404 175 8 2 43
11 78 20 l62 16 0 354 c0 308 -4 376 -21 360z"/>
<path d="M5852 7935 c-415 -140 -683 -396 -934 -894 -49 -95 -88 -179 -88
-186 0 -9 98 -11 423 -10 384 1 426 3 467 20 121 50 199 134 234 254 13 46 16
118 16 453 0 219 -3 398 -7 398 -5 0 -54 -16 -111 -35z"/>
<path d="M11950 7779 c-88 -54 -213 -112 -313 -148 -71 -25 -317 -96 -366
-106 -9 -2 -54 -13 -101 -25 -311 -79 -498 -178 -681 -360 -76 -76 -239 -275
-239 -292 0 -3 440 -4 978 -3 l977 1 49 23 c82 41 134 136 123 227 -4 41 -20
75 -139 304 -173 331 -220 420 -221 419 -1 0 -31 -18 -67 -40z"/>
<path d="M306 7388 c2 -262 6 -288 61 -373 29 -46 85 -99 127 -121 91 -50 43
-47 1093 -49 779 -1 992 1 1033 12 104 26 201 109 249 213 24 51 26 67 29 223
2 92 0 167 -4 167 -5 0 -52 -9 -104 -20 -89 -19 -243 -45 -335 -56 -22 -3 -53
-7 -70 -9 -189 -26 -646 -26 -863 1 -21 2 -71 9 -112 15 -41 6 -91 12 -110 15
-30 4 -356 68 -400 79 -8 2 -143 36 -299 74 -157 39 -287 71 -291 71 -3 0 -5
-109 -4 -242z"/>
<path d="M3097 6084 c-1 -1 -65 -4 -142 -7 -121 -5 -215 -16 -365 -42 -318
-54 -718 -211 -1016 -397 -114 -72 -264 -178 -264 -188 0 -3 24 -12 53 -20 92
-23 459 -148 532 -181 36 -16 217 -80 325 -115 317 -101 535 -116 795 -55 429
102 702 270 924 566 90 120 213 334 194 336 -12 1 -36 6 -109 22 -38 9 -86 18
-106 21 -21 3 -55 9 -75 12 -52 8 -68 11 -143 18 -36 4 -78 9 -95 11 -66 10
-500 26 -508 19z"/>
<path d="M7127 5889 c-141 -33 -259 -160 -284 -304 -4 -27 -8 -115 -7 -195 l0
-144 80 -35 c122 -52 133 -57 229 -90 113 -38 306 -87 405 -101 41 -6 89 -13
105 -15 75 -11 343 -5 411 10 12 3 38 7 60 11 138 22 378 116 529 207 193 116
415 306 629 538 33 35 73 79 90 97 l30 32 -1120 -1 c-615 -1 -1136 -5 -1157
-10z"/>
<path d="M9745 5838 c-207 -255 -396 -449 -645 -662 -40 -35 -220 -159 -285
-198 -246 -145 -470 -224 -745 -262 -87 -12 -385 -14 -465 -3 -250 35 -451 85
-662 165 -61 24 -103 35 -104 28 0 -6 -1 -355 -2 -775 l-2 -763 25 -13 c33
-17 213 -74 253 -80 18 -3 56 -9 85 -14 80 -12 256 -6 350 13 218 45 423 144
662 319 52 39 97 73 100 76 3 3 21 18 40 33 19 15 49 39 65 53 17 15 51 44 76
66 61 51 150 133 354 324 137 128 179 167 249 230 43 39 92 83 110 99 88 80
345 278 461 355 332 220 637 335 1000 377 33 3 68 8 77 10 101 18 630 25 843
10 217 -14 301 -21 415 -33 57 -6 91 -6 94 -1 4 5 123 212 144 250 12 20 32
54 45 75 48 78 61 117 60 175 -3 89 -68 175 -151 197 -24 7 -443 11 -1217 10
l-1180 0 -50 -61z"/>
<path d="M4401 5831 c-59 -120 -175 -305 -239 -383 -286 -347 -621 -552 -1082
-662 -156 -37 -189 -41 -370 -41 -168 0 -215 4 -330 29 -204 44 -287 71 -753
250 -216 83 -529 175 -594 176 -23 0 -182 -178 -309 -347 -311 -413 -536 -989
-580 -1478 l-5 -60 48 46 c26 25 75 70 108 101 33 31 78 72 100 93 22 20 67
61 100 90 33 29 76 67 95 85 70 62 297 228 396 288 268 164 578 274 919 327
11 2 45 6 75 10 30 3 61 8 67 10 55 18 334 22 953 15 129 -1 264 0 300 4 82 8
218 25 246 30 12 2 38 7 58 10 224 36 516 145 754 282 48 27 217 137 250 162
289 219 496 365 620 438 61 37 112 68 112 69 0 1 -26 22 -57 46 -32 24 -67 52
-78 62 -79 72 -366 240 -537 315 -79 35 -225 92 -235 92 -1 0 -16 -27 -32 -59z"/>
<path d="M5463 5094 c-106 -55 -204 -120 -400 -265 -429 -317 -596 -420 -873
-537 -143 -60 -388 -135 -510 -156 -146 -25 -152 -26 -205 -31 -27 -3 -59 -8
-70 -10 -56 -11 -262 -19 -440 -15 -499 9 -840 4 -930 -15 -11 -2 -38 -6 -60
-9 -74 -9 -142 -22 -312 -61 -133 -31 -409 -155 -558 -253 -84 -55 -246 -177
-311 -235 -16 -14 -40 -35 -54 -47 -27 -23 -193 -176 -300 -276 -91 -85 -103
-96 -213 -192 l-98 -86 6 -96 c6 -106 12 -159 25 -240 5 -30 12 -73 15 -95 4
-22 8 -48 11 -57 3 -10 7 -30 10 -45 28 -160 126 -440 230 -660 l43 -91 91 29
c335 108 607 265 838 483 64 61 192 191 222 226 12 14 36 41 54 60 17 19 63
71 101 115 38 44 71 82 74 85 3 3 38 41 76 85 149 170 373 394 520 522 154
134 389 313 410 313 4 0 19 8 33 18 123 84 462 186 692 208 25 3 79 9 120 13
74 8 535 6 638 -3 128 -11 397 -46 472 -61 42 -9 72 -14 135 -26 55 -10 101
-20 282 -62 l62 -15 232 331 c128 183 247 361 266 397 76 147 84 354 20 494
-37 80 -216 306 -242 306 -7 0 -53 -21 -102 -46z"/>
<path d="M11057 4934 c-1 -1 -63 -5 -137 -9 -74 -3 -146 -8 -160 -10 -14 -2
-47 -6 -75 -9 -27 -4 -63 -9 -80 -12 -16 -3 -43 -7 -60 -10 -115 -19 -313 -88
-450 -157 -56 -28 -248 -141 -270 -159 -5 -5 -46 -34 -90 -65 -44 -31 -82 -59
-85 -62 -3 -3 -21 -18 -40 -32 -19 -15 -45 -35 -56 -45 -12 -11 -38 -32 -57
-47 -67 -53 -165 -140 -341 -301 -54 -50 -104 -95 -110 -101 -39 -35 -222
-201 -226 -205 -3 -3 -28 -25 -55 -50 -439 -394 -778 -597 -1125 -675 -172
-38 -410 -40 -570 -3 -25 5 -56 12 -70 14 -14 3 -54 14 -89 25 -35 11 -66 17
-70 14 -9 -9 -8 -2613 1 -2665 18 -98 97 -212 179 -256 97 -52 -93 -48 2622
-51 l2518 -3 50 21 c90 39 149 137 136 228 -5 42 -23 84 -75 176 -41 73 -70
125 -152 275 -93 171 -98 179 -366 665 -136 248 -261 475 -278 507 -17 31 -44
80 -60 110 -16 29 -50 91 -76 138 -280 505 -343 625 -360 690 -20 74 -21 82
-24 170 -4 113 25 234 76 328 18 32 273 472 408 702 100 171 175 301 197 340
11 19 48 82 82 138 33 57 61 106 61 108 0 3 8 17 19 32 18 26 121 201 121 206
0 1 -8 2 -17 2 -10 0 -55 4 -99 8 -210 19 -735 40 -747 30z"/>
<path d="M3807 3484 c-1 -1 -34 -5 -72 -8 -39 -3 -87 -8 -108 -11 -20 -3 -52
-7 -69 -10 -221 -31 -451 -109 -598 -203 -47 -30 -226 -171 -294 -232 -203
-180 -375 -354 -546 -550 -30 -35 -59 -68 -65 -74 -5 -6 -28 -32 -50 -57 -22
-25 -73 -83 -114 -130 -124 -140 -342 -350 -447 -431 -196 -149 -436 -282
-659 -362 -55 -20 -113 -42 -128 -49 l-29 -13 57 -79 c149 -208 365 -442 528
-573 40 -31 81 -65 91 -74 76 -68 367 -249 520 -323 207 -100 480 -198 636
-229 14 -2 70 -13 125 -24 200 -40 295 -47 615 -47 223 1 374 7 439 20 11 2
41 6 68 10 120 17 215 36 355 71 251 63 553 185 748 303 19 11 42 24 50 28 76
36 356 243 485 358 183 164 402 399 440 474 67 132 76 297 24 437 -21 55 -142
240 -550 839 -162 237 -202 311 -222 408 -24 114 -5 255 48 357 18 35 17 39
-11 44 -81 16 -178 37 -183 40 -3 2 -28 7 -55 10 -27 4 -52 9 -55 10 -3 2 -33
7 -66 11 -32 3 -62 8 -65 10 -4 2 -29 6 -155 20 -53 6 -149 17 -195 22 -45 4
-489 11 -493 7z"/>
</g>
</svg>
