<svg xmlns="http://www.w3.org/2000/svg" viewBox="0 0 279.58 466.14"><defs><style>.cls-1{fill:#e5d8c3;}.cls-2{fill:#8ba592;}.cls-3{fill:#a8c1af;}.cls-4{fill:#ced8d0;}</style></defs><g id="Layer_2" data-name="Layer 2"><g id="regular"><g id="new_no_outline_rock" data-name="new no outline rock"><path class="cls-1" d="M12.26,344.54c23.68,1.76,28.87,9.66,55.42,20.69C89,374.09,105,378,118.54,379.52c17.87,2.06,24.18,2.8,81.48,4.72,48,1.61,64.91,2.7,73.14,15,3.8,5.68,6.37,14.66,6.41,23.35,0,5.33-.14,14.92-6.51,21.27a19.79,19.79,0,0,1-7.73,4.67c-22.56,7.68-17-.32-38.38,11.88-22.49,12.85-80,0-80,0C117.7,453.17,74.11,446.77,4,444.94a334.92,334.92,0,0,0,8.57-59.62A331.32,331.32,0,0,0,12.26,344.54Z"/><path class="cls-2" d="M125.87,339.48h13.52a2,2,0,0,0,2-2.08c-.56-8.34-2.6-39.53-2.6-51s2-42.65,2.6-51a2,2,0,0,0-2-2.08H125.87a2,2,0,0,0-2,2.07c.52,8.33,2.41,39.54,2.41,51s-1.89,42.68-2.41,51A1.94,1.94,0,0,0,125.87,339.48Z"/><path class="cls-2" d="M125.87,448.24h13.52a2,2,0,0,0,2-2.07c-.56-8.35-2.6-39.54-2.6-51s2-42.65,2.6-51a2,2,0,0,0-2-2.08H125.87a2,2,0,0,0-2,2.07c.52,8.33,2.41,39.54,2.41,51s-1.89,42.68-2.41,51A1.94,1.94,0,0,0,125.87,448.24Z"/><path class="cls-2" d="M125.87,122h13.52a2,2,0,0,0,2-2.08c-.56-8.34-2.6-39.53-2.6-51s2-42.65,2.6-51a2,2,0,0,0-2-2.07H125.87a1.94,1.94,0,0,0-2,2.06c.52,8.33,2.41,39.54,2.41,51s-1.89,42.67-2.41,51A2,2,0,0,0,125.87,122Z"/><path class="cls-2" d="M125.87,230.72h13.52a2,2,0,0,0,2-2.08c-.56-8.34-2.6-39.53-2.6-51s2-42.65,2.6-51a2,2,0,0,0-2-2.08H125.87a1.94,1.94,0,0,0-2,2.06c.52,8.33,2.41,39.54,2.41,51s-1.89,42.67-2.41,51A2,2,0,0,0,125.87,230.72Z"/><path class="cls-2" d="M53,338.17H66.5a1.94,1.94,0,0,0,1.94-2.08c-.56-8.34-2.6-39.53-2.6-51s2-42.65,2.6-51A1.94,1.94,0,0,0,66.5,232H53A1.94,1.94,0,0,0,51,234.1c.51,8.32,2.4,39.53,2.4,51s-1.89,42.67-2.4,51A2,2,0,0,0,53,338.17Z"/><path class="cls-2" d="M53,446.93H66.5a1.94,1.94,0,0,0,1.94-2.08c-.56-8.34-2.6-39.53-2.6-51s2-42.65,2.6-51a1.94,1.94,0,0,0-1.94-2.08H53A2,2,0,0,0,51,342.86c.51,8.33,2.4,39.54,2.4,51s-1.89,42.68-2.4,51A1.94,1.94,0,0,0,53,446.93Z"/><path class="cls-2" d="M53,120.64H66.5a1.94,1.94,0,0,0,1.94-2.07c-.56-8.35-2.6-39.53-2.6-51s2-42.65,2.6-51A1.94,1.94,0,0,0,66.5,14.5H53A2,2,0,0,0,51,16.57c.51,8.33,2.4,39.54,2.4,51s-1.89,42.68-2.4,51A1.94,1.94,0,0,0,53,120.64Z"/><path class="cls-2" d="M53,229.41H66.5a1.94,1.94,0,0,0,1.94-2.08c-.56-8.34-2.6-39.53-2.6-51s2-42.65,2.6-51a1.94,1.94,0,0,0-1.94-2.07H53A1.94,1.94,0,0,0,51,125.33c.51,8.33,2.4,39.54,2.4,51s-1.89,42.67-2.4,51A2,2,0,0,0,53,229.41Z"/><path class="cls-3" d="M27.87,323.66H41.4a1.94,1.94,0,0,0,1.94-2.07c-.56-8.35-2.6-39.53-2.6-51s2-42.65,2.6-51a2,2,0,0,0-1.94-2.08H27.87a2,2,0,0,0-1.95,2.07c.52,8.33,2.41,39.54,2.41,51s-1.89,42.68-2.41,51A2,2,0,0,0,27.87,323.66Z"/><path class="cls-3" d="M27.87,432.43H41.4a2,2,0,0,0,1.94-2.08c-.56-8.34-2.6-39.53-2.6-51s2-42.65,2.6-51a1.94,1.94,0,0,0-1.94-2.07H27.87a2,2,0,0,0-1.95,2.06c.52,8.33,2.41,39.54,2.41,51s-1.89,42.67-2.41,51A2,2,0,0,0,27.87,432.43Z"/><path class="cls-3" d="M27.87,106.14H41.4a2,2,0,0,0,1.94-2.08c-.56-8.34-2.6-39.53-2.6-51s2-42.65,2.6-51A2,2,0,0,0,41.4,0H27.87a2,2,0,0,0-1.95,2.07c.52,8.32,2.41,39.53,2.41,51s-1.89,42.67-2.41,51A2,2,0,0,0,27.87,106.14Z"/><path class="cls-3" d="M27.87,214.9H41.4a2,2,0,0,0,1.94-2.08c-.56-8.34-2.6-39.53-2.6-51s2-42.65,2.6-51a2,2,0,0,0-1.94-2.08H27.87a2,2,0,0,0-1.95,2.07c.52,8.33,2.41,39.54,2.41,51s-1.89,42.68-2.41,51A2,2,0,0,0,27.87,214.9Z"/><path class="cls-2" d="M0,236.84H0c7.22-20,24.46-19.32,24.7-19.31h0C17.49,237.52.25,236.85,0,236.84H0Z"/><path class="cls-2" d="M3.18,208.33h0c15-3.59,21.43,7.11,21.52,7.26h0c-15,3.6-21.43-7.1-21.52-7.25Z"/><path class="cls-3" d="M103.59,332.23h13.52a2,2,0,0,0,2-2.08c-.56-8.34-2.6-39.53-2.6-51s2-42.65,2.6-51a2,2,0,0,0-2-2.07H103.59a1.94,1.94,0,0,0-2,2.06c.52,8.33,2.41,39.54,2.41,51s-1.89,42.67-2.41,51A2,2,0,0,0,103.59,332.23Z"/><path class="cls-3" d="M103.59,441h13.52a2,2,0,0,0,2-2.08c-.56-8.34-2.6-39.53-2.6-51s2-42.65,2.6-51a2,2,0,0,0-2-2.08H103.59a2,2,0,0,0-2,2.07c.52,8.33,2.41,39.54,2.41,51s-1.89,42.68-2.41,51A1.94,1.94,0,0,0,103.59,441Z"/><path class="cls-3" d="M103.59,114.7h13.52a2,2,0,0,0,2-2.07c-.56-8.35-2.6-39.53-2.6-51s2-42.65,2.6-51a2,2,0,0,0-2-2.08H103.59a2,2,0,0,0-2,2.07c.52,8.33,2.41,39.54,2.41,51s-1.89,42.68-2.41,51A1.94,1.94,0,0,0,103.59,114.7Z"/><path class="cls-3" d="M103.59,223.47h13.52a2,2,0,0,0,2-2.08c-.56-8.34-2.6-39.53-2.6-51s2-42.65,2.6-51a2,2,0,0,0-2-2.07H103.59a1.94,1.94,0,0,0-2,2.06c.52,8.33,2.41,39.54,2.41,51s-1.89,42.67-2.41,51A2,2,0,0,0,103.59,223.47Z"/><path class="cls-4" d="M145,313.07h0c-7.22,20-24.46,19.32-24.7,19.31h0c7.22-20,24.46-19.32,24.7-19.31Z"/><path class="cls-4" d="M141.8,341.58h0c-15,3.59-21.43-7.11-21.52-7.26h0c15-3.59,21.43,7.11,21.52,7.26Z"/><path class="cls-3" d="M78.69,323.78H92.21a1.94,1.94,0,0,0,2-2.07c-.56-8.35-2.6-39.54-2.6-51s2-42.65,2.6-51a2,2,0,0,0-2-2.08H78.69a2,2,0,0,0-2,2.07c.52,8.33,2.41,39.54,2.41,51s-1.89,42.68-2.41,51A2,2,0,0,0,78.69,323.78Z"/><path class="cls-3" d="M78.69,432.54H92.21a1.94,1.94,0,0,0,2-2.07c-.56-8.35-2.6-39.53-2.6-51s2-42.65,2.6-51a2,2,0,0,0-2-2.08H78.69a2,2,0,0,0-2,2.07c.52,8.33,2.41,39.54,2.41,51s-1.89,42.68-2.41,51A2,2,0,0,0,78.69,432.54Z"/><path class="cls-3" d="M78.69,106.26H92.21a2,2,0,0,0,2-2.08c-.56-8.34-2.6-39.53-2.6-51s2-42.65,2.6-51a1.94,1.94,0,0,0-2-2.07H78.69a2,2,0,0,0-2,2.06c.52,8.33,2.41,39.54,2.41,51s-1.89,42.67-2.41,51A2,2,0,0,0,78.69,106.26Z"/><path class="cls-3" d="M78.69,215H92.21a2,2,0,0,0,2-2.08c-.56-8.34-2.6-39.53-2.6-51s2-42.65,2.6-51a2,2,0,0,0-2-2.08H78.69a2,2,0,0,0-2,2.07c.52,8.32,2.41,39.54,2.41,51s-1.89,42.67-2.41,51A2,2,0,0,0,78.69,215Z"/><path class="cls-4" d="M50.82,237h0c7.22-20,24.46-19.32,24.7-19.31h0c-7.22,20-24.46,19.32-24.7,19.31h0Z"/><path class="cls-4" d="M54,208.45h0c15-3.59,21.43,7.11,21.52,7.26h0c-15,3.59-21.43-7.11-21.52-7.26Z"/><path class="cls-3" d="M151.82,334.64h13.53a1.94,1.94,0,0,0,1.94-2.08c-.56-8.34-2.6-39.53-2.6-51s2-42.65,2.6-51a1.94,1.94,0,0,0-1.94-2.07H151.82a1.94,1.94,0,0,0-1.94,2.06c.51,8.33,2.4,39.54,2.4,51s-1.89,42.67-2.4,51A2,2,0,0,0,151.82,334.64Z"/><path class="cls-3" d="M151.82,443.4h13.53a1.94,1.94,0,0,0,1.94-2.08c-.56-8.34-2.6-39.53-2.6-51s2-42.65,2.6-51a1.94,1.94,0,0,0-1.94-2.08H151.82a1.94,1.94,0,0,0-1.94,2.07c.51,8.32,2.4,39.53,2.4,51s-1.89,42.67-2.4,51A2,2,0,0,0,151.82,443.4Z"/><path class="cls-3" d="M151.82,117.11h13.53a1.94,1.94,0,0,0,1.94-2.07c-.56-8.35-2.6-39.54-2.6-51s2-42.65,2.6-51A1.94,1.94,0,0,0,165.35,11H151.82A2,2,0,0,0,149.88,13c.51,8.33,2.4,39.54,2.4,51s-1.89,42.68-2.4,51A1.94,1.94,0,0,0,151.82,117.11Z"/><path class="cls-3" d="M151.82,225.87h13.53a1.94,1.94,0,0,0,1.94-2.07c-.56-8.35-2.6-39.53-2.6-51s2-42.65,2.6-51a1.94,1.94,0,0,0-1.94-2.07H151.82a1.94,1.94,0,0,0-1.94,2.06c.51,8.33,2.4,39.54,2.4,51s-1.89,42.68-2.4,51A1.94,1.94,0,0,0,151.82,225.87Z"/><path class="cls-2" d="M194.42,98.17h0c-7.22,20-24.46,19.32-24.7,19.31h0c7.22-20,24.46-19.32,24.7-19.31Z"/><path class="cls-2" d="M191.23,126.68h0c-15,3.59-21.42-7.11-21.52-7.26h0c15-3.59,21.43,7.11,21.52,7.26h0Z"/></g></g></g></svg>