<svg xmlns="http://www.w3.org/2000/svg" viewBox="0 0 63.74 63.74"><defs><style>.cls-1{fill:#ab8d74;}.cls-2{fill:#a2b1ce;}.cls-3{fill:#e8ecf3;}.cls-4{fill:#a7b5d1;}.cls-5{fill:#fff;fill-rule:evenodd;}</style></defs><g id="Layer_2" data-name="Layer 2"><g id="regular"><g id="timer"><circle class="cls-1" cx="31.87" cy="31.87" r="31.87" transform="translate(-6.47 55.57) rotate(-76.72)"/><path class="cls-2" d="M31.22,32.15l-.06-.46a6.19,6.19,0,0,1,.4-2.76l.45.39c1,.82.16,1.9.39,2.83H31.22Z"/><path class="cls-3" d="M32.58,31.13,32,32.69c-.28-.54-1.79-1.09,0-1.64Z"/><path class="cls-4" d="M31.26,32.15h.79l.39,1.22c-.43.28,0,.54,0,.8l-.42.42a.8.8,0,0,0-.4.8C30.84,34.4,31.4,33.23,31.26,32.15Z"/><path class="cls-5" d="M26.59,32V51.55a.51.51,0,0,0,.51.51h7.25a.5.5,0,0,0,.5-.51V31.71h5.26a.52.52,0,0,0,.51-.46l.5-6a.5.5,0,0,0-.5-.55H34.85V20.48a1.8,1.8,0,0,1,1.8-1.8H40.7a.51.51,0,0,0,.51-.51v-6a.51.51,0,0,0-.51-.51H33.86A7.27,7.27,0,0,0,26.59,19v5.76H23a.5.5,0,0,0-.5.51v6a.5.5,0,0,0,.5.51h3.63Z"/></g></g></g></svg>