<svg xmlns="http://www.w3.org/2000/svg" viewBox="0 0 63.74 63.74"><defs><style>.cls-1{fill:#ab8d74;}.cls-2{fill:#fff;}</style></defs><g id="Layer_2" data-name="Layer 2"><g id="regular"><g id="timer"><circle class="cls-1" cx="31.87" cy="31.87" r="31.87" transform="translate(-9.77 14.62) rotate(-22.5)"/><circle class="cls-2" cx="43.15" cy="20.77" r="2.48"/><path class="cls-2" d="M32.15,21.47a10.4,10.4,0,1,0,10.4,10.4A10.42,10.42,0,0,0,32.15,21.47Zm0,17.06a6.66,6.66,0,1,1,6.66-6.66A6.67,6.67,0,0,1,32.15,38.53Z"/><path class="cls-2" d="M40.4,53H23.54A12.7,12.7,0,0,1,10.86,40.3V23.44A12.7,12.7,0,0,1,23.54,10.75H40.4A12.7,12.7,0,0,1,53.09,23.44V40.3A12.7,12.7,0,0,1,40.4,53ZM23.54,14.73a8.72,8.72,0,0,0-8.71,8.71V40.3A8.72,8.72,0,0,0,23.54,49H40.4a8.72,8.72,0,0,0,8.72-8.71V23.44a8.73,8.73,0,0,0-8.72-8.71Z"/></g></g></g></svg>