<?xml version="1.0" encoding="UTF-8" standalone="no"?>
<svg
   xmlns:dc="http://purl.org/dc/elements/1.1/"
   xmlns:cc="http://creativecommons.org/ns#"
   xmlns:rdf="http://www.w3.org/1999/02/22-rdf-syntax-ns#"
   xmlns:svg="http://www.w3.org/2000/svg"
   xmlns="http://www.w3.org/2000/svg"
   xmlns:sodipodi="http://sodipodi.sourceforge.net/DTD/sodipodi-0.dtd"
   xmlns:inkscape="http://www.inkscape.org/namespaces/inkscape"
   viewBox="0 0 63.74 63.74"
   version="1.1"
   id="svg21"
   sodipodi:docname="linkedin.svg"
   inkscape:version="1.0.2-2 (e86c870879, 2021-01-15)">
  <metadata
     id="metadata25">
    <rdf:RDF>
      <cc:Work
         rdf:about="">
        <dc:format>image/svg+xml</dc:format>
        <dc:type
           rdf:resource="http://purl.org/dc/dcmitype/StillImage" />
      </cc:Work>
    </rdf:RDF>
  </metadata>
  <sodipodi:namedview
     pagecolor="#ffffff"
     bordercolor="#666666"
     borderopacity="1"
     objecttolerance="10"
     gridtolerance="10"
     guidetolerance="10"
     inkscape:pageopacity="0"
     inkscape:pageshadow="2"
     inkscape:window-width="1920"
     inkscape:window-height="1017"
     id="namedview23"
     showgrid="false"
     inkscape:zoom="2.6357075"
     inkscape:cx="-23.783767"
     inkscape:cy="-43.112196"
     inkscape:window-x="-8"
     inkscape:window-y="-8"
     inkscape:window-maximized="1"
     inkscape:current-layer="svg21" />
  <defs
     id="defs4">
    <style
       id="style2">.cls-1{fill:#ab8d74;}.cls-2,.cls-3{fill:#fff;}.cls-3{fill-rule:evenodd;}</style>
  </defs>
  <g
     id="Layer_2"
     data-name="Layer 2">
    <g
       id="regular">
      <g
         id="timer">
        <circle
           class="cls-1"
           cx="31.87"
           cy="31.87"
           r="31.87"
           transform="translate(-6 56.32) rotate(-77.84)"
           id="circle6" />
        <path
           class="cls-3"
           d="M23.78,47.9Z"
           id="path10" />
        <path
           class="cls-3"
           d="M23.78,47.9Z"
           id="path12" />
        <path
           class="cls-3"
           d="M25.1,47.93c0-.06.69,0,0,0C25.1,47.9,25.18,47.93,25.1,47.93Z"
           id="path14" />
        <path
           class="cls-3"
           d="M39,15.75a.12.12,0,0,1-.16,0Z"
           id="path16" />
      </g>
    </g>
  </g>
  <path
     id="rect859"
     style="opacity:1;fill:#ffffff;stroke-width:0.910423;stroke-linecap:round;stroke-linejoin:round"
     d="m 19.386701,13.62117 c -2.264825,0 -4.128879,1.862171 -4.128879,4.126997 0,2.264827 1.864053,4.128878 4.128879,4.128878 2.264397,-2.14e-4 4.128879,-1.86448 4.128879,-4.128878 -4.3e-4,-2.264396 -1.864266,-4.126997 -4.128879,-4.126997 z m 21.690726,10.817135 c -2.752752,-0.102224 -5.346635,1.324115 -6.737184,3.701688 h -0.09598 v -3.131474 h -6.829398 v 22.910195 h 7.113564 V 36.58594 c 0,-2.988772 0.566489,-5.882807 4.271903,-5.882807 3.652582,0 3.699806,3.419883 3.699806,6.076642 v 11.140821 h 7.115446 l 0.0019,-12.569179 c 1e-6,-6.170181 -1.329578,-10.913112 -8.540042,-10.913112 z m -25.255036,0.570214 v 22.912077 h 7.121093 V 25.008519 Z" />
</svg>
