<svg xmlns="http://www.w3.org/2000/svg" viewBox="0 0 63.74 63.74"><defs><style>.cls-1{fill:#ab8d74;}.cls-2,.cls-3{fill:#fff;}.cls-3{fill-rule:evenodd;}</style></defs><g id="Layer_2" data-name="Layer 2"><g id="regular"><g id="timer"><circle class="cls-1" cx="31.87" cy="31.87" r="31.87" transform="translate(-6 56.32) rotate(-77.84)"/><path class="cls-2" d="M51.23,19.58a16.09,16.09,0,0,1-4,1.13c.64-.11,1.58-1.26,2-1.73a7.42,7.42,0,0,0,1.32-2.4c0-.07.06-.16,0-.21a.2.2,0,0,0-.21,0,20.19,20.19,0,0,1-4.71,1.8.3.3,0,0,1-.32-.09,5.48,5.48,0,0,0-.41-.42,8.7,8.7,0,0,0-2.29-1.4,7.89,7.89,0,0,0-3.5-.56,8.46,8.46,0,0,0-6,3.13,8.05,8.05,0,0,0-1.6,3.2,8.55,8.55,0,0,0-.09,3.38c0,.19,0,.22-.16.19-6.47-1-11.83-3.28-16.19-8.24-.19-.21-.29-.21-.44,0-1.91,2.85-1,7.44,1.4,9.7A11.84,11.84,0,0,0,17,28a8.1,8.1,0,0,1-3.12-.87c-.19-.12-.29-.05-.3.16a5,5,0,0,0,.05.93,8.28,8.28,0,0,0,5.11,6.61,4.81,4.81,0,0,0,1,.32,9.1,9.1,0,0,1-3.06.1c-.23,0-.31.06-.23.28,1.35,3.67,4.26,4.77,6.44,5.39.29,0,.58,0,.88.12,0,0,0,0-.06.05-.72,1.1-3.22,1.92-4.39,2.33a15.78,15.78,0,0,1-6.68.85c-.36-.05-.43-.05-.53,0s0,.15.1.24c.46.3.92.57,1.4.83a22.08,22.08,0,0,0,4.46,1.78c8,2.22,17.05.59,23.07-5.39C45.92,37,47.58,30.52,47.58,24c0-.25.3-.39.48-.52a15.87,15.87,0,0,0,3.12-3.27.93.93,0,0,0,.19-.63v0C51.37,19.48,51.39,19.51,51.23,19.58Z"/><path class="cls-3" d="M23.78,47.9Z"/><path class="cls-3" d="M23.78,47.9Z"/><path class="cls-3" d="M25.1,47.93c0-.06.69,0,0,0C25.1,47.9,25.18,47.93,25.1,47.93Z"/><path class="cls-3" d="M39,15.75a.12.12,0,0,1-.16,0Z"/></g></g></g></svg>