<svg xmlns="http://www.w3.org/2000/svg" viewBox="0 0 185.54 386.14"><defs><style>.cls-1{fill:#dbcbab;}.cls-2{fill:#8ba592;}.cls-3{fill:#a8c1af;}.cls-4{fill:#ced8d0;}</style></defs><g id="Layer_2" data-name="Layer 2"><g id="regular"><g id="new_no_outline_rock" data-name="new no outline rock"><path class="cls-1" d="M164.53,386.14c-13-.75-17.25-7.16-31.05-13.13-30.7-13.28-41.35-1.59-72-3.9C36.43,367.22,0,356.25,0,350.39c0-3.93,12.67-6.87,19.85-8.53,20.22-4.7,35.87-2,36-4.59.07-1.9-8.19-3.49-8.1-6.17.19-5.82,39.1-3.48,42.53-3.63a116,116,0,0,1,14.21.17c6.93.55,9.2,1.2,14.85,1.69a66.18,66.18,0,0,0,6.86.28c6.3-.09,11-.47,12.29-.61,4.7-.47,12.44-.56,25.73,1.19C164.19,344.61,164.53,371.72,164.53,386.14Z"/><path class="cls-2" d="M84.35,272.93H73.48a1.57,1.57,0,0,1-1.57-1.67c.45-6.7,2.09-31.78,2.09-41s-1.64-34.29-2.09-41a1.57,1.57,0,0,1,1.57-1.67H84.35a1.56,1.56,0,0,1,1.56,1.66c-.41,6.7-1.93,31.79-1.93,41s1.52,34.31,1.93,41A1.56,1.56,0,0,1,84.35,272.93Z"/><path class="cls-2" d="M84.35,360.38H73.48a1.57,1.57,0,0,1-1.57-1.67c.45-6.71,2.09-31.79,2.09-41s-1.64-34.29-2.09-41A1.57,1.57,0,0,1,73.48,275H84.35a1.56,1.56,0,0,1,1.56,1.66c-.41,6.7-1.93,31.79-1.93,41s1.52,34.31,1.93,41A1.56,1.56,0,0,1,84.35,360.38Z"/><path class="cls-2" d="M84.35,98.05H73.48a1.57,1.57,0,0,1-1.57-1.67c.45-6.71,2.09-31.78,2.09-41s-1.64-34.29-2.09-41a1.57,1.57,0,0,1,1.57-1.67H84.35a1.56,1.56,0,0,1,1.56,1.66C85.5,21.07,84,46.17,84,55.38s1.52,34.31,1.93,41A1.56,1.56,0,0,1,84.35,98.05Z"/><path class="cls-2" d="M84.35,185.49H73.48a1.57,1.57,0,0,1-1.57-1.67c.45-6.71,2.09-31.78,2.09-41s-1.64-34.28-2.09-41a1.57,1.57,0,0,1,1.57-1.67H84.35a1.56,1.56,0,0,1,1.56,1.66c-.41,6.7-1.93,31.79-1.93,41s1.52,34.31,1.93,41A1.56,1.56,0,0,1,84.35,185.49Z"/><path class="cls-2" d="M143,271.88H132.08a1.56,1.56,0,0,1-1.56-1.67c.45-6.71,2.09-31.78,2.09-41s-1.64-34.29-2.09-41a1.56,1.56,0,0,1,1.56-1.66H143a1.56,1.56,0,0,1,1.57,1.66c-.42,6.69-1.93,31.79-1.93,41s1.51,34.31,1.93,41A1.57,1.57,0,0,1,143,271.88Z"/><path class="cls-2" d="M143,359.32H132.08a1.56,1.56,0,0,1-1.56-1.67c.45-6.71,2.09-31.78,2.09-41s-1.64-34.29-2.09-41a1.56,1.56,0,0,1,1.56-1.67H143a1.57,1.57,0,0,1,1.57,1.66c-.42,6.69-1.93,31.79-1.93,41s1.51,34.31,1.93,41A1.57,1.57,0,0,1,143,359.32Z"/><path class="cls-2" d="M143,97H132.08a1.56,1.56,0,0,1-1.56-1.66c.45-6.71,2.09-31.79,2.09-41S131,20,130.52,13.33a1.56,1.56,0,0,1,1.56-1.67H143a1.57,1.57,0,0,1,1.57,1.66c-.42,6.7-1.93,31.79-1.93,41s1.51,34.31,1.93,41A1.56,1.56,0,0,1,143,97Z"/><path class="cls-2" d="M143,184.44H132.08a1.56,1.56,0,0,1-1.56-1.67c.45-6.71,2.09-31.78,2.09-41s-1.64-34.29-2.09-41a1.56,1.56,0,0,1,1.56-1.67H143a1.57,1.57,0,0,1,1.57,1.66c-.42,6.7-1.93,31.79-1.93,41s1.51,34.31,1.93,41A1.57,1.57,0,0,1,143,184.44Z"/><path class="cls-3" d="M163.14,260.22H152.26a1.57,1.57,0,0,1-1.56-1.67c.45-6.71,2.09-31.78,2.09-41s-1.64-34.29-2.09-41a1.57,1.57,0,0,1,1.56-1.67h10.88a1.56,1.56,0,0,1,1.56,1.67c-.41,6.69-1.93,31.78-1.93,41s1.52,34.31,1.93,41A1.56,1.56,0,0,1,163.14,260.22Z"/><path class="cls-3" d="M163.14,347.66H152.26A1.57,1.57,0,0,1,150.7,346c.45-6.71,2.09-31.78,2.09-41s-1.64-34.29-2.09-41a1.56,1.56,0,0,1,1.56-1.67h10.88A1.56,1.56,0,0,1,164.7,264c-.41,6.69-1.93,31.79-1.93,41s1.52,34.31,1.93,41A1.56,1.56,0,0,1,163.14,347.66Z"/><path class="cls-3" d="M163.14,85.33H152.26a1.56,1.56,0,0,1-1.56-1.67c.45-6.7,2.09-31.78,2.09-41s-1.64-34.29-2.09-41A1.56,1.56,0,0,1,152.26,0h10.88a1.56,1.56,0,0,1,1.56,1.66c-.41,6.7-1.93,31.79-1.93,41s1.52,34.31,1.93,41A1.56,1.56,0,0,1,163.14,85.33Z"/><path class="cls-3" d="M163.14,172.77H152.26a1.56,1.56,0,0,1-1.56-1.66c.45-6.71,2.09-31.79,2.09-41s-1.64-34.29-2.09-41a1.57,1.57,0,0,1,1.56-1.67h10.88a1.56,1.56,0,0,1,1.56,1.66c-.41,6.7-1.93,31.79-1.93,41s1.52,34.31,1.93,41A1.56,1.56,0,0,1,163.14,172.77Z"/><path class="cls-4" d="M185.54,190.42h0c-5.8-16.07-19.66-15.53-19.86-15.52h0c5.8,16.07,19.66,15.53,19.86,15.53Z"/><path class="cls-4" d="M183,167.5h0c-12-2.88-17.22,5.72-17.3,5.84h0c12,2.89,17.23-5.71,17.3-5.83h0Z"/><path class="cls-3" d="M102.26,267.1H91.39a1.57,1.57,0,0,1-1.57-1.67c.45-6.7,2.09-31.78,2.09-41s-1.64-34.29-2.09-41a1.57,1.57,0,0,1,1.57-1.67h10.87a1.58,1.58,0,0,1,1.57,1.66c-.42,6.7-1.94,31.79-1.94,41s1.52,34.31,1.94,41A1.58,1.58,0,0,1,102.26,267.1Z"/><path class="cls-3" d="M102.26,354.54H91.39a1.56,1.56,0,0,1-1.57-1.66c.45-6.71,2.09-31.79,2.09-41s-1.64-34.29-2.09-41a1.57,1.57,0,0,1,1.57-1.67h10.87a1.58,1.58,0,0,1,1.57,1.66c-.42,6.7-1.94,31.79-1.94,41s1.52,34.31,1.94,41A1.57,1.57,0,0,1,102.26,354.54Z"/><path class="cls-3" d="M102.26,92.22H91.39a1.57,1.57,0,0,1-1.57-1.67c.45-6.71,2.09-31.78,2.09-41s-1.64-34.29-2.09-41a1.56,1.56,0,0,1,1.57-1.66h10.87a1.57,1.57,0,0,1,1.57,1.66c-.42,6.69-1.94,31.78-1.94,41s1.52,34.31,1.94,41A1.58,1.58,0,0,1,102.26,92.22Z"/><path class="cls-3" d="M102.26,179.66H91.39A1.57,1.57,0,0,1,89.82,178c.45-6.71,2.09-31.78,2.09-41s-1.64-34.29-2.09-41a1.57,1.57,0,0,1,1.57-1.67h10.87A1.58,1.58,0,0,1,103.83,96c-.42,6.69-1.94,31.79-1.94,41s1.52,34.31,1.94,41A1.58,1.58,0,0,1,102.26,179.66Z"/><path class="cls-4" d="M69,251.7h0c5.8,16.08,19.67,15.54,19.86,15.53h0C83,251.15,69.18,251.69,69,251.7Z"/><path class="cls-4" d="M71.54,274.62h0c12,2.89,17.23-5.71,17.3-5.83h0c-12-2.88-17.23,5.72-17.3,5.84Z"/><path class="cls-3" d="M122.28,260.31H111.41a1.57,1.57,0,0,1-1.57-1.67c.45-6.7,2.09-31.78,2.09-41s-1.64-34.29-2.09-41a1.57,1.57,0,0,1,1.57-1.67h10.87a1.56,1.56,0,0,1,1.56,1.66c-.41,6.7-1.93,31.79-1.93,41s1.52,34.31,1.93,41A1.56,1.56,0,0,1,122.28,260.31Z"/><path class="cls-3" d="M122.28,347.75H111.41a1.56,1.56,0,0,1-1.57-1.66c.45-6.71,2.09-31.79,2.09-41s-1.64-34.29-2.09-41a1.57,1.57,0,0,1,1.57-1.67h10.87a1.56,1.56,0,0,1,1.56,1.66c-.41,6.7-1.93,31.79-1.93,41s1.52,34.31,1.93,41A1.56,1.56,0,0,1,122.28,347.75Z"/><path class="cls-3" d="M122.28,85.43H111.41a1.57,1.57,0,0,1-1.57-1.67c.45-6.71,2.09-31.78,2.09-41s-1.64-34.29-2.09-41A1.57,1.57,0,0,1,111.41.09h10.87a1.56,1.56,0,0,1,1.56,1.67c-.41,6.69-1.93,31.78-1.93,41s1.52,34.31,1.93,41A1.56,1.56,0,0,1,122.28,85.43Z"/><path class="cls-3" d="M122.28,172.87H111.41a1.57,1.57,0,0,1-1.57-1.67c.45-6.71,2.09-31.78,2.09-41s-1.64-34.29-2.09-41a1.57,1.57,0,0,1,1.57-1.67h10.87a1.56,1.56,0,0,1,1.56,1.66c-.41,6.69-1.93,31.79-1.93,41s1.52,34.31,1.93,41A1.56,1.56,0,0,1,122.28,172.87Z"/><path class="cls-4" d="M144.68,190.51h0C138.88,174.44,125,175,124.83,175h0c5.81,16.08,19.67,15.54,19.86,15.53h0Z"/><path class="cls-4" d="M142.13,167.59h0c-12-2.89-17.23,5.71-17.31,5.83h0c12,2.88,17.23-5.72,17.31-5.84Z"/><path class="cls-3" d="M63.48,269H52.61A1.57,1.57,0,0,1,51,267.37c.46-6.71,2.1-31.78,2.1-41s-1.64-34.29-2.1-41a1.57,1.57,0,0,1,1.57-1.67H63.48a1.57,1.57,0,0,1,1.57,1.66c-.42,6.69-1.94,31.79-1.94,41s1.52,34.31,1.94,41A1.57,1.57,0,0,1,63.48,269Z"/><path class="cls-3" d="M63.48,356.48H52.61A1.57,1.57,0,0,1,51,354.81c.46-6.71,2.1-31.78,2.1-41s-1.64-34.29-2.1-41a1.57,1.57,0,0,1,1.57-1.67H63.48a1.57,1.57,0,0,1,1.57,1.66c-.42,6.7-1.94,31.79-1.94,41s1.52,34.3,1.94,41A1.57,1.57,0,0,1,63.48,356.48Z"/><path class="cls-3" d="M63.48,94.16H52.61A1.57,1.57,0,0,1,51,92.49c.46-6.71,2.1-31.79,2.1-41S51.5,17.2,51,10.49a1.57,1.57,0,0,1,1.57-1.67H63.48a1.57,1.57,0,0,1,1.57,1.66c-.42,6.7-1.94,31.79-1.94,41s1.52,34.31,1.94,41A1.57,1.57,0,0,1,63.48,94.16Z"/><path class="cls-3" d="M63.48,181.6H52.61A1.57,1.57,0,0,1,51,179.93c.46-6.71,2.1-31.78,2.1-41s-1.64-34.29-2.1-41a1.57,1.57,0,0,1,1.57-1.67H63.48a1.57,1.57,0,0,1,1.57,1.67c-.42,6.69-1.94,31.78-1.94,41s1.52,34.31,1.94,41A1.57,1.57,0,0,1,63.48,181.6Z"/><path class="cls-4" d="M29.24,78.93h0C35,95,48.9,94.46,49.1,94.45h0C43.3,78.38,29.44,78.92,29.24,78.93h0Z"/><path class="cls-4" d="M31.8,101.85h0c12,2.88,17.22-5.72,17.3-5.84h0c-12-2.89-17.23,5.71-17.3,5.83h0Z"/></g></g></g></svg>