<svg id="regular" xmlns="http://www.w3.org/2000/svg" xmlns:xlink="http://www.w3.org/1999/xlink" viewBox="0 0 1366 5662.18"><defs><style>.cls-1,.cls-2{fill:none;}.cls-2{stroke:#63594c;stroke-width:1.44px;}.cls-3{clip-path:url(#clip-path);}.cls-4{fill:#c0e0ec;}.cls-5{fill:#b9c6bb;}.cls-6{fill:#acbcaf;}.cls-7{fill:url(#New_Pattern_13);}.cls-8{fill:#a7b7ab;}.cls-9{fill:url(#New_Pattern_13-3);}.cls-10{fill:#a4b2a5;}.cls-11{fill:#93a393;}.cls-12{fill:url(#New_Pattern_13-5);}.cls-13{fill:#798e7a;}.cls-14{fill:#839383;}.cls-15{fill:#8f9e8f;}</style><clipPath id="clip-path"><rect class="cls-1" x="0.32" width="1365.86" height="5662.18"/></clipPath><pattern id="New_Pattern_13" data-name="New Pattern 13" width="72" height="72" patternTransform="translate(-492.75 -210.23) rotate(-45)" patternUnits="userSpaceOnUse" viewBox="0 0 72 72"><rect class="cls-1" width="72" height="72"/><line class="cls-2" x1="71.75" y1="68.4" x2="144.25" y2="68.4"/><line class="cls-2" x1="71.75" y1="54" x2="144.25" y2="54"/><line class="cls-2" x1="71.75" y1="39.6" x2="144.25" y2="39.6"/><line class="cls-2" x1="71.75" y1="25.2" x2="144.25" y2="25.2"/><line class="cls-2" x1="71.75" y1="10.8" x2="144.25" y2="10.8"/><line class="cls-2" x1="71.75" y1="61.2" x2="144.25" y2="61.2"/><line class="cls-2" x1="71.75" y1="46.8" x2="144.25" y2="46.8"/><line class="cls-2" x1="71.75" y1="32.4" x2="144.25" y2="32.4"/><line class="cls-2" x1="71.75" y1="18" x2="144.25" y2="18"/><line class="cls-2" x1="71.75" y1="3.6" x2="144.25" y2="3.6"/><line class="cls-2" x1="-0.25" y1="68.4" x2="72.25" y2="68.4"/><line class="cls-2" x1="-0.25" y1="54" x2="72.25" y2="54"/><line class="cls-2" x1="-0.25" y1="39.6" x2="72.25" y2="39.6"/><line class="cls-2" x1="-0.25" y1="25.2" x2="72.25" y2="25.2"/><line class="cls-2" x1="-0.25" y1="10.8" x2="72.25" y2="10.8"/><line class="cls-2" x1="-0.25" y1="61.2" x2="72.25" y2="61.2"/><line class="cls-2" x1="-0.25" y1="46.8" x2="72.25" y2="46.8"/><line class="cls-2" x1="-0.25" y1="32.4" x2="72.25" y2="32.4"/><line class="cls-2" x1="-0.25" y1="18" x2="72.25" y2="18"/><line class="cls-2" x1="-0.25" y1="3.6" x2="72.25" y2="3.6"/><line class="cls-2" x1="-72.25" y1="68.4" x2="0.25" y2="68.4"/><line class="cls-2" x1="-72.25" y1="54" x2="0.25" y2="54"/><line class="cls-2" x1="-72.25" y1="39.6" x2="0.25" y2="39.6"/><line class="cls-2" x1="-72.25" y1="25.2" x2="0.25" y2="25.2"/><line class="cls-2" x1="-72.25" y1="10.8" x2="0.25" y2="10.8"/><line class="cls-2" x1="-72.25" y1="61.2" x2="0.25" y2="61.2"/><line class="cls-2" x1="-72.25" y1="46.8" x2="0.25" y2="46.8"/><line class="cls-2" x1="-72.25" y1="32.4" x2="0.25" y2="32.4"/><line class="cls-2" x1="-72.25" y1="18" x2="0.25" y2="18"/><line class="cls-2" x1="-72.25" y1="3.6" x2="0.25" y2="3.6"/></pattern><pattern id="New_Pattern_13-3" data-name="New Pattern 13" width="72" height="72" patternTransform="translate(-485.04 -173.98) rotate(-45)" patternUnits="userSpaceOnUse" viewBox="0 0 72 72"><rect class="cls-1" width="72" height="72"/><line class="cls-2" x1="71.75" y1="68.4" x2="144.25" y2="68.4"/><line class="cls-2" x1="71.75" y1="54" x2="144.25" y2="54"/><line class="cls-2" x1="71.75" y1="39.6" x2="144.25" y2="39.6"/><line class="cls-2" x1="71.75" y1="25.2" x2="144.25" y2="25.2"/><line class="cls-2" x1="71.75" y1="10.8" x2="144.25" y2="10.8"/><line class="cls-2" x1="71.75" y1="61.2" x2="144.25" y2="61.2"/><line class="cls-2" x1="71.75" y1="46.8" x2="144.25" y2="46.8"/><line class="cls-2" x1="71.75" y1="32.4" x2="144.25" y2="32.4"/><line class="cls-2" x1="71.75" y1="18" x2="144.25" y2="18"/><line class="cls-2" x1="71.75" y1="3.6" x2="144.25" y2="3.6"/><line class="cls-2" x1="-0.25" y1="68.4" x2="72.25" y2="68.4"/><line class="cls-2" x1="-0.25" y1="54" x2="72.25" y2="54"/><line class="cls-2" x1="-0.25" y1="39.6" x2="72.25" y2="39.6"/><line class="cls-2" x1="-0.25" y1="25.2" x2="72.25" y2="25.2"/><line class="cls-2" x1="-0.25" y1="10.8" x2="72.25" y2="10.8"/><line class="cls-2" x1="-0.25" y1="61.2" x2="72.25" y2="61.2"/><line class="cls-2" x1="-0.25" y1="46.8" x2="72.25" y2="46.8"/><line class="cls-2" x1="-0.25" y1="32.4" x2="72.25" y2="32.4"/><line class="cls-2" x1="-0.25" y1="18" x2="72.25" y2="18"/><line class="cls-2" x1="-0.25" y1="3.6" x2="72.25" y2="3.6"/><line class="cls-2" x1="-72.25" y1="68.4" x2="0.25" y2="68.4"/><line class="cls-2" x1="-72.25" y1="54" x2="0.25" y2="54"/><line class="cls-2" x1="-72.25" y1="39.6" x2="0.25" y2="39.6"/><line class="cls-2" x1="-72.25" y1="25.2" x2="0.25" y2="25.2"/><line class="cls-2" x1="-72.25" y1="10.8" x2="0.25" y2="10.8"/><line class="cls-2" x1="-72.25" y1="61.2" x2="0.25" y2="61.2"/><line class="cls-2" x1="-72.25" y1="46.8" x2="0.25" y2="46.8"/><line class="cls-2" x1="-72.25" y1="32.4" x2="0.25" y2="32.4"/><line class="cls-2" x1="-72.25" y1="18" x2="0.25" y2="18"/><line class="cls-2" x1="-72.25" y1="3.6" x2="0.25" y2="3.6"/></pattern><pattern id="New_Pattern_13-5" data-name="New Pattern 13" width="72" height="72" patternTransform="translate(-483.5 -206.93) rotate(-45)" patternUnits="userSpaceOnUse" viewBox="0 0 72 72"><rect class="cls-1" width="72" height="72"/><line class="cls-2" x1="71.75" y1="68.4" x2="144.25" y2="68.4"/><line class="cls-2" x1="71.75" y1="54" x2="144.25" y2="54"/><line class="cls-2" x1="71.75" y1="39.6" x2="144.25" y2="39.6"/><line class="cls-2" x1="71.75" y1="25.2" x2="144.25" y2="25.2"/><line class="cls-2" x1="71.75" y1="10.8" x2="144.25" y2="10.8"/><line class="cls-2" x1="71.75" y1="61.2" x2="144.25" y2="61.2"/><line class="cls-2" x1="71.75" y1="46.8" x2="144.25" y2="46.8"/><line class="cls-2" x1="71.75" y1="32.4" x2="144.25" y2="32.4"/><line class="cls-2" x1="71.75" y1="18" x2="144.25" y2="18"/><line class="cls-2" x1="71.75" y1="3.6" x2="144.25" y2="3.6"/><line class="cls-2" x1="-0.25" y1="68.4" x2="72.25" y2="68.4"/><line class="cls-2" x1="-0.25" y1="54" x2="72.25" y2="54"/><line class="cls-2" x1="-0.25" y1="39.6" x2="72.25" y2="39.6"/><line class="cls-2" x1="-0.25" y1="25.2" x2="72.25" y2="25.2"/><line class="cls-2" x1="-0.25" y1="10.8" x2="72.25" y2="10.8"/><line class="cls-2" x1="-0.25" y1="61.2" x2="72.25" y2="61.2"/><line class="cls-2" x1="-0.25" y1="46.8" x2="72.25" y2="46.8"/><line class="cls-2" x1="-0.25" y1="32.4" x2="72.25" y2="32.4"/><line class="cls-2" x1="-0.25" y1="18" x2="72.25" y2="18"/><line class="cls-2" x1="-0.25" y1="3.6" x2="72.25" y2="3.6"/><line class="cls-2" x1="-72.25" y1="68.4" x2="0.25" y2="68.4"/><line class="cls-2" x1="-72.25" y1="54" x2="0.25" y2="54"/><line class="cls-2" x1="-72.25" y1="39.6" x2="0.25" y2="39.6"/><line class="cls-2" x1="-72.25" y1="25.2" x2="0.25" y2="25.2"/><line class="cls-2" x1="-72.25" y1="10.8" x2="0.25" y2="10.8"/><line class="cls-2" x1="-72.25" y1="61.2" x2="0.25" y2="61.2"/><line class="cls-2" x1="-72.25" y1="46.8" x2="0.25" y2="46.8"/><line class="cls-2" x1="-72.25" y1="32.4" x2="0.25" y2="32.4"/><line class="cls-2" x1="-72.25" y1="18" x2="0.25" y2="18"/><line class="cls-2" x1="-72.25" y1="3.6" x2="0.25" y2="3.6"/></pattern></defs><g id="main"><g class="cls-3"><path class="cls-4" d="M2001.34,1168.48c-16.19-147.67-535.29-233.88-535.29-233.88s-151.12-27.34-327.12-38.23c-64.81-4-113.42-6-126-6.46-382.38-15.15-520.16-18.39-520.14-21.85,0-3.83,169.78-7.87,339.89-7.94,0,0,512.33-.2,513.51-8.55,0,0,0-.1,0-.24s0-.36,0-.57c-1.34-16.65-59.71-24.73-95.64-29.37-153.46-19.84-230.18-29.75-349.57-40.72-109.15-10-197.45-21.44-246.29-27.81-62.76-8.18-114.15-15.72-148-20.85L524,749c94.8,15,177,25.4,242.9,32.65,40.58,4.47,106.08,11.62,192.66,17.88,37,2.67,123.23,9.74,211.53,20.85,73.69,9.28,145.36,18.61,145,24.09-.64,9.75-241.54-6.2-586.92,3.72-56.23,1.62-266.55,8.71-266.65,20.11s207.88,22.25,271.62,25.57c99.07,5.17,429.5,20.35,660.55,51.33a277.62,277.62,0,0,1,31,6.14c51,10.53,551.95,116.53,556.31,242.45,2.63,76.11-176.54,146.25-266.65,171.31-206.77,57.52-586.45,63.62-680.12,85.3-10.16,2.35-37.87,8.76-37.85,17.24,0,7.26,20.36,12.78,31.4,15.55,92.68,23.32,216.48,26.49,218.33,26.53h0c20.13,0,47.72.38,80.5,2.37,0,0,28.09,1.7,54.54,4.46s184.48,19.27,186.2,46.68c1.48,23.45-111.84,48.34-166.59,60.33-112.56,24.64-215.8,29.57-282.29,32.48-25,1.1-18.82-.07-77.87,2.39-69.71,2.9-139.38,7.34-209.14,9-148.12,3.59-331.64,8.19-537.82,42.54-139.42,23.23-383,62.34-387.75,135.27C-94.73,1869.85-69,1895.41,0,1932.67c198.34,107,397.05,117.71,483.13,121.37,348.64,14.83,543.65-13.45,729.68,83.21,31.4,16.32,77.25,43.84,104.77,96.12,52.65,100,6.89,229.33-36.26,293.47-92.81,138-252.92,148.11-546.69,208.55-100.72,20.72-538.64,95.42-844.14,288.16C-598.68,3332.19-901.06,4031.87-706.86,4418.7c59,117.57,211.25,265,226.43,280.05,31.73,31.49,168.1,164.2,342.62,260.9,276.15,153,541.51,156.93,858,157.9,391.48,1.21,727.53,2.53,890.82-220.47,61-83.26,84.33-189.35,92.35-223.44,8.15-34.64,63-267.93-27.8-431.1-37.63-67.59-121.46-161.25-534.29-244.31-614.07-123.54-884.59-8.07-1030.84-200.6-91.3-120.19-82.07-291.8-77-344,2.65-27.09,17-181.77,134.57-313,120.22-134.2,272.78-182.24,439-218.48,710.9-155.05,927.8-127.28,1032.83-295.94,58.86-94.53,67.92-227.23,23.83-325.74-41.7-93.17-128.09-148.33-234.37-192.17-449.91-185.58-998.58-61.86-1307.92-183.51-30.13-11.85-122.52-48.19-119.17-85.41.65-7.24,5.68-22.88,90.37-54.62,80.89-30.32,158.8-47,259.2-62.28,26-4,55.28-8.44,98.91-13.51,100-11.61,211.22-18,402.11-23.07,199.89-5.28,169.16-3.87,215.51-5.87,181.84-7.85,272.74-12.2,367-38.32,75.4-20.9,175.23-63.36,170.81-90.33-2-12-24-17.66-37.24-20.86-131.87-31.88-273.94-32.92-322.26-34.26-105.23-2.91-210.2-19.48-210-29.29.14-8.88,81.87-13.32,293.92-29,296.5-22,339.92-23.63,407.21-49C1834.93,1352.35,2011.12,1257.82,2001.34,1168.48Z"/><path class="cls-5" d="M-51.56,452.85l92-27.38a4.26,4.26,0,0,0,2.11-1.4l20.84-25.42a4.06,4.06,0,0,1,1.05-.93L121,362.52a4.34,4.34,0,0,0,1.16-1.06l34.24-45.25a4.32,4.32,0,0,1,4.83-1.48l18.61,6.38a4.26,4.26,0,0,0,2.84,0l19.44-6.92a4.29,4.29,0,0,0,2-1.53l15-20.71a4.32,4.32,0,0,1,5.41-1.34l4.13,2.05a5.82,5.82,0,0,0,4.18-.2c1.54-.78,1.94-2.15,2.65-3.12,1.91-2.58,6.26-2.38,13.4-1.9,6.66.45,11.94.87,15.31,1.16,13.11,6.19,21.77,21.19,36.3,32.85a4.3,4.3,0,0,1,1.61,3.36q2.16,9.78,4.3,19.57l7.94,2.65,13.57,2.78a4.31,4.31,0,0,1,3,1l78.47,66.41L476,474.09a4.43,4.43,0,0,0,1.31.77l127,46.68a4.27,4.27,0,0,0,1.7.26l102.41-5.22A4.29,4.29,0,0,1,712.8,520q10.88,50,21.73,99.95a4.3,4.3,0,0,1-4.28,5.22q-239.05-4.18-478.14-4.79-218.78-.54-437.53,1.89c-4.15,0-3.34-7.08-3.34-7.08C-206.09,564-102.53,487.53-51.56,452.85Z"/><path class="cls-6" d="M166.83,350.81c18.51,4,11.37,33.28,36.49,61.08,30.64,33.89,74.13,27.66,76.34,47.4,1.52,13.5-17.79,25.78-25.69,30.81-29.6,18.83-62.06,12.32-71.16,10.17h0l-.5,0c-.25,0-103.45-22.66-101.88-69,.44-13.21,11.22-24,32.77-45.44C135.9,363.19,151.61,347.53,166.83,350.81Z"/><path class="cls-6" d="M640.78,568.55c-36.19,31.53-44.94,34.93-50.15,36.25-15.73,4-43.31,6.05-48.67-5.34-4-8.43,5.89-20.77,13.19-29.71,10.91-13.37,32.83-35,74.17-49.14,4,.11,38.06,1.37,41.26,14.18C671.61,538.93,669.27,543.74,640.78,568.55Z"/><path class="cls-7" d="M-51.34,452.37l92-27.38a4.26,4.26,0,0,0,2.1-1.4l20.84-25.43a4.45,4.45,0,0,1,1.06-.92L121.22,362l.63-.47a36.16,36.16,0,0,0,8.35-9.26A367.8,367.8,0,0,0,185,414.12c60.67,54.64,123.14,73.42,334.68,133.08,56.68,16,101,28.4,120.16,33.77l-826.48,42.14a45.83,45.83,0,0,1-3.26-9.33c-2.14-9.3-4.7-34.19,44.4-86.43A427.42,427.42,0,0,1-51.34,452.37Z"/><path class="cls-5" d="M623.36,529.76,729.27,431a9.27,9.27,0,0,1,6.32-2.49c8.3-.85,17.45-1.4,27.35-1.43a278.34,278.34,0,0,1,28.67,1.43,9.29,9.29,0,0,1,3.58.72,9.16,9.16,0,0,1,3,2.06L840,473.81a9.28,9.28,0,0,0,11.51,1.38L920.85,432a9.25,9.25,0,0,1,10.89.81l110,93.53a9.29,9.29,0,0,0,9,1.72l141.66-47.53a9.28,9.28,0,0,1,8.12,1.1l201.72,136.07a9.26,9.26,0,0,0,10.15.13l58-36.93a9.33,9.33,0,0,1,5.21-1.45l75.91,1.9a9.65,9.65,0,0,0,1.42-.07l104.39-13.54a9.39,9.39,0,0,1,4.21.43l354.56,122.3c9.88,3.41,7.43,18-3,18H442.85a9.26,9.26,0,0,1-6.08-16.24Z"/><path class="cls-6" d="M666.6,526.59c9.87.65,9.63,12.46,23.84,19.37,22.29,10.85,37.25-11.23,61.82-2.24,17.54,6.42,18.39,20.37,40.22,26.07,13.16,3.44,21.76.13,22.1,1.74.81,3.84-48,23.72-105.77,24.33-30.93.33-67.15.71-75-17.87C625.89,559.13,649.59,525.48,666.6,526.59Z"/><path class="cls-8" d="M973.47,560.11c-19.81-11-38.53,15.24-85.65,22.35-33.79,5.09-33.59-7-73.74-1.49-35.55,4.85-42.25,15.2-68.52,12.66-31.56-3-45.41-20.26-52.89-14.15-10.11,8.25,0,52,26.07,76,70.9,65,268.29-9.19,271-65.55C990.3,578.89,983.54,565.69,973.47,560.11Z"/><path class="cls-9" d="M617.94,534c17.41,22.76,62.4,75.27,141,104.77,83.63,31.38,156.34,18.34,184,11.92-139.39,38.24-457.76,119-497.11,54.55A49.66,49.66,0,0,1,439.75,689Z"/><path class="cls-4" d="M762.11,427a710.44,710.44,0,0,1,11.25,133.61,708,708,0,0,1-7.45,95.29l19.87,3c-1.09-40.11-1.67-72.11-2-93.35-.55-36.51-.7-53.65-4-78.62a445.27,445.27,0,0,0-12.08-59.88l-2.32,0Z"/><path class="cls-10" d="M104.73,693.88,142.5,539.7,300,453.3l63.86-54.62,38.54-58.33a9.15,9.15,0,0,1,7.67-4h10.09a9.09,9.09,0,0,1,8,4.48l28.09,50a9.31,9.31,0,0,0,11.18,3.94l18.16-6.41a9.7,9.7,0,0,1,6.36,0l4.81,1.67a8.89,8.89,0,0,1,4.6,3.59l21,33.16a7.77,7.77,0,0,1,1,2.51l31.79,140.48c1.5,6.64,10.48,8.92,15.43,3.92l16.85-17a9.1,9.1,0,0,1,3.6-2.22l12.05-4a9.55,9.55,0,0,1,9,1.66L663.47,595a8.39,8.39,0,0,1,1.6,1.77l25,37.09a8.91,8.91,0,0,0,4.94,3.54l16.56,4.8a9.06,9.06,0,0,1,3.82,2.19l44.49,43.11c5.44,5.26,1.48,14-6.38,14.1l-556.21,6.88Z"/><path class="cls-11" d="M317.32,513.89c12-5.91,32.86,10.25,37.95,14.19,16.54,12.84,17.74,24.18,29,35.75,16.31,16.7,34.15,13.9,67.78,20.86,58.59,12.12,112.52,43,109.93,54.56-.53,2.35-5,3.77-13.84,6.52-40.45,12.51-60.72,18.79-63.31,19.36-33.4,7.35-50.1,11-55.12,11.17-3.11.1-64.87.58-100.55-46.18C296.83,587.72,298.61,523.06,317.32,513.89Z"/><path class="cls-12" d="M104.73,693.88,142.5,539.7,300,453.3c9,22.06,49.34,114.38,154.68,165.25,111.2,53.7,214.24,22.29,235.39,15.34a8.82,8.82,0,0,0,2.13,2.18,9.27,9.27,0,0,0,2.81,1.36l16.56,4.8a9.06,9.06,0,0,1,3.82,2.19l44.49,43.11c5.44,5.26,1.48,14-6.38,14.1l-556.21,6.88Z"/><path class="cls-13" d="M518.65,585.68l-5.77,32a.76.76,0,0,0,.75.9h11.55a.77.77,0,0,0,.75-.9l-5.78-32A.76.76,0,0,0,518.65,585.68Z"/><path class="cls-14" d="M412.49,552l-5.85,32.43a.7.7,0,0,0,.69.83H419a.7.7,0,0,0,.69-.83L413.87,552A.7.7,0,0,0,412.49,552Z"/><path class="cls-13" d="M965.85,454.55l-2.79,15.5a.46.46,0,0,0,.45.54h5.59a.46.46,0,0,0,.45-.54l-2.8-15.5A.46.46,0,0,0,965.85,454.55Z"/><path class="cls-13" d="M191.75,313.11l-1.81,10a.24.24,0,0,0,.24.28h3.62a.24.24,0,0,0,.24-.28l-1.82-10A.24.24,0,0,0,191.75,313.11Z"/><path class="cls-15" d="M320.55,340.21l-2.94,16.3a.19.19,0,0,0,.18.22h5.89a.19.19,0,0,0,.18-.22l-2.94-16.3A.19.19,0,0,0,320.55,340.21Z"/><path class="cls-15" d="M716.57,536.53l-2.94,16.3a.18.18,0,0,0,.18.22h5.88a.19.19,0,0,0,.19-.22l-3-16.3A.18.18,0,0,0,716.57,536.53Z"/></g></g></svg>