<svg id="regular" xmlns="http://www.w3.org/2000/svg" xmlns:xlink="http://www.w3.org/1999/xlink" viewBox="0 0 1366 5662.18"><defs><style>.cls-1,.cls-2{fill:none;}.cls-2{stroke:#63594c;stroke-width:1.44px;}.cls-3{clip-path:url(#clip-path);}.cls-4{fill:#c0e0ec;}.cls-5{fill:#a8c1af;}.cls-6{fill:#8ba592;}.cls-7{fill:url(#New_Pattern_13);}.cls-8{fill:url(#New_Pattern_13-3);}.cls-9{fill:#8f9e8f;}.cls-10{fill:#798e7a;}.cls-11{fill:#839383;}</style><clipPath id="clip-path"><rect class="cls-1" x="0.32" width="1365.86" height="5662.18"/></clipPath><pattern id="New_Pattern_13" data-name="New Pattern 13" width="72" height="72" patternTransform="translate(-492.92 -230.82) rotate(-45)" patternUnits="userSpaceOnUse" viewBox="0 0 72 72"><rect class="cls-1" width="72" height="72"/><line class="cls-2" x1="71.75" y1="68.4" x2="144.25" y2="68.4"/><line class="cls-2" x1="71.75" y1="54" x2="144.25" y2="54"/><line class="cls-2" x1="71.75" y1="39.6" x2="144.25" y2="39.6"/><line class="cls-2" x1="71.75" y1="25.2" x2="144.25" y2="25.2"/><line class="cls-2" x1="71.75" y1="10.8" x2="144.25" y2="10.8"/><line class="cls-2" x1="71.75" y1="61.2" x2="144.25" y2="61.2"/><line class="cls-2" x1="71.75" y1="46.8" x2="144.25" y2="46.8"/><line class="cls-2" x1="71.75" y1="32.4" x2="144.25" y2="32.4"/><line class="cls-2" x1="71.75" y1="18" x2="144.25" y2="18"/><line class="cls-2" x1="71.75" y1="3.6" x2="144.25" y2="3.6"/><line class="cls-2" x1="-0.25" y1="68.4" x2="72.25" y2="68.4"/><line class="cls-2" x1="-0.25" y1="54" x2="72.25" y2="54"/><line class="cls-2" x1="-0.25" y1="39.6" x2="72.25" y2="39.6"/><line class="cls-2" x1="-0.25" y1="25.2" x2="72.25" y2="25.2"/><line class="cls-2" x1="-0.25" y1="10.8" x2="72.25" y2="10.8"/><line class="cls-2" x1="-0.25" y1="61.2" x2="72.25" y2="61.2"/><line class="cls-2" x1="-0.25" y1="46.8" x2="72.25" y2="46.8"/><line class="cls-2" x1="-0.25" y1="32.4" x2="72.25" y2="32.4"/><line class="cls-2" x1="-0.25" y1="18" x2="72.25" y2="18"/><line class="cls-2" x1="-0.25" y1="3.6" x2="72.25" y2="3.6"/><line class="cls-2" x1="-72.25" y1="68.4" x2="0.25" y2="68.4"/><line class="cls-2" x1="-72.25" y1="54" x2="0.25" y2="54"/><line class="cls-2" x1="-72.25" y1="39.6" x2="0.25" y2="39.6"/><line class="cls-2" x1="-72.25" y1="25.2" x2="0.25" y2="25.2"/><line class="cls-2" x1="-72.25" y1="10.8" x2="0.25" y2="10.8"/><line class="cls-2" x1="-72.25" y1="61.2" x2="0.25" y2="61.2"/><line class="cls-2" x1="-72.25" y1="46.8" x2="0.25" y2="46.8"/><line class="cls-2" x1="-72.25" y1="32.4" x2="0.25" y2="32.4"/><line class="cls-2" x1="-72.25" y1="18" x2="0.25" y2="18"/><line class="cls-2" x1="-72.25" y1="3.6" x2="0.25" y2="3.6"/></pattern><pattern id="New_Pattern_13-3" data-name="New Pattern 13" width="72" height="72" patternTransform="translate(-472.96 -236.06) rotate(-45)" patternUnits="userSpaceOnUse" viewBox="0 0 72 72"><rect class="cls-1" width="72" height="72"/><line class="cls-2" x1="71.75" y1="68.4" x2="144.25" y2="68.4"/><line class="cls-2" x1="71.75" y1="54" x2="144.25" y2="54"/><line class="cls-2" x1="71.75" y1="39.6" x2="144.25" y2="39.6"/><line class="cls-2" x1="71.75" y1="25.2" x2="144.25" y2="25.2"/><line class="cls-2" x1="71.75" y1="10.8" x2="144.25" y2="10.8"/><line class="cls-2" x1="71.75" y1="61.2" x2="144.25" y2="61.2"/><line class="cls-2" x1="71.75" y1="46.8" x2="144.25" y2="46.8"/><line class="cls-2" x1="71.75" y1="32.4" x2="144.25" y2="32.4"/><line class="cls-2" x1="71.75" y1="18" x2="144.25" y2="18"/><line class="cls-2" x1="71.75" y1="3.6" x2="144.25" y2="3.6"/><line class="cls-2" x1="-0.25" y1="68.4" x2="72.25" y2="68.4"/><line class="cls-2" x1="-0.25" y1="54" x2="72.25" y2="54"/><line class="cls-2" x1="-0.25" y1="39.6" x2="72.25" y2="39.6"/><line class="cls-2" x1="-0.25" y1="25.2" x2="72.25" y2="25.2"/><line class="cls-2" x1="-0.25" y1="10.8" x2="72.25" y2="10.8"/><line class="cls-2" x1="-0.25" y1="61.2" x2="72.25" y2="61.2"/><line class="cls-2" x1="-0.25" y1="46.8" x2="72.25" y2="46.8"/><line class="cls-2" x1="-0.25" y1="32.4" x2="72.25" y2="32.4"/><line class="cls-2" x1="-0.25" y1="18" x2="72.25" y2="18"/><line class="cls-2" x1="-0.25" y1="3.6" x2="72.25" y2="3.6"/><line class="cls-2" x1="-72.25" y1="68.4" x2="0.25" y2="68.4"/><line class="cls-2" x1="-72.25" y1="54" x2="0.25" y2="54"/><line class="cls-2" x1="-72.25" y1="39.6" x2="0.25" y2="39.6"/><line class="cls-2" x1="-72.25" y1="25.2" x2="0.25" y2="25.2"/><line class="cls-2" x1="-72.25" y1="10.8" x2="0.25" y2="10.8"/><line class="cls-2" x1="-72.25" y1="61.2" x2="0.25" y2="61.2"/><line class="cls-2" x1="-72.25" y1="46.8" x2="0.25" y2="46.8"/><line class="cls-2" x1="-72.25" y1="32.4" x2="0.25" y2="32.4"/><line class="cls-2" x1="-72.25" y1="18" x2="0.25" y2="18"/><line class="cls-2" x1="-72.25" y1="3.6" x2="0.25" y2="3.6"/></pattern></defs><g id="main"><g class="cls-3"><path class="cls-4" d="M2001.34,1168.48c-16.19-147.67-535.29-233.88-535.29-233.88s-151.12-27.34-327.12-38.23c-64.81-4-113.42-6-126-6.46-382.38-15.15-520.16-18.39-520.14-21.85,0-3.83,169.78-7.87,339.89-7.94,0,0,512.33-.2,513.51-8.55,0,0,0-.1,0-.24s0-.36,0-.57c-1.34-16.65-59.71-24.73-95.64-29.37-153.46-19.84-230.18-29.75-349.57-40.72-109.15-10-197.45-21.44-246.29-27.81-62.76-8.18-114.15-15.72-148-20.85L524,749c94.8,15,177,25.4,242.9,32.65,40.58,4.47,106.08,11.62,192.66,17.88,37,2.67,123.23,9.74,211.53,20.85,73.69,9.28,145.36,18.61,145,24.09-.64,9.75-241.54-6.2-586.92,3.72-56.23,1.62-266.55,8.71-266.65,20.11s207.88,22.25,271.62,25.57c99.07,5.17,429.5,20.35,660.55,51.33a277.62,277.62,0,0,1,31,6.14c51,10.53,551.95,116.53,556.31,242.45,2.63,76.11-176.54,146.25-266.65,171.31-206.77,57.52-586.45,63.62-680.12,85.3-10.16,2.35-37.87,8.76-37.85,17.24,0,7.26,20.36,12.78,31.4,15.55,92.68,23.32,216.48,26.49,218.33,26.53h0c20.13,0,47.72.38,80.5,2.37,0,0,28.09,1.7,54.54,4.46s184.48,19.27,186.2,46.68c1.48,23.45-111.84,48.34-166.59,60.33-112.56,24.64-215.8,29.57-282.29,32.48-25,1.1-18.82-.07-77.87,2.39-69.71,2.9-139.38,7.34-209.14,9-148.12,3.59-331.64,8.19-537.82,42.54-139.42,23.23-383,62.34-387.75,135.27C-94.73,1869.85-69,1895.41,0,1932.67c198.34,107,397.05,117.71,483.13,121.37,348.64,14.83,543.65-13.45,729.68,83.21,31.4,16.32,77.25,43.84,104.77,96.12,52.65,100,6.89,229.33-36.26,293.47-92.81,138-252.92,148.11-546.69,208.55-100.72,20.72-538.64,95.42-844.14,288.16C-598.68,3332.19-901.06,4031.87-706.86,4418.7c59,117.57,211.25,265,226.43,280.05,31.73,31.49,168.1,164.2,342.62,260.9,276.15,153,541.51,156.93,858,157.9,391.48,1.21,727.53,2.53,890.82-220.47,61-83.26,84.33-189.35,92.35-223.44,8.15-34.64,63-267.93-27.8-431.1-37.63-67.59-121.46-161.25-534.29-244.31-614.07-123.54-884.59-8.07-1030.84-200.6-91.3-120.19-82.07-291.8-77-344,2.65-27.09,17-181.77,134.57-313,120.22-134.2,272.78-182.24,439-218.48,710.9-155.05,927.8-127.28,1032.83-295.94,58.86-94.53,67.92-227.23,23.83-325.74-41.7-93.17-128.09-148.33-234.37-192.17-449.91-185.58-998.58-61.86-1307.92-183.51-30.13-11.85-122.52-48.19-119.17-85.41.65-7.24,5.68-22.88,90.37-54.62,80.89-30.32,158.8-47,259.2-62.28,26-4,55.28-8.44,98.91-13.51,100-11.61,211.22-18,402.11-23.07,199.89-5.28,169.16-3.87,215.51-5.87,181.84-7.85,272.74-12.2,367-38.32,75.4-20.9,175.23-63.36,170.81-90.33-2-12-24-17.66-37.24-20.86-131.87-31.88-273.94-32.92-322.26-34.26-105.23-2.91-210.2-19.48-210-29.29.14-8.88,81.87-13.32,293.92-29,296.5-22,339.92-23.63,407.21-49C1834.93,1352.35,2011.12,1257.82,2001.34,1168.48Z"/><path class="cls-5" d="M696.5,603.21h36.87a14.72,14.72,0,0,1,10.75,4.66l21.27,22.74a14.73,14.73,0,0,0,20.57.9l42.67-38.23a15.18,15.18,0,0,1,2.15-1.6l20.16-12.31a14.7,14.7,0,0,1,7.66-2.15h58.58a14.74,14.74,0,0,0,13.37-8.57l86.59-188.1a14.68,14.68,0,0,1,5.08-6l37.73-25.7a14.77,14.77,0,0,1,11-2.3l59,11a14.7,14.7,0,0,0,9.27-1.3l17.42-8.7a14.7,14.7,0,0,1,8.8-1.39l19.17,2.93a14.75,14.75,0,0,1,8,3.91l22.38,21.39a14.61,14.61,0,0,0,3.24,2.34l80.64,43.09a14.62,14.62,0,0,1,4.64,3.89l156.94,199.76a14.83,14.83,0,0,1,2.73,5.63l22.06,91.36a14.71,14.71,0,0,1-14.3,18.17H240.23c-17.51,0-20.38-25.09-3.33-29.05l456.28-106A14.83,14.83,0,0,1,696.5,603.21Z"/><path class="cls-6" d="M376.12,676.3l41.62-8.59c9.57,8.86,25.27,20.9,47,26.47,27.26,7,43.76-1.4,77.46-1.49,28.18-.08,28.42,5.75,73,12.66,77.09,12,125.32,2.31,130.25,18.06.79,2.52.76,7-5.86,14.71l-357.52-.74Q379.1,706.84,376.12,676.3Z"/><path class="cls-6" d="M1382,561.12c-24.84,3-14.09,50.76-60,97.57-49.94,50.93-119.33,52.16-116.78,63.14,3,13.11,100.67,5.2,160-11.92a146.8,146.8,0,0,0,48-23.83c6.51-5,21.77-17.74,27.42-34.76C1453.87,611.25,1409.15,557.86,1382,561.12Z"/><path class="cls-6" d="M753,705.35c-2.17-10.83,5.84-22.79,13.91-29.54,21.75-18.21,46.55-.83,114.7-5.47,15.21-1,19.21-2.25,32.28-2,3.24.07,63.69,1.61,66.54,15.89,3.5,17.6-78.68,63.77-160.39,53.13C810,736.07,757.81,729.28,753,705.35Z"/><path class="cls-7" d="M470.3,655.55A2832,2832,0,0,0,937.72,722a2834.4,2834.4,0,0,0,542.59-20.81l2.28,9.31c4.89,8.64,4.1,18.39-1.31,23.74a16.45,16.45,0,0,1-10.45,4.37H240.23c-17.51,0-20.38-25.09-3.33-29.05Z"/><path class="cls-5" d="M-171.67,341.59-47,357a14.77,14.77,0,0,0,5.26-.29l25.41-6.05a14.91,14.91,0,0,1,9.9,1.07l90.05,43.41a14.93,14.93,0,0,0,6.46,1.47h43.08a14.92,14.92,0,0,1,9.84,3.72l45.79,40.41a14.67,14.67,0,0,0,4.7,2.8l56.17,20.7A15.17,15.17,0,0,1,252,465.3l27.64,16A14.73,14.73,0,0,1,282,483l96.6,84.45c3.7,3.24,3.71,7.55,5.08,10.74,11.63,27,14.76,53.43,12.79,146.22-.12,5.86-.24,10.76-.33,14.21l-22.52.27L-341.76,751.7a14.88,14.88,0,0,1-15.14-14.87V347.71a33.67,33.67,0,0,1,4.63-10.78C-322.39,291.76-186.62,336.54-171.67,341.59Z"/><path class="cls-6" d="M-3.24,573c13.43-5.15,25.4,71.66,81.82,86.09,25.77,6.6,104.69,11.43,115.53,16.52,13,6.12,11,7.94,29.95,17.51,44.57,22.55,76.43,22.92,76.09,28.15-.62,9.39-103.3,9.39-153,9.39C90.68,730.67,57,728.79,37.07,710a60.09,60.09,0,0,1-4.53-4.95C-8.33,657.85-16.8,578.21-3.24,573Z"/><path class="cls-8" d="M396.71,709.08q-.1,7.62-.27,15.31-.15,7.14-.33,14.21l-22.52.27L-341.76,751.7a14.88,14.88,0,0,1-15.14-14.87V469.72A884.35,884.35,0,0,0-240.1,561.1C-1,717.58,258,720,396.71,709.08Z"/><path class="cls-4" d="M708,603.26a346.39,346.39,0,0,1,6.27,105.32c-.85,9-2,17.6-3.47,25.82l17,1.93c1.23-14.8,1.88-30.81,1.63-47.89a496.05,496.05,0,0,0-8.65-85.18H708Z"/><path class="cls-9" d="M898.54,640l-6.22,34.45a.39.39,0,0,0,.39.46h12.43a.39.39,0,0,0,.39-.46L899.31,640A.39.39,0,0,0,898.54,640Z"/><path class="cls-10" d="M879,640l-6.21,34.45a.39.39,0,0,0,.39.46h12.43a.4.4,0,0,0,.39-.46L879.8,640A.4.4,0,0,0,879,640Z"/><path class="cls-10" d="M918.05,640l-6.22,34.45a.39.39,0,0,0,.39.46h12.43a.39.39,0,0,0,.39-.46L918.82,640A.39.39,0,0,0,918.05,640Z"/><path class="cls-11" d="M937.56,641.4l-6.22,34.45a.39.39,0,0,0,.39.46h12.43a.39.39,0,0,0,.39-.46l-6.22-34.45A.39.39,0,0,0,937.56,641.4Z"/><path class="cls-9" d="M77.67,632.13l-5.91,32.74a.65.65,0,0,0,.64.77H84.22a.66.66,0,0,0,.64-.77L79,632.13A.65.65,0,0,0,77.67,632.13Z"/><path class="cls-10" d="M1287.75,402l-5.25,29.12a.33.33,0,0,0,.33.39h10.5a.33.33,0,0,0,.33-.39L1288.41,402A.33.33,0,0,0,1287.75,402Z"/><path class="cls-9" d="M1305,419l-5.25,29.12a.33.33,0,0,0,.33.39h10.5a.33.33,0,0,0,.33-.39L1305.68,419A.33.33,0,0,0,1305,419Z"/></g></g></svg>