<svg xmlns="http://www.w3.org/2000/svg" xmlns:xlink="http://www.w3.org/1999/xlink" viewBox="0 0 88.59 33.75"><defs><style>.cls-1{fill:#a8c1af;}.cls-2{fill:#8ba592;}.cls-3{fill:url(#linear-gradient);}.cls-4{fill:none;}</style><linearGradient id="linear-gradient" x1="22.8" y1="1194.66" x2="22.8" y2="1177.8" gradientTransform="matrix(1, 0, 0, -1, 0, 1203.66)" gradientUnits="userSpaceOnUse"><stop offset="0" stop-color="#f7a4bd"/><stop offset="1" stop-color="#f2dba3"/></linearGradient></defs><g id="Layer_2" data-name="Layer 2"><g id="regular"><g id="tracks"><path class="cls-1" d="M83.89,17.78A.4.4,0,0,0,84,17C71,11.93,50.71,6.51,27.23,10.51,19.1,11.89,0,16.21,0,21.66c0,6.1,24.06,12.39,44.7,12.08A102,102,0,0,0,88.36,22.88a.4.4,0,0,0-.15-.76l-29.37-2a.4.4,0,0,1,0-.8Z"/><path class="cls-2" d="M13.78,20.71c-1.81.68-5.12,1.9-5.08,3.47s3.63,2.83,5.47,3.23c2.7.59,5.18.2,8.77-.36,2.2-.35,1.7-.47,3.12-.58,3.75-.31,6.09.71,9-1,1.24-.75,1.37-1.28,1.37-1.54.05-1.66-4.35-3-6-3.51A25.28,25.28,0,0,0,13.78,20.71Z"/><g id="Layer_2-2" data-name="Layer 2"><path class="cls-3" d="M39.44,11.43c.08-.22.15-.45.21-.68a.22.22,0,0,0-.36-.2c-.51.39-1.27,0-1.8-.09a1.84,1.84,0,0,0-1.72.22.18.18,0,0,0-.06.15s0,0,0,0a.58.58,0,0,0,0-.51c0-.09.07-.17.1-.25s.11-.28.16-.42L36,9.54a.44.44,0,0,0,.08-.38,6.3,6.3,0,0,0,.18-.75.22.22,0,0,0-.36-.2A4.83,4.83,0,0,1,32.35,9c-1.13-.09-2.54-.36-3.36.54l.07-.08A6,6,0,0,0,29.78,8a7.87,7.87,0,0,0,.38-3.44,15.08,15.08,0,0,0-.35-2.1.22.22,0,0,0-.4-.05A3.8,3.8,0,0,1,27.6,3.93C27,4.18,26.19,4.34,26,5a.16.16,0,0,0,0,.12,4.53,4.53,0,0,0-.34.55l0-.25a.92.92,0,0,0-.05-.4h0c-.05-.38-.11-.77-.19-1.15A.23.23,0,0,0,25,3.79a6.6,6.6,0,0,0-.71.89c0-.11-.07-.23-.11-.34s0-.06,0-.09a5,5,0,0,0-.32-.84.93.93,0,0,0-.25-.36c-.19-.4-.4-.8-.6-1.19a1.25,1.25,0,0,0-.15-.28c-.22-.41-.44-.81-.67-1.21a.23.23,0,0,0-.41.1,4.49,4.49,0,0,1-1.12,2.39l-.17.19-.15.15-.06.1a2.61,2.61,0,0,0-.76,1.84h0l-.06.08-.17.32-.18-.08,0-.14A.17.17,0,0,0,19,5.19a2.5,2.5,0,0,0-.09-.25.22.22,0,0,0-.24-.15h0l-.07-.09-.05-.06s-.05,0-.08,0h-.05l-.08,0s0,0-.05,0l-.06,0v0c-.12,0-.24.12-.21.25s.05.17.08.25c-.07.39-.12.77-.16,1.16A3,3,0,0,0,17.53,6a3.21,3.21,0,0,0-1-.67,3.28,3.28,0,0,0-1.2-.23c-.22,0-.43,0-.62,0l-.57-.28a.23.23,0,0,0-.18,0s0-.06,0-.09c0-.25-.47-.14-.42.11,0,0,0,.07,0,.11a.25.25,0,0,0,0,.09,5.75,5.75,0,0,0,.35,3.35,6.26,6.26,0,0,0,.87,1.47l.15.2v.1a4.39,4.39,0,0,0-2.12-.34,5.63,5.63,0,0,1-1.42,0l-.13,0h0a.69.69,0,0,0-.54-.29,2.25,2.25,0,0,0-.47-.28.22.22,0,0,0-.27.26A2,2,0,0,1,10,10a.6.6,0,0,0,0,.27.52.52,0,0,1,0,.11,3.82,3.82,0,0,0,.05.83,5.19,5.19,0,0,0-.79-.12.19.19,0,0,0-.17.09.92.92,0,0,0-.54.05.17.17,0,0,0-.1.19,3.86,3.86,0,0,0-1.67.49.19.19,0,0,0-.11.14.88.88,0,0,0-.33.28l-.3.12a.2.2,0,0,0-.08.28c.08.12.16.25.25.37a1.71,1.71,0,0,0,.48.82.19.19,0,0,0,.13.05,5.14,5.14,0,0,0,.35.55,2.88,2.88,0,0,0,.3.39,6.77,6.77,0,0,0,2.4,3,5.72,5.72,0,0,0,.58.37,1.64,1.64,0,0,0-.33.14.7.7,0,0,0-.37.14,1.12,1.12,0,0,0-.2.18,1.24,1.24,0,0,0-.32.12.23.23,0,0,0-.1.12.22.22,0,0,0,0,.08l0,0a.73.73,0,0,1-.44,0,.2.2,0,1,0-.11.39l.08,0h0a.19.19,0,0,0,0,.18,2,2,0,0,0,.49.6,4.92,4.92,0,0,0,1,1,2.48,2.48,0,0,0,.92.37h0l.21,0a2.34,2.34,0,0,0,1.23,0,.2.2,0,0,0,.1-.34,2.76,2.76,0,0,1-.37-.46s0,0,0,0l.31.28a4.27,4.27,0,0,0,.82.71l.39.32a.2.2,0,0,0,.13,0s0,0,0,0a7.17,7.17,0,0,0,2.65.85,7.06,7.06,0,0,0,1.38,0,1.78,1.78,0,0,0,1.2-.36.36.36,0,0,0,0-.09h0a5,5,0,0,0,1,1.68c.46.49,1.29.95,1.35,1.67a.22.22,0,0,0,.4.1q.84-1.05,1.62-2.13h0a1.21,1.21,0,0,0,.33-.31c.1-.12.2-.23.29-.36s.34-.46.5-.7a.21.21,0,0,0,0-.24l.07-.11a.76.76,0,0,0,.2.17.79.79,0,0,0,.5.06l.29-.07a.17.17,0,0,0,.1.2c.83.46,1.87,0,2.69-.27.48-.16.94-.35,1.41-.54h0a2.32,2.32,0,0,0,1.42.65,4.25,4.25,0,0,0,1.84-.19A6,6,0,0,0,35,21.51,3.06,3.06,0,0,0,36,20.22c.08-.2-.22-.31-.37-.19s-.71,0-1-.15l-1.08-.64-.08,0-.23-.28a.54.54,0,0,0-.12-.09c.1-.1.2-.2.29-.31a25,25,0,0,0,1.92-1.63c.43-.4.84-.81,1.25-1.23a.6.6,0,0,0,.32-.25l.25-.37a15.14,15.14,0,0,0,1.15-1.49.12.12,0,0,0,.08.06.19.19,0,0,0,.24-.07,2.56,2.56,0,0,0,.23-.47l.13-.3a.23.23,0,0,0,.24-.15l.13-.46a.19.19,0,0,0,0-.08h0l0-.06.06-.12c.06-.1.15-.18.15-.29A.2.2,0,0,0,39.44,11.43Zm-13.23,11,.47-.12v0a.75.75,0,0,1,.06.13l0,0A1.2,1.2,0,0,1,26.21,22.38Z"/></g><g id="Layer_1-2" data-name="Layer 1"><path class="cls-4" d="M15.45,13.55a14.32,14.32,0,0,0,.29,2.53A4.69,4.69,0,0,0,17,18.32a4.91,4.91,0,0,0,2.52,1.2,8.59,8.59,0,0,0,2.86-.05,1.93,1.93,0,0,1-.12-.83,3.52,3.52,0,0,0-2.46-3.13c-.52-.16-1.07-.21-1.6-.34A5,5,0,0,1,15.45,13.55Z"/><path class="cls-4" d="M22.42,19.28a3.05,3.05,0,0,1,.93-2.1,6,6,0,0,1,.73-.69,21.92,21.92,0,0,1,2.71-1.56,3.9,3.9,0,0,0,2-2.22,4.54,4.54,0,0,1-.38,4.17,6.23,6.23,0,0,1-3.61,2.58A2.86,2.86,0,0,1,22.42,19.28Z"/><path class="cls-4" d="M19.76,15.45a1.54,1.54,0,0,1,.56-1.39c.38-.37.85-.66,1.21-1.05a2.52,2.52,0,0,0,.69-1.75,3.13,3.13,0,0,0,1.23,2.44c.37.29.81.51,1.18.81a1.42,1.42,0,0,1,.59,1.19"/><path class="cls-4" d="M18.36,15.14A8.44,8.44,0,0,1,19.54,11c.44-.75,1-1.44,1.44-2.19a9.34,9.34,0,0,0,1.23-3.4,8.63,8.63,0,0,0,.88,3.34,15.28,15.28,0,0,0,1.2,1.61,8.65,8.65,0,0,1,1.9,4.85"/><path class="cls-4" d="M24.13,10c1.11-1.37,3-2.11,4-3.56a26.82,26.82,0,0,1-.34,6.45,3.15,3.15,0,0,1-.56,1.52"/><path class="cls-4" d="M18.23,14.93a4.6,4.6,0,0,1-1.95-2.53c-.37-1-.54-2.06-.89-3.07a9.73,9.73,0,0,0-.72-1.58A5.91,5.91,0,0,0,17.3,8.89a3.73,3.73,0,0,1,2.4,1.45"/><path class="cls-4" d="M22.52,6.81a2.49,2.49,0,0,1,.7-.71,6.56,6.56,0,0,0,1.91-2.67,18.74,18.74,0,0,1,.74,5"/><path class="cls-4" d="M17.05,8.91a12.92,12.92,0,0,1,.71-2.4A4.25,4.25,0,0,0,18,4.05c.55.73,1.26,1.34,1.88,2A4.36,4.36,0,0,1,21.1,8.46"/><path class="cls-4" d="M19.38,5.51c.24-2,2.4-3.49,2.7-5.51a15.26,15.26,0,0,0,1.31,2.28,5.37,5.37,0,0,1,.92,2.42"/><path class="cls-4" d="M25.65,5.49a2.37,2.37,0,0,1,1-1.18c.46-.3,1-.52,1.43-.82a4.89,4.89,0,0,0,1.46-1.44,7.09,7.09,0,0,1,.66,4.45,7.33,7.33,0,0,1-2.17,4"/><path class="cls-4" d="M17.72,6.26a1.89,1.89,0,0,0-1.54-1.21,14.11,14.11,0,0,1-1.46,0,3.06,3.06,0,0,1-1.25-.74,9.85,9.85,0,0,0,0,3.55,4,4,0,0,0,2.19,2.78"/><path class="cls-4" d="M19.23,19.65a3.74,3.74,0,0,0,.27,3.83,9.85,9.85,0,0,0,1,1.09A20.42,20.42,0,0,1,22,26.37a22,22,0,0,1,2.27-2.87,4.73,4.73,0,0,0,.92-4.07"/><path class="cls-4" d="M16.81,18.26a8.23,8.23,0,0,0-2.79.53,3.71,3.71,0,0,0-2,1.8.17.17,0,0,0,0,.1.16.16,0,0,0,0,.09,5.53,5.53,0,0,0,2.23,1.82,8.34,8.34,0,0,0,3.22.65,3.1,3.1,0,0,0,1.79-.34"/><path class="cls-4" d="M12.07,20.79a2,2,0,0,1,2-.11c.64.34,1,1,1.58,1.44a3.93,3.93,0,0,0,1.29.61,3.86,3.86,0,0,0,2.07.15"/><path class="cls-4" d="M24.91,22.56a4.68,4.68,0,0,0,2.91.21,21.72,21.72,0,0,0,2.2-.85,3.27,3.27,0,0,1,2.32-.11,5.6,5.6,0,0,0-4.43-3.34,3.44,3.44,0,0,0-.85,0"/><path class="cls-4" d="M31.91,21.52a1.7,1.7,0,0,0-1.56-.75,3.69,3.69,0,0,0-1.72.59,16.53,16.53,0,0,1-1.59.89,4.42,4.42,0,0,1-2.22.3"/><path class="cls-4" d="M29,9.43a3,3,0,0,1,1.57-.64A12.94,12.94,0,0,1,32.8,9,5.58,5.58,0,0,0,36.19,8c0,2.1-1.24,4-2.49,5.77-.22.31-.44.61-.68.9a15.49,15.49,0,0,1-2.81,2.4,5.24,5.24,0,0,1-2.4,1.17"/><path class="cls-4" d="M14.45,9.85A14.13,14.13,0,0,0,12,9.92a2.49,2.49,0,0,1-2.14-.84,8.17,8.17,0,0,0,1.24,4.45,14.19,14.19,0,0,0,3.2,3.55,4.36,4.36,0,0,0,2.28,1.15"/><path class="cls-4" d="M10.24,11.17a5,5,0,0,0-1.34,0,4.19,4.19,0,0,0-3.09,1.53c1.17,1,1.63,2.48,2.54,3.67a6.83,6.83,0,0,0,5.26,2.55"/><path class="cls-4" d="M35.61,10.63a1.57,1.57,0,0,1,1.31-.26c.46.08.89.25,1.35.31a2.72,2.72,0,0,0,1.57-.27,7.83,7.83,0,0,1-.53,1.95A7.69,7.69,0,0,1,38.23,14a25.94,25.94,0,0,1-4.09,4,7.81,7.81,0,0,1-3.33,1.72"/><path class="cls-4" d="M10.67,18.22a1.57,1.57,0,0,0-1,.24c-.24.15-.43.37-.68.52A.79.79,0,0,1,8.2,19a5.49,5.49,0,0,0,2,2.29,4.23,4.23,0,0,0,2.22.41l.4-.17"/><path class="cls-4" d="M32.55,19.06a1,1,0,0,1,.87,0,7.25,7.25,0,0,1,.75.47,3.08,3.08,0,0,0,2.32.37,3.63,3.63,0,0,0-.72.93A4.52,4.52,0,0,1,33,22.42a3.5,3.5,0,0,1-2.83-.35"/></g></g></g></g></svg>