<svg xmlns="http://www.w3.org/2000/svg" viewBox="0 0 78.29 79.95"><defs><style>.cls-1{fill:#b3d1db;}.cls-2{fill:#f48584;}.cls-3{fill:#a9c2b1;}.cls-4{fill:#ab8d74;}</style></defs><g id="Layer_2" data-name="Layer 2"><g id="regular"><g id="words"><g id="g1631"><path id="path2455" class="cls-1" d="M45.27,42.25a2.39,2.39,0,0,0-2.4,2.4v1.79c4.5,2,7.73,1.92,10.5.66a18.1,18.1,0,0,0,5.89-4.85Zm16.51,0c-2.26,2.79-4.64,5.24-7.63,6.6s-6.76,1.51-11.28-.33v9.92a7.54,7.54,0,0,0,4.37.63,12.7,12.7,0,0,0,5.82-3.2c3.86-3.27,7.74-8.18,13.52-9.09a27.27,27.27,0,0,1,4.25-.31h.61c1.67,0,3.34.16,5,.33l1.45-2.48a1.38,1.38,0,0,0-.5-1.89,1.32,1.32,0,0,0-.7-.19Zm9,6.16a24.22,24.22,0,0,0-3.94.27c-4.83.76-8.51,5.2-12.57,8.65A14.28,14.28,0,0,1,47.54,61a9.17,9.17,0,0,1-4.68-.47V77.15a2.41,2.41,0,0,0,2.4,2.4H76.68a1.43,1.43,0,0,0,1.42-1.42,1.39,1.39,0,0,0-.18-.69l-8.22-15a4.24,4.24,0,0,1,0-4.18l5.6-9.62C73.81,48.53,72.29,48.42,70.81,48.41Z"/><path id="path2457" class="cls-2" d="M19.31,41.07a21.22,21.22,0,0,0-2.4.12,19.2,19.2,0,0,0-9.43,3.94c.31.08.61.16.91.26,3.52,1.09,6.46,2.8,9.39,2.24,4.57-.87,6.44-3,7.85-5.88a24.52,24.52,0,0,0-3.92-.61c-.66,0-1.53-.08-2.4-.07Zm8.19,1.22a12.17,12.17,0,0,1-9.36,7.23c-3.81.73-7.1-1.3-10.32-2.3a16.23,16.23,0,0,0-2.11-.52A19.49,19.49,0,0,0,.11,58.16c0,.18,0,.38-.06.6,1.14-1,2.2-2.08,3.37-3,3-2.42,6.65-4.16,13.72-3.77,6.06.33,9.13-1.42,11.76-3.31a41.87,41.87,0,0,1,3.88-2.73l.54-.29a17.54,17.54,0,0,0-5.82-3.33Zm7.28,4.77a10.22,10.22,0,0,0-1.05.52A43.78,43.78,0,0,0,30,50.2a18.73,18.73,0,0,1-13,3.66C10.3,53.49,7.35,55,4.64,57.21,3.17,58.41,1.77,59.88,0,61.37,0,62,.05,62.5.11,63a19.25,19.25,0,0,0,2.06,6.62A13.56,13.56,0,0,0,8.41,66c2.22-2.15,4.06-5.07,8.19-8.18,2.09-1.56,4.94-2.13,8-2.12a29.71,29.71,0,0,1,3.1.17,38.65,38.65,0,0,1,5.28,1l3-4.26a3.75,3.75,0,0,0,.08-4,17.46,17.46,0,0,0-1.25-1.54ZM24.61,57.66c-2.8,0-5.28.55-6.85,1.73-3.89,2.92-5.57,5.65-8,8a15.84,15.84,0,0,1-6.58,3.85,19.32,19.32,0,0,0,13.74,8.56,27.48,27.48,0,0,0,4.8,0,20.14,20.14,0,0,0,14.14-7.58A3.45,3.45,0,0,0,36,68.4l-4.1-6.05a3.49,3.49,0,0,1-.08-3.79,37.19,37.19,0,0,0-4.3-.75,28.86,28.86,0,0,0-2.89-.15Z"/><path id="path2459" class="cls-3" d="M3.52,0A2.41,2.41,0,0,0,1.11,2.4h0V29.21c4.25.8,9,3,16.6,1.06V25.75a1.6,1.6,0,0,1,1.6-1.6h0a1.52,1.52,0,0,1,1.42,1.6h0v3.54c3.84-1.59,5.67-3.92,8.37-5.89a14.57,14.57,0,0,1,8.23-2.82V2.4A2.41,2.41,0,0,0,34.92,0H23.14a2.41,2.41,0,0,0-2.41,2.4h0v8.07a1.6,1.6,0,0,1-1.6,1.61h0a1.52,1.52,0,0,1-1.42-1.61h0V2.4A2.41,2.41,0,0,0,15.3,0H3.52ZM37.33,22.46A12.24,12.24,0,0,0,30.23,25c-2.56,1.88-4.77,4.65-9.5,6.4v2.46a2.4,2.4,0,0,0,2.41,2.4h4.75A20.79,20.79,0,0,1,30.8,31a11.09,11.09,0,0,1,5.48-3.7c.35-.11.69-.2,1-.29Zm0,6.54-.46.13A9,9,0,0,0,32.3,32.2a17.75,17.75,0,0,0-2.3,4h4.92a2.4,2.4,0,0,0,2.41-2.4h0ZM1.11,31.18v2.63a2.4,2.4,0,0,0,2.41,2.4H15.3a2.4,2.4,0,0,0,2.41-2.4h0V32.25C10.05,34.05,4.85,32,1.11,31.18Z"/><path id="path2461" class="cls-4" d="M61,2.7a1.27,1.27,0,0,0-1.13.68L50.36,21.54a38.37,38.37,0,0,0,9.25-2.32,21.83,21.83,0,0,0,7.87-5.52L62.08,3.38A1.28,1.28,0,0,0,61,2.7Zm7.43,12.79A23.81,23.81,0,0,1,60.35,21a43.72,43.72,0,0,1-11.09,2.66l-2.14,4.09a22,22,0,0,1,4.47,1.44,9.78,9.78,0,0,0,7.35.69c3.51-.93,4.77-3.17,6.64-5.46a10.24,10.24,0,0,1,5.53-3.76ZM72,22.36a7.67,7.67,0,0,0-4.93,3.26c-1.74,2.14-3.48,5-7.65,6.1A12.08,12.08,0,0,1,50.86,31a17.79,17.79,0,0,0-4.67-1.44L43.8,34.08a1.47,1.47,0,0,0,.62,2,1.57,1.57,0,0,0,.67.16h17.3A11.91,11.91,0,0,1,70.63,30a11.68,11.68,0,0,0,4.48-1.71ZM76,30a14.25,14.25,0,0,1-4.87,1.91,9.05,9.05,0,0,0-6.45,4.33H76.84a1.45,1.45,0,0,0,1.45-1.45,1.58,1.58,0,0,0-.16-.68Z"/></g></g></g></g></svg>