<?xml version="1.0" encoding="UTF-8" standalone="no"?>
<!DOCTYPE svg PUBLIC "-//W3C//DTD SVG 1.1//EN" "http://www.w3.org/Graphics/SVG/1.1/DTD/svg11.dtd">
<svg width="100%" height="100%" viewBox="0 0 762 731" version="1.1" xmlns="http://www.w3.org/2000/svg" xmlns:xlink="http://www.w3.org/1999/xlink" xml:space="preserve" xmlns:serif="http://www.serif.com/" style="fill-rule:evenodd;clip-rule:evenodd;stroke-linejoin:round;stroke-miterlimit:2;">
    <g transform="matrix(1,0,0,1,-119.188,-134.821)">
        <g transform="matrix(1.39905,0,0,1.39905,-199.581,-57.7594)">
            <g transform="matrix(0.504511,-1.65123e-16,1.65123e-16,0.504511,257.835,56.9287)">
                <path d="M480,192.901C480,192.901 500.559,160 520,160C639.629,160 650,380 650,380C650,380 660,390.428 660,400C660,501.042 560,600 560,600L480,680.008L400,600C400,600 300,501.042 300,400C300,390.428 310,380 310,380C310,380 320.371,160 440,160C459.441,160 480,192.901 480,192.901Z" style="fill:url(#_Linear1);"/>
                <clipPath id="_clip2">
                    <path d="M480,192.901C480,192.901 500.559,160 520,160C639.629,160 650,380 650,380C650,380 660,390.428 660,400C660,501.042 560,600 560,600L480,680.008L400,600C400,600 300,501.042 300,400C300,390.428 310,380 310,380C310,380 320.371,160 440,160C459.441,160 480,192.901 480,192.901Z"/>
                </clipPath>
                <g clip-path="url(#_clip2)">
                    <g transform="matrix(1.55927,0,0,1.55927,-299.635,6.01446)">
                        <g transform="matrix(1.27118,0,0,1.27118,-142.136,-70.6111)">
                            <path d="M516.986,261.71C518.155,263.193 519.311,264.675 520.326,266.387C521.203,267.867 521.999,269.412 522.714,271.06C523.175,272.123 523.607,273.213 523.973,274.346C525.693,279.663 526.685,285.551 527.362,291.688C528.807,304.783 528.244,319.178 526.358,333.058C523.8,351.886 518.603,369.742 511.889,382.104C509.652,386.223 507.248,389.702 504.707,392.364C502.774,394.387 500.788,395.931 498.69,396.792L501.31,403.208C506.416,401.102 511.331,396.316 515.531,389.367C521.578,379.363 526.362,364.819 529.287,348.715C531.827,334.73 532.91,319.556 532.295,305.162C531.857,294.906 530.327,285.106 528.202,276.287C527.611,273.835 526.998,271.461 526.37,269.149C525.866,267.293 525.36,265.513 524.832,263.75C524.262,261.846 523.688,260.062 523.014,258.29C522.07,256.627 519.954,256.043 518.29,256.986C516.627,257.93 516.043,260.046 516.986,261.71Z" style="fill:rgb(248,242,229);fill-opacity:0.45;"/>
                        </g>
                        <g transform="matrix(-1.20219,0.413079,0.413079,1.20219,983.397,-214.91)">
                            <path d="M522.469,258.599C522.867,260.195 523.094,261.672 523.491,263.336C523.67,264.087 523.9,264.814 524.156,265.559C524.401,266.275 524.718,266.972 524.993,267.693C533.322,289.453 533.771,321.291 528.53,348.565C527.341,354.754 525.9,360.716 524.118,366.23C522.809,370.279 521.335,374.091 519.709,377.589C517.341,382.681 514.701,387.116 511.873,390.703C508.135,395.444 504.11,398.655 500,400C504.521,397.779 508.407,392.898 511.913,386.274C514.477,381.43 516.761,375.653 518.85,369.23C520.304,364.758 521.717,360.002 522.928,355.012C524.619,348.048 526.029,340.669 526.996,333.134C530,309.719 529.998,284.471 522.058,267.238C521.64,266.33 521.181,265.463 520.614,264.669C519.693,263.378 518.611,262.476 517.531,261.401C516.758,260.038 517.236,258.304 518.599,257.531C519.962,256.758 521.696,257.236 522.469,258.599Z" style="fill:rgb(248,242,229);fill-opacity:0.45;"/>
                        </g>
                    </g>
                </g>
            </g>
            <g transform="matrix(0.155902,-0.479818,0.479818,0.155902,84.7182,534.673)">
                <path d="M480,192.901C480,192.901 500.559,160 520,160C639.629,160 650,380 650,380C650,380 660,390.428 660,400C660,501.042 560,600 560,600L480,680.008L400,600C400,600 300,501.042 300,400C300,390.428 310,380 310,380C310,380 320.371,160 440,160C459.441,160 480,192.901 480,192.901Z" style="fill:url(#_Linear3);"/>
                <clipPath id="_clip4">
                    <path d="M480,192.901C480,192.901 500.559,160 520,160C639.629,160 650,380 650,380C650,380 660,390.428 660,400C660,501.042 560,600 560,600L480,680.008L400,600C400,600 300,501.042 300,400C300,390.428 310,380 310,380C310,380 320.371,160 440,160C459.441,160 480,192.901 480,192.901Z"/>
                </clipPath>
                <g clip-path="url(#_clip4)">
                    <g transform="matrix(1.55927,0,0,1.55927,-299.635,6.01446)">
                        <g transform="matrix(1.27118,0,0,1.27118,-142.136,-70.6111)">
                            <path d="M516.986,261.71C518.155,263.193 519.311,264.675 520.326,266.387C521.203,267.867 521.999,269.412 522.714,271.06C523.175,272.123 523.607,273.213 523.973,274.346C525.693,279.663 526.685,285.551 527.362,291.688C528.807,304.783 528.244,319.178 526.358,333.058C523.8,351.886 518.603,369.742 511.889,382.104C509.652,386.223 507.248,389.702 504.707,392.364C502.774,394.387 500.788,395.931 498.69,396.792L501.31,403.208C506.416,401.102 511.331,396.316 515.531,389.367C521.578,379.363 526.362,364.819 529.287,348.715C531.827,334.73 532.91,319.556 532.295,305.162C531.857,294.906 530.327,285.106 528.202,276.287C527.611,273.835 526.998,271.461 526.37,269.149C525.866,267.293 525.36,265.513 524.832,263.75C524.262,261.846 523.688,260.062 523.014,258.29C522.07,256.627 519.954,256.043 518.29,256.986C516.627,257.93 516.043,260.046 516.986,261.71Z" style="fill:rgb(248,242,229);fill-opacity:0.45;"/>
                        </g>
                        <g transform="matrix(-1.20219,0.413079,0.413079,1.20219,983.397,-214.91)">
                            <path d="M522.469,258.599C522.867,260.195 523.094,261.672 523.491,263.336C523.67,264.087 523.9,264.814 524.156,265.559C524.401,266.275 524.718,266.972 524.993,267.693C533.322,289.453 533.771,321.291 528.53,348.565C527.341,354.754 525.9,360.716 524.118,366.23C522.809,370.279 521.335,374.091 519.709,377.589C517.341,382.681 514.701,387.116 511.873,390.703C508.135,395.444 504.11,398.655 500,400C504.521,397.779 508.407,392.898 511.913,386.274C514.477,381.43 516.761,375.653 518.85,369.23C520.304,364.758 521.717,360.002 522.928,355.012C524.619,348.048 526.029,340.669 526.996,333.134C530,309.719 529.998,284.471 522.058,267.238C521.64,266.33 521.181,265.463 520.614,264.669C519.693,263.378 518.611,262.476 517.531,261.401C516.758,260.038 517.236,258.304 518.599,257.531C519.962,256.758 521.696,257.236 522.469,258.599Z" style="fill:rgb(248,242,229);fill-opacity:0.45;"/>
                        </g>
                    </g>
                </g>
            </g>
            <g transform="matrix(-0.408158,-0.296544,0.296544,-0.408158,485.584,846.947)">
                <path d="M480,192.901C480,192.901 500.559,160 520,160C639.629,160 650,380 650,380C650,380 660,390.428 660,400C660,501.042 560,600 560,600L480,680.008L400,600C400,600 300,501.042 300,400C300,390.428 310,380 310,380C310,380 320.371,160 440,160C459.441,160 480,192.901 480,192.901Z" style="fill:url(#_Linear5);"/>
                <clipPath id="_clip6">
                    <path d="M480,192.901C480,192.901 500.559,160 520,160C639.629,160 650,380 650,380C650,380 660,390.428 660,400C660,501.042 560,600 560,600L480,680.008L400,600C400,600 300,501.042 300,400C300,390.428 310,380 310,380C310,380 320.371,160 440,160C459.441,160 480,192.901 480,192.901Z"/>
                </clipPath>
                <g clip-path="url(#_clip6)">
                    <g transform="matrix(1.55927,0,0,1.55927,-299.635,6.01446)">
                        <g transform="matrix(1.27118,0,0,1.27118,-142.136,-70.6111)">
                            <path d="M516.986,261.71C518.155,263.193 519.311,264.675 520.326,266.387C521.203,267.867 521.999,269.412 522.714,271.06C523.175,272.123 523.607,273.213 523.973,274.346C525.693,279.663 526.685,285.551 527.362,291.688C528.807,304.783 528.244,319.178 526.358,333.058C523.8,351.886 518.603,369.742 511.889,382.104C509.652,386.223 507.248,389.702 504.707,392.364C502.774,394.387 500.788,395.931 498.69,396.792L501.31,403.208C506.416,401.102 511.331,396.316 515.531,389.367C521.578,379.363 526.362,364.819 529.287,348.715C531.827,334.73 532.91,319.556 532.295,305.162C531.857,294.906 530.327,285.106 528.202,276.287C527.611,273.835 526.998,271.461 526.37,269.149C525.866,267.293 525.36,265.513 524.832,263.75C524.262,261.846 523.688,260.062 523.014,258.29C522.07,256.627 519.954,256.043 518.29,256.986C516.627,257.93 516.043,260.046 516.986,261.71Z" style="fill:rgb(248,242,229);fill-opacity:0.45;"/>
                        </g>
                        <g transform="matrix(-1.20219,0.413079,0.413079,1.20219,983.397,-214.91)">
                            <path d="M522.469,258.599C522.867,260.195 523.094,261.672 523.491,263.336C523.67,264.087 523.9,264.814 524.156,265.559C524.401,266.275 524.718,266.972 524.993,267.693C533.322,289.453 533.771,321.291 528.53,348.565C527.341,354.754 525.9,360.716 524.118,366.23C522.809,370.279 521.335,374.091 519.709,377.589C517.341,382.681 514.701,387.116 511.873,390.703C508.135,395.444 504.11,398.655 500,400C504.521,397.779 508.407,392.898 511.913,386.274C514.477,381.43 516.761,375.653 518.85,369.23C520.304,364.758 521.717,360.002 522.928,355.012C524.619,348.048 526.029,340.669 526.996,333.134C530,309.719 529.998,284.471 522.058,267.238C521.64,266.33 521.181,265.463 520.614,264.669C519.693,263.378 518.611,262.476 517.531,261.401C516.758,260.038 517.236,258.304 518.599,257.531C519.962,256.758 521.696,257.236 522.469,258.599Z" style="fill:rgb(248,242,229);fill-opacity:0.45;"/>
                        </g>
                    </g>
                </g>
            </g>
            <g transform="matrix(-0.408158,0.296544,-0.296544,-0.408158,906.449,562.2)">
                <path d="M480,192.901C480,192.901 500.559,160 520,160C639.629,160 650,380 650,380C650,380 660,390.428 660,400C660,501.042 560,600 560,600L480,680.008L400,600C400,600 300,501.042 300,400C300,390.428 310,380 310,380C310,380 320.371,160 440,160C459.441,160 480,192.901 480,192.901Z" style="fill:url(#_Linear7);"/>
                <clipPath id="_clip8">
                    <path d="M480,192.901C480,192.901 500.559,160 520,160C639.629,160 650,380 650,380C650,380 660,390.428 660,400C660,501.042 560,600 560,600L480,680.008L400,600C400,600 300,501.042 300,400C300,390.428 310,380 310,380C310,380 320.371,160 440,160C459.441,160 480,192.901 480,192.901Z"/>
                </clipPath>
                <g clip-path="url(#_clip8)">
                    <g transform="matrix(1.55927,0,0,1.55927,-299.635,6.01446)">
                        <g transform="matrix(1.27118,0,0,1.27118,-142.136,-70.6111)">
                            <path d="M516.986,261.71C518.155,263.193 519.311,264.675 520.326,266.387C521.203,267.867 521.999,269.412 522.714,271.06C523.175,272.123 523.607,273.213 523.973,274.346C525.693,279.663 526.685,285.551 527.362,291.688C528.807,304.783 528.244,319.178 526.358,333.058C523.8,351.886 518.603,369.742 511.889,382.104C509.652,386.223 507.248,389.702 504.707,392.364C502.774,394.387 500.788,395.931 498.69,396.792L501.31,403.208C506.416,401.102 511.331,396.316 515.531,389.367C521.578,379.363 526.362,364.819 529.287,348.715C531.827,334.73 532.91,319.556 532.295,305.162C531.857,294.906 530.327,285.106 528.202,276.287C527.611,273.835 526.998,271.461 526.37,269.149C525.866,267.293 525.36,265.513 524.832,263.75C524.262,261.846 523.688,260.062 523.014,258.29C522.07,256.627 519.954,256.043 518.29,256.986C516.627,257.93 516.043,260.046 516.986,261.71Z" style="fill:rgb(248,242,229);fill-opacity:0.45;"/>
                        </g>
                        <g transform="matrix(-1.20219,0.413079,0.413079,1.20219,983.397,-214.91)">
                            <path d="M522.469,258.599C522.867,260.195 523.094,261.672 523.491,263.336C523.67,264.087 523.9,264.814 524.156,265.559C524.401,266.275 524.718,266.972 524.993,267.693C533.322,289.453 533.771,321.291 528.53,348.565C527.341,354.754 525.9,360.716 524.118,366.23C522.809,370.279 521.335,374.091 519.709,377.589C517.341,382.681 514.701,387.116 511.873,390.703C508.135,395.444 504.11,398.655 500,400C504.521,397.779 508.407,392.898 511.913,386.274C514.477,381.43 516.761,375.653 518.85,369.23C520.304,364.758 521.717,360.002 522.928,355.012C524.619,348.048 526.029,340.669 526.996,333.134C530,309.719 529.998,284.471 522.058,267.238C521.64,266.33 521.181,265.463 520.614,264.669C519.693,263.378 518.611,262.476 517.531,261.401C516.758,260.038 517.236,258.304 518.599,257.531C519.962,256.758 521.696,257.236 522.469,258.599Z" style="fill:rgb(248,242,229);fill-opacity:0.45;"/>
                        </g>
                    </g>
                </g>
            </g>
            <g transform="matrix(0.155902,0.479818,-0.479818,0.155902,765.692,73.9413)">
                <path d="M480,192.901C480,192.901 500.559,160 520,160C639.629,160 650,380 650,380C650,380 660,390.428 660,400C660,501.042 560,600 560,600L480,680.008L400,600C400,600 300,501.042 300,400C300,390.428 310,380 310,380C310,380 320.371,160 440,160C459.441,160 480,192.901 480,192.901Z" style="fill:url(#_Linear9);"/>
                <clipPath id="_clip10">
                    <path d="M480,192.901C480,192.901 500.559,160 520,160C639.629,160 650,380 650,380C650,380 660,390.428 660,400C660,501.042 560,600 560,600L480,680.008L400,600C400,600 300,501.042 300,400C300,390.428 310,380 310,380C310,380 320.371,160 440,160C459.441,160 480,192.901 480,192.901Z"/>
                </clipPath>
                <g clip-path="url(#_clip10)">
                    <g transform="matrix(1.55927,0,0,1.55927,-299.635,6.01446)">
                        <g transform="matrix(1.27118,0,0,1.27118,-142.136,-70.6111)">
                            <path d="M516.986,261.71C518.155,263.193 519.311,264.675 520.326,266.387C521.203,267.867 521.999,269.412 522.714,271.06C523.175,272.123 523.607,273.213 523.973,274.346C525.693,279.663 526.685,285.551 527.362,291.688C528.807,304.783 528.244,319.178 526.358,333.058C523.8,351.886 518.603,369.742 511.889,382.104C509.652,386.223 507.248,389.702 504.707,392.364C502.774,394.387 500.788,395.931 498.69,396.792L501.31,403.208C506.416,401.102 511.331,396.316 515.531,389.367C521.578,379.363 526.362,364.819 529.287,348.715C531.827,334.73 532.91,319.556 532.295,305.162C531.857,294.906 530.327,285.106 528.202,276.287C527.611,273.835 526.998,271.461 526.37,269.149C525.866,267.293 525.36,265.513 524.832,263.75C524.262,261.846 523.688,260.062 523.014,258.29C522.07,256.627 519.954,256.043 518.29,256.986C516.627,257.93 516.043,260.046 516.986,261.71Z" style="fill:rgb(248,242,229);fill-opacity:0.45;"/>
                        </g>
                        <g transform="matrix(-1.20219,0.413079,0.413079,1.20219,983.397,-214.91)">
                            <path d="M522.469,258.599C522.867,260.195 523.094,261.672 523.491,263.336C523.67,264.087 523.9,264.814 524.156,265.559C524.401,266.275 524.718,266.972 524.993,267.693C533.322,289.453 533.771,321.291 528.53,348.565C527.341,354.754 525.9,360.716 524.118,366.23C522.809,370.279 521.335,374.091 519.709,377.589C517.341,382.681 514.701,387.116 511.873,390.703C508.135,395.444 504.11,398.655 500,400C504.521,397.779 508.407,392.898 511.913,386.274C514.477,381.43 516.761,375.653 518.85,369.23C520.304,364.758 521.717,360.002 522.928,355.012C524.619,348.048 526.029,340.669 526.996,333.134C530,309.719 529.998,284.471 522.058,267.238C521.64,266.33 521.181,265.463 520.614,264.669C519.693,263.378 518.611,262.476 517.531,261.401C516.758,260.038 517.236,258.304 518.599,257.531C519.962,256.758 521.696,257.236 522.469,258.599Z" style="fill:rgb(248,242,229);fill-opacity:0.45;"/>
                        </g>
                    </g>
                </g>
            </g>
        </g>
    </g>
    <defs>
        <linearGradient id="_Linear1" x1="0" y1="0" x2="1" y2="0" gradientUnits="userSpaceOnUse" gradientTransform="matrix(2.98267e-14,-487.107,487.107,2.98267e-14,480,680.008)"><stop offset="0" style="stop-color:rgb(255,97,142);stop-opacity:1"/><stop offset="1" style="stop-color:rgb(255,193,211);stop-opacity:1"/></linearGradient>
        <linearGradient id="_Linear3" x1="0" y1="0" x2="1" y2="0" gradientUnits="userSpaceOnUse" gradientTransform="matrix(2.98267e-14,-487.107,487.107,2.98267e-14,480,680.008)"><stop offset="0" style="stop-color:rgb(255,97,142);stop-opacity:1"/><stop offset="1" style="stop-color:rgb(255,193,211);stop-opacity:1"/></linearGradient>
        <linearGradient id="_Linear5" x1="0" y1="0" x2="1" y2="0" gradientUnits="userSpaceOnUse" gradientTransform="matrix(2.98267e-14,-487.107,487.107,2.98267e-14,480,680.008)"><stop offset="0" style="stop-color:rgb(255,97,142);stop-opacity:1"/><stop offset="1" style="stop-color:rgb(255,193,211);stop-opacity:1"/></linearGradient>
        <linearGradient id="_Linear7" x1="0" y1="0" x2="1" y2="0" gradientUnits="userSpaceOnUse" gradientTransform="matrix(2.98267e-14,-487.107,487.107,2.98267e-14,480,680.008)"><stop offset="0" style="stop-color:rgb(255,97,142);stop-opacity:1"/><stop offset="1" style="stop-color:rgb(255,193,211);stop-opacity:1"/></linearGradient>
        <linearGradient id="_Linear9" x1="0" y1="0" x2="1" y2="0" gradientUnits="userSpaceOnUse" gradientTransform="matrix(2.98267e-14,-487.107,487.107,2.98267e-14,480,680.008)"><stop offset="0" style="stop-color:rgb(255,97,142);stop-opacity:1"/><stop offset="1" style="stop-color:rgb(255,193,211);stop-opacity:1"/></linearGradient>
    </defs>
</svg>
