<?xml version="1.0" encoding="UTF-8" standalone="no"?>
<!-- Created with Inkscape (http://www.inkscape.org/) -->

<svg
   xmlns:dc="http://purl.org/dc/elements/1.1/"
   xmlns:cc="http://creativecommons.org/ns#"
   xmlns:rdf="http://www.w3.org/1999/02/22-rdf-syntax-ns#"
   xmlns:svg="http://www.w3.org/2000/svg"
   xmlns="http://www.w3.org/2000/svg"
   xmlns:sodipodi="http://sodipodi.sourceforge.net/DTD/sodipodi-0.dtd"
   xmlns:inkscape="http://www.inkscape.org/namespaces/inkscape"
   width="165.81416mm"
   height="54.297977mm"
   viewBox="0 0 165.81416 54.297977"
   version="1.1"
   id="svg5973"
   inkscape:version="0.92.5 (2060ec1f9f, 2020-04-08)"
   sodipodi:docname="wordmark.svg">
  <defs
     id="defs5967" />
  <sodipodi:namedview
     id="base"
     pagecolor="#ffffff"
     bordercolor="#666666"
     borderopacity="1.0"
     inkscape:pageopacity="0.0"
     inkscape:pageshadow="2"
     inkscape:zoom="0.98994949"
     inkscape:cx="80.487646"
     inkscape:cy="129.37362"
     inkscape:document-units="mm"
     inkscape:current-layer="layer1"
     showgrid="false"
     fit-margin-top="0"
     fit-margin-left="0"
     fit-margin-right="0"
     fit-margin-bottom="0"
     inkscape:window-width="1920"
     inkscape:window-height="986"
     inkscape:window-x="-11"
     inkscape:window-y="-11"
     inkscape:window-maximized="1" />
  <metadata
     id="metadata5970">
    <rdf:RDF>
      <cc:Work
         rdf:about="">
        <dc:format>image/svg+xml</dc:format>
        <dc:type
           rdf:resource="http://purl.org/dc/dcmitype/StillImage" />
        <dc:title></dc:title>
      </cc:Work>
    </rdf:RDF>
  </metadata>
  <g
     inkscape:label="Layer 1"
     inkscape:groupmode="layer"
     id="layer1"
     transform="translate(-70.37865,-119.28522)">
    <path
       style="font-style:normal;font-variant:normal;font-weight:500;font-stretch:normal;font-size:29.00457764px;line-height:1.25;font-family:Quicksand;-inkscape-font-specification:'Quicksand Medium';letter-spacing:7.09656px;word-spacing:0px;fill:#645a4d;fill-opacity:1;stroke:none;stroke-width:9.19506836;stroke-miterlimit:4;stroke-dasharray:none"
       d="m 502.86328,450.8418 c -5.48117,0 -10.59729,0.98772 -15.34766,2.96093 -4.67725,1.97325 -8.80566,4.71275 -12.38671,8.22071 -3.50796,3.50793 -6.24944,7.63831 -8.22266,12.38867 -1.97322,4.75036 -2.95898,9.97535 -2.95898,15.67578 0,6.06584 1.02205,11.54686 3.06835,16.44336 2.11939,4.82346 4.96976,8.95381 8.55079,12.38867 3.58105,3.43489 7.7114,6.06553 12.38867,7.89258 4.67726,1.82707 9.64627,2.74023 14.9082,2.74023 2.55788,0 5.07964,-0.25598 7.56445,-0.76757 2.55789,-0.51158 5.00511,-1.20506 7.34375,-2.08204 2.33862,-0.95006 4.42293,-1.97407 6.25,-3.07031 1.16934,-0.58467 1.86282,-1.49783 2.08204,-2.74023 0.21926,-1.31548 -0.10933,-2.55921 -0.98633,-3.72852 -0.73081,-0.87702 -1.60769,-1.38706 -2.63086,-1.5332 -1.02315,-0.14617 -2.04715,0.0353 -3.07031,0.54687 -2.48479,1.53472 -5.11544,2.70391 -7.89258,3.50782 -2.77712,0.8039 -5.66377,1.20703 -8.66016,1.20703 -4.16569,0 -8.04007,-0.69544 -11.62109,-2.08399 -3.50796,-1.38857 -6.61236,-3.39831 -9.31641,-6.02929 -2.63098,-2.70403 -4.71528,-5.95557 -6.25,-9.75586 -1.53474,-3.80029 -2.30078,-8.11212 -2.30078,-12.93555 0,-4.53112 0.72976,-8.65952 2.19141,-12.38672 1.46164,-3.72719 3.50769,-6.94439 6.13867,-9.64844 2.63095,-2.70405 5.73731,-4.7864 9.31836,-6.24804 3.58102,-1.53474 7.52798,-2.30078 11.83984,-2.30078 3.06946,0 5.99239,0.43747 8.76953,1.31445 2.77712,0.80393 5.37149,1.93679 7.78321,3.39844 1.02316,0.51154 2.04716,0.73127 3.07031,0.6582 1.02317,-0.0731 1.86374,-0.58508 2.52148,-1.53516 0.87695,-1.09624 1.20554,-2.30171 0.98633,-3.61718 -0.14617,-1.31548 -0.84158,-2.3032 -2.08398,-2.96094 -2.99639,-1.90015 -6.32049,-3.3616 -9.97461,-4.38477 -3.58103,-1.02314 -7.27198,-1.53515 -11.07227,-1.53515 z m -105.97461,0.54882 c -0.68515,0.0548 -1.32871,0.27453 -1.93164,0.65821 -0.73083,0.4385 -1.27913,1.16826 -1.64453,2.1914 l -28.39258,69.06446 c -0.21924,0.58467 -0.29377,1.13296 -0.2207,1.64453 0,1.02317 0.33054,1.90005 0.98828,2.63086 0.65774,0.73083 1.67979,1.0957 3.06836,1.0957 0.80391,0 1.57191,-0.25601 2.30273,-0.76758 0.73083,-0.51159 1.24283,-1.20505 1.53516,-2.08203 l 7.33984,-17.86914 h 34.71094 l 7.38867,17.75781 c 0.36541,0.95008 0.9137,1.68177 1.64453,2.19336 0.73084,0.51157 1.53514,0.76758 2.41211,0.76758 1.09624,0 2.08201,-0.36487 2.95899,-1.0957 0.877,-0.80391 1.3164,-1.86421 1.3164,-3.17969 0,-0.58467 -0.11086,-1.16926 -0.33007,-1.75391 l -28.28321,-68.40625 c -0.29231,-0.87697 -0.84062,-1.57043 -1.64453,-2.08203 -0.73083,-0.51157 -1.56946,-0.76757 -2.51953,-0.76758 -0.23752,-0.0183 -0.47084,-0.0183 -0.69922,0 z m 223.07422,0.21876 c -1.24238,-10e-6 -2.41157,0.54829 -3.50781,1.64453 l -41.21875,39.53711 v -36.57618 c 0,-1.31547 -0.40117,-2.37578 -1.20508,-3.17968 -0.80391,-0.87701 -1.90049,-1.31641 -3.28906,-1.31641 -1.31548,0 -2.41206,0.4394 -3.28907,1.31641 -0.87696,0.8039 -1.31445,1.86421 -1.31445,3.17968 v 54.39454 c 0.64865,0.005 1.29821,0.009 1.96485,-0.0117 2.45046,-0.0766 4.82411,-0.31839 7.13281,-0.69922 v -6.16406 l 13.48242,-12.75 8.36719,10.6621 c 2.7051,-1.57291 5.35315,-3.28673 7.95898,-5.11132 l -9.42773,-12.07422 27.08593,-25.61524 c 0.87698,-0.87697 1.31641,-1.82839 1.31641,-2.85156 0,-1.02314 -0.40117,-2.00891 -1.20508,-2.95898 -0.73081,-0.95008 -1.68222,-1.42579 -2.85156,-1.42578 z m 50.93164,0 c -1.31548,0 -2.41206,0.4757 -3.28906,1.42578 -0.80391,0.87697 -1.20703,1.90097 -1.20703,3.07031 v 3.52148 c 1.58361,-0.27155 3.19503,-0.49124 4.84375,-0.63672 0.96274,-0.085 1.9129,-0.1259 2.85156,-0.1289 1.5075,-0.004 2.97965,0.11111 4.42969,0.29687 l -3.6836,-5.57422 c -0.4385,-0.58464 -1.05937,-1.06035 -1.86328,-1.42578 -0.73083,-0.3654 -1.42429,-0.54882 -2.08203,-0.54882 z m 62.26563,0 c -1.53472,-0.0731 -2.77845,0.58606 -3.72852,1.9746 L 714.125,476.42969 c 2.36402,1.34196 4.72661,2.54619 7.10352,3.5332 l 7.10742,-10.81055 v 12.9961 c 0.12282,0.0232 0.24418,0.0585 0.36718,0.0801 2.86772,0.50247 5.79307,0.5729 8.8418,0.0586 V 456.1055 c 0,-1.31548 -0.43943,-2.37578 -1.3164,-3.17969 -0.87701,-0.80393 -1.89905,-1.24334 -3.06836,-1.3164 z m -462.5586,0.10937 c -1.31548,0 -2.41207,0.4394 -3.28906,1.31641 -0.87699,0.8039 -1.31445,1.86421 -1.31445,3.17968 v 67.7461 c 0,1.2424 0.40118,2.30272 1.20507,3.17968 0.80391,0.87701 1.9005,1.31641 3.28907,1.31641 1.2424,0 2.3027,-0.4394 3.17969,-1.31641 0.95006,-0.87696 1.42382,-1.93728 1.42382,-3.17968 v -30.25586 h 41.43946 v 30.25586 c 0,1.2424 0.43746,2.30272 1.31445,3.17968 0.87699,0.87701 1.93729,1.31641 3.17969,1.31641 1.31548,0 2.41207,-0.4394 3.28906,-1.31641 0.87699,-0.87696 1.31445,-1.93728 1.31445,-3.17968 v -67.7461 c 0,-1.31547 -0.43746,-2.37578 -1.31445,-3.17968 -0.80391,-0.87701 -1.8642,-1.31641 -3.17969,-1.31641 -1.2424,0 -2.33899,0.4394 -3.28906,1.31641 -0.87699,0.8039 -1.31445,1.86421 -1.31445,3.17968 V 485.1543 H 275.0957 v -28.93946 c 0,-1.31547 -0.43746,-2.37578 -1.31445,-3.17968 -0.87699,-0.87701 -1.93729,-1.31641 -3.17969,-1.31641 z m 517.57617,0 c -1.3155,0 -2.41013,0.4394 -3.28711,1.31641 -0.87699,0.8039 -1.3164,1.86421 -1.3164,3.17968 v 9.41211 c 1.6469,0.23834 3.13776,0.64727 4.53125,1.15235 1.61619,0.58579 3.08892,1.27349 4.56836,1.95117 v -12.51563 c 0,-1.31547 -0.43943,-2.37578 -1.31641,-3.17968 -0.877,-0.87701 -1.9373,-1.31641 -3.17969,-1.31641 z m 49.05079,0 c -1.24241,0 -2.30269,0.4031 -3.17969,1.20703 -0.80391,0.73081 -1.20508,1.71658 -1.20508,2.95899 0,1.2424 0.40117,2.2664 1.20508,3.07031 0.877,0.73081 1.93728,1.0957 3.17969,1.0957 h 5.60546 c 1.5439,-2.90258 3.21664,-5.69198 5.06055,-8.33203 z m 14.07617,0 c -1.93847,2.60494 -3.69777,5.39514 -5.32031,8.33203 h 9.38867 c 1.72492,-2.6485 3.48224,-4.97628 5.28125,-6.85351 0.49153,-0.51291 1.00065,-1.00118 1.51758,-1.47852 z m 15.18945,0 c -1.36444,1.02555 -2.65511,2.14632 -3.8457,3.38867 -1.5277,1.59412 -3.06004,3.60866 -4.5918,5.93555 v 62.91797 c 0,1.2424 0.43943,2.30272 1.31641,3.17968 0.877,0.87701 1.97163,1.31641 3.28711,1.31641 1.38857,0 2.52146,-0.4394 3.39843,-1.31641 0.87701,-0.87696 1.31641,-1.93728 1.31641,-3.17968 v -63.91016 h 20.82812 c 1.24241,0 2.30269,-0.36489 3.17969,-1.0957 0.87698,-0.73084 1.31446,-1.75484 1.31446,-3.07031 0,-1.24241 -0.43748,-2.22818 -1.31446,-2.95899 -0.877,-0.80393 -1.93728,-1.20703 -3.17969,-1.20703 z m -192.38672,9.90039 c -0.8646,10e-4 -1.73769,0.0392 -2.62109,0.11719 -1.73345,0.15295 -3.42636,0.38774 -5.08789,0.6875 v 5.48047 c 1.25257,-0.17742 2.50496,-0.31959 3.75195,-0.39453 0.81665,-0.049 1.6319,-0.077 2.44336,-0.082 4.33347,-0.0292 8.57204,0.57429 12.56055,1.76368 l -4.54297,-6.87305 c -2.118,-0.43806 -4.27846,-0.70208 -6.50391,-0.69922 z m -276.92773,4.36133 13.90625,33.42578 h -27.63867 z m 386.39453,2.42578 V 473.75 c 2.2177,0.58738 4.3487,1.43581 6.41406,2.33789 0.90606,0.39575 1.79793,0.80031 2.68555,1.20117 v -5.55273 c -1.92655,-0.83767 -3.69511,-1.70306 -5.50586,-2.35938 -1.14321,-0.41436 -2.32004,-0.75096 -3.59375,-0.9707 z m -111.02344,1.80859 c -2.03452,0.0144 -4.09163,0.18649 -6.15234,0.49414 v 53.25196 c 0,1.2424 0.36682,2.30272 1.09765,3.17968 0.80391,0.87701 1.82596,1.31641 3.06836,1.31641 1.24241,0 2.26641,-0.4394 3.07032,-1.31641 0.8039,-0.87696 1.20507,-1.93728 1.20507,-3.17968 v -53.69922 c -0.75894,-0.0356 -1.52254,-0.0523 -2.28906,-0.0469 z m 3.4668,0.13282 22.0625,33.99218 c 0.43847,0.51158 0.98677,0.94903 1.64453,1.31446 0.65774,0.3654 1.31492,0.54883 1.97266,0.54882 0.65773,0 1.27861,-0.18342 1.86328,-0.54882 0.65774,-0.36543 1.20605,-0.80288 1.64453,-1.31446 l 7.48242,-11.38281 c -2.28726,-1.21624 -4.49158,-2.72827 -6.57617,-4.56641 l -4.16211,6.2129 -14.26953,-21.58985 c -3.63217,-1.47036 -7.57697,-2.35874 -11.66211,-2.66601 z m 107.55664,6.27539 v 47.33789 c 0,1.2424 0.40312,2.30272 1.20703,3.17968 0.80391,0.87701 1.89854,1.31641 3.28711,1.31641 1.24241,0 2.30271,-0.4394 3.17969,-1.31641 0.95007,-0.87696 1.42578,-1.93728 1.42578,-3.17968 v -43.65235 c -1.26987,-0.57207 -2.53152,-1.14971 -3.78516,-1.69726 -1.78013,-0.77751 -3.54315,-1.46976 -5.31445,-1.98828 z m -70.98828,2.10351 -4.92969,7.35938 c 2.06869,1.87534 4.2579,3.39227 6.53516,4.58398 l 5.49609,-8.36133 c -2.40899,-1.02936 -4.76978,-2.24921 -7.10156,-3.58203 z m 15.75,6.23438 v 9.32617 c 1.7336,0.0599 3.46957,0.0147 5.19531,-0.15039 1.34827,-0.12899 2.68905,-0.32456 4.01367,-0.58008 v -8.49414 c -3.17259,0.48418 -6.24018,0.40809 -9.20898,-0.10156 z m 9.20898,11.39648 c -1.24014,0.22232 -2.49224,0.4045 -3.75586,0.52539 -1.8023,0.17243 -3.62593,0.21695 -5.45312,0.15235 v 26.92578 c 0,1.2424 0.43943,2.30272 1.3164,3.17968 0.87701,0.87701 1.97359,1.31641 3.28907,1.31641 1.31547,0 2.4101,-0.4394 3.28711,-1.31641 0.87697,-0.87696 1.3164,-1.93728 1.3164,-3.17968 z m -130.79687,2.35742 c -2.58922,1.81705 -5.2308,3.53776 -7.93946,5.12696 l 4.23829,5.40234 c 2.95037,-1.26073 5.85101,-2.65881 8.66015,-4.17969 z m 6.70117,8.58008 c -2.80109,1.53066 -5.69195,2.93598 -8.62891,4.20899 l 12.1836,15.52734 c 0.877,1.09624 1.97358,1.64453 3.28906,1.64453 1.16931,0 2.26394,-0.40312 3.28711,-1.20703 1.09621,-0.80391 1.64453,-1.93484 1.64453,-3.39648 0,-1.02317 -0.32859,-2.01087 -0.98633,-2.96094 z m -38.21289,5.39063 c -2.2826,0.35745 -4.62555,0.59041 -7.04492,0.66601 -0.69662,0.0218 -1.37451,0.0169 -2.05274,0.0117 v 4.03125 c 0.75174,0.0188 1.51743,0.0251 2.30469,0.01 2.14844,-0.0417 4.43132,-0.22068 6.79297,-0.50391 z m 0,6.99609 c -2.3258,0.269 -4.58573,0.44062 -6.73438,0.48242 -0.80338,0.0156 -1.58904,0.0103 -2.36328,-0.006 v 3.80274 c 0,1.2424 0.40117,2.30272 1.20508,3.17968 0.80391,0.87701 1.90051,1.31641 3.28906,1.31641 1.38858,0 2.48516,-0.4394 3.28907,-1.31641 0.87699,-0.87696 1.31445,-1.93728 1.31445,-3.17968 z m -117.17969,57.45117 c -4.01955,0 -7.92825,0.98577 -11.72852,2.95899 -3.80027,1.97321 -6.83405,4.78728 -9.0996,8.4414 -0.65777,0.80391 -1.24234,1.5719 -1.75391,2.30274 -0.4385,0.73083 -0.6582,1.49687 -0.6582,2.30078 0,1.02314 0.47571,1.93828 1.42578,2.74219 0.95007,0.73083 1.93581,1.0957 2.95898,1.0957 0.65774,0 1.28057,-0.14712 1.86524,-0.43945 0.65773,-0.36543 1.24233,-0.95 1.7539,-1.75391 1.53472,-3.21562 3.61707,-5.59029 6.24805,-7.125 2.70405,-1.53474 5.51812,-2.30273 8.44141,-2.30273 3.06945,0 5.73637,0.62282 8.00195,1.86523 2.26555,1.16931 4.01931,2.84854 5.26172,5.04102 1.31547,2.19247 1.97265,4.78684 1.97265,7.7832 0,3.14255 -0.94946,6.39602 -2.84961,9.75781 -1.8683,3.23361 -4.55938,6.71715 -8.05273,10.44531 2.80301,1.48652 5.65543,2.6652 8.5293,3.59766 2.0636,-2.3826 3.84824,-4.68936 5.33398,-6.91797 2.04631,-3.06945 3.54407,-6.0287 4.49414,-8.8789 1.02315,-2.92329 1.53516,-5.77364 1.53516,-8.55079 0,-4.31186 -0.95142,-8.14994 -2.85156,-11.51171 -1.82705,-3.43486 -4.53031,-6.10181 -8.11133,-8.00196 -3.50796,-1.90014 -7.7472,-2.84961 -12.7168,-2.84961 z m 90.14453,0 c -6.06584,0 -11.1437,1.71749 -15.23633,5.15235 -4.01952,3.43488 -7.0896,8.11157 -9.20898,14.03125 -2.04631,5.91967 -3.07031,12.68067 -3.07031,20.28125 0,0.38615 0.014,0.7623 0.0195,1.14453 1.61154,-0.92825 3.13694,-1.89458 4.53906,-2.89649 1.73134,-1.23715 3.42229,-2.59024 5.08789,-4.01367 0.30112,-3.94507 0.91723,-7.47489 1.86524,-10.56836 1.46164,-4.60417 3.50769,-8.11169 6.13867,-10.52344 2.70402,-2.48478 5.99185,-3.72851 9.86523,-3.72851 2.46835,0 4.68229,0.51006 6.64649,1.51953 2.60995,-2.15135 5.28253,-4.05355 8.0625,-5.57227 -3.95062,-3.2068 -8.84798,-4.82617 -14.70899,-4.82617 z m 90.46485,0 c -4.01953,0 -7.92823,0.98577 -11.72852,2.95899 -3.80029,1.97321 -6.83406,4.78728 -9.09961,8.4414 -0.65774,0.80391 -1.24231,1.5719 -1.75391,2.30274 -0.43847,0.73083 -0.6582,1.49687 -0.6582,2.30078 0,1.02314 0.47571,1.93828 1.42578,2.74219 0.95007,0.73083 1.9378,1.0957 2.96094,1.0957 0.65774,0 1.27861,-0.14712 1.86328,-0.43945 0.65774,-0.36543 1.24234,-0.95 1.75391,-1.75391 1.53474,-3.21562 3.61709,-5.59029 6.24804,-7.125 2.70405,-1.53474 5.51812,-2.30273 8.44141,-2.30273 3.06948,0 5.7364,0.62282 8.00195,1.86523 2.26555,1.16931 4.01932,2.84854 5.26172,5.04102 1.31548,2.19247 1.97266,4.78684 1.97266,7.7832 0,3.14255 -0.94947,6.39602 -2.84961,9.75781 -1.90015,3.28872 -4.63968,6.83252 -8.2207,10.63281 l -24.77539,27.07813 c -0.87698,0.95007 -1.31641,2.00842 -1.31641,3.17773 0,1.31548 0.40313,2.37579 1.20703,3.17969 0.87698,0.73084 1.97356,1.0957 3.28906,1.0957 h 39.79297 c 1.16931,0 2.15508,-0.36486 2.95899,-1.0957 0.8039,-0.8039 1.20703,-1.78967 1.20703,-2.95898 0,-1.16931 -0.40313,-2.15701 -1.20703,-2.96094 -0.80391,-0.80391 -1.78968,-1.20508 -2.95899,-1.20508 h -30.14453 l 18.19531,-20.17187 c 3.14255,-3.36179 5.73692,-6.57703 7.78321,-9.64649 2.04631,-3.06945 3.54406,-6.0287 4.49414,-8.8789 1.02317,-2.92329 1.53515,-5.77364 1.53515,-8.55079 0,-4.31186 -0.94946,-8.14994 -2.84961,-11.51171 -1.82707,-3.43486 -4.53225,-6.10181 -8.11328,-8.00196 -3.50795,-1.90014 -7.74719,-2.84961 -12.71679,-2.84961 z m 80.21093,1.09571 c -0.9044,0.0548 -1.68601,0.27452 -2.34375,0.6582 l -17.86718,10.63281 c -1.53472,0.95007 -2.30274,2.23006 -2.30274,3.83789 0,1.02315 0.43748,2.04522 1.31445,3.06836 0.87701,0.95007 1.93731,1.42578 3.17969,1.42578 0.80391,0 1.5356,-0.18342 2.19336,-0.54883 l 11.40039,-6.88085 v 60.04882 c 0,1.24241 0.43746,2.30271 1.31445,3.17969 0.87698,0.877 2.00987,1.31445 3.39844,1.31445 1.38858,0 2.52146,-0.43745 3.39844,-1.31445 0.877,-0.87698 1.31641,-1.93728 1.31641,-3.17969 v -67.85742 c 0,-1.24241 -0.36487,-2.26445 -1.09571,-3.06836 -0.73083,-0.877 -1.71855,-1.3164 -2.96093,-1.3164 -0.32888,-0.0183 -0.64385,-0.0183 -0.94532,0 z m -153.7832,5.69336 c -2.65516,1.35587 -5.25615,3.1378 -7.83789,5.21289 0.23718,0.19657 0.47528,0.39028 0.70312,0.60546 1.19068,1.06197 2.24608,2.34898 3.18164,3.83594 2.42788,-1.73186 4.92712,-3.23753 7.50782,-4.375 0.14894,-0.0657 0.30164,-0.11452 0.45117,-0.17773 -1.17677,-1.8928 -2.5095,-3.59685 -4.00586,-5.10156 z m 5.37109,7.52148 c -0.23621,0.0971 -0.47292,0.1772 -0.70898,0.28125 -2.45829,1.0835 -4.88998,2.56451 -7.28125,4.29492 0.6123,1.29565 1.15816,2.70269 1.62305,4.24414 1.38857,4.53113 2.08203,9.97581 2.08203,16.33399 0,6.28507 -0.69346,11.72979 -2.08203,16.33398 -1.38858,4.5311 -3.43463,8.03863 -6.13868,10.52344 -2.63095,2.48479 -5.88445,3.72656 -9.75781,3.72656 -3.87338,0 -7.16121,-1.24177 -9.86523,-3.72656 -2.63098,-2.48481 -4.67703,-5.99234 -6.13867,-10.52344 -0.50591,-1.67745 -0.91651,-3.47051 -1.23829,-5.37109 -0.96058,0.76418 -1.90306,1.41511 -2.82812,1.91601 -1.93162,1.04591 -3.80872,2.01102 -5.65039,2.91992 0.36923,1.49691 0.79207,2.95566 1.27539,4.3711 2.11938,5.99274 5.18946,10.70769 9.20898,14.14258 4.09263,3.43486 9.17049,5.15234 15.23633,5.15234 6.06584,0 11.10938,-1.71748 15.12891,-5.15234 4.09262,-3.43489 7.1627,-8.14984 9.20898,-14.14258 2.04631,-5.99277 3.06836,-12.71554 3.06836,-20.16992 0,-7.60058 -1.02205,-14.36158 -3.06836,-20.28125 -0.59991,-1.73549 -1.29834,-3.35121 -2.07422,-4.87305 z m -40.32226,23.13281 c -1.08278,0.86985 -2.17839,1.71444 -3.29688,2.51367 -1.84435,1.31792 -3.86773,2.57949 -6.03125,3.76368 0.16938,3.05082 0.51283,5.97557 1.05274,8.76171 1.61397,-0.80687 3.25476,-1.65086 4.94922,-2.56835 1.08693,-0.58855 2.33247,-1.54518 3.69531,-2.76368 -0.26084,-2.40732 -0.39844,-4.96279 -0.39844,-7.68554 0,-0.68607 0.0131,-1.35669 0.0293,-2.02149 z m -70.19336,7.74219 -3.96094,4.32812 c 2.69918,1.66954 5.30297,3.1637 7.82813,4.47852 l 4.10742,-4.55273 c 0.15803,-0.16907 0.29786,-0.33364 0.45312,-0.50196 -2.84097,-0.99561 -5.65914,-2.23859 -8.42773,-3.75195 z m -5.85938,6.40625 -17.18945,18.78711 c -0.87698,0.95007 -1.31641,2.00842 -1.31641,3.17773 0,1.31548 0.40313,2.37579 1.20704,3.17969 0.87697,0.73084 1.97164,1.0957 3.2871,1.0957 h 39.79493 c 1.16931,0 2.15508,-0.36486 2.95898,-1.0957 0.80391,-0.8039 1.20508,-1.78967 1.20508,-2.95898 0,-1.16931 -0.40117,-2.15701 -1.20508,-2.96094 -0.8039,-0.80391 -1.78967,-1.20508 -2.95898,-1.20508 h -30.14649 l 12.17188,-13.49219 c -2.52992,-1.33976 -5.12918,-2.85608 -7.8086,-4.52734 z"
       transform="scale(0.26458333)"
       id="path6610"
       inkscape:connector-curvature="0" />
  </g>
</svg>
