<svg xmlns="http://www.w3.org/2000/svg" xmlns:xlink="http://www.w3.org/1999/xlink" viewBox="0 0 171.24 161.3"><defs><style>.cls-1,.cls-2{fill:none;}.cls-2{stroke:#63594c;stroke-width:1.44px;}.cls-3{fill:#83aa8d;}.cls-4{fill:#b2b2b2;}.cls-5{fill:#c9c9c9;}.cls-6{fill:#645a4d;}.cls-7{clip-path:url(#clip-path);}.cls-8{fill:#9b9083;}.cls-9{fill:#c1b6aa;}.cls-10{fill:#8c8577;}.cls-11{fill:#fcc57b;}.cls-12{fill:#eaa253;}.cls-13{fill:url(#New_Pattern_13);}.cls-14{fill:url(#New_Pattern_13-3);}.cls-15{fill:url(#New_Pattern_13-5);}.cls-16{fill:url(#New_Pattern_13-7);}.cls-17{fill:#fceddb;}</style><clipPath id="clip-path"><path class="cls-1" d="M135.72,80.7s-8.41,9.11-15.42,9.82c-14.75,1.47-12.58-8-31.52-3.78,5-9.66,14.09-17.61,17.15-25,3.51-8.41,2.11-14.72-4.55-30.49H92.81c7.49,21.42,5.15,23.12,3,27.33-2,3.78-8,9.69-14.09,16.32C77.33,73.69,72,70.07,72,70.07l-.19,1.18a43.45,43.45,0,0,0,8.56,5.18C74,83.54,68.16,91.69,68.54,100.11a27.31,27.31,0,0,0,.45,3.83l-.27-1.09c-13.39-3-11.83,3.65-22.18,2.61-4.9-.49-13.85-10.39-13.85-10.39v2.8s9,9.55,13.85,10c10.33,1,9.56-5,22.88-2,1.8,7.27,5.54,12.71,3.92,17.89-2.58,8.26-10.86,10.51-10.86,10.51h.17l42-.13s-18.76-18.51-19.25-34a24.91,24.91,0,0,1,1.39-8.82C105.93,87,105.5,95.5,120.3,94c7-.7,19.63-11.21,19.63-11.21Zm-47.9,8-1,2.64C87.09,90.48,87.44,89.59,87.82,88.73Z"/></clipPath><pattern id="New_Pattern_13" data-name="New Pattern 13" width="72" height="72" patternTransform="matrix(0.42, -0.32, 0.42, 0.32, -266.43, 7.75)" patternUnits="userSpaceOnUse" viewBox="0 0 72 72"><rect class="cls-1" width="72" height="72"/><line class="cls-2" x1="71.75" y1="68.4" x2="144.25" y2="68.4"/><line class="cls-2" x1="71.75" y1="54" x2="144.25" y2="54"/><line class="cls-2" x1="71.75" y1="39.6" x2="144.25" y2="39.6"/><line class="cls-2" x1="71.75" y1="25.2" x2="144.25" y2="25.2"/><line class="cls-2" x1="71.75" y1="10.8" x2="144.25" y2="10.8"/><line class="cls-2" x1="71.75" y1="61.2" x2="144.25" y2="61.2"/><line class="cls-2" x1="71.75" y1="46.8" x2="144.25" y2="46.8"/><line class="cls-2" x1="71.75" y1="32.4" x2="144.25" y2="32.4"/><line class="cls-2" x1="71.75" y1="18" x2="144.25" y2="18"/><line class="cls-2" x1="71.75" y1="3.6" x2="144.25" y2="3.6"/><line class="cls-2" x1="-0.25" y1="68.4" x2="72.25" y2="68.4"/><line class="cls-2" x1="-0.25" y1="54" x2="72.25" y2="54"/><line class="cls-2" x1="-0.25" y1="39.6" x2="72.25" y2="39.6"/><line class="cls-2" x1="-0.25" y1="25.2" x2="72.25" y2="25.2"/><line class="cls-2" x1="-0.25" y1="10.8" x2="72.25" y2="10.8"/><line class="cls-2" x1="-0.25" y1="61.2" x2="72.25" y2="61.2"/><line class="cls-2" x1="-0.25" y1="46.8" x2="72.25" y2="46.8"/><line class="cls-2" x1="-0.25" y1="32.4" x2="72.25" y2="32.4"/><line class="cls-2" x1="-0.25" y1="18" x2="72.25" y2="18"/><line class="cls-2" x1="-0.25" y1="3.6" x2="72.25" y2="3.6"/><line class="cls-2" x1="-72.25" y1="68.4" x2="0.25" y2="68.4"/><line class="cls-2" x1="-72.25" y1="54" x2="0.25" y2="54"/><line class="cls-2" x1="-72.25" y1="39.6" x2="0.25" y2="39.6"/><line class="cls-2" x1="-72.25" y1="25.2" x2="0.25" y2="25.2"/><line class="cls-2" x1="-72.25" y1="10.8" x2="0.25" y2="10.8"/><line class="cls-2" x1="-72.25" y1="61.2" x2="0.25" y2="61.2"/><line class="cls-2" x1="-72.25" y1="46.8" x2="0.25" y2="46.8"/><line class="cls-2" x1="-72.25" y1="32.4" x2="0.25" y2="32.4"/><line class="cls-2" x1="-72.25" y1="18" x2="0.25" y2="18"/><line class="cls-2" x1="-72.25" y1="3.6" x2="0.25" y2="3.6"/></pattern><pattern id="New_Pattern_13-3" data-name="New Pattern 13" width="72" height="72" patternTransform="matrix(0.17, -0.15, 0.17, 0.15, -89.59, -6.91)" patternUnits="userSpaceOnUse" viewBox="0 0 72 72"><rect class="cls-1" width="72" height="72"/><line class="cls-2" x1="71.75" y1="68.4" x2="144.25" y2="68.4"/><line class="cls-2" x1="71.75" y1="54" x2="144.25" y2="54"/><line class="cls-2" x1="71.75" y1="39.6" x2="144.25" y2="39.6"/><line class="cls-2" x1="71.75" y1="25.2" x2="144.25" y2="25.2"/><line class="cls-2" x1="71.75" y1="10.8" x2="144.25" y2="10.8"/><line class="cls-2" x1="71.75" y1="61.2" x2="144.25" y2="61.2"/><line class="cls-2" x1="71.75" y1="46.8" x2="144.25" y2="46.8"/><line class="cls-2" x1="71.75" y1="32.4" x2="144.25" y2="32.4"/><line class="cls-2" x1="71.75" y1="18" x2="144.25" y2="18"/><line class="cls-2" x1="71.75" y1="3.6" x2="144.25" y2="3.6"/><line class="cls-2" x1="-0.25" y1="68.4" x2="72.25" y2="68.4"/><line class="cls-2" x1="-0.25" y1="54" x2="72.25" y2="54"/><line class="cls-2" x1="-0.25" y1="39.6" x2="72.25" y2="39.6"/><line class="cls-2" x1="-0.25" y1="25.2" x2="72.25" y2="25.2"/><line class="cls-2" x1="-0.25" y1="10.8" x2="72.25" y2="10.8"/><line class="cls-2" x1="-0.25" y1="61.2" x2="72.25" y2="61.2"/><line class="cls-2" x1="-0.25" y1="46.8" x2="72.25" y2="46.8"/><line class="cls-2" x1="-0.25" y1="32.4" x2="72.25" y2="32.4"/><line class="cls-2" x1="-0.25" y1="18" x2="72.25" y2="18"/><line class="cls-2" x1="-0.25" y1="3.6" x2="72.25" y2="3.6"/><line class="cls-2" x1="-72.25" y1="68.4" x2="0.25" y2="68.4"/><line class="cls-2" x1="-72.25" y1="54" x2="0.25" y2="54"/><line class="cls-2" x1="-72.25" y1="39.6" x2="0.25" y2="39.6"/><line class="cls-2" x1="-72.25" y1="25.2" x2="0.25" y2="25.2"/><line class="cls-2" x1="-72.25" y1="10.8" x2="0.25" y2="10.8"/><line class="cls-2" x1="-72.25" y1="61.2" x2="0.25" y2="61.2"/><line class="cls-2" x1="-72.25" y1="46.8" x2="0.25" y2="46.8"/><line class="cls-2" x1="-72.25" y1="32.4" x2="0.25" y2="32.4"/><line class="cls-2" x1="-72.25" y1="18" x2="0.25" y2="18"/><line class="cls-2" x1="-72.25" y1="3.6" x2="0.25" y2="3.6"/></pattern><pattern id="New_Pattern_13-5" data-name="New Pattern 13" width="72" height="72" patternTransform="translate(-54.48 36.12) rotate(-45) scale(0.35)" patternUnits="userSpaceOnUse" viewBox="0 0 72 72"><rect class="cls-1" width="72" height="72"/><line class="cls-2" x1="71.75" y1="68.4" x2="144.25" y2="68.4"/><line class="cls-2" x1="71.75" y1="54" x2="144.25" y2="54"/><line class="cls-2" x1="71.75" y1="39.6" x2="144.25" y2="39.6"/><line class="cls-2" x1="71.75" y1="25.2" x2="144.25" y2="25.2"/><line class="cls-2" x1="71.75" y1="10.8" x2="144.25" y2="10.8"/><line class="cls-2" x1="71.75" y1="61.2" x2="144.25" y2="61.2"/><line class="cls-2" x1="71.75" y1="46.8" x2="144.25" y2="46.8"/><line class="cls-2" x1="71.75" y1="32.4" x2="144.25" y2="32.4"/><line class="cls-2" x1="71.75" y1="18" x2="144.25" y2="18"/><line class="cls-2" x1="71.75" y1="3.6" x2="144.25" y2="3.6"/><line class="cls-2" x1="-0.25" y1="68.4" x2="72.25" y2="68.4"/><line class="cls-2" x1="-0.25" y1="54" x2="72.25" y2="54"/><line class="cls-2" x1="-0.25" y1="39.6" x2="72.25" y2="39.6"/><line class="cls-2" x1="-0.25" y1="25.2" x2="72.25" y2="25.2"/><line class="cls-2" x1="-0.25" y1="10.8" x2="72.25" y2="10.8"/><line class="cls-2" x1="-0.25" y1="61.2" x2="72.25" y2="61.2"/><line class="cls-2" x1="-0.25" y1="46.8" x2="72.25" y2="46.8"/><line class="cls-2" x1="-0.25" y1="32.4" x2="72.25" y2="32.4"/><line class="cls-2" x1="-0.25" y1="18" x2="72.25" y2="18"/><line class="cls-2" x1="-0.25" y1="3.6" x2="72.25" y2="3.6"/><line class="cls-2" x1="-72.25" y1="68.4" x2="0.25" y2="68.4"/><line class="cls-2" x1="-72.25" y1="54" x2="0.25" y2="54"/><line class="cls-2" x1="-72.25" y1="39.6" x2="0.25" y2="39.6"/><line class="cls-2" x1="-72.25" y1="25.2" x2="0.25" y2="25.2"/><line class="cls-2" x1="-72.25" y1="10.8" x2="0.25" y2="10.8"/><line class="cls-2" x1="-72.25" y1="61.2" x2="0.25" y2="61.2"/><line class="cls-2" x1="-72.25" y1="46.8" x2="0.25" y2="46.8"/><line class="cls-2" x1="-72.25" y1="32.4" x2="0.25" y2="32.4"/><line class="cls-2" x1="-72.25" y1="18" x2="0.25" y2="18"/><line class="cls-2" x1="-72.25" y1="3.6" x2="0.25" y2="3.6"/></pattern><pattern id="New_Pattern_13-7" data-name="New Pattern 13" width="72" height="72" patternTransform="matrix(0.29, -0.25, 0.29, 0.25, -145.04, -56.26)" patternUnits="userSpaceOnUse" viewBox="0 0 72 72"><rect class="cls-1" width="72" height="72"/><line class="cls-2" x1="71.75" y1="68.4" x2="144.25" y2="68.4"/><line class="cls-2" x1="71.75" y1="54" x2="144.25" y2="54"/><line class="cls-2" x1="71.75" y1="39.6" x2="144.25" y2="39.6"/><line class="cls-2" x1="71.75" y1="25.2" x2="144.25" y2="25.2"/><line class="cls-2" x1="71.75" y1="10.8" x2="144.25" y2="10.8"/><line class="cls-2" x1="71.75" y1="61.2" x2="144.25" y2="61.2"/><line class="cls-2" x1="71.75" y1="46.8" x2="144.25" y2="46.8"/><line class="cls-2" x1="71.75" y1="32.4" x2="144.25" y2="32.4"/><line class="cls-2" x1="71.75" y1="18" x2="144.25" y2="18"/><line class="cls-2" x1="71.75" y1="3.6" x2="144.25" y2="3.6"/><line class="cls-2" x1="-0.25" y1="68.4" x2="72.25" y2="68.4"/><line class="cls-2" x1="-0.25" y1="54" x2="72.25" y2="54"/><line class="cls-2" x1="-0.25" y1="39.6" x2="72.25" y2="39.6"/><line class="cls-2" x1="-0.25" y1="25.2" x2="72.25" y2="25.2"/><line class="cls-2" x1="-0.25" y1="10.8" x2="72.25" y2="10.8"/><line class="cls-2" x1="-0.25" y1="61.2" x2="72.25" y2="61.2"/><line class="cls-2" x1="-0.25" y1="46.8" x2="72.25" y2="46.8"/><line class="cls-2" x1="-0.25" y1="32.4" x2="72.25" y2="32.4"/><line class="cls-2" x1="-0.25" y1="18" x2="72.25" y2="18"/><line class="cls-2" x1="-0.25" y1="3.6" x2="72.25" y2="3.6"/><line class="cls-2" x1="-72.25" y1="68.4" x2="0.25" y2="68.4"/><line class="cls-2" x1="-72.25" y1="54" x2="0.25" y2="54"/><line class="cls-2" x1="-72.25" y1="39.6" x2="0.25" y2="39.6"/><line class="cls-2" x1="-72.25" y1="25.2" x2="0.25" y2="25.2"/><line class="cls-2" x1="-72.25" y1="10.8" x2="0.25" y2="10.8"/><line class="cls-2" x1="-72.25" y1="61.2" x2="0.25" y2="61.2"/><line class="cls-2" x1="-72.25" y1="46.8" x2="0.25" y2="46.8"/><line class="cls-2" x1="-72.25" y1="32.4" x2="0.25" y2="32.4"/><line class="cls-2" x1="-72.25" y1="18" x2="0.25" y2="18"/><line class="cls-2" x1="-72.25" y1="3.6" x2="0.25" y2="3.6"/></pattern></defs><g id="Layer_2" data-name="Layer 2"><g id="regular"><g id="new_no_outline_rock" data-name="new no outline rock"><path class="cls-3" d="M51,120.55l-.6,6.52a14.12,14.12,0,0,0-2.75-5.5A66.81,66.81,0,0,0,50,130.24v0h0l0,0c.32,0,1.36.1,1.53-.13s-.09-.83,0-1.1A15.23,15.23,0,0,0,51,120.55Z"/><polygon class="cls-4" points="51.2 130.15 79.63 130.15 79.63 121.09 68.47 113.3 58.36 116.46 57.51 121.72 53.58 123.83 51.2 126.36 51.2 130.15"/><polygon class="cls-5" points="68.47 113.3 67.55 120.54 65.42 124.77 56.46 127.17 51.2 130.15 51.2 126.36 53.58 123.83 57.51 121.72 58.36 116.46 68.47 113.3"/><path class="cls-6" d="M150.22,81a1.08,1.08,0,0,0-1.44.38,19.77,19.77,0,0,1-15.26,8.27,18.07,18.07,0,0,1-3-.11,98.78,98.78,0,0,0,9.37-6.76l-4.21-2.11s-8.41,9.11-15.42,9.82c-14.75,1.47-12.58-8-31.52-3.78,4-7.69,10.55-14.29,14.61-20.37A15.53,15.53,0,0,0,109,64a20.18,20.18,0,0,0,4.73-4.3A12,12,0,0,0,116.08,55a32.06,32.06,0,0,0,.7-5.7,60.55,60.55,0,0,0-.06-6.6,1.06,1.06,0,0,0-2.11,0,55,55,0,0,1,.1,5.6,34.3,34.3,0,0,1-.49,5.34,12.58,12.58,0,0,1-.55,2.11c0,.07,0,.14-.07.21l0,0-.27.54a12.9,12.9,0,0,1-.73,1.18,17,17,0,0,1-4.07,4.05,16.66,16.66,0,0,1-3.5,1.94,20.09,20.09,0,0,0,.93-1.94c3.51-8.41,2.11-14.72-4.55-30.49H92.81c4.19,12,5.3,17.78,5.09,21.31a24.27,24.27,0,0,1-10.05-9.47A22.64,22.64,0,0,1,86,39.19a1.09,1.09,0,0,0-1.3-.74,1.07,1.07,0,0,0-.73,1.3A26.42,26.42,0,0,0,94.1,52.82a24.37,24.37,0,0,0,3.45,1.94,18.6,18.6,0,0,1-1.78,3.86c-2,3.78-8,9.69-14.09,16.32C77.33,73.69,72,70.07,72,70.07l-.19,1.18a43.45,43.45,0,0,0,8.56,5.18C74,83.54,68.16,91.69,68.54,100.11a27.31,27.31,0,0,0,.45,3.83l-.27-1.09c-13.39-3-11.83,3.65-22.18,2.61a11.49,11.49,0,0,1-4.81-2.22,10.14,10.14,0,0,0,4.66-4.31,1.05,1.05,0,0,0-1.82-1.06c-.13.25-.28.48-.43.72l-.25.35h0l-.12.15a10.12,10.12,0,0,1-1.18,1.18l-.16.13h0l-.33.23c-.23.16-.46.3-.71.44a3.66,3.66,0,0,1-.74.37c.24-.07,0,0,0,0l-.14.06-.45.16a.85.85,0,0,0-.22.09,70.75,70.75,0,0,1-7.09-6.7L32,97.15A78,78,0,0,0,40.71,105a19.26,19.26,0,0,1-13.47-4.39,18.26,18.26,0,0,1-3.17-3.41.94.94,0,1,0-1.62,1,21.12,21.12,0,0,0,15.44,8.71,20.07,20.07,0,0,0,5.19-.27h0a9.33,9.33,0,0,0,3.43,1.29c10.33,1,9.56-5,22.88-2,1.8,7.27,5.54,12.71,3.92,17.89-2.58,8.26-10.86,10.51-10.86,10.51h.17l42-.13s-18.76-18.51-19.25-34a24.91,24.91,0,0,1,1.39-8.82C105.93,87,105.5,95.5,120.3,94a21.66,21.66,0,0,0,7.51-2.83l.09,0a21.94,21.94,0,0,0,18.87-4.53,20.76,20.76,0,0,0,3.83-4.22A1.06,1.06,0,0,0,150.22,81ZM113.61,55.94c0-.07,0,0,0,0ZM86.78,91.37c.31-.89.66-1.78,1-2.64Z"/><path class="cls-3" d="M116.86,120.5,115,126.78a13.87,13.87,0,0,0-1.61-5.94,65.74,65.74,0,0,0,.7,9v0h0v0c.32,0,1.31.37,1.53.17s.07-.82.2-1.08A15.23,15.23,0,0,0,116.86,120.5Z"/><path class="cls-3" d="M120.32,121.8l-3,5.84a13.87,13.87,0,0,1,5.26-3.18,67,67,0,0,1-6.7,6l0,0v0h0c-.26-.18-1.2-.64-1.22-.93s.52-.65.6-.92A15.16,15.16,0,0,1,120.32,121.8Z"/><g class="cls-7"><path class="cls-8" d="M97,55.71a104.27,104.27,0,0,1-8.31,15.88A66,66,0,0,1,83.06,79c-1.87,2.14-4,4.08-5.9,6.14-3.68,3.9-6.77,8.35-6.61,13.94.19,6.42,3.67,12,5.32,18.11,1.55,5.74.93,13.86-5.65,16.19-.31.11-.18.62.14.5,4.33-1.53,6.6-6.06,6.83-10.44.35-6.36-3.15-12.13-5-18-1.06-3.45-1.65-7.14-.65-10.67a19.89,19.89,0,0,1,4.35-7.47c1.91-2.21,4-4.19,6-6.32a63,63,0,0,0,5.44-6.64A98,98,0,0,0,97.41,56c.13-.31-.32-.58-.45-.27Z"/><path class="cls-8" d="M97.83,49.67c3,5.74,1.22,12.43-2,17.68s-7.4,9.33-10.78,14.24a29.08,29.08,0,0,0-5.29,16.22c-.15,6,1,12,1,18.1s-1,12.58-5.21,17.3c-.23.25.14.62.37.37,8-8.92,4.76-21.82,4.37-32.56a36.17,36.17,0,0,1,.8-9.9,27.7,27.7,0,0,1,4.15-8.91c3.46-5.12,8-9.46,11.14-14.78s4.87-12.19,1.83-18c-.15-.3-.61,0-.45.27Z"/><path class="cls-8" d="M104.08,44.78c-2.84,4.07-1.32,9.09-1.72,13.67C101.93,63.4,98,67.7,99.2,72.83c.08.33.58.19.51-.14-1.15-4.89,2.58-9.07,3.13-13.76s-1.19-9.76,1.7-13.88c.19-.28-.27-.55-.46-.27Z"/><path class="cls-8" d="M106.92,48.38a15.21,15.21,0,0,0-1,14.95c.14.31.6,0,.45-.26a14.69,14.69,0,0,1,1-14.42c.19-.28-.26-.55-.45-.27Z"/><path class="cls-8" d="M93.3,79.41a28.19,28.19,0,0,0-10.48,18.1,27.42,27.42,0,0,0,.39,10.41c1,4.15,3.15,7.83,5,11.63,2.32,4.77,4.18,10.51,1.67,15.6-.15.3.3.56.45.26,4-8-2-16-5.08-23.07a27.58,27.58,0,0,1,.4-22.47,26.83,26.83,0,0,1,7.91-10c.27-.21,0-.66-.26-.46Z"/><path class="cls-8" d="M78.74,134.75a22.89,22.89,0,0,0,5.68-12.43,2.11,2.11,0,0,1,.24-.9c.61-.78.88,0,1,.35a10.49,10.49,0,0,1,.08,2.1l.07,4.28.14,8.71a.26.26,0,0,0,.52,0l-.16-10.14a43,43,0,0,0-.1-4.82c-.09-.65-.46-1.49-1.26-1.32s-1,1.25-1,1.94a21.3,21.3,0,0,1-1,4.3,21.78,21.78,0,0,1-4.5,7.56c-.23.25.14.62.37.37Z"/><path class="cls-8" d="M75.76,92a18.73,18.73,0,0,0-1,12.41c.17.61.38,1.47,1,1.73s1.07-.2,1.2-.76a15.61,15.61,0,0,0,.11-3.21l.07-3.75.07-4.11c0-.88.12-1.92-.63-2.55-.26-.21-.63.16-.37.38.79.66.48,2.23.46,3.13L76.67,99l-.06,3.62,0,1.67a3.57,3.57,0,0,1,0,1,.45.45,0,0,1-.86,0,8.49,8.49,0,0,1-.79-3A17.57,17.57,0,0,1,74.69,99a18.33,18.33,0,0,1,1.52-6.68c.14-.3-.31-.57-.45-.26Z"/><path class="cls-8" d="M97.11,46.28a3.41,3.41,0,0,1,2.85,2c.11.25.48.1.49-.13l.12-3.76c0-.34-.52-.34-.53,0l-.11,3.76.49-.14a4,4,0,0,0-3.31-2.31c-.33,0-.33.51,0,.53Z"/></g><path class="cls-9" d="M21.23,130.15H144.3c5.28.31,5.24,8.17,0,8.6l-1.93.16L134,158.33a5.63,5.63,0,0,1-5,3l-93.33-.13a5.6,5.6,0,0,1-4.89-2.86l-8-19.47-1.84-.1c-5.33-.27-5.49-8.26-.16-8.58Z"/><path class="cls-10" d="M22.88,138.84l119.46.08-.47,1.1c-18,1.25-37.28,1.95-57.81,1.79C62.24,141.64,41.78,140.53,22.88,138.84Z"/><polygon class="cls-4" points="115.56 130.15 91.38 130.15 95.56 123.78 103.41 118.3 110.52 120.52 111.13 124.22 113.89 125.7 115.56 127.48 115.56 130.15"/><polygon class="cls-5" points="106.4 119.23 105.56 124.22 98.37 125.56 91.38 130.15 94.32 123.83 103.41 118.3 106.4 119.23"/><path class="cls-3" d="M70.14,128a26.34,26.34,0,0,0,0-7.47,13.89,13.89,0,0,0-.87,7.75A8.42,8.42,0,0,0,62,124.72,11.27,11.27,0,0,1,69.48,130h0a.18.18,0,0,0,.18.13A.23.23,0,0,0,70,130a11.26,11.26,0,0,1,6.78-6.16A8.42,8.42,0,0,0,70.14,128Z"/><path class="cls-3" d="M91.66,128a25.62,25.62,0,0,0,0-7.47,13.88,13.88,0,0,0-.86,7.75,8.44,8.44,0,0,0-7.26-3.53A11.27,11.27,0,0,1,91,130h0a.17.17,0,0,0,.17.13c.15.05.31,0,.33-.15a11.29,11.29,0,0,1,6.78-6.16A8.43,8.43,0,0,0,91.66,128Z"/><path class="cls-3" d="M94.46,128a26.34,26.34,0,0,0,0-7.47,13.89,13.89,0,0,0-.87,7.75,8.42,8.42,0,0,0-7.25-3.53A11.27,11.27,0,0,1,93.8,130h0a.18.18,0,0,0,.18.13.23.23,0,0,0,.33-.15,11.26,11.26,0,0,1,6.78-6.16A8.42,8.42,0,0,0,94.46,128Z"/><path class="cls-11" d="M77.64,9.57c5.61-.34,4.76-6.95,11.91-8.42a23,23,0,0,1,15.79.52c5.12,2,4.85,7.46,11.19,10.21,7.35,3.18,9.33,1,13,3.8,4.41,3.34,2,6.78,7,10,3.27,2.09,5.07,1.09,7.88,3,4.63,3.17,6.22,10.3,2.53,13.21s-9.72-.56-23.5,1.46c-5.19.76-5.22,1.25-9.38,2.07-15.16,3-21.27-5.32-39.71-5.21-11.26.07-12.36,3.19-24.1,2.24C44.92,42,33.7,41.1,30.8,35.55c-1.71-3.26-.28-7.66,2.92-10.21,4-3.17,8.44-1.69,12.06-5.08A48.25,48.25,0,0,0,51.65,14c3.1-3.74,7.26-5.56,13.22-5.4C71.21,8.73,72,9.9,77.64,9.57Z"/><path class="cls-12" d="M59.28,17.58c-4,1.05-5,6.33-9.33,9.41-3.65,2.62-8.3,1-10.91,3.88a4.32,4.32,0,0,0-.6,5.38c2.13,2.85,8.91,2.64,15.47,2.39,15.38-.6,17.15-4.1,26.78-3,6.73.78,8.78,2.83,14.28,1.94s6.76-3.81,6.12-5.66c-1.24-3.59-9.94,3-25.06-6.12C70.44,22.43,65.07,16.07,59.28,17.58Z"/><path class="cls-13" d="M148.06,40.69a6.26,6.26,0,0,1-2.39,1.89c-2.17,1-4.17.53-8,.26a62.91,62.91,0,0,0-14.23.49l-3.91.71h0c-1.79.42-2.74.82-5.47,1.36-15.16,3-21.27-5.32-39.71-5.21-11.26.07-12.36,3.19-24.1,2.24-5-.4-16.62-1.23-19.49-6.88-1.52-3-.35-6.82,2.19-9.38A12.27,12.27,0,0,1,35.88,24a62.78,62.78,0,0,0,10.3,6.68c9.61,5,23.07,9.07,71.1,9.93C124.61,40.79,135.2,40.89,148.06,40.69Z"/><path class="cls-11" d="M138.6,84.82c-4.16.23-6.66,1.69-9.35.25-1.49-.79-1.42-1.62-3.52-2.77s-3.26-1-5.06-1.54c-3-.9-7-3.48-7.22-6.43-.18-3.2,4.33-6.26,8.09-7.26,4.22-1.12,6,.76,9-.87,3.25-1.77,2.56-4.76,5.35-5.54s4.45,2.07,8,1.3c2.39-.52,2.31-2,5-2.6a9.54,9.54,0,0,1,6.53,1.19c2.31,1.46,1.59,2.75,4,4.89,2.74,2.38,5.36,2,5.83,3.79.38,1.48-1.28,2.21-.84,3.48.74,2.09,5.7,1.31,6.66,3.25.86,1.75-2,4.76-4.16,6.4-7.11,5.45-17.26,4.35-18.7,4.17C143.2,85.93,142.83,84.58,138.6,84.82Z"/><path class="cls-12" d="M118.54,70.69c-1.39.82-1.23,4.68.83,6.51,2.33,2,5.81.4,9.51,3.11,1.53,1.12.89,1.37,2.2,2.2,3.44,2.19,6.59-.38,12.78,1.16a22.29,22.29,0,0,0,3.67.85c1.8.2,4.21.46,6.06-.87,1.39-1,2.56-2.94,1.9-3.85-.8-1.13-3.85,0-7.84.43a34.55,34.55,0,0,1-14.18-1.66C124.07,75.71,120.55,69.49,118.54,70.69Z"/><path class="cls-14" d="M138.6,84.82c-6.62.29-7.54,1-9.35.25s-1.28-1.59-3.74-2.89c-2-1.07-2.49-.56-5.12-1.52-1.11-.4-6-2.19-6.83-5.66a5,5,0,0,1-.11-.67A81.65,81.65,0,0,0,134.86,82a85,85,0,0,0,32.06.39,25,25,0,0,1-6.19,3.13,30.08,30.08,0,0,1-12.51,1,34.1,34.1,0,0,1-3.39-.65,26.18,26.18,0,0,0-3.53-1A12.26,12.26,0,0,0,138.6,84.82Z"/><path class="cls-11" d="M89.29,69.67c.68-1.81-.54-6-2.9-7.15-2-1-3.66-.18-9.26-.86a5.66,5.66,0,0,1-2.94-1.09A7.56,7.56,0,0,1,72.42,58c-2.08-3-8.54-4.31-12.2-1.19C59.28,57.66,58,60.1,56.9,61c-2.85,2.34-5.19,1.42-6.54,3.11a5,5,0,0,0,.17,5.74c1.63,1.87,4.1.47,9.31,1.66,4,.91,3.63,2,6.92,2.62s4.28-.25,11.88-1.67S88.68,71.29,89.29,69.67Z"/><path class="cls-12" d="M53.5,68.43c.82,1.32,2.94.36,6.08,1.1,4,.93,4.4,3.38,7,3.15,2.85-.25,5.32-3.53,4.77-4.69-.44-.93-2.51.17-6.23-.81-2.91-.76-3.06-1.81-5.89-2.28-1.2-.2-4.3-.71-5.47,1A2.5,2.5,0,0,0,53.5,68.43Z"/><path class="cls-15" d="M89.29,69.67a67.35,67.35,0,0,1-16.08,1.65C67,71.19,60.75,71,54.42,67.14a27,27,0,0,1-4.06-3,5,5,0,0,0-.8,2,5.06,5.06,0,0,0,1,3.7c1.62,2,4.42.55,9.31,1.66,4,.91,3.63,2,6.92,2.62a11,11,0,0,0,1.37.18c2.17.15,6.88-1.14,10.51-1.85,2.13-.41,3.19-.62,4.36-.74s2.59-.44,3.89-.64a3.1,3.1,0,0,0,1.42-.46A3.15,3.15,0,0,0,89.29,69.67Z"/><path class="cls-11" d="M9.16,94.42c-5.61-2.64-8.46-2.37-9-4.3-.68-2.33,3.09-5.27,3.39-5.49a16.07,16.07,0,0,1,5.4-2.39c2.14-.53,3.89-.52,5.46-1.87.59-.5.34-.53,1-1.13,3-2.63,4.33-2.34,4.75-2.34,2.29,0,3.26,1.13,4.59,1.58a3,3,0,0,0,3.27.15c2.1-1.15,5.55-3.1,9.87-1s4.69,4.66,9.87,6.41c4.88,1.65,4.29-2.45,9.43-.84,3.15,1,7.23,2.25,8,4.88,1.24,4-5.27,7.23-8.79,9A23.94,23.94,0,0,1,46.18,99.5c-8,.16-9.29-2.14-16.94-2.15-6.49,0-8.25,2.64-13.2,1C13.31,97.41,13.66,96.54,9.16,94.42Z"/><path class="cls-12" d="M9.58,90.76c1.32.53,2,.77,2.42,1,1.94,1.1,2.68,2.42,5.16,3.64,6.4,3.15,9.84-1.5,19.62,1.06,3.17.83,4.19.16,6.88.32,3.9.24,10.9-.84,10.6-2.36s-8.69-1.8-18.94-2.1c-6.32-.19-7.63.08-10.18-.93-4.56-1.8-5.89-4.83-9.92-4.87-1,0-1.51.16-5.55.37a16.83,16.83,0,0,0-2.59.31c-1.48.28-2.93.55-3,1S5.33,89,9.58,90.76Z"/><path class="cls-16" d="M9.16,94.42c-5.28-2.48-8.33-2.67-9-4.3-.39-.92-.1-2.53,3.39-5.49A86.87,86.87,0,0,0,18.84,92c15.61,5.72,30.46,4.63,39.32,4.13a24.21,24.21,0,0,1-12,3.39,20.47,20.47,0,0,1-4.52-.4c-4.21-.93-6.51-1.74-12.42-1.75-6.49,0-8.25,2.64-13.2,1C13.31,97.41,13.66,96.54,9.16,94.42Z"/><path class="cls-17" d="M102.35,9.54a3.34,3.34,0,0,1,2.9-1.45.51.51,0,0,1,.4.16.5.5,0,0,1,0,.46,2.13,2.13,0,0,1-3.33.83"/><path class="cls-17" d="M103,9.54a3.36,3.36,0,0,0-2.9-1.45.51.51,0,0,0-.4.16.47.47,0,0,0,0,.46A2.19,2.19,0,0,0,101.13,10,2.16,2.16,0,0,0,103,9.54"/><path class="cls-17" d="M102.65,9.81a3.34,3.34,0,0,1-1-3.08.52.52,0,0,1,.21-.38.51.51,0,0,1,.46.08,2.15,2.15,0,0,1,.32,3.43"/><path class="cls-17" d="M75.56,18.76a3.34,3.34,0,0,0-2.9-1.44.38.38,0,0,0-.39.61,2.15,2.15,0,0,0,1.45,1.26,2.19,2.19,0,0,0,1.88-.42"/><path class="cls-17" d="M74.94,18.76a3.34,3.34,0,0,1,2.9-1.44.47.47,0,0,1,.4.15.45.45,0,0,1,0,.46,2.15,2.15,0,0,1-1.45,1.26,2.19,2.19,0,0,1-1.88-.42"/><path class="cls-17" d="M75.26,19a3.33,3.33,0,0,0,1-3.08.39.39,0,0,0-.67-.3,2.18,2.18,0,0,0-1,1.63,2.15,2.15,0,0,0,.7,1.8"/><path class="cls-17" d="M127.52,32.82a3.37,3.37,0,0,1,2.9-1.44.48.48,0,0,1,.4.16.47.47,0,0,1,0,.46,2.2,2.2,0,0,1-1.46,1.25,2.15,2.15,0,0,1-1.88-.42"/><path class="cls-17" d="M128.14,32.82a3.36,3.36,0,0,0-2.9-1.44.48.48,0,0,0-.4.16.5.5,0,0,0,0,.46,2.14,2.14,0,0,0,3.33.83"/><path class="cls-17" d="M127.83,33.1a3.34,3.34,0,0,1-1-3.09.5.5,0,0,1,.22-.37.47.47,0,0,1,.45.08,2.12,2.12,0,0,1,.32,3.42"/><path class="cls-17" d="M65.67,62.06a3.36,3.36,0,0,1,2.9-1.44.48.48,0,0,1,.4.15.5.5,0,0,1,0,.46,2.15,2.15,0,0,1-1.46,1.26,2.19,2.19,0,0,1-1.88-.42"/><path class="cls-17" d="M66.28,62.06a3.36,3.36,0,0,0-2.9-1.44.48.48,0,0,0-.4.15.5.5,0,0,0,0,.46,2.15,2.15,0,0,0,1.46,1.26,2.19,2.19,0,0,0,1.88-.42"/><path class="cls-17" d="M66,62.33a3.37,3.37,0,0,1-1-3.08.49.49,0,0,1,.22-.37.46.46,0,0,1,.45.07A2.14,2.14,0,0,1,66,62.38"/><path class="cls-17" d="M20.08,84.17A3.34,3.34,0,0,1,23,82.72a.52.52,0,0,1,.4.16.5.5,0,0,1,0,.46,2.14,2.14,0,0,1-3.34.83"/><path class="cls-17" d="M20.7,84.17a3.37,3.37,0,0,0-2.91-1.45.54.54,0,0,0-.4.16.5.5,0,0,0,0,.46,2.19,2.19,0,0,0,1.46,1.26,2.16,2.16,0,0,0,1.88-.43"/><path class="cls-17" d="M20.38,84.44a3.36,3.36,0,0,1-1-3.09A.52.52,0,0,1,19.6,81a.49.49,0,0,1,.45.08,2.13,2.13,0,0,1,.33,3.42"/><path class="cls-17" d="M49.83,93.63a3.36,3.36,0,0,0-2.9-1.45.54.54,0,0,0-.41.16.5.5,0,0,0,0,.46A2.19,2.19,0,0,0,48,94.06a2.16,2.16,0,0,0,1.88-.43"/><path class="cls-17" d="M49.21,93.63a3.34,3.34,0,0,1,2.9-1.45.51.51,0,0,1,.4.16.5.5,0,0,1,0,.46A2.15,2.15,0,0,1,51,94.06a2.17,2.17,0,0,1-1.88-.43"/><path class="cls-17" d="M49.52,93.9a3.35,3.35,0,0,0,1-3.08.39.39,0,0,0-.67-.3,2.2,2.2,0,0,0-1,1.63,2.22,2.22,0,0,0,.7,1.8"/><path class="cls-17" d="M156,71.9a3.34,3.34,0,0,0-2.9-1.45.51.51,0,0,0-.4.16.45.45,0,0,0,0,.46,2.12,2.12,0,0,0,3.33.83"/><path class="cls-17" d="M155.37,71.9a3.34,3.34,0,0,1,2.9-1.45.51.51,0,0,1,.4.16.47.47,0,0,1,0,.46,2.12,2.12,0,0,1-3.33.83"/><path class="cls-17" d="M155.69,72.17a3.34,3.34,0,0,0,1-3.08.39.39,0,0,0-.67-.3,2.13,2.13,0,0,0-.32,3.43"/><path class="cls-17" d="M129.49,74.32a3.37,3.37,0,0,0-2.9-1.44.54.54,0,0,0-.41.15.5.5,0,0,0,0,.46,2.15,2.15,0,0,0,3.34.84"/><path class="cls-17" d="M128.87,74.32a3.36,3.36,0,0,1,2.9-1.44.38.38,0,0,1,.39.61,2.15,2.15,0,0,1-1.46,1.26,2.2,2.2,0,0,1-1.88-.42"/><path class="cls-17" d="M129.18,74.59a3.32,3.32,0,0,0,1-3.08.47.47,0,0,0-.22-.37.49.49,0,0,0-.45.07,2.14,2.14,0,0,0-.33,3.43"/><path class="cls-17" d="M49.55,27.26a3.36,3.36,0,0,1,2.9-1.45.51.51,0,0,1,.4.16.47.47,0,0,1,0,.46,2.19,2.19,0,0,1-1.46,1.26,2.16,2.16,0,0,1-1.88-.43"/><path class="cls-17" d="M50.17,27.26a3.34,3.34,0,0,0-2.9-1.45.51.51,0,0,0-.4.16.5.5,0,0,0,0,.46,2.13,2.13,0,0,0,3.33.83"/><path class="cls-17" d="M49.86,27.53a3.32,3.32,0,0,1-1-3.08.39.39,0,0,1,.67-.3,2.2,2.2,0,0,1,1,1.63,2.17,2.17,0,0,1-.71,1.79"/><path class="cls-17" d="M94,31.13a3.36,3.36,0,0,1,2.9-1.45.54.54,0,0,1,.41.16.5.5,0,0,1,0,.46,2.19,2.19,0,0,1-1.46,1.26A2.16,2.16,0,0,1,94,31.13"/><path class="cls-17" d="M94.66,31.13a3.34,3.34,0,0,0-2.9-1.45.51.51,0,0,0-.4.16.5.5,0,0,0,0,.46,2.15,2.15,0,0,0,1.46,1.26,2.17,2.17,0,0,0,1.88-.43"/><path class="cls-17" d="M94.35,31.4a3.35,3.35,0,0,1-1-3.08A.39.39,0,0,1,94,28a2.2,2.2,0,0,1,1,1.63,2.22,2.22,0,0,1-.7,1.8"/></g></g></g></svg>