<svg xmlns="http://www.w3.org/2000/svg" xmlns:xlink="http://www.w3.org/1999/xlink" viewBox="0 0 488.6 412.17"><defs><style>.cls-1,.cls-2{fill:none;}.cls-2{stroke:#aa8768;stroke-width:1.44px;}.cls-3{fill:#dbcbab;}.cls-4{fill:#83aa8d;}.cls-5{fill:#b2b2b2;}.cls-6{fill:#c9c9c9;}.cls-7{fill:#645a4d;}.cls-8{fill:#f9cddc;}.cls-9{fill:#ffa4be;}.cls-10{fill:url(#New_Pattern_16);}.cls-11{fill:url(#New_Pattern_16-3);}.cls-12{fill:url(#New_Pattern_16-5);}.cls-13{fill:url(#New_Pattern_16-7);}</style><pattern id="New_Pattern_16" data-name="New Pattern 16" width="72" height="72" patternTransform="matrix(1.21, -0.91, 1.21, 0.91, -842.42, -126.14)" patternUnits="userSpaceOnUse" viewBox="0 0 72 72"><rect class="cls-1" width="72" height="72"/><line class="cls-2" x1="71.75" y1="68.4" x2="144.25" y2="68.4"/><line class="cls-2" x1="71.75" y1="54" x2="144.25" y2="54"/><line class="cls-2" x1="71.75" y1="39.6" x2="144.25" y2="39.6"/><line class="cls-2" x1="71.75" y1="25.2" x2="144.25" y2="25.2"/><line class="cls-2" x1="71.75" y1="10.8" x2="144.25" y2="10.8"/><line class="cls-2" x1="71.75" y1="61.2" x2="144.25" y2="61.2"/><line class="cls-2" x1="71.75" y1="46.8" x2="144.25" y2="46.8"/><line class="cls-2" x1="71.75" y1="32.4" x2="144.25" y2="32.4"/><line class="cls-2" x1="71.75" y1="18" x2="144.25" y2="18"/><line class="cls-2" x1="71.75" y1="3.6" x2="144.25" y2="3.6"/><line class="cls-2" x1="-0.25" y1="68.4" x2="72.25" y2="68.4"/><line class="cls-2" x1="-0.25" y1="54" x2="72.25" y2="54"/><line class="cls-2" x1="-0.25" y1="39.6" x2="72.25" y2="39.6"/><line class="cls-2" x1="-0.25" y1="25.2" x2="72.25" y2="25.2"/><line class="cls-2" x1="-0.25" y1="10.8" x2="72.25" y2="10.8"/><line class="cls-2" x1="-0.25" y1="61.2" x2="72.25" y2="61.2"/><line class="cls-2" x1="-0.25" y1="46.8" x2="72.25" y2="46.8"/><line class="cls-2" x1="-0.25" y1="32.4" x2="72.25" y2="32.4"/><line class="cls-2" x1="-0.25" y1="18" x2="72.25" y2="18"/><line class="cls-2" x1="-0.25" y1="3.6" x2="72.25" y2="3.6"/><line class="cls-2" x1="-72.25" y1="68.4" x2="0.25" y2="68.4"/><line class="cls-2" x1="-72.25" y1="54" x2="0.25" y2="54"/><line class="cls-2" x1="-72.25" y1="39.6" x2="0.25" y2="39.6"/><line class="cls-2" x1="-72.25" y1="25.2" x2="0.25" y2="25.2"/><line class="cls-2" x1="-72.25" y1="10.8" x2="0.25" y2="10.8"/><line class="cls-2" x1="-72.25" y1="61.2" x2="0.25" y2="61.2"/><line class="cls-2" x1="-72.25" y1="46.8" x2="0.25" y2="46.8"/><line class="cls-2" x1="-72.25" y1="32.4" x2="0.25" y2="32.4"/><line class="cls-2" x1="-72.25" y1="18" x2="0.25" y2="18"/><line class="cls-2" x1="-72.25" y1="3.6" x2="0.25" y2="3.6"/></pattern><pattern id="New_Pattern_16-3" data-name="New Pattern 16" width="72" height="72" patternTransform="matrix(0.48, -0.44, 0.48, 0.44, -331.03, -122.77)" patternUnits="userSpaceOnUse" viewBox="0 0 72 72"><rect class="cls-1" width="72" height="72"/><line class="cls-2" x1="71.75" y1="68.4" x2="144.25" y2="68.4"/><line class="cls-2" x1="71.75" y1="54" x2="144.25" y2="54"/><line class="cls-2" x1="71.75" y1="39.6" x2="144.25" y2="39.6"/><line class="cls-2" x1="71.75" y1="25.2" x2="144.25" y2="25.2"/><line class="cls-2" x1="71.75" y1="10.8" x2="144.25" y2="10.8"/><line class="cls-2" x1="71.75" y1="61.2" x2="144.25" y2="61.2"/><line class="cls-2" x1="71.75" y1="46.8" x2="144.25" y2="46.8"/><line class="cls-2" x1="71.75" y1="32.4" x2="144.25" y2="32.4"/><line class="cls-2" x1="71.75" y1="18" x2="144.25" y2="18"/><line class="cls-2" x1="71.75" y1="3.6" x2="144.25" y2="3.6"/><line class="cls-2" x1="-0.25" y1="68.4" x2="72.25" y2="68.4"/><line class="cls-2" x1="-0.25" y1="54" x2="72.25" y2="54"/><line class="cls-2" x1="-0.25" y1="39.6" x2="72.25" y2="39.6"/><line class="cls-2" x1="-0.25" y1="25.2" x2="72.25" y2="25.2"/><line class="cls-2" x1="-0.25" y1="10.8" x2="72.25" y2="10.8"/><line class="cls-2" x1="-0.25" y1="61.2" x2="72.25" y2="61.2"/><line class="cls-2" x1="-0.25" y1="46.8" x2="72.25" y2="46.8"/><line class="cls-2" x1="-0.25" y1="32.4" x2="72.25" y2="32.4"/><line class="cls-2" x1="-0.25" y1="18" x2="72.25" y2="18"/><line class="cls-2" x1="-0.25" y1="3.6" x2="72.25" y2="3.6"/><line class="cls-2" x1="-72.25" y1="68.4" x2="0.25" y2="68.4"/><line class="cls-2" x1="-72.25" y1="54" x2="0.25" y2="54"/><line class="cls-2" x1="-72.25" y1="39.6" x2="0.25" y2="39.6"/><line class="cls-2" x1="-72.25" y1="25.2" x2="0.25" y2="25.2"/><line class="cls-2" x1="-72.25" y1="10.8" x2="0.25" y2="10.8"/><line class="cls-2" x1="-72.25" y1="61.2" x2="0.25" y2="61.2"/><line class="cls-2" x1="-72.25" y1="46.8" x2="0.25" y2="46.8"/><line class="cls-2" x1="-72.25" y1="32.4" x2="0.25" y2="32.4"/><line class="cls-2" x1="-72.25" y1="18" x2="0.25" y2="18"/><line class="cls-2" x1="-72.25" y1="3.6" x2="0.25" y2="3.6"/></pattern><pattern id="New_Pattern_16-5" data-name="New Pattern 16" width="72" height="72" patternTransform="translate(-377.97 41.25) rotate(-45)" patternUnits="userSpaceOnUse" viewBox="0 0 72 72"><rect class="cls-1" width="72" height="72"/><line class="cls-2" x1="71.75" y1="68.4" x2="144.25" y2="68.4"/><line class="cls-2" x1="71.75" y1="54" x2="144.25" y2="54"/><line class="cls-2" x1="71.75" y1="39.6" x2="144.25" y2="39.6"/><line class="cls-2" x1="71.75" y1="25.2" x2="144.25" y2="25.2"/><line class="cls-2" x1="71.75" y1="10.8" x2="144.25" y2="10.8"/><line class="cls-2" x1="71.75" y1="61.2" x2="144.25" y2="61.2"/><line class="cls-2" x1="71.75" y1="46.8" x2="144.25" y2="46.8"/><line class="cls-2" x1="71.75" y1="32.4" x2="144.25" y2="32.4"/><line class="cls-2" x1="71.75" y1="18" x2="144.25" y2="18"/><line class="cls-2" x1="71.75" y1="3.6" x2="144.25" y2="3.6"/><line class="cls-2" x1="-0.25" y1="68.4" x2="72.25" y2="68.4"/><line class="cls-2" x1="-0.25" y1="54" x2="72.25" y2="54"/><line class="cls-2" x1="-0.25" y1="39.6" x2="72.25" y2="39.6"/><line class="cls-2" x1="-0.25" y1="25.2" x2="72.25" y2="25.2"/><line class="cls-2" x1="-0.25" y1="10.8" x2="72.25" y2="10.8"/><line class="cls-2" x1="-0.25" y1="61.2" x2="72.25" y2="61.2"/><line class="cls-2" x1="-0.25" y1="46.8" x2="72.25" y2="46.8"/><line class="cls-2" x1="-0.25" y1="32.4" x2="72.25" y2="32.4"/><line class="cls-2" x1="-0.25" y1="18" x2="72.25" y2="18"/><line class="cls-2" x1="-0.25" y1="3.6" x2="72.25" y2="3.6"/><line class="cls-2" x1="-72.25" y1="68.4" x2="0.25" y2="68.4"/><line class="cls-2" x1="-72.25" y1="54" x2="0.25" y2="54"/><line class="cls-2" x1="-72.25" y1="39.6" x2="0.25" y2="39.6"/><line class="cls-2" x1="-72.25" y1="25.2" x2="0.25" y2="25.2"/><line class="cls-2" x1="-72.25" y1="10.8" x2="0.25" y2="10.8"/><line class="cls-2" x1="-72.25" y1="61.2" x2="0.25" y2="61.2"/><line class="cls-2" x1="-72.25" y1="46.8" x2="0.25" y2="46.8"/><line class="cls-2" x1="-72.25" y1="32.4" x2="0.25" y2="32.4"/><line class="cls-2" x1="-72.25" y1="18" x2="0.25" y2="18"/><line class="cls-2" x1="-72.25" y1="3.6" x2="0.25" y2="3.6"/></pattern><pattern id="New_Pattern_16-7" data-name="New Pattern 16" width="72" height="72" patternTransform="matrix(0.82, -0.71, 0.82, 0.71, -487.39, -18.7)" patternUnits="userSpaceOnUse" viewBox="0 0 72 72"><rect class="cls-1" width="72" height="72"/><line class="cls-2" x1="71.75" y1="68.4" x2="144.25" y2="68.4"/><line class="cls-2" x1="71.75" y1="54" x2="144.25" y2="54"/><line class="cls-2" x1="71.75" y1="39.6" x2="144.25" y2="39.6"/><line class="cls-2" x1="71.75" y1="25.2" x2="144.25" y2="25.2"/><line class="cls-2" x1="71.75" y1="10.8" x2="144.25" y2="10.8"/><line class="cls-2" x1="71.75" y1="61.2" x2="144.25" y2="61.2"/><line class="cls-2" x1="71.75" y1="46.8" x2="144.25" y2="46.8"/><line class="cls-2" x1="71.75" y1="32.4" x2="144.25" y2="32.4"/><line class="cls-2" x1="71.75" y1="18" x2="144.25" y2="18"/><line class="cls-2" x1="71.75" y1="3.6" x2="144.25" y2="3.6"/><line class="cls-2" x1="-0.25" y1="68.4" x2="72.25" y2="68.4"/><line class="cls-2" x1="-0.25" y1="54" x2="72.25" y2="54"/><line class="cls-2" x1="-0.25" y1="39.6" x2="72.25" y2="39.6"/><line class="cls-2" x1="-0.25" y1="25.2" x2="72.25" y2="25.2"/><line class="cls-2" x1="-0.25" y1="10.8" x2="72.25" y2="10.8"/><line class="cls-2" x1="-0.25" y1="61.2" x2="72.25" y2="61.2"/><line class="cls-2" x1="-0.25" y1="46.8" x2="72.25" y2="46.8"/><line class="cls-2" x1="-0.25" y1="32.4" x2="72.25" y2="32.4"/><line class="cls-2" x1="-0.25" y1="18" x2="72.25" y2="18"/><line class="cls-2" x1="-0.25" y1="3.6" x2="72.25" y2="3.6"/><line class="cls-2" x1="-72.25" y1="68.4" x2="0.25" y2="68.4"/><line class="cls-2" x1="-72.25" y1="54" x2="0.25" y2="54"/><line class="cls-2" x1="-72.25" y1="39.6" x2="0.25" y2="39.6"/><line class="cls-2" x1="-72.25" y1="25.2" x2="0.25" y2="25.2"/><line class="cls-2" x1="-72.25" y1="10.8" x2="0.25" y2="10.8"/><line class="cls-2" x1="-72.25" y1="61.2" x2="0.25" y2="61.2"/><line class="cls-2" x1="-72.25" y1="46.8" x2="0.25" y2="46.8"/><line class="cls-2" x1="-72.25" y1="32.4" x2="0.25" y2="32.4"/><line class="cls-2" x1="-72.25" y1="18" x2="0.25" y2="18"/><line class="cls-2" x1="-72.25" y1="3.6" x2="0.25" y2="3.6"/></pattern></defs><g id="Layer_2" data-name="Layer 2"><g id="regular"><g id="new_no_outline_rock" data-name="new no outline rock"><path class="cls-3" d="M388.33,354.62c-15,2-37.54,4.69-65.05,6.36-77.09,4.71-102.08-3.84-173.08-1C92,362.36,7.44,376,7.51,383.26c0,4.89,29.38,8.54,46.05,10.61,46.9,5.83,83.18,2.45,83.41,5.7.17,2.36-19,4.34-18.79,7.66.46,7.24,90.7,4.33,98.67,4.51,14.31.32,24.56.16,32.94-.2,16.08-.69,21.34-1.5,34.46-2.11,6.37-.3,11.47-.38,15.9-.34,14.62.11,25.47.58,28.51.75,10.9.59,28.85.7,59.67-1.48Z"/><path class="cls-4" d="M145.31,355.69q-.87,9.31-1.73,18.61a39.69,39.69,0,0,0-7.84-15.69,189.47,189.47,0,0,0,7,24.72v.09l.05,0,.06.05c.9,0,3.86.3,4.35-.37s-.24-2.36,0-3.15C149.27,372.09,147.85,363.65,145.31,355.69Z"/><polygon class="cls-5" points="146.02 383.08 227.15 383.08 227.15 357.24 195.3 335.01 166.46 344.02 164.02 359.04 152.81 365.05 146.02 372.26 146.02 383.08"/><polygon class="cls-6" points="195.3 335.01 192.68 355.66 186.59 367.73 161.03 374.58 146.02 383.08 146.02 372.26 152.81 365.05 164.02 359.04 166.46 344.02 195.3 335.01"/><path class="cls-7" d="M428.63,231.21a3,3,0,0,0-4.1,1.08c-9.67,14.14-26.63,22.91-43.56,23.6a53.44,53.44,0,0,1-8.44-.31,276.12,276.12,0,0,0,26.74-19.31l-12-6s-24,26-44,28c-42.1,4.21-35.9-22.91-89.94-10.78,11.36-21.92,30.08-40.76,41.67-58.12a43.81,43.81,0,0,0,16-6.8,56.31,56.31,0,0,0,13.5-12.26,34.11,34.11,0,0,0,6.74-13.37,90.77,90.77,0,0,0,2-16.27,166.62,166.62,0,0,0-.16-18.83,3.08,3.08,0,0,0-3-3,3,3,0,0,0-3,3c.35,5.31.43,10.64.27,16a101.69,101.69,0,0,1-1.39,15.25,36.75,36.75,0,0,1-1.57,6c-.07.2-.14.39-.22.59a.71.71,0,0,1-.07.15c-.25.52-.5,1-.78,1.54a37.57,37.57,0,0,1-2.07,3.37,48.38,48.38,0,0,1-11.61,11.54,47.09,47.09,0,0,1-10,5.54,59.44,59.44,0,0,0,2.67-5.54c10-24,6-42-13-87H264.83C276.77,123.43,280,140,279.34,150.1a69.39,69.39,0,0,1-28.67-27,65.52,65.52,0,0,1-5.2-11.26,3.08,3.08,0,0,0-3.69-2.1,3,3,0,0,0-2.1,3.69,75.48,75.48,0,0,0,28.82,37.31,69.14,69.14,0,0,0,9.86,5.54c-1.18,4.24-3.15,7.28-5.09,11-5.6,10.77-22.86,27.64-40.22,46.57-12.39-3.57-27.72-13.91-27.72-13.91l-.56,3.38s12.59,9.9,24.45,14.76c-18.1,20.3-34.73,43.55-33.64,67.58a80.7,80.7,0,0,0,1.27,10.94l-.78-3.12c-38.21-8.7-33.73,10.4-63.27,7.45-3.93-.4-8.78-2.91-13.72-6.33a28.92,28.92,0,0,0,13.27-12.3,3,3,0,0,0-5.18-3q-.57,1-1.23,2c-.23.35-.47.68-.72,1v0h0l-.36.44a25.32,25.32,0,0,1-3.36,3.35l-.44.36h0l0,0-.93.66c-.65.44-1.33.86-2,1.24a10.58,10.58,0,0,1-2.13,1.06c.7-.19,0,0-.12,0l-.42.17c-.43.16-.86.3-1.29.44a3.46,3.46,0,0,0-.62.28,201.37,201.37,0,0,1-20.23-19.13l-2,6s13.25,14,24.9,22.51a55,55,0,0,1-38.44-12.55,51.59,51.59,0,0,1-9-9.72,2.76,2.76,0,0,0-3.67-1,2.69,2.69,0,0,0-1,3.66,60.21,60.21,0,0,0,44,24.86,56.63,56.63,0,0,0,14.82-.78.29.29,0,0,0,.1,0c3.53,2,6.91,3.41,9.78,3.7,29.49,2.95,27.27-14.28,65.28-5.68,5.14,20.74,15.81,36.27,11.19,51-7.37,23.57-31,30-31,30h.5l119.82-.39s-53.55-52.79-54.93-97a70.3,70.3,0,0,1,4-25.15c54.65-12.45,53.41,11.78,95.65,7.55,6.13-.61,13.77-3.86,21.42-8.07a1.84,1.84,0,0,0,.25.09c18.78,4.54,39-.71,53.85-12.94a57.89,57.89,0,0,0,10.92-12A3,3,0,0,0,428.63,231.21ZM324.16,159.6ZM247.62,260.71c.88-2.55,1.87-5.07,3-7.54Z"/><path class="cls-4" d="M333.37,355.55q-2.69,9-5.36,17.91a39.47,39.47,0,0,0-4.6-16.93,189.26,189.26,0,0,0,2,25.61l0,.09h.05l.05.06c.89.14,3.73,1.05,4.34.49s.22-2.36.59-3.09C334,372.41,334.3,363.86,333.37,355.55Z"/><path class="cls-4" d="M343.25,359.26l-8.49,16.65a39.65,39.65,0,0,1,15-9.07A188.62,188.62,0,0,1,330.65,384l0,.08,0-.05h-.08c-.74-.51-3.42-1.81-3.48-2.64s1.47-1.86,1.71-2.64C331.13,371,336.84,364.63,343.25,359.26Z"/><polygon class="cls-5" points="329.67 383.08 260.67 383.08 272.6 364.9 295 349.26 315.29 355.6 317.01 366.17 324.89 370.4 329.67 375.47 329.67 383.08"/><polygon class="cls-6" points="303.53 351.93 301.13 366.17 280.62 369.97 260.67 383.08 269.05 365.05 295 349.26 303.53 351.93"/><path class="cls-4" d="M200.06,376.86a74.6,74.6,0,0,0-.09-21.31,39.44,39.44,0,0,0-2.46,22.1,24,24,0,0,0-20.71-10c9,2,16.7,7.06,21.37,15,0,0,0,0,0,0a.56.56,0,0,0,.51.38c.41.11.89,0,.94-.44A32,32,0,0,1,219,365,24,24,0,0,0,200.06,376.86Z"/><path class="cls-4" d="M261.48,376.86a74.25,74.25,0,0,0-.1-21.31,39.61,39.61,0,0,0-2.46,22.1,24,24,0,0,0-20.7-10,32.08,32.08,0,0,1,21.36,15l0,0a.55.55,0,0,0,.5.38c.41.11.89,0,.94-.44,3.64-8.49,10.64-14.51,19.35-17.57A24,24,0,0,0,261.48,376.86Z"/><path class="cls-4" d="M269.45,376.86a73.89,73.89,0,0,0-.09-21.31,39.61,39.61,0,0,0-2.46,22.1,24,24,0,0,0-20.71-10c9,2,16.7,7.06,21.37,15,0,0,0,0,0,0a.56.56,0,0,0,.51.38c.41.11.89,0,.94-.44,3.64-8.49,10.64-14.51,19.35-17.57A24,24,0,0,0,269.45,376.86Z"/><path class="cls-8" d="M221.53,27.3c16-1,13.57-19.81,34-24,2.76-.57,20.73-7.94,45.05,1.48,14.62,5.67,13.85,21.3,31.93,29.13,21,9.08,26.63,2.79,37.23,10.84,12.58,9.55,5.79,19.36,20,28.41,9.33,6,14.46,3.1,22.49,8.63,13.19,9.06,17.73,29.4,7.22,37.71s-27.76-1.6-67.06,4.15c-14.83,2.17-14.91,3.57-26.77,5.91-43.27,8.53-60.68-15.18-113.3-14.86-32.15.2-35.27,9.11-68.76,6.39-15.35-1.24-47.36-3.79-55.63-19.62-4.87-9.32-.8-21.86,8.35-29.15,11.36-9,24.07-4.8,34.41-14.5,8.16-7.65,9.05-8.7,16.72-18,8.86-10.68,20.73-15.88,37.73-15.42C203.19,24.92,205.57,28.24,221.53,27.3Z"/><path class="cls-9" d="M169.16,50.16c-11.44,3-14.39,18-26.64,26.85-10.42,7.48-23.67,2.9-31.13,11.08-4,4.35-5,10.91-1.7,15.34,6.08,8.12,25.41,7.55,44.15,6.82,43.86-1.71,48.91-11.7,76.4-8.52,19.21,2.22,25,8.06,40.75,5.54s19.28-10.9,17.47-16.15C284.9,80.86,260.09,99.78,217,73.66,201,64,185.67,45.85,169.16,50.16Z"/><path class="cls-10" d="M422.48,116.09a18,18,0,0,1-6.83,5.4c-6.2,2.84-11.89,1.52-22.7.75-16-1.14-31.47-.25-40.62,1.39l-11.14,2h0c-5.13,1.21-7.84,2.34-15.62,3.88-43.27,8.53-60.68-15.18-113.3-14.86-32.15.2-35.27,9.11-68.76,6.39-14.22-1.15-47.44-3.51-55.63-19.62-4.33-8.52-1-19.47,6.25-26.78a35.17,35.17,0,0,1,8.24-6.07,179.92,179.92,0,0,0,29.4,19.07C159.19,102,197.61,113.53,334.65,116,355.56,116.38,385.77,116.67,422.48,116.09Z"/><path class="cls-8" d="M395.48,242c-11.89.66-19,4.84-26.67.74-4.25-2.28-4.07-4.63-10.07-7.93-5.77-3.16-9.3-2.83-14.43-4.39-8.44-2.56-20.11-9.93-20.59-18.33-.52-9.15,12.36-17.88,23.07-20.72,12.06-3.2,17.19,2.16,25.75-2.5,9.28-5,7.3-13.56,15.26-15.79,8.13-2.27,12.71,5.91,22.71,3.72,6.84-1.5,6.61-5.74,14.24-7.43,9.68-2.15,18.22,3.13,18.65,3.4,6.59,4.17,4.52,7.83,11.52,13.93,7.81,6.81,15.3,5.81,16.62,10.84,1.1,4.21-3.64,6.3-2.38,9.91,2.09,6,16.26,3.76,19,9.28,2.46,5-5.74,13.57-11.87,18.27-20.29,15.53-49.23,12.4-53.36,11.9C408.61,245.18,407.55,241.35,395.48,242Z"/><path class="cls-9" d="M338.24,201.7c-4,2.35-3.5,13.37,2.38,18.57,6.63,5.87,16.58,1.14,27.12,8.87,4.37,3.21,2.54,3.93,6.27,6.3,9.82,6.23,18.8-1.09,36.47,3.29,3.94,1,5.83,1.92,10.49,2.44,5.12.56,12,1.31,17.29-2.48,4-2.84,7.28-8.38,5.42-11-2.29-3.21-11,0-22.37,1.24-18.43,2-33.18-2.53-40.46-4.75C354,216,344,198.28,338.24,201.7Z"/><path class="cls-11" d="M395.48,242c-18.88.84-21.52,2.84-26.67.74s-3.67-4.54-10.68-8.26c-5.76-3.05-7.11-1.61-14.6-4.34C340.36,229,326.38,223.91,324,214a14.45,14.45,0,0,1-.3-1.9,233,233,0,0,0,61.08,21.8A242.79,242.79,0,0,0,476.28,235a70.37,70.37,0,0,1-17.67,8.92s-17.05,5.75-35.69,3a92.34,92.34,0,0,1-9.67-1.87c-4.38-1.18-6.14-2.15-10.07-2.74A38.33,38.33,0,0,0,395.48,242Z"/><path class="cls-8" d="M254.78,198.79c1.94-5.15-1.56-17.17-8.28-20.4-5.81-2.79-10.43-.52-26.42-2.46a16.37,16.37,0,0,1-8.4-3.1c-3.13-2.44-3.54-5-5-7.22-5.92-8.7-24.38-12.29-34.8-3.39-2.69,2.29-6.34,9.27-9.48,11.84-8.13,6.67-14.81,4-18.67,8.87-3.34,4.18-3.17,12.18.5,16.39,4.63,5.32,11.69,1.34,26.56,4.72,11.44,2.6,10.37,5.66,19.75,7.48,9.11,1.77,12.2-.72,33.88-4.75C246.38,202.68,253,203.42,254.78,198.79Z"/><path class="cls-9" d="M152.65,195.26c2.35,3.76,8.39,1,17.36,3.13,11.4,2.67,12.55,9.64,19.87,9C198,206.67,205,197.32,203.47,194c-1.26-2.67-7.16.5-17.78-2.3-8.29-2.18-8.71-5.17-16.8-6.52-3.42-.56-12.26-2-15.61,2.76C151.93,189.86,151.28,193.06,152.65,195.26Z"/><path class="cls-12" d="M254.78,198.79a190.7,190.7,0,0,1-45.88,4.7c-17.62-.36-35.57-.94-53.62-11.92a76.2,76.2,0,0,1-11.59-8.64,14,14,0,0,0-2.27,5.82,14.43,14.43,0,0,0,2.76,10.57c4.62,5.71,12.62,1.55,26.57,4.72,11.44,2.6,10.37,5.66,19.75,7.48a30.59,30.59,0,0,0,3.91.53c6.18.41,19.62-3.27,30-5.28,6.07-1.19,9.11-1.78,12.45-2.12,3.73-.38,7.39-1.26,11.1-1.82a9.27,9.27,0,0,0,4-1.33A9,9,0,0,0,254.78,198.79Z"/><path class="cls-8" d="M26.14,269.42C10.12,261.88,2,262.65.38,257.16-1.56,250.5,9.19,242.1,10,241.47c6-4.42,13.56-6.36,15.4-6.82,6.13-1.51,11.11-1.48,15.59-5.32,1.67-1.43,1-1.53,2.88-3.22,8.5-7.53,12.37-6.69,13.54-6.7,6.56-.06,9.32,3.25,13.11,4.53a8.72,8.72,0,0,0,9.34.43c6-3.3,15.82-8.86,28.16-3,12.15,5.81,13.38,13.29,28.15,18.3,13.93,4.72,12.26-7,26.92-2.41,9,2.8,20.62,6.44,23,13.95,3.55,11.36-15,20.62-25.06,25.71a68.39,68.39,0,0,1-29.26,6.94c-22.89.48-26.5-6.1-48.35-6.13-18.51,0-23.53,7.55-37.64,2.8C38,278,39,275.47,26.14,269.42Z"/><path class="cls-9" d="M27.33,259c3.77,1.52,5.71,2.2,6.91,2.88,5.52,3.14,7.66,6.9,14.73,10.38,18.26,9,28.08-4.26,56,3,9,2.36,12,.46,19.62.93,11.14.68,31.1-2.42,30.24-6.75s-24.77-5.13-54-6c-18-.53-21.79.23-29.07-2.64-13-5.15-16.78-13.79-28.3-13.91-2.76,0-4.31.45-15.82,1a55.65,55.65,0,0,0-7.41.89c-4.21.81-8.34,1.59-8.5,2.95S15.21,254.07,27.33,259Z"/><path class="cls-13" d="M26.14,269.42C11.08,262.33,2.36,261.8.38,257.16c-1.12-2.63-.3-7.23,9.66-15.69a247.62,247.62,0,0,0,43.7,21c44.57,16.3,86.93,13.21,112.21,11.78a69,69,0,0,1-34.18,9.66,58,58,0,0,1-12.89-1.13c-12-2.64-18.58-5-35.46-5-18.51,0-23.53,7.55-37.64,2.8C38,278,39,275.47,26.14,269.42Z"/></g></g></g></svg>