<svg xmlns="http://www.w3.org/2000/svg" viewBox="0 0 1312.42 641.16"><defs><style>.cls-1,.cls-2{fill:none;stroke:#d3b49c;stroke-miterlimit:10;}.cls-1{stroke-width:2px;}.cls-2{stroke-width:2.24px;}</style></defs><g id="Layer_2" data-name="Layer 2"><g id="regular"><g id="tracks_lines" data-name="tracks lines"><path class="cls-1" d="M1154.67,19.81A685.78,685.78,0,0,0,932.89,3.87c-85.63,7.94-199.42,35-200.61,69.52-1.1,32,96,42.08,100,87,3.78,42.26-77.7,81.58-106.94,95.69C676,279.93,605,304.25,433.36,311.74c-130.67,5.69-154.36-5.57-248.28,6.95A954.8,954.8,0,0,0,.45,362.38"/><path class="cls-1" d="M1148.5,19.34A668.35,668.35,0,0,0,977.58,7.85C883.51,13.69,769.67,41.07,769,72.4c-.58,28.46,92.78,34.27,98.32,78.45,4.33,34.62-48.25,68.55-85,92.3a467.51,467.51,0,0,1-147.56,62.43c-85.21,19.74-165,23-255.64,24.46-136.06,2.14-158.48-.43-221.4,11.28A707.1,707.1,0,0,0,.45,390.19"/><path class="cls-1" d="M1164.52,30.21a692.73,692.73,0,0,0-160.37-11.69c-91.06,4-191.47,26.65-192.17,52.14-.64,23.38,83.07,31.89,88.36,75.12.5,4.08,1.37,16.53-16.86,41.07C820.94,271.07,676.14,310.72,655.05,316.3c-10.68,2.82-24.63,6.91-24.81,12.82-.1,3.23,3.68,16.56,142.26,37.24,196.09,29.25,309.41,20.58,311,33.71,1.72,13.73-119.13,47.82-282.74,72.05-184,27.25-453.82,46.76-800.68,0"/><ellipse class="cls-1" cx="1032.62" cy="70.82" rx="177.72" ry="42.3"/><ellipse class="cls-1" cx="1032.62" cy="70.82" rx="142.17" ry="33.84"/><ellipse class="cls-2" cx="1032.8" cy="70.82" rx="114.52" ry="21.66"/><path class="cls-1" d="M900.08,99c9.19,6.25,19.64,15.79,24.37,29.76,16.14,47.71-48.42,105.46-59.59,115.45C783,317.42,686,310.62,686.6,326.63c.49,12.87,63.34,22.92,230.4,39.73,155.38,15.63,202.77,17,204.58,29.79,3.24,23-142.84,63.27-225.33,82.61C709.5,522.53,419.23,559.67.13,506.38"/><path class="cls-1" d="M933.69,106a62.74,62.74,0,0,1,15.59,24.52c17.05,51.49-46.43,111.44-54.62,119.18C826.75,313.8,745.76,312,747,325.61c1.31,14.54,93.8,14.65,223,28.49,125.14,13.4,187.71,20.14,190.33,37.08,5.87,37.9-236.14,122.77-477.68,152.94C567.49,558.51,473.69,557.81,369.8,557A3568.84,3568.84,0,0,1,.45,535.18"/><path class="cls-1" d="M966.69,109.58a78.41,78.41,0,0,1,11.39,26.87c13.9,66-68.38,130-75.21,135.15-49.72,37.7-93.32,38.91-92.13,49.07C812.28,333.94,886.57,332,986,342c113.38,11.42,198.26,20,203.29,46,7.43,38.3-159.39,109.82-304.24,149.28-40.3,11-180.46,47.15-472.57,49.51A3692.33,3692.33,0,0,1,.45,567"/><path class="cls-1" d="M995,112.18a118.8,118.8,0,0,1,5,20.12c7.95,50.68-19.51,93.35-29.31,106.94-39.56,54.85-97,59.54-94.35,73.49,2.85,15,68.74,8.77,152.56,18.18,70,7.86,177.6,18.26,185.35,53.32,1.76,8,3.17,39-122.49,102.09-199.88,100.4-396.5,119-558,125.33A3681.81,3681.81,0,0,1,.13,593.78"/><path class="cls-1" d="M1015.83,112.94a138.86,138.86,0,0,1,4.95,23.51c6.69,55.49-22.88,99-27.31,105.27-30.28,43.19-68.31,48.08-65.55,61.08,3.22,15.1,55.35,11.88,122.65,18.87,70.87,7.35,175.93,18.25,186,55.86,12.2,45.71-119.43,117.82-154.67,136.8A863,863,0,0,1,853,598c-141,30.61-264.27,39.07-391.78,41.46a4044.84,4044.84,0,0,1-461-17.88"/><path class="cls-1" d="M1037.32,112.94a137.56,137.56,0,0,1,7,31.28c.63,6.09,5.25,57.82-28,102.47-23.74,31.85-48.73,35.91-46.34,46.18C973,306,1015.08,303.12,1083.84,309c18.49,1.58,154.78,13.25,156.16,35.89.19,3.23-2.26,8.3-16.79,15.21"/><path class="cls-1" d="M1083.26,111.38a171.07,171.07,0,0,1,7.53,62.32,173.66,173.66,0,0,1-29.91,86"/><path class="cls-1" d="M1060.41,112.18a169,169,0,0,1,6.22,49.93c-2.09,76.09-56.38,127.15-71.93,140.82"/><path class="cls-1" d="M1105.07,109.46a170.28,170.28,0,0,1-10.65,140.3"/><path class="cls-1" d="M1128.65,106.43a169.34,169.34,0,0,1-11.71,139.86"/><path class="cls-1" d="M1152,102.16a159,159,0,0,1,11.75,60.61A161,161,0,0,1,1140.93,244"/><path class="cls-1" d="M1173.63,96.57a167.82,167.82,0,0,1-8.86,146.23"/><ellipse class="cls-1" cx="1179.02" cy="273.83" rx="132.4" ry="31.29"/><ellipse class="cls-1" cx="1179.02" cy="270.81" rx="105.92" ry="25.04"/><ellipse class="cls-1" cx="1179.02" cy="267.34" rx="77.41" ry="18.43"/></g></g></g></svg>