<svg xmlns="http://www.w3.org/2000/svg" viewBox="0 0 1300.47 150.96"><defs><style>.cls-1,.cls-2,.cls-3,.cls-4{fill:none;stroke:#d3b49c;stroke-miterlimit:10;}.cls-1{stroke-width:1.77px;}.cls-2{stroke-width:1.85px;}.cls-3{stroke-width:2.13px;}.cls-4{stroke-width:2.28px;}</style></defs><g id="Layer_2" data-name="Layer 2"><g id="regular"><g id="tracks_lines" data-name="tracks lines"><path class="cls-1" d="M621.17,52.56A1188.34,1188.34,0,0,0,480.49,23.85c-65.15-9.25-114.35-10.73-151.3-11.73C251.4,10,199.58,9,134,24,95.25,33,35.35,46.89,35.48,64.75c.19,27.73,144.94,50.9,241,57.22,11.18.73,72.38.87,143.11-4.23,83.79-6,222.25-25.94,221.59-43.9-.29-7.59-21.42-8.16-21.75-16.53C618.57,35.55,760.2,13.26,795,9.14,814.23,6.86,832.32,5.19,849.23,4,881.09,1.69,914.37.51,960.8,1c69.06.71,103.59,1.06,132.74,5.44,59.89,9,145.66,32.7,145.33,58.32-.08,6.25-5.26,11.36-9.94,14.85"/><path class="cls-1" d="M1200.68,88.54c9.46-5.17,23-14.33,22.8-25.28-.35-16.65-32.36-28.21-55.73-36.44a337.41,337.41,0,0,0-74.87-17.18c-50.46-5.45-94-10-163.81-8.31-28.22.67-59.9,1-101.67,6.33-61.6,7.87-161.11,28.23-161.06,52.13,0,11.82,26.22,14.36,26.32,25.32.26,27.76-166.21,49.57-173.25,50.47-14.52,1.85-68.33,9.3-142.62,12.13-29.41,1.12-61.11,2.26-103.71.46,0,0-106.65-4.48-186.29-29.13-1.55-.48-4.72-1.47-8.86-2.89C60,110,1.87,90,.9,73.42c-1.24-21,88.19-45.87,160.24-57.64C256,.27,335.45,5.14,395.23,9.14c50,3.35,91.09,8.69,119.17,12.91,42.9,6.45,81.69,14.79,116,23.28"/><path class="cls-1" d="M690.49,90.26a632.4,632.4,0,0,0,70.89,22.36c83.3,21,149.58,19.57,198.43,18.18,40.24-1.15,159.67-4.55,225.68-35.51a211.27,211.27,0,0,1,62.57-19.36,207.49,207.49,0,0,1,52.32-.75"/><path class="cls-1" d="M673.45,101.82a666.68,666.68,0,0,0,65.89,22.52c84.6,24.07,161.59,27.89,222.45,24.83,0,0,81.82-1.23,158.16-17.38,40.11-8.49,64-18.62,64-18.62,26.07-9.06,35.65-14.29,54.37-18.42a187.76,187.76,0,0,1,62-3"/><ellipse class="cls-2" cx="310.9" cy="57.82" rx="249.73" ry="40.24"/><ellipse class="cls-3" cx="947.48" cy="60.65" rx="249.65" ry="54.96"/><ellipse class="cls-4" cx="948.8" cy="54.43" rx="217.4" ry="44.64"/></g></g></g></svg>