<svg xmlns="http://www.w3.org/2000/svg" xmlns:xlink="http://www.w3.org/1999/xlink" viewBox="0 0 159.08 147.55"><defs><style>.cls-1,.cls-2{fill:none;}.cls-2{stroke:#63594c;stroke-width:1.44px;}.cls-3{fill:#dbcbab;}.cls-4{fill:#bfbaa9;}.cls-5{fill:#878074;}.cls-6{fill:url(#New_Pattern_13);}.cls-7{fill:#ada699;}.cls-8{fill:url(#New_Pattern_13-3);}</style><pattern id="New_Pattern_13" data-name="New Pattern 13" width="72" height="72" patternTransform="translate(-122.65 104.88) rotate(-45) scale(1.2)" patternUnits="userSpaceOnUse" viewBox="0 0 72 72"><rect class="cls-1" width="72" height="72"/><line class="cls-2" x1="71.75" y1="68.4" x2="144.25" y2="68.4"/><line class="cls-2" x1="71.75" y1="54" x2="144.25" y2="54"/><line class="cls-2" x1="71.75" y1="39.6" x2="144.25" y2="39.6"/><line class="cls-2" x1="71.75" y1="25.2" x2="144.25" y2="25.2"/><line class="cls-2" x1="71.75" y1="10.8" x2="144.25" y2="10.8"/><line class="cls-2" x1="71.75" y1="61.2" x2="144.25" y2="61.2"/><line class="cls-2" x1="71.75" y1="46.8" x2="144.25" y2="46.8"/><line class="cls-2" x1="71.75" y1="32.4" x2="144.25" y2="32.4"/><line class="cls-2" x1="71.75" y1="18" x2="144.25" y2="18"/><line class="cls-2" x1="71.75" y1="3.6" x2="144.25" y2="3.6"/><line class="cls-2" x1="-0.25" y1="68.4" x2="72.25" y2="68.4"/><line class="cls-2" x1="-0.25" y1="54" x2="72.25" y2="54"/><line class="cls-2" x1="-0.25" y1="39.6" x2="72.25" y2="39.6"/><line class="cls-2" x1="-0.25" y1="25.2" x2="72.25" y2="25.2"/><line class="cls-2" x1="-0.25" y1="10.8" x2="72.25" y2="10.8"/><line class="cls-2" x1="-0.25" y1="61.2" x2="72.25" y2="61.2"/><line class="cls-2" x1="-0.25" y1="46.8" x2="72.25" y2="46.8"/><line class="cls-2" x1="-0.25" y1="32.4" x2="72.25" y2="32.4"/><line class="cls-2" x1="-0.25" y1="18" x2="72.25" y2="18"/><line class="cls-2" x1="-0.25" y1="3.6" x2="72.25" y2="3.6"/><line class="cls-2" x1="-72.25" y1="68.4" x2="0.25" y2="68.4"/><line class="cls-2" x1="-72.25" y1="54" x2="0.25" y2="54"/><line class="cls-2" x1="-72.25" y1="39.6" x2="0.25" y2="39.6"/><line class="cls-2" x1="-72.25" y1="25.2" x2="0.25" y2="25.2"/><line class="cls-2" x1="-72.25" y1="10.8" x2="0.25" y2="10.8"/><line class="cls-2" x1="-72.25" y1="61.2" x2="0.25" y2="61.2"/><line class="cls-2" x1="-72.25" y1="46.8" x2="0.25" y2="46.8"/><line class="cls-2" x1="-72.25" y1="32.4" x2="0.25" y2="32.4"/><line class="cls-2" x1="-72.25" y1="18" x2="0.25" y2="18"/><line class="cls-2" x1="-72.25" y1="3.6" x2="0.25" y2="3.6"/></pattern><pattern id="New_Pattern_13-3" data-name="New Pattern 13" width="72" height="72" patternTransform="translate(-126.62 47.18) rotate(-45) scale(1.2)" patternUnits="userSpaceOnUse" viewBox="0 0 72 72"><rect class="cls-1" width="72" height="72"/><line class="cls-2" x1="71.75" y1="68.4" x2="144.25" y2="68.4"/><line class="cls-2" x1="71.75" y1="54" x2="144.25" y2="54"/><line class="cls-2" x1="71.75" y1="39.6" x2="144.25" y2="39.6"/><line class="cls-2" x1="71.75" y1="25.2" x2="144.25" y2="25.2"/><line class="cls-2" x1="71.75" y1="10.8" x2="144.25" y2="10.8"/><line class="cls-2" x1="71.75" y1="61.2" x2="144.25" y2="61.2"/><line class="cls-2" x1="71.75" y1="46.8" x2="144.25" y2="46.8"/><line class="cls-2" x1="71.75" y1="32.4" x2="144.25" y2="32.4"/><line class="cls-2" x1="71.75" y1="18" x2="144.25" y2="18"/><line class="cls-2" x1="71.75" y1="3.6" x2="144.25" y2="3.6"/><line class="cls-2" x1="-0.25" y1="68.4" x2="72.25" y2="68.4"/><line class="cls-2" x1="-0.25" y1="54" x2="72.25" y2="54"/><line class="cls-2" x1="-0.25" y1="39.6" x2="72.25" y2="39.6"/><line class="cls-2" x1="-0.25" y1="25.2" x2="72.25" y2="25.2"/><line class="cls-2" x1="-0.25" y1="10.8" x2="72.25" y2="10.8"/><line class="cls-2" x1="-0.25" y1="61.2" x2="72.25" y2="61.2"/><line class="cls-2" x1="-0.25" y1="46.8" x2="72.25" y2="46.8"/><line class="cls-2" x1="-0.25" y1="32.4" x2="72.25" y2="32.4"/><line class="cls-2" x1="-0.25" y1="18" x2="72.25" y2="18"/><line class="cls-2" x1="-0.25" y1="3.6" x2="72.25" y2="3.6"/><line class="cls-2" x1="-72.25" y1="68.4" x2="0.25" y2="68.4"/><line class="cls-2" x1="-72.25" y1="54" x2="0.25" y2="54"/><line class="cls-2" x1="-72.25" y1="39.6" x2="0.25" y2="39.6"/><line class="cls-2" x1="-72.25" y1="25.2" x2="0.25" y2="25.2"/><line class="cls-2" x1="-72.25" y1="10.8" x2="0.25" y2="10.8"/><line class="cls-2" x1="-72.25" y1="61.2" x2="0.25" y2="61.2"/><line class="cls-2" x1="-72.25" y1="46.8" x2="0.25" y2="46.8"/><line class="cls-2" x1="-72.25" y1="32.4" x2="0.25" y2="32.4"/><line class="cls-2" x1="-72.25" y1="18" x2="0.25" y2="18"/><line class="cls-2" x1="-72.25" y1="3.6" x2="0.25" y2="3.6"/></pattern></defs><g id="Layer_2" data-name="Layer 2"><g id="regular"><g id="Layer_2-2" data-name="Layer 2"><g id="regular-2" data-name="regular"><ellipse class="cls-3" cx="91.49" cy="41.46" rx="46.3" ry="15.9"/><path class="cls-3" d="M40.75,100.87c3.83-.36,7.86-.54,12-.54,25.57,0,46.3,7.11,46.3,15.9s-20.73,15.89-46.3,15.89S6.47,125,6.47,116.23c0-7.36,14.54-13.54,34.28-15.36"/><path class="cls-3" d="M140,35.85c-1.24.68,2,5.29,1.19,9.72-1.86,9.88-23.15,13.72-30.06,15-11.5,2-20.26,1.44-30.64.71-13.8-1-21.58-3.2-25.53-4.6C54,56.35,53.15,56,53.15,56a66.1,66.1,0,0,1-12.4-6.51c-2.1-1.38-3.73-2.59-5-3.59-3.52-2.77-4.23-3.43-4.45-3.25-.63.5,2.72,7.76,9.43,12.5a26,26,0,0,0,7,3.47s3.62,1.23,7.1,2.24A125.54,125.54,0,0,0,113,63.94c17.41-3.32,30.74-9.93,32.4-16.36a11.76,11.76,0,0,0-.39-7.2C143.72,37.58,141,35.31,140,35.85Z"/><path class="cls-3" d="M150.47,39.59c.34.84,2.29,5.71.63,10.52-1.87,5.4-7.42,8.18-15.56,11.07-19.28,6.83-31.91,7.58-31.91,7.58-24.1,1.41-46.74-.65-62.88-2.86l-.28,5.35A437.19,437.19,0,0,0,100.26,73a129.55,129.55,0,0,0,33.58-6c22-7,24.4-14.3,24.91-16.53a16.25,16.25,0,0,0-.9-9.5c-1.35-2.91-3.4-4.55-5.61-6.28-4.88-3.79-10.43-5.69-10.77-5S147.65,32.83,150.47,39.59Z"/><path class="cls-3" d="M94.16,77.93a75.73,75.73,0,0,0,19.84,0c14.86-2,25.9-8,26.38-7,.32.66-4.21,3.78-8.53,6-6.06,3.14-18.92,8.3-38.89,5.38Z"/><path class="cls-3" d="M95.56,96.61c-.52.89,10.79,5,12.81,14.63a17,17,0,0,1-1.45,10.5c-1.08,2.27-4.32,7.77-22.58,13.61A128.15,128.15,0,0,1,56.81,141c-1.64.16-5.18.44-9.72.53a130.6,130.6,0,0,1-19.29-1C11.05,138,.44,128.46,0,129.14s10,11.41,26.57,16.14c9.49,2.71,17.25,2.39,25.89,2a108.32,108.32,0,0,0,33.2-6.14c11-3.94,26.5-9.51,28.87-21.24,1.19-5.85-1.36-11-2.39-12.86C107.06,98.09,96.05,95.76,95.56,96.61Z"/><path class="cls-4" d="M40.47,63.82C19.31,69.85,8.89,90.21,14,105c3.51,10.22,14.33,17.62,27,19.22,4.79.35,10.69.63,17.46.61s10.42,0,14.58-.88c4.52-.89,10.57-2.09,16.53-6.76A30.35,30.35,0,0,0,100,102.43c3.1-9.9-.14-18.29-1.34-21.28A34.16,34.16,0,0,0,86.13,65.62c-9.89-6.56-20.57-5.69-29.8-4.93A71.41,71.41,0,0,0,40.47,63.82Z"/><path class="cls-5" d="M40.75,93.74c6.18,3.18,5,8,10.38,12,11.67,8.51,31.68-4,34.1.44,1.27,2.33-3.35,7.36-6.58,9.88-7.86,6.11-17.71,5.26-25,4.63-4.28-.37-8.09-.7-12.71-2.54-11.41-4.55-22.11-16-19.65-21.78C23.25,91.79,33.74,90.15,40.75,93.74Z"/><path class="cls-6" d="M19.52,78c-.65.84-10.65,14.18-5.24,27.88,3.3,8.34,10.66,12.66,12.9,14A33.66,33.66,0,0,0,41,124.31c7.07.52,13,.62,17.46.61A145,145,0,0,0,73,124c4.63-.5,7.3-1,10.25-2.42a24.3,24.3,0,0,0,6.28-4.34,74.54,74.54,0,0,1-31.25-4.87C34.69,103.14,23.07,84.31,19.52,78Z"/><path class="cls-7" d="M73,21.94a29,29,0,0,1,56.25,0,29.84,29.84,0,0,1,.25,7.13c-.24,2.73-.71,8-4.38,12.72A21.18,21.18,0,0,1,116.47,48c-5,2.23-9.06,2.31-17,2.39-5.82.06-10.31.06-15.91-1.75-3.56-1.14-6.48-2.11-8.82-4.93-2.74-3.37-3.07-7.43-3.27-10.36A27,27,0,0,1,73,21.94Z"/><path class="cls-5" d="M76,22.89c-1.74.34-2.63,7.15-.6,12.86A19.4,19.4,0,0,0,83,45.23c5.56,3.75,11.24,3.57,17.35,3.39,4.7-.15,9.18-.35,13.06-3.59.74-.62,4.43-3.7,3.69-5.49-1.62-3.85-20.5,6.13-31.62-1.89C78.29,32.46,78.14,22.46,76,22.89Z"/><path class="cls-8" d="M73,21.94A44,44,0,0,0,93.69,40.67a44.4,44.4,0,0,0,31.39,1.12A27.74,27.74,0,0,1,116.47,48c-5,2.27-9.09,2.31-17,2.39-5.82.06-10.31.06-15.91-1.75-3.56-1.14-6.48-2.11-8.82-4.93-2.81-3.38-3.15-7.44-3.39-10.37A27,27,0,0,1,73,21.94Z"/></g></g></g></g></svg>