<svg id="Layer_1" data-name="Layer 1" xmlns="http://www.w3.org/2000/svg" xmlns:xlink="http://www.w3.org/1999/xlink" viewBox="0 0 285.65 180.16"><defs><style>.cls-1,.cls-2{fill:none;}.cls-2{stroke:#63594c;stroke-width:1.44px;}.cls-3{fill:#dbcbab;}.cls-4{fill:#ada699;}.cls-5{fill:#878074;}.cls-6{fill:url(#New_Pattern_13);}.cls-7{fill:#bfbaa9;}.cls-8{fill:#fcc57b;}</style><pattern id="New_Pattern_13" data-name="New Pattern 13" width="72" height="72" patternTransform="matrix(0.97, -0.97, -0.97, -0.97, 86.95, 650.48)" patternUnits="userSpaceOnUse" viewBox="0 0 72 72"><rect class="cls-1" width="72" height="72"/><rect class="cls-1" width="72" height="72"/><line class="cls-2" x1="71.75" y1="3.6" x2="144.25" y2="3.6"/><line class="cls-2" x1="71.75" y1="18" x2="144.25" y2="18"/><line class="cls-2" x1="71.75" y1="32.4" x2="144.25" y2="32.4"/><line class="cls-2" x1="71.75" y1="46.8" x2="144.25" y2="46.8"/><line class="cls-2" x1="71.75" y1="61.2" x2="144.25" y2="61.2"/><line class="cls-2" x1="71.75" y1="10.8" x2="144.25" y2="10.8"/><line class="cls-2" x1="71.75" y1="25.2" x2="144.25" y2="25.2"/><line class="cls-2" x1="71.75" y1="39.6" x2="144.25" y2="39.6"/><line class="cls-2" x1="71.75" y1="54" x2="144.25" y2="54"/><line class="cls-2" x1="71.75" y1="68.4" x2="144.25" y2="68.4"/><line class="cls-2" x1="-0.25" y1="3.6" x2="72.25" y2="3.6"/><line class="cls-2" x1="-0.25" y1="18" x2="72.25" y2="18"/><line class="cls-2" x1="-0.25" y1="32.4" x2="72.25" y2="32.4"/><line class="cls-2" x1="-0.25" y1="46.8" x2="72.25" y2="46.8"/><line class="cls-2" x1="-0.25" y1="61.2" x2="72.25" y2="61.2"/><line class="cls-2" x1="-0.25" y1="10.8" x2="72.25" y2="10.8"/><line class="cls-2" x1="-0.25" y1="25.2" x2="72.25" y2="25.2"/><line class="cls-2" x1="-0.25" y1="39.6" x2="72.25" y2="39.6"/><line class="cls-2" x1="-0.25" y1="54" x2="72.25" y2="54"/><line class="cls-2" x1="-0.25" y1="68.4" x2="72.25" y2="68.4"/><line class="cls-2" x1="-72.25" y1="3.6" x2="0.25" y2="3.6"/><line class="cls-2" x1="-72.25" y1="18" x2="0.25" y2="18"/><line class="cls-2" x1="-72.25" y1="32.4" x2="0.25" y2="32.4"/><line class="cls-2" x1="-72.25" y1="46.8" x2="0.25" y2="46.8"/><line class="cls-2" x1="-72.25" y1="61.2" x2="0.25" y2="61.2"/><line class="cls-2" x1="-72.25" y1="10.8" x2="0.25" y2="10.8"/><line class="cls-2" x1="-72.25" y1="25.2" x2="0.25" y2="25.2"/><line class="cls-2" x1="-72.25" y1="39.6" x2="0.25" y2="39.6"/><line class="cls-2" x1="-72.25" y1="54" x2="0.25" y2="54"/><line class="cls-2" x1="-72.25" y1="68.4" x2="0.25" y2="68.4"/></pattern></defs><g id="Layer_2" data-name="Layer 2"><g id="regular"><g id="Layer_2-2" data-name="Layer 2-2"><g id="regular-2"><ellipse class="cls-3" cx="128.5" cy="128.05" rx="77.71" ry="18.11"/><path class="cls-3" d="M51.74,170.14c15.69-1.46,27.41-2.44,29.42-2.6,5.37-.46,31.93-2.7,56.31-7,37.51-6.58,71-12.87,81.23-35.23a23.94,23.94,0,0,0,2.76-11.4c-.53-14.33-16-20.19-36.47-40.58-14.28-14.2-25.24-25.1-23-36.13,2.12-10.44,15.09-16.09,25.28-20.62C199,11.3,210,10.23,231.8,8.14c8-.76,14.53-1.15,18.86-1.36v3.64a147.9,147.9,0,0,0-56.13,7.49C171.67,25.77,169,33.38,168.46,35.3c-2.83,9.72,5.45,19.92,12.11,28.14,10.83,13.34,21.27,18,40.72,37.81,2.82,2.87,7,7.19,7.56,13.46.25,2.62.24,9.2-8,18.41-12.36,13.81-31.4,20.48-63.77,27.55-16.09,3.51-27.45,6-46.09,8.41-45.38,5.88-84.42,4.61-84.45,3.67C26.52,172.48,34.93,171.7,51.74,170.14Z"/><path class="cls-3" d="M188.41,31.23c-.76-1.13-9.51,1.05-11.92,6.71-.82,2-2,6.82,6.55,18.06,15.05,19.9,30.54,20.43,46.22,40.47,3.16,4,6.13,8.63,7.18,14.86,1.69,10.07-2.69,18.35-4.21,21.13-2.46,4.5-6.59,9.85-18.4,17.27-5.71,3.59-18.92,11.24-49.08,19.31-17.26,4.62-26.09,5.64-26,6.32.15,1,21.73.69,45.19-6.32,21-6.28,33.51-14.91,36.47-17,15.61-11,20.46-21,22.83-26a26.93,26.93,0,0,0,2.5-9.89c.28-5.12-1.35-13.35-14.17-26.1-15.79-15.71-26.22-15.9-42.18-33-3.86-4.14-8.8-10.07-7.56-16.15C183,35.16,189.08,32.23,188.41,31.23Z"/><path class="cls-3" d="M203.74,54.73c-.9.3-1,2.21-1,2.72,0,5.9,19.13,15.25,32,26.93C241,90,255.5,103.23,254.45,118.87c-.67,10-7.48,16.84-18.56,27.88a110.35,110.35,0,0,1-32.72,22.33c-16.45,7.39-28.54,8.21-28.41,8.88.17.88,20.89.21,42-9.43a96.66,96.66,0,0,0,23.49-15.06,90.36,90.36,0,0,0,6.84-6.72c7.11-7.75,17.06-18.59,17.84-29.86.86-12.5-9.75-22.47-18.65-30.84-13.91-13.07-34-22-39.08-28.62C206.75,56.91,204.91,54.33,203.74,54.73Z"/><path class="cls-3" d="M221.29,62.57C227.75,66.48,236.66,72,247,79.1c16.1,10.9,24.18,16.49,26.69,21.77,7.65,16-2.34,39.26-14.77,51.64-9.41,9.39-23.81,16.13-33.52,20.67-8.46,4-14.46,5.93-14.23,6.69.34,1.14,14.85-1,29.07-6.87,7.92-3.26,17.58-7.24,26.89-16.51,3.73-3.72,17.93-17.87,18.48-39a38.6,38.6,0,0,0-2.73-17.13c-1.55-3.63-5.55-11.19-29.54-25.33a262.74,262.74,0,0,0-26.6-13.68Z"/><path class="cls-3" d="M181.75,13.14c.48,1.48-14.77,3.66-23,16.7a27.13,27.13,0,0,0-4.43,13c-.18,3.57.26,11.71,13.3,26.07,12.74,14,31.17,27,40.9,38.18a17.25,17.25,0,0,1,4.66,9.88,18,18,0,0,1-2,8.92c-3.87,7.4-27.66,25.4-90.23,30.45a262.22,262.22,0,0,1-40.71.34c-11-.79-41.91-3.72-59.14-19.94-2-1.9-4.52-4.62-4.6-8.18-.23-10.75,21.89-18.68,22.39-17.84s-15.22,6.91-15.06,16c.05,3,1.82,7.4,13.12,14,16.07,9.36,32.49,12,47.85,13.08a219.76,219.76,0,0,0,51.68-2.52c7.2-1.26,71.18-12.89,71.9-32.33.16-4.27-3.64-8.54-11.23-17.09-8.18-9.21-11.66-9.7-22.84-19.77C164,72.76,156.17,65.55,151.93,53.7c-1.52-4.22-3.56-10.16-2-17.55,2-9.87,9-15.59,11.42-17.38C170.33,12.1,181.36,11.91,181.75,13.14Z"/><path class="cls-3" d="M9.11,124.6c1,.7-4.28,5.87-3.57,11.93C7,149.87,36.37,156.75,40.3,157.68c15.68,3.68,26.91,2.25,26.93,3s-14.74,4.55-31.19.85c-17.51-3.94-37-16.2-36-26.76C.69,128.75,8,123.85,9.11,124.6Z"/><ellipse class="cls-3" cx="231.23" cy="52.17" rx="40.34" ry="12.04"/><path class="cls-4" d="M92.51,85.4c-12,3.43-31.32,9-33.08,20.81-.89,6,3,11.25,5.58,14.64,7.89,10.58,20.13,13.4,30,15.68,8.61,2,15.14,2,23.39,2.11,13.31.11,20,.17,26.94-3.25a37.92,37.92,0,0,0,17.5-18.52c1.69-3.88,5.13-11.76,1.82-19.09-1.26-2.79-3.44-5.37-7.28-7.83C147,83.29,123,76.62,92.51,85.4Z"/><path class="cls-5" d="M67.74,109.26c-1.13.67.55,8.44,5.79,14.49,6.23,7.17,14.67,8.67,28.07,10.85,14.86,2.41,26.11,4.08,37.38-2,1.35-.73,12.17-6.62,11.13-11.13-1.41-6.11-24.72-10.57-45.22-4.66-9.93,2.86-15.38,7.06-23,4.43C73,118.12,69,108.48,67.74,109.26Z"/><path class="cls-5" d="M91.55,87.73c-4.79.22-10.73.84-11,2.72-.38,2.35,8.11,5.68,12.75,7.16,7.76,2.47,9.59,1.3,32,2.56,5,.29,8,.52,11.75-1,5.2-2.15,11.19-7.49,10.19-10.92C145.61,82.89,125.68,83.12,91.55,87.73Z"/><path class="cls-6" d="M59.43,106.21a13.31,13.31,0,0,0-.21,4.87c.26,1.8,1,4.52,5.79,9.77a46.13,46.13,0,0,0,9.31,8.39c7.16,4.75,14.12,6,23.29,7.71,2,.37,5.28.91,9.33,1.28,2.13.2,4.22.32,11.46.41,14.54.18,17.71-.16,21.26-1.19a42.32,42.32,0,0,0,5.68-2.06,105.76,105.76,0,0,1-51.44-6.7A105.18,105.18,0,0,1,59.43,106.21Z"/><path class="cls-4" d="M245.19.65A81,81,0,0,0,226.71.42c-5.12.52-9.64,1-15.08,3.11-3.76,1.47-16.21,6.35-19.8,17.79a22.06,22.06,0,0,0-.93,7.27c.51,15.06,15.64,23.94,16.83,24.62,5.69,3.22,10.82,4,17.34,4.92a76.27,76.27,0,0,0,20.36.23A29,29,0,0,0,245.19.65Z"/><path class="cls-5" d="M245.35,38.71a62.78,62.78,0,0,1-20.52,1.87c-16.91-1.31-26.78-9.33-28.43-7.16s6.42,12.75,17.6,18.24C216.62,53,227.13,58,239.4,55a32.92,32.92,0,0,0,6-2.12c3.9-3.17,13-10.88,11.36-13.88C256.31,38.12,254.54,36.68,245.35,38.71Z"/><path class="cls-6" d="M245.19,47a63.09,63.09,0,0,1-25.51-4.09,61.77,61.77,0,0,1-27.85-21.59,23.21,23.21,0,0,0-.93,7.27c.47,15,15.85,24.06,16.83,24.62,5.69,3.22,10.82,4,17.34,4.92a76.27,76.27,0,0,0,20.36.23A29.11,29.11,0,0,0,266.25,46.2Z"/><path class="cls-7" d="M73.53,76.54c-.31,6.61,7.78,11.83,10.57,13.63,8.26,5.34,16.61,5.28,30.34,5,12.16-.24,18.34-.45,22.83-4.54,4.9-4.46,8-12.45,6-19.54a17.33,17.33,0,0,0-4.2-7.16C128.71,53,106.83,55.51,92.51,61.2,86.19,63.71,73.91,68.59,73.53,76.54Z"/><path class="cls-5" d="M97.28,59.73c-4.27,2.21-4.62,3.56-4.66,4.2-.28,4.49,12.52,12.16,23.42,8.63,7.18-2.32,13.74-9.58,12.27-13.63C126.26,53.34,108.88,53.71,97.28,59.73Z"/><path class="cls-5" d="M79.21,75.4c-2.1,2.74,2.59,12.11,10,15.34,4.79,2.09,6.55-.2,17,0,11.82.16,15.12,3.13,20.57.28,4.24-2.22,7.78-6.91,6.7-9.2-1.5-3.21-10.78,1-25,0C90.66,80.54,81.61,72.29,79.21,75.4Z"/><path class="cls-6" d="M71.58,76.54a14.68,14.68,0,0,0,1.14,4.66c2,4.57,5.84,6.89,9.43,9a39.22,39.22,0,0,0,9.82,4c4.84,1.27,6.25.79,20.52,1,7.07.08,15.6.3,20.8-3a18.47,18.47,0,0,0,2-1.52,18.76,18.76,0,0,0,5.5-8.51c-10.26,3.48-31.61,8.93-54.92,1A76,76,0,0,1,71.58,76.54Z"/><path class="cls-4" d="M90.83,51c1,9.66,11.76,16.66,21.13,16.1,7.14-.43,11.8-5.13,13.55-6.9,5.56-5.61,11.69-17.08,6.58-24.73-4.72-7.07-16.06-6.38-21.83-4.92C102.2,32.56,89.73,39.92,90.83,51Z"/><path class="cls-8" d="M102.12,38.17a.33.33,0,0,1,.14,0,.17.17,0,0,1,.13.2h0A5.13,5.13,0,1,0,112,39.66a.18.18,0,0,1,.16-.2h0a.2.2,0,0,1,.15.06c2.62,2.42,6.13,2.31,7.63.63a4.64,4.64,0,0,0,0-5.53,5.4,5.4,0,0,0-7.15-1.11c2.65.41,4.76-1.2,4.94-2.81.2-1.84-2.1-3.77-4.35-3.58a4.3,4.3,0,0,0-3.66,3.32,4.6,4.6,0,0,0-.28-1.09,5.17,5.17,0,0,0-.74-1.21c-1.22-1.39-6.53-1.61-7.44.41-.18.4-.5,1.61,0,2.06.1.1.38.3.37.57a1.23,1.23,0,0,1-.12.26c-.51.7-1.94-.25-3.29.19a3.59,3.59,0,0,0-2.11,2.82,3.34,3.34,0,0,0,.46,2.5C98,38.88,102,38.24,102.12,38.17Z"/><path class="cls-5" d="M96,50.51c-1.93,2.24.88,7.31,1.12,7.74,3.86,7,13.06,6.73,13.63,6.7,3.74-.16,9.93-1.76,10.22-4.54C121.6,55,100,46,96,50.51Z"/><path class="cls-6" d="M90.83,51a19.32,19.32,0,0,0,3.41,8.08,20.19,20.19,0,0,0,17.72,8c7.1-.59,11.61-5,13.55-6.9a26.65,26.65,0,0,0,6.25-9.67C129.13,52.72,112.52,62,101,57.79A26.07,26.07,0,0,1,90.83,51Z"/></g></g></g></g></svg>